G75*
%MOIN*%
%OFA0B0*%
%FSLAX24Y24*%
%IPPOS*%
%LPD*%
%AMOC8*
5,1,8,0,0,1.08239X$1,22.5*
%
%ADD10R,0.0709X0.0197*%
%ADD11R,0.0197X0.0709*%
D10*
X008086Y006085D03*
X008086Y006400D03*
X008086Y006715D03*
X008086Y007030D03*
X008086Y007345D03*
X008086Y007660D03*
X008086Y007975D03*
X008086Y008290D03*
X008086Y008605D03*
X008086Y008920D03*
X008086Y009235D03*
X012810Y009235D03*
X012810Y008920D03*
X012810Y008605D03*
X012810Y008290D03*
X012810Y007975D03*
X012810Y007660D03*
X012810Y007345D03*
X012810Y007030D03*
X012810Y006715D03*
X012810Y006400D03*
X012810Y006085D03*
D11*
X012023Y005298D03*
X011708Y005298D03*
X011393Y005298D03*
X011078Y005298D03*
X010763Y005298D03*
X010448Y005298D03*
X010133Y005298D03*
X009818Y005298D03*
X009503Y005298D03*
X009188Y005298D03*
X008873Y005298D03*
X008873Y010022D03*
X009188Y010022D03*
X009503Y010022D03*
X009818Y010022D03*
X010133Y010022D03*
X010448Y010022D03*
X010763Y010022D03*
X011078Y010022D03*
X011393Y010022D03*
X011708Y010022D03*
X012023Y010022D03*
M02*
