G75*
%MOIN*%
%OFA0B0*%
%FSLAX24Y24*%
%IPPOS*%
%LPD*%
%AMOC8*
5,1,8,0,0,1.08239X$1,22.5*
%
%ADD10C,0.0480*%
%ADD11OC8,0.0480*%
%ADD12C,0.0600*%
%ADD13OC8,0.0600*%
%ADD14C,0.0480*%
%ADD15R,0.0531X0.0531*%
%ADD16C,0.0240*%
%ADD17C,0.0160*%
%ADD18R,0.0376X0.0376*%
%ADD19C,0.0120*%
D10*
X006208Y013910D02*
X006688Y013910D01*
X006688Y014910D02*
X006208Y014910D01*
X006208Y015910D02*
X006688Y015910D01*
X006688Y016910D02*
X006208Y016910D01*
X006208Y017910D02*
X006688Y017910D01*
X006688Y018910D02*
X006208Y018910D01*
X006208Y019910D02*
X006688Y019910D01*
X006448Y024670D02*
X006448Y025150D01*
X005448Y025150D02*
X005448Y024670D01*
X004448Y024670D02*
X004448Y025150D01*
X003448Y025150D02*
X003448Y024670D01*
X002448Y024670D02*
X002448Y025150D01*
X002448Y027670D02*
X002448Y028150D01*
X003448Y028150D02*
X003448Y027670D01*
X004448Y027670D02*
X004448Y028150D01*
X005448Y028150D02*
X005448Y027670D01*
X006448Y027670D02*
X006448Y028150D01*
X007448Y028150D02*
X007448Y027670D01*
X008448Y027670D02*
X008448Y028150D01*
X010198Y026900D02*
X010198Y026420D01*
X011198Y026420D02*
X011198Y026900D01*
X012198Y026900D02*
X012198Y026420D01*
X013198Y026420D02*
X013198Y026900D01*
X014198Y026900D02*
X014198Y026420D01*
X015198Y026420D02*
X015198Y026900D01*
X016198Y026900D02*
X016198Y026420D01*
X017458Y026910D02*
X017938Y026910D01*
X017938Y027910D02*
X017458Y027910D01*
X017458Y028910D02*
X017938Y028910D01*
X017938Y029910D02*
X017458Y029910D01*
X016198Y029900D02*
X016198Y029420D01*
X015198Y029420D02*
X015198Y029900D01*
X014198Y029900D02*
X014198Y029420D01*
X013198Y029420D02*
X013198Y029900D01*
X012198Y029900D02*
X012198Y029420D01*
X011198Y029420D02*
X011198Y029900D01*
X010198Y029900D02*
X010198Y029420D01*
X008448Y030670D02*
X008448Y031150D01*
X007448Y031150D02*
X007448Y030670D01*
X006448Y030670D02*
X006448Y031150D01*
X005448Y031150D02*
X005448Y030670D01*
X004448Y030670D02*
X004448Y031150D01*
X003448Y031150D02*
X003448Y030670D01*
X002448Y030670D02*
X002448Y031150D01*
X002448Y033670D02*
X002448Y034150D01*
X003448Y034150D02*
X003448Y033670D01*
X004448Y033670D02*
X004448Y034150D01*
X005448Y034150D02*
X005448Y033670D01*
X006448Y033670D02*
X006448Y034150D01*
X007448Y034150D02*
X007448Y033670D01*
X008448Y033670D02*
X008448Y034150D01*
X008448Y025150D02*
X008448Y024670D01*
X007448Y024670D02*
X007448Y025150D01*
X012958Y016910D02*
X013438Y016910D01*
X013438Y015910D02*
X012958Y015910D01*
X012958Y014910D02*
X013438Y014910D01*
X016208Y014910D02*
X016688Y014910D01*
X017458Y014910D02*
X017938Y014910D01*
X017938Y013910D02*
X017458Y013910D01*
X016688Y013910D02*
X016208Y013910D01*
X016208Y012910D02*
X016688Y012910D01*
X017458Y012910D02*
X017938Y012910D01*
X017938Y011910D02*
X017458Y011910D01*
X016688Y011910D02*
X016208Y011910D01*
X016208Y010910D02*
X016688Y010910D01*
X017458Y010910D02*
X017938Y010910D01*
X017938Y009910D02*
X017458Y009910D01*
X016688Y009910D02*
X016208Y009910D01*
X016208Y008910D02*
X016688Y008910D01*
X017458Y008910D02*
X017938Y008910D01*
X017938Y007910D02*
X017458Y007910D01*
X016688Y007910D02*
X016208Y007910D01*
X016208Y006910D02*
X016688Y006910D01*
X017458Y006910D02*
X017938Y006910D01*
X017938Y005910D02*
X017458Y005910D01*
X016688Y005910D02*
X016208Y005910D01*
X016208Y004910D02*
X016688Y004910D01*
X017458Y004910D02*
X017938Y004910D01*
X017938Y003910D02*
X017458Y003910D01*
X016688Y003910D02*
X016208Y003910D01*
X016208Y002910D02*
X016688Y002910D01*
X017458Y002910D02*
X017938Y002910D01*
X022208Y002910D02*
X022688Y002910D01*
X023458Y002910D02*
X023938Y002910D01*
X023938Y003910D02*
X023458Y003910D01*
X022688Y003910D02*
X022208Y003910D01*
X022208Y004910D02*
X022688Y004910D01*
X023458Y004910D02*
X023938Y004910D01*
X023938Y005910D02*
X023458Y005910D01*
X022688Y005910D02*
X022208Y005910D01*
X022208Y006910D02*
X022688Y006910D01*
X023458Y006910D02*
X023938Y006910D01*
X023938Y007910D02*
X023458Y007910D01*
X022688Y007910D02*
X022208Y007910D01*
X022208Y008910D02*
X022688Y008910D01*
X023458Y008910D02*
X023938Y008910D01*
X023938Y009910D02*
X023458Y009910D01*
X022688Y009910D02*
X022208Y009910D01*
X022208Y010910D02*
X022688Y010910D01*
X023458Y010910D02*
X023938Y010910D01*
X023938Y011910D02*
X023458Y011910D01*
X022688Y011910D02*
X022208Y011910D01*
X022208Y012910D02*
X022688Y012910D01*
X023458Y012910D02*
X023938Y012910D01*
X023938Y013910D02*
X023458Y013910D01*
X022688Y013910D02*
X022208Y013910D01*
X022208Y014910D02*
X022688Y014910D01*
X023458Y014910D02*
X023938Y014910D01*
X023938Y015910D02*
X023458Y015910D01*
X022688Y015910D02*
X022208Y015910D01*
X022208Y016910D02*
X022688Y016910D01*
X023458Y016910D02*
X023938Y016910D01*
X023938Y017910D02*
X023458Y017910D01*
X022688Y017910D02*
X022208Y017910D01*
X022208Y018910D02*
X022688Y018910D01*
X023458Y018910D02*
X023938Y018910D01*
X023938Y019910D02*
X023458Y019910D01*
X022688Y019910D02*
X022208Y019910D01*
X022208Y020910D02*
X022688Y020910D01*
X023458Y020910D02*
X023938Y020910D01*
X023938Y021910D02*
X023458Y021910D01*
X022688Y021910D02*
X022208Y021910D01*
X020938Y023910D02*
X020458Y023910D01*
X020458Y024910D02*
X020938Y024910D01*
X020938Y025910D02*
X020458Y025910D01*
X020458Y026910D02*
X020938Y026910D01*
X020938Y027910D02*
X020458Y027910D01*
X020458Y028910D02*
X020938Y028910D01*
X020938Y029910D02*
X020458Y029910D01*
X017938Y025910D02*
X017458Y025910D01*
X017458Y024910D02*
X017938Y024910D01*
X017938Y023910D02*
X017458Y023910D01*
X017458Y021910D02*
X017938Y021910D01*
X017938Y020910D02*
X017458Y020910D01*
X016688Y020910D02*
X016208Y020910D01*
X016208Y019910D02*
X016688Y019910D01*
X017458Y019910D02*
X017938Y019910D01*
X017938Y018910D02*
X017458Y018910D01*
X016688Y018910D02*
X016208Y018910D01*
X016208Y017910D02*
X016688Y017910D01*
X017458Y017910D02*
X017938Y017910D01*
X017938Y016910D02*
X017458Y016910D01*
X016688Y016910D02*
X016208Y016910D01*
X016208Y015910D02*
X016688Y015910D01*
X017458Y015910D02*
X017938Y015910D01*
X016688Y021910D02*
X016208Y021910D01*
X026208Y016910D02*
X026688Y016910D01*
X026688Y015910D02*
X026208Y015910D01*
X026208Y014910D02*
X026688Y014910D01*
X026688Y013910D02*
X026208Y013910D01*
X026208Y012910D02*
X026688Y012910D01*
X026688Y011910D02*
X026208Y011910D01*
X026208Y010910D02*
X026688Y010910D01*
X026688Y009910D02*
X026208Y009910D01*
X026208Y008910D02*
X026688Y008910D01*
X026688Y007910D02*
X026208Y007910D01*
X026208Y006910D02*
X026688Y006910D01*
X026688Y005910D02*
X026208Y005910D01*
X026208Y004910D02*
X026688Y004910D01*
X026688Y003910D02*
X026208Y003910D01*
X026208Y002910D02*
X026688Y002910D01*
X026688Y001910D02*
X026208Y001910D01*
X032208Y001910D02*
X032688Y001910D01*
X032688Y002910D02*
X032208Y002910D01*
X032208Y003910D02*
X032688Y003910D01*
X032688Y004910D02*
X032208Y004910D01*
X032208Y005910D02*
X032688Y005910D01*
X032688Y006910D02*
X032208Y006910D01*
X032208Y007910D02*
X032688Y007910D01*
X032688Y008910D02*
X032208Y008910D01*
X032208Y009910D02*
X032688Y009910D01*
X032688Y010910D02*
X032208Y010910D01*
X032208Y011910D02*
X032688Y011910D01*
X032688Y012910D02*
X032208Y012910D01*
X032208Y013910D02*
X032688Y013910D01*
X032688Y014910D02*
X032208Y014910D01*
X032208Y015910D02*
X032688Y015910D01*
X032688Y016910D02*
X032208Y016910D01*
X033958Y016910D02*
X034438Y016910D01*
X033958Y016910D01*
X033958Y015910D02*
X034438Y015910D01*
X033958Y015910D01*
X033958Y014910D02*
X034438Y014910D01*
X033958Y014910D01*
X033958Y013910D02*
X034438Y013910D01*
X033958Y013910D01*
X033958Y012910D02*
X034438Y012910D01*
X033958Y012910D01*
X033958Y011910D02*
X034438Y011910D01*
X033958Y011910D01*
X033958Y010910D02*
X034438Y010910D01*
X033958Y010910D01*
X033958Y009910D02*
X034438Y009910D01*
X033958Y009910D01*
X033958Y008910D02*
X034438Y008910D01*
X033958Y008910D01*
X033958Y007910D02*
X034438Y007910D01*
X033958Y007910D01*
X033958Y006910D02*
X034438Y006910D01*
X033958Y006910D01*
X033958Y005910D02*
X034438Y005910D01*
X033958Y005910D01*
X033958Y004910D02*
X034438Y004910D01*
X033958Y004910D01*
X033958Y003910D02*
X034438Y003910D01*
X033958Y003910D01*
X036958Y003910D02*
X037438Y003910D01*
X037438Y004910D02*
X036958Y004910D01*
X036958Y005910D02*
X037438Y005910D01*
X037438Y006910D02*
X036958Y006910D01*
X036958Y007910D02*
X037438Y007910D01*
X037438Y008910D02*
X036958Y008910D01*
X036958Y009910D02*
X037438Y009910D01*
X037438Y010910D02*
X036958Y010910D01*
X036958Y011910D02*
X037438Y011910D01*
X037438Y012910D02*
X036958Y012910D01*
X036958Y013910D02*
X037438Y013910D01*
X037438Y014910D02*
X036958Y014910D01*
X036958Y015910D02*
X037438Y015910D01*
X037438Y016910D02*
X036958Y016910D01*
X039958Y016910D02*
X040438Y016910D01*
X040438Y015910D02*
X039958Y015910D01*
X039958Y014910D02*
X040438Y014910D01*
X040438Y013910D02*
X039958Y013910D01*
X039958Y012910D02*
X040438Y012910D01*
X040438Y011910D02*
X039958Y011910D01*
X039958Y010910D02*
X040438Y010910D01*
X040438Y009910D02*
X039958Y009910D01*
X039958Y008910D02*
X040438Y008910D01*
X040438Y007910D02*
X039958Y007910D01*
X039958Y006910D02*
X040438Y006910D01*
X040438Y005910D02*
X039958Y005910D01*
X039958Y004910D02*
X040438Y004910D01*
X040438Y003910D02*
X039958Y003910D01*
D11*
X034198Y002910D03*
X034198Y001910D03*
X028198Y002910D03*
X028198Y003910D03*
X019948Y014910D03*
X019948Y018910D03*
X015448Y014910D03*
X014448Y014910D03*
X011198Y016910D03*
X009698Y015910D03*
X009698Y014910D03*
X013698Y011410D03*
X013698Y010410D03*
X010448Y003160D03*
X009448Y003160D03*
X008198Y021910D03*
X008198Y022910D03*
X010198Y023910D03*
X010198Y024910D03*
X011198Y024910D03*
X011198Y023910D03*
X011198Y022910D03*
X012198Y023910D03*
X012198Y024910D03*
X013198Y024910D03*
X015198Y023910D03*
X011198Y021910D03*
X003948Y022910D03*
X002948Y022910D03*
X009448Y032160D03*
X009448Y033160D03*
X009448Y035160D03*
X008198Y035160D03*
X005198Y035160D03*
X004448Y035160D03*
X003448Y035160D03*
X012448Y035160D03*
X019698Y030910D03*
X020698Y030910D03*
D12*
X021648Y030910D02*
X022248Y030910D01*
X022248Y029910D02*
X021648Y029910D01*
X015248Y021910D02*
X014648Y021910D01*
X014648Y020910D02*
X015248Y020910D01*
X009998Y020660D02*
X009398Y020660D01*
X009398Y019660D02*
X009998Y019660D01*
X003248Y019910D02*
X002648Y019910D01*
X002648Y018910D02*
X003248Y018910D01*
X025148Y019410D02*
X025748Y019410D01*
X025748Y020410D02*
X025148Y020410D01*
X025148Y021410D02*
X025748Y021410D01*
D13*
X016198Y027910D03*
X015198Y027910D03*
X014198Y027910D03*
X013198Y027910D03*
X012198Y027910D03*
X011198Y027910D03*
X010198Y027910D03*
X010198Y030910D03*
X011198Y030910D03*
X012198Y030910D03*
X013198Y030910D03*
X014198Y030910D03*
X015198Y030910D03*
X016198Y030910D03*
X007698Y003160D03*
X006698Y003160D03*
X005698Y003160D03*
X005698Y002160D03*
X006698Y002160D03*
X007698Y002160D03*
D14*
X011198Y014910D03*
X005948Y023910D03*
X002948Y023910D03*
X014698Y032160D03*
X014698Y035160D03*
D15*
X017448Y035410D03*
X017448Y036410D03*
X017448Y037410D03*
X017448Y039410D03*
D16*
X017448Y035410D02*
X017448Y032910D01*
X017448Y031660D01*
X017698Y031410D01*
X020448Y031410D01*
X020698Y031160D01*
X020698Y030910D01*
X020698Y029910D01*
X017448Y032910D02*
X011198Y032910D01*
X010448Y032160D01*
X009448Y032160D01*
X008448Y032160D01*
X008448Y030910D01*
X008448Y032160D02*
X007448Y032160D01*
X007448Y033910D01*
X007448Y032160D02*
X003698Y032160D01*
X003448Y031910D02*
X003448Y030910D01*
X003448Y029660D01*
X003698Y029410D01*
X005448Y029410D01*
X005448Y027910D01*
X005448Y029410D02*
X006698Y029410D01*
X006948Y029160D01*
X006948Y026910D01*
X007448Y026410D01*
X007448Y024910D01*
X008448Y024910D01*
X010198Y024910D01*
X011198Y024910D02*
X011198Y023910D01*
X011198Y023410D01*
X011198Y022910D01*
X011198Y023410D02*
X012198Y023410D01*
X012198Y024910D01*
X012198Y023910D01*
X012198Y023410D02*
X016448Y023410D01*
X016948Y023910D01*
X017698Y023910D01*
X017698Y021910D02*
X017448Y021910D01*
X016948Y021410D01*
X015948Y021410D01*
X015448Y020910D01*
X014948Y020910D01*
X014948Y021910D02*
X016448Y021910D01*
X015198Y016910D02*
X013198Y016910D01*
X012198Y016910D01*
X011948Y017160D01*
X011948Y018910D01*
X007948Y018910D01*
X006948Y019910D01*
X006448Y019910D01*
X008948Y016910D02*
X008448Y016410D01*
X002198Y016410D01*
X001948Y016660D01*
X001948Y020910D01*
X002198Y020660D01*
X002948Y020660D01*
X002948Y022910D01*
X001948Y020910D02*
X001948Y026160D01*
X002448Y026660D01*
X002448Y027910D01*
X002448Y028910D01*
X001948Y029410D01*
X001948Y032160D01*
X002448Y032660D01*
X002448Y033910D01*
X002448Y035660D01*
X002698Y035910D01*
X003448Y035910D01*
X009198Y035910D01*
X009448Y035660D01*
X009448Y035160D01*
X009448Y033160D01*
X003448Y035160D02*
X003448Y035910D01*
X002948Y020660D02*
X009698Y020660D01*
X008948Y016910D02*
X011198Y016910D01*
X011198Y015910D01*
X013198Y015910D01*
X014198Y015910D01*
X014448Y015660D01*
X014448Y014910D01*
X014448Y011410D01*
X013698Y011410D01*
X014448Y011410D02*
X014448Y008160D01*
X014448Y002660D01*
X014698Y002410D01*
X020948Y002410D01*
X021448Y002910D01*
X022448Y002910D01*
X023698Y002910D02*
X023698Y001660D01*
X023948Y001410D01*
X028198Y001410D01*
X028198Y002910D01*
X028198Y003910D02*
X029198Y003910D01*
X029698Y003410D01*
X033198Y003410D01*
X033698Y003910D01*
X034198Y003910D01*
X034198Y002910D01*
X034198Y001910D02*
X034198Y001660D01*
X033948Y001410D01*
X028198Y001410D01*
X026448Y001910D02*
X026448Y002910D01*
X026448Y003910D01*
X028198Y003910D01*
X019948Y014910D02*
X019948Y016160D01*
X020198Y016410D01*
X028198Y016410D01*
X032448Y016910D02*
X033198Y016910D01*
X033698Y017410D01*
X035448Y017410D01*
X035948Y016910D01*
X037198Y016910D01*
X017698Y014910D02*
X016448Y014910D01*
X015448Y014910D01*
X015448Y016660D01*
X015198Y016910D01*
X013198Y014910D02*
X012948Y014910D01*
X012948Y010660D01*
X013198Y010410D01*
X013698Y010410D01*
X014448Y008160D02*
X010698Y008160D01*
X010448Y007910D01*
X010448Y003160D01*
X010448Y002410D01*
X010198Y002160D01*
X007698Y002160D01*
X007698Y003160D02*
X008448Y003160D01*
X008448Y014660D01*
X008698Y014910D01*
X009698Y014910D01*
X011198Y014910D01*
X012948Y014910D01*
X011198Y015910D02*
X009698Y015910D01*
X009448Y003160D02*
X008448Y003160D01*
D17*
X022448Y002910D02*
X023698Y002910D01*
X003448Y031910D02*
X003698Y032160D01*
D18*
X024698Y017910D03*
X028198Y016410D03*
X019198Y003410D03*
X012886Y005223D03*
D19*
X005698Y002160D02*
X005698Y001910D01*
X005948Y001660D01*
X012698Y001660D01*
X012886Y001848D01*
X012886Y005223D01*
X016448Y004910D02*
X017698Y004910D01*
X017698Y003910D02*
X016448Y003910D01*
X016448Y002910D02*
X017698Y002910D01*
X019198Y003410D02*
X024448Y003410D01*
X024698Y003660D01*
X024698Y005660D01*
X024948Y005910D01*
X026448Y005910D01*
X029198Y005910D01*
X029698Y005410D01*
X033198Y005410D01*
X033698Y005910D01*
X034198Y005910D01*
X033698Y005410D02*
X035448Y005410D01*
X035948Y004910D01*
X037198Y004910D01*
X040198Y004910D01*
X040198Y003910D02*
X037198Y003910D01*
X035698Y003910D01*
X035198Y004410D01*
X029698Y004410D01*
X029198Y004910D01*
X026448Y004910D01*
X026448Y006910D02*
X029198Y006910D01*
X029698Y006410D01*
X033198Y006410D01*
X033698Y006910D01*
X034198Y006910D01*
X033698Y006410D02*
X035448Y006410D01*
X035948Y005910D01*
X037198Y005910D01*
X040198Y005910D01*
X040198Y006910D02*
X037198Y006910D01*
X035948Y006910D01*
X035448Y007410D01*
X033698Y007410D01*
X033198Y006910D01*
X032448Y006910D01*
X029698Y006910D01*
X029198Y007410D01*
X020448Y007410D01*
X019948Y007910D01*
X017698Y007910D01*
X016448Y007910D01*
X016448Y006910D02*
X017698Y006910D01*
X019948Y006910D01*
X020448Y006410D01*
X029198Y006410D01*
X029698Y005910D01*
X032448Y005910D01*
X033198Y005910D01*
X033698Y006410D01*
X033698Y005410D02*
X033198Y004910D01*
X032448Y004910D01*
X032448Y006910D02*
X031948Y006910D01*
X032448Y007910D02*
X029698Y007910D01*
X029198Y008410D01*
X020448Y008410D01*
X019948Y008910D01*
X017698Y008910D01*
X016448Y008910D01*
X016448Y009910D02*
X017698Y009910D01*
X019948Y009910D01*
X020448Y009410D01*
X029198Y009410D01*
X029698Y008910D01*
X032448Y008910D01*
X033198Y008910D01*
X033698Y009410D01*
X035448Y009410D01*
X035948Y008910D01*
X037198Y008910D01*
X040198Y008910D01*
X040198Y007910D02*
X037198Y007910D01*
X035948Y007910D01*
X035448Y008410D01*
X033698Y008410D01*
X033198Y007910D01*
X032448Y007910D01*
X033198Y007410D02*
X029698Y007410D01*
X029198Y007910D01*
X026448Y007910D01*
X026448Y008910D02*
X029198Y008910D01*
X029698Y008410D01*
X033198Y008410D01*
X033698Y008910D01*
X034198Y008910D01*
X034198Y007910D02*
X033698Y007910D01*
X033198Y007410D01*
X033198Y009410D02*
X033698Y009910D01*
X034198Y009910D01*
X033698Y010410D02*
X035448Y010410D01*
X035948Y009910D01*
X037198Y009910D01*
X040198Y009910D01*
X040198Y010910D02*
X037198Y010910D01*
X035948Y010910D01*
X035448Y011410D01*
X033698Y011410D01*
X033198Y010910D01*
X032448Y010910D01*
X029698Y010910D01*
X029198Y011410D01*
X020448Y011410D01*
X019948Y011910D01*
X017698Y011910D01*
X016448Y011910D01*
X016448Y010910D02*
X017698Y010910D01*
X019948Y010910D01*
X020448Y010410D01*
X029198Y010410D01*
X029698Y009910D01*
X032448Y009910D01*
X033198Y009910D01*
X033698Y010410D01*
X033198Y010410D02*
X033698Y010910D01*
X034198Y010910D01*
X033198Y010410D02*
X029698Y010410D01*
X029198Y010910D01*
X026448Y010910D01*
X026448Y009910D02*
X029198Y009910D01*
X029698Y009410D01*
X033198Y009410D01*
X033198Y011910D02*
X032448Y011910D01*
X029698Y011910D01*
X029198Y012410D01*
X020448Y012410D01*
X019948Y012910D01*
X017698Y012910D01*
X016448Y012910D01*
X016448Y013910D02*
X017698Y013910D01*
X019948Y013910D01*
X020448Y013410D01*
X029198Y013410D01*
X029698Y012910D01*
X032448Y012910D01*
X033198Y012910D01*
X033698Y013410D01*
X035448Y013410D01*
X035948Y012910D01*
X037198Y012910D01*
X040198Y012910D01*
X040198Y011910D02*
X037198Y011910D01*
X035948Y011910D01*
X035448Y012410D01*
X033698Y012410D01*
X033198Y011910D01*
X033198Y012410D02*
X029698Y012410D01*
X029198Y012910D01*
X026448Y012910D01*
X026448Y013910D02*
X029198Y013910D01*
X029698Y013410D01*
X033198Y013410D01*
X033698Y013910D01*
X034198Y013910D01*
X033698Y014410D02*
X035448Y014410D01*
X035948Y013910D01*
X037198Y013910D01*
X040198Y013910D01*
X040198Y014910D02*
X037198Y014910D01*
X035948Y014910D01*
X035448Y015410D01*
X033698Y015410D01*
X033198Y014910D01*
X032448Y014910D01*
X029698Y014910D01*
X029198Y015410D01*
X021948Y015410D01*
X021698Y015160D01*
X021698Y014160D01*
X021948Y013910D01*
X022448Y013910D01*
X023698Y013910D01*
X023698Y014910D02*
X025198Y014910D01*
X025698Y014410D01*
X029198Y014410D01*
X029698Y013910D01*
X032448Y013910D01*
X033198Y013910D01*
X033698Y014410D01*
X033198Y014410D02*
X033698Y014910D01*
X034198Y014910D01*
X034198Y015910D02*
X033698Y015910D01*
X033198Y015410D01*
X029698Y015410D01*
X029198Y015910D01*
X026448Y015910D01*
X026448Y014910D02*
X029198Y014910D01*
X029698Y014410D01*
X033198Y014410D01*
X033198Y015910D02*
X032448Y015910D01*
X033198Y015910D02*
X033698Y016410D01*
X035448Y016410D01*
X035948Y015910D01*
X037198Y015910D01*
X037948Y015910D01*
X037948Y017660D01*
X037698Y017910D01*
X024698Y017910D01*
X023698Y017910D02*
X022448Y017910D01*
X020198Y017910D01*
X019948Y018160D01*
X019948Y018910D01*
X017698Y018910D02*
X016448Y018910D01*
X016448Y019910D02*
X017698Y019910D01*
X017698Y020910D02*
X016448Y020910D01*
X016448Y017910D02*
X017698Y017910D01*
X017698Y016910D02*
X016448Y016910D01*
X016448Y015910D02*
X017698Y015910D01*
X022448Y015910D02*
X023698Y015910D01*
X023698Y014910D02*
X022448Y014910D01*
X022448Y016910D02*
X023698Y016910D01*
X023698Y018910D02*
X022448Y018910D01*
X022448Y019910D02*
X023698Y019910D01*
X022698Y020910D02*
X023198Y021410D01*
X025448Y021410D01*
X023698Y021910D02*
X022448Y021910D01*
X022448Y020910D02*
X022698Y020910D01*
X021698Y023910D02*
X020698Y023910D01*
X019948Y024410D02*
X021448Y024410D01*
X021698Y024660D01*
X021698Y028160D01*
X021448Y028410D01*
X019448Y028410D01*
X018948Y027910D01*
X017698Y027910D01*
X017198Y028410D02*
X018948Y028410D01*
X019448Y028910D01*
X020698Y028910D01*
X021698Y029410D02*
X021948Y029160D01*
X021948Y024160D01*
X021698Y023910D01*
X021198Y025410D02*
X021448Y025660D01*
X021448Y026660D01*
X021198Y026910D01*
X020698Y026910D01*
X020698Y025910D02*
X019448Y025910D01*
X019198Y025660D01*
X019198Y025160D01*
X018948Y024910D01*
X017698Y024910D01*
X018198Y025410D02*
X018448Y025660D01*
X018448Y026660D01*
X018198Y026910D01*
X017698Y026910D01*
X016948Y026160D02*
X017198Y025910D01*
X017698Y025910D01*
X018198Y025410D02*
X016698Y025410D01*
X016198Y025910D01*
X015448Y025910D01*
X015198Y026160D01*
X015198Y026660D01*
X016948Y026160D02*
X016948Y028160D01*
X017198Y028410D01*
X016698Y028660D02*
X016948Y028910D01*
X017698Y028910D01*
X016948Y029410D02*
X021698Y029410D01*
X021198Y025410D02*
X019698Y025410D01*
X019448Y025160D01*
X019448Y022910D01*
X019198Y022660D01*
X011698Y022660D01*
X011448Y022410D01*
X005198Y022410D01*
X004948Y022660D01*
X004948Y026160D01*
X004698Y026410D01*
X003698Y026410D01*
X003448Y026660D01*
X003448Y027910D01*
X003948Y027410D02*
X003948Y028660D01*
X002948Y029660D01*
X002948Y032160D01*
X003448Y032660D01*
X003448Y033910D01*
X004448Y033910D02*
X004448Y035160D01*
X005198Y035160D01*
X005448Y033910D02*
X005448Y033410D01*
X005698Y033160D01*
X006698Y033160D01*
X006948Y033410D01*
X006948Y034410D01*
X007198Y034660D01*
X008198Y034660D01*
X008448Y034410D01*
X008448Y033910D01*
X008198Y035160D02*
X006698Y035160D01*
X006448Y034910D01*
X006448Y033910D01*
X005698Y031660D02*
X007698Y031660D01*
X007948Y031410D01*
X007948Y029910D01*
X008448Y029410D01*
X008448Y027910D01*
X007448Y027910D02*
X007448Y029660D01*
X007198Y029910D01*
X006698Y029910D01*
X006448Y030160D01*
X006448Y030910D01*
X005448Y030910D02*
X005448Y031410D01*
X005698Y031660D01*
X002948Y029160D02*
X002948Y023910D01*
X003948Y023660D02*
X003948Y022910D01*
X003948Y022160D01*
X004198Y021910D01*
X008198Y021910D01*
X008198Y022910D02*
X008198Y023910D01*
X010198Y023910D01*
X011948Y022410D02*
X011448Y021910D01*
X011198Y021910D01*
X009948Y021910D01*
X009448Y021410D01*
X003698Y021410D01*
X003448Y021660D01*
X003448Y024910D01*
X004448Y024910D02*
X004448Y024160D01*
X003948Y023660D01*
X005948Y023910D02*
X006448Y023910D01*
X008198Y023910D01*
X006448Y023910D02*
X006448Y024910D01*
X006198Y027160D02*
X004198Y027160D01*
X003948Y027410D01*
X002948Y029160D02*
X002448Y029660D01*
X002448Y030910D01*
X006198Y027160D02*
X006448Y027410D01*
X006448Y027910D01*
X011698Y028660D02*
X011698Y026160D01*
X011948Y025910D01*
X012948Y025910D01*
X013198Y025660D01*
X013198Y024910D01*
X013198Y024160D01*
X013448Y023910D01*
X015198Y023910D01*
X011948Y022410D02*
X019448Y022410D01*
X019698Y022660D01*
X019698Y024160D01*
X019948Y024410D01*
X016698Y028660D02*
X012448Y028660D01*
X012198Y028410D01*
X012198Y027910D01*
X011698Y028660D02*
X011948Y028910D01*
X014698Y028910D01*
X014698Y032160D01*
X016948Y029410D02*
X016448Y028910D01*
X014698Y028910D01*
X002948Y019910D02*
X002948Y018910D01*
X016448Y005910D02*
X017698Y005910D01*
X022448Y005910D02*
X023698Y005910D01*
X023698Y006910D02*
X022448Y006910D01*
X022448Y007910D02*
X023698Y007910D01*
X023698Y008910D02*
X022448Y008910D01*
X022448Y009910D02*
X023698Y009910D01*
X023698Y010910D02*
X022448Y010910D01*
X022448Y011910D02*
X023698Y011910D01*
X023698Y012910D02*
X022448Y012910D01*
X026448Y016910D02*
X029448Y016910D01*
X029948Y016410D01*
X033198Y016410D01*
X033698Y016910D01*
X034198Y016910D01*
X037948Y015910D02*
X040198Y015910D01*
X034198Y012910D02*
X033698Y012910D01*
X033198Y012410D01*
X023698Y004910D02*
X022448Y004910D01*
X022448Y003910D02*
X023698Y003910D01*
M02*
