G75*
%MOIN*%
%OFA0B0*%
%FSLAX24Y24*%
%IPPOS*%
%LPD*%
%AMOC8*
5,1,8,0,0,1.08239X$1,22.5*
%
%ADD10C,0.0560*%
%ADD11OC8,0.0560*%
%ADD12C,0.0680*%
%ADD13OC8,0.0680*%
%ADD14C,0.0560*%
%ADD15R,0.0611X0.0611*%
%ADD16R,0.0456X0.0456*%
D10*
X006208Y013910D02*
X006688Y013910D01*
X006688Y014910D02*
X006208Y014910D01*
X006208Y015910D02*
X006688Y015910D01*
X006688Y016910D02*
X006208Y016910D01*
X006208Y017910D02*
X006688Y017910D01*
X006688Y018910D02*
X006208Y018910D01*
X006208Y019910D02*
X006688Y019910D01*
X006448Y024670D02*
X006448Y025150D01*
X005448Y025150D02*
X005448Y024670D01*
X004448Y024670D02*
X004448Y025150D01*
X003448Y025150D02*
X003448Y024670D01*
X002448Y024670D02*
X002448Y025150D01*
X002448Y027670D02*
X002448Y028150D01*
X003448Y028150D02*
X003448Y027670D01*
X004448Y027670D02*
X004448Y028150D01*
X005448Y028150D02*
X005448Y027670D01*
X006448Y027670D02*
X006448Y028150D01*
X007448Y028150D02*
X007448Y027670D01*
X008448Y027670D02*
X008448Y028150D01*
X010198Y026900D02*
X010198Y026420D01*
X011198Y026420D02*
X011198Y026900D01*
X012198Y026900D02*
X012198Y026420D01*
X013198Y026420D02*
X013198Y026900D01*
X014198Y026900D02*
X014198Y026420D01*
X015198Y026420D02*
X015198Y026900D01*
X016198Y026900D02*
X016198Y026420D01*
X017458Y026910D02*
X017938Y026910D01*
X017938Y027910D02*
X017458Y027910D01*
X017458Y028910D02*
X017938Y028910D01*
X017938Y029910D02*
X017458Y029910D01*
X016198Y029900D02*
X016198Y029420D01*
X015198Y029420D02*
X015198Y029900D01*
X014198Y029900D02*
X014198Y029420D01*
X013198Y029420D02*
X013198Y029900D01*
X012198Y029900D02*
X012198Y029420D01*
X011198Y029420D02*
X011198Y029900D01*
X010198Y029900D02*
X010198Y029420D01*
X008448Y030670D02*
X008448Y031150D01*
X007448Y031150D02*
X007448Y030670D01*
X006448Y030670D02*
X006448Y031150D01*
X005448Y031150D02*
X005448Y030670D01*
X004448Y030670D02*
X004448Y031150D01*
X003448Y031150D02*
X003448Y030670D01*
X002448Y030670D02*
X002448Y031150D01*
X002448Y033670D02*
X002448Y034150D01*
X003448Y034150D02*
X003448Y033670D01*
X004448Y033670D02*
X004448Y034150D01*
X005448Y034150D02*
X005448Y033670D01*
X006448Y033670D02*
X006448Y034150D01*
X007448Y034150D02*
X007448Y033670D01*
X008448Y033670D02*
X008448Y034150D01*
X008448Y025150D02*
X008448Y024670D01*
X007448Y024670D02*
X007448Y025150D01*
X012958Y016910D02*
X013438Y016910D01*
X013438Y015910D02*
X012958Y015910D01*
X012958Y014910D02*
X013438Y014910D01*
X016208Y014910D02*
X016688Y014910D01*
X017458Y014910D02*
X017938Y014910D01*
X017938Y013910D02*
X017458Y013910D01*
X016688Y013910D02*
X016208Y013910D01*
X016208Y012910D02*
X016688Y012910D01*
X017458Y012910D02*
X017938Y012910D01*
X017938Y011910D02*
X017458Y011910D01*
X016688Y011910D02*
X016208Y011910D01*
X016208Y010910D02*
X016688Y010910D01*
X017458Y010910D02*
X017938Y010910D01*
X017938Y009910D02*
X017458Y009910D01*
X016688Y009910D02*
X016208Y009910D01*
X016208Y008910D02*
X016688Y008910D01*
X017458Y008910D02*
X017938Y008910D01*
X017938Y007910D02*
X017458Y007910D01*
X016688Y007910D02*
X016208Y007910D01*
X016208Y006910D02*
X016688Y006910D01*
X017458Y006910D02*
X017938Y006910D01*
X017938Y005910D02*
X017458Y005910D01*
X016688Y005910D02*
X016208Y005910D01*
X016208Y004910D02*
X016688Y004910D01*
X017458Y004910D02*
X017938Y004910D01*
X017938Y003910D02*
X017458Y003910D01*
X016688Y003910D02*
X016208Y003910D01*
X016208Y002910D02*
X016688Y002910D01*
X017458Y002910D02*
X017938Y002910D01*
X022208Y002910D02*
X022688Y002910D01*
X023458Y002910D02*
X023938Y002910D01*
X023938Y003910D02*
X023458Y003910D01*
X022688Y003910D02*
X022208Y003910D01*
X022208Y004910D02*
X022688Y004910D01*
X023458Y004910D02*
X023938Y004910D01*
X023938Y005910D02*
X023458Y005910D01*
X022688Y005910D02*
X022208Y005910D01*
X022208Y006910D02*
X022688Y006910D01*
X023458Y006910D02*
X023938Y006910D01*
X023938Y007910D02*
X023458Y007910D01*
X022688Y007910D02*
X022208Y007910D01*
X022208Y008910D02*
X022688Y008910D01*
X023458Y008910D02*
X023938Y008910D01*
X023938Y009910D02*
X023458Y009910D01*
X022688Y009910D02*
X022208Y009910D01*
X022208Y010910D02*
X022688Y010910D01*
X023458Y010910D02*
X023938Y010910D01*
X023938Y011910D02*
X023458Y011910D01*
X022688Y011910D02*
X022208Y011910D01*
X022208Y012910D02*
X022688Y012910D01*
X023458Y012910D02*
X023938Y012910D01*
X023938Y013910D02*
X023458Y013910D01*
X022688Y013910D02*
X022208Y013910D01*
X022208Y014910D02*
X022688Y014910D01*
X023458Y014910D02*
X023938Y014910D01*
X023938Y015910D02*
X023458Y015910D01*
X022688Y015910D02*
X022208Y015910D01*
X022208Y016910D02*
X022688Y016910D01*
X023458Y016910D02*
X023938Y016910D01*
X023938Y017910D02*
X023458Y017910D01*
X022688Y017910D02*
X022208Y017910D01*
X022208Y018910D02*
X022688Y018910D01*
X023458Y018910D02*
X023938Y018910D01*
X023938Y019910D02*
X023458Y019910D01*
X022688Y019910D02*
X022208Y019910D01*
X022208Y020910D02*
X022688Y020910D01*
X023458Y020910D02*
X023938Y020910D01*
X023938Y021910D02*
X023458Y021910D01*
X022688Y021910D02*
X022208Y021910D01*
X020938Y023910D02*
X020458Y023910D01*
X020458Y024910D02*
X020938Y024910D01*
X020938Y025910D02*
X020458Y025910D01*
X020458Y026910D02*
X020938Y026910D01*
X020938Y027910D02*
X020458Y027910D01*
X020458Y028910D02*
X020938Y028910D01*
X020938Y029910D02*
X020458Y029910D01*
X017938Y025910D02*
X017458Y025910D01*
X017458Y024910D02*
X017938Y024910D01*
X017938Y023910D02*
X017458Y023910D01*
X017458Y021910D02*
X017938Y021910D01*
X017938Y020910D02*
X017458Y020910D01*
X016688Y020910D02*
X016208Y020910D01*
X016208Y019910D02*
X016688Y019910D01*
X017458Y019910D02*
X017938Y019910D01*
X017938Y018910D02*
X017458Y018910D01*
X016688Y018910D02*
X016208Y018910D01*
X016208Y017910D02*
X016688Y017910D01*
X017458Y017910D02*
X017938Y017910D01*
X017938Y016910D02*
X017458Y016910D01*
X016688Y016910D02*
X016208Y016910D01*
X016208Y015910D02*
X016688Y015910D01*
X017458Y015910D02*
X017938Y015910D01*
X016688Y021910D02*
X016208Y021910D01*
X026208Y016910D02*
X026688Y016910D01*
X026688Y015910D02*
X026208Y015910D01*
X026208Y014910D02*
X026688Y014910D01*
X026688Y013910D02*
X026208Y013910D01*
X026208Y012910D02*
X026688Y012910D01*
X026688Y011910D02*
X026208Y011910D01*
X026208Y010910D02*
X026688Y010910D01*
X026688Y009910D02*
X026208Y009910D01*
X026208Y008910D02*
X026688Y008910D01*
X026688Y007910D02*
X026208Y007910D01*
X026208Y006910D02*
X026688Y006910D01*
X026688Y005910D02*
X026208Y005910D01*
X026208Y004910D02*
X026688Y004910D01*
X026688Y003910D02*
X026208Y003910D01*
X026208Y002910D02*
X026688Y002910D01*
X026688Y001910D02*
X026208Y001910D01*
X032208Y001910D02*
X032688Y001910D01*
X032688Y002910D02*
X032208Y002910D01*
X032208Y003910D02*
X032688Y003910D01*
X032688Y004910D02*
X032208Y004910D01*
X032208Y005910D02*
X032688Y005910D01*
X032688Y006910D02*
X032208Y006910D01*
X032208Y007910D02*
X032688Y007910D01*
X032688Y008910D02*
X032208Y008910D01*
X032208Y009910D02*
X032688Y009910D01*
X032688Y010910D02*
X032208Y010910D01*
X032208Y011910D02*
X032688Y011910D01*
X032688Y012910D02*
X032208Y012910D01*
X032208Y013910D02*
X032688Y013910D01*
X032688Y014910D02*
X032208Y014910D01*
X032208Y015910D02*
X032688Y015910D01*
X032688Y016910D02*
X032208Y016910D01*
X033958Y016910D02*
X034438Y016910D01*
X033958Y016910D01*
X033958Y015910D02*
X034438Y015910D01*
X033958Y015910D01*
X033958Y014910D02*
X034438Y014910D01*
X033958Y014910D01*
X033958Y013910D02*
X034438Y013910D01*
X033958Y013910D01*
X033958Y012910D02*
X034438Y012910D01*
X033958Y012910D01*
X033958Y011910D02*
X034438Y011910D01*
X033958Y011910D01*
X033958Y010910D02*
X034438Y010910D01*
X033958Y010910D01*
X033958Y009910D02*
X034438Y009910D01*
X033958Y009910D01*
X033958Y008910D02*
X034438Y008910D01*
X033958Y008910D01*
X033958Y007910D02*
X034438Y007910D01*
X033958Y007910D01*
X033958Y006910D02*
X034438Y006910D01*
X033958Y006910D01*
X033958Y005910D02*
X034438Y005910D01*
X033958Y005910D01*
X033958Y004910D02*
X034438Y004910D01*
X033958Y004910D01*
X033958Y003910D02*
X034438Y003910D01*
X033958Y003910D01*
X036958Y003910D02*
X037438Y003910D01*
X037438Y004910D02*
X036958Y004910D01*
X036958Y005910D02*
X037438Y005910D01*
X037438Y006910D02*
X036958Y006910D01*
X036958Y007910D02*
X037438Y007910D01*
X037438Y008910D02*
X036958Y008910D01*
X036958Y009910D02*
X037438Y009910D01*
X037438Y010910D02*
X036958Y010910D01*
X036958Y011910D02*
X037438Y011910D01*
X037438Y012910D02*
X036958Y012910D01*
X036958Y013910D02*
X037438Y013910D01*
X037438Y014910D02*
X036958Y014910D01*
X036958Y015910D02*
X037438Y015910D01*
X037438Y016910D02*
X036958Y016910D01*
X039958Y016910D02*
X040438Y016910D01*
X040438Y015910D02*
X039958Y015910D01*
X039958Y014910D02*
X040438Y014910D01*
X040438Y013910D02*
X039958Y013910D01*
X039958Y012910D02*
X040438Y012910D01*
X040438Y011910D02*
X039958Y011910D01*
X039958Y010910D02*
X040438Y010910D01*
X040438Y009910D02*
X039958Y009910D01*
X039958Y008910D02*
X040438Y008910D01*
X040438Y007910D02*
X039958Y007910D01*
X039958Y006910D02*
X040438Y006910D01*
X040438Y005910D02*
X039958Y005910D01*
X039958Y004910D02*
X040438Y004910D01*
X040438Y003910D02*
X039958Y003910D01*
D11*
X034198Y002910D03*
X034198Y001910D03*
X028198Y002910D03*
X028198Y003910D03*
X019948Y014910D03*
X019948Y018910D03*
X015448Y014910D03*
X014448Y014910D03*
X011198Y016910D03*
X009698Y015910D03*
X009698Y014910D03*
X013698Y011410D03*
X013698Y010410D03*
X010448Y003160D03*
X009448Y003160D03*
X008198Y021910D03*
X008198Y022910D03*
X010198Y023910D03*
X010198Y024910D03*
X011198Y024910D03*
X011198Y023910D03*
X011198Y022910D03*
X012198Y023910D03*
X012198Y024910D03*
X013198Y024910D03*
X015198Y023910D03*
X011198Y021910D03*
X003948Y022910D03*
X002948Y022910D03*
X009448Y032160D03*
X009448Y033160D03*
X009448Y035160D03*
X008198Y035160D03*
X005198Y035160D03*
X004448Y035160D03*
X003448Y035160D03*
X012448Y035160D03*
X019698Y030910D03*
X020698Y030910D03*
D12*
X021648Y030910D02*
X022248Y030910D01*
X022248Y029910D02*
X021648Y029910D01*
X015248Y021910D02*
X014648Y021910D01*
X014648Y020910D02*
X015248Y020910D01*
X009998Y020660D02*
X009398Y020660D01*
X009398Y019660D02*
X009998Y019660D01*
X003248Y019910D02*
X002648Y019910D01*
X002648Y018910D02*
X003248Y018910D01*
X025148Y019410D02*
X025748Y019410D01*
X025748Y020410D02*
X025148Y020410D01*
X025148Y021410D02*
X025748Y021410D01*
D13*
X005698Y002160D03*
X005698Y003160D03*
X006698Y003160D03*
X007698Y003160D03*
X007698Y002160D03*
X006698Y002160D03*
X010198Y027910D03*
X011198Y027910D03*
X012198Y027910D03*
X013198Y027910D03*
X014198Y027910D03*
X015198Y027910D03*
X016198Y027910D03*
X016198Y030910D03*
X015198Y030910D03*
X014198Y030910D03*
X013198Y030910D03*
X012198Y030910D03*
X011198Y030910D03*
X010198Y030910D03*
D14*
X014698Y032160D03*
X014698Y035160D03*
X005948Y023910D03*
X002948Y023910D03*
X011198Y014910D03*
D15*
X017448Y035410D03*
X017448Y036410D03*
X017448Y037410D03*
X017448Y039410D03*
D16*
X024698Y017910D03*
X028198Y016410D03*
X019198Y003410D03*
X012886Y005223D03*
M02*
