%
M48
M72
T01C0.0236
T02C0.0320
T03C0.0354
T04C0.0400
%
T01
X12886Y5223
X19198Y3410
X28198Y16410
X24698Y17910
T02
X23698Y17910
X23698Y16910
X23698Y15910
X23698Y14910
X23698Y13910
X23698Y12910
X23698Y11910
X23698Y10910
X23698Y9910
X23698Y8910
X23698Y7910
X23698Y6910
X23698Y5910
X23698Y4910
X23698Y3910
X23698Y2910
X22448Y2910
X22448Y3910
X22448Y4910
X22448Y5910
X22448Y6910
X22448Y7910
X22448Y8910
X22448Y9910
X22448Y10910
X22448Y11910
X22448Y12910
X22448Y13910
X22448Y14910
X22448Y15910
X22448Y16910
X22448Y17910
X22448Y18910
X22448Y19910
X22448Y20910
X22448Y21910
X23698Y21910
X23698Y20910
X23698Y19910
X23698Y18910
X26448Y16910
X26448Y15910
X26448Y14910
X26448Y13910
X26448Y12910
X26448Y11910
X26448Y10910
X26448Y9910
X26448Y8910
X26448Y7910
X26448Y6910
X26448Y5910
X26448Y4910
X26448Y3910
X26448Y2910
X26448Y1910
X28198Y2910
X28198Y3910
X32448Y3910
X32448Y2910
X32448Y1910
X34198Y1910
X34198Y2910
X34198Y3910
X34198Y3910
X34198Y4910
X34198Y4910
X34198Y5910
X34198Y5910
X34198Y6910
X34198Y6910
X34198Y7910
X34198Y7910
X34198Y8910
X34198Y8910
X34198Y9910
X34198Y9910
X34198Y10910
X34198Y10910
X34198Y11910
X34198Y11910
X34198Y12910
X34198Y12910
X34198Y13910
X34198Y13910
X34198Y14910
X34198Y14910
X34198Y15910
X34198Y15910
X34198Y16910
X34198Y16910
X32448Y16910
X32448Y15910
X32448Y14910
X32448Y13910
X32448Y12910
X32448Y11910
X32448Y10910
X32448Y9910
X32448Y8910
X32448Y7910
X32448Y6910
X32448Y5910
X32448Y4910
X37198Y4910
X37198Y3910
X37198Y5910
X37198Y6910
X37198Y7910
X37198Y8910
X37198Y9910
X37198Y10910
X37198Y11910
X37198Y12910
X37198Y13910
X37198Y14910
X37198Y15910
X37198Y16910
X40198Y16910
X40198Y15910
X40198Y14910
X40198Y13910
X40198Y12910
X40198Y11910
X40198Y10910
X40198Y9910
X40198Y8910
X40198Y7910
X40198Y6910
X40198Y5910
X40198Y4910
X40198Y3910
X20698Y23910
X20698Y24910
X20698Y25910
X20698Y26910
X20698Y27910
X20698Y28910
X20698Y29910
X20698Y30910
X19698Y30910
X17698Y29910
X17698Y28910
X17698Y27910
X17698Y26910
X17698Y25910
X17698Y24910
X17698Y23910
X17698Y21910
X17698Y20910
X17698Y19910
X17698Y18910
X17698Y17910
X17698Y16910
X17698Y15910
X17698Y14910
X17698Y13910
X17698Y12910
X17698Y11910
X17698Y10910
X17698Y9910
X17698Y8910
X17698Y7910
X17698Y6910
X17698Y5910
X17698Y4910
X17698Y3910
X17698Y2910
X16448Y2910
X16448Y3910
X16448Y4910
X16448Y5910
X16448Y6910
X16448Y7910
X16448Y8910
X16448Y9910
X16448Y10910
X16448Y11910
X16448Y12910
X16448Y13910
X16448Y14910
X15448Y14910
X16448Y15910
X16448Y16910
X16448Y17910
X16448Y18910
X16448Y19910
X16448Y20910
X16448Y21910
X15198Y23910
X13198Y24910
X12198Y24910
X11198Y24910
X11198Y23910
X11198Y22910
X12198Y23910
X10198Y23910
X10198Y24910
X8448Y24910
X7448Y24910
X6448Y24910
X5448Y24910
X5948Y23910
X4448Y24910
X3448Y24910
X2948Y23910
X2948Y22910
X3948Y22910
X2448Y24910
X2448Y27910
X3448Y27910
X4448Y27910
X5448Y27910
X6448Y27910
X7448Y27910
X8448Y27910
X10198Y26660
X11198Y26660
X12198Y26660
X13198Y26660
X14198Y26660
X15198Y26660
X16198Y26660
X16198Y29660
X15198Y29660
X14198Y29660
X13198Y29660
X12198Y29660
X11198Y29660
X10198Y29660
X8448Y30910
X7448Y30910
X6448Y30910
X5448Y30910
X4448Y30910
X3448Y30910
X2448Y30910
X2448Y33910
X3448Y33910
X4448Y33910
X5448Y33910
X6448Y33910
X7448Y33910
X8448Y33910
X9448Y33160
X9448Y32160
X9448Y35160
X8198Y35160
X5198Y35160
X4448Y35160
X3448Y35160
X12448Y35160
X14698Y35160
X14698Y32160
X8198Y22910
X8198Y21910
X6448Y19910
X6448Y18910
X6448Y17910
X6448Y16910
X6448Y15910
X6448Y14910
X6448Y13910
X9698Y14910
X9698Y15910
X11198Y14910
X11198Y16910
X13198Y16910
X13198Y15910
X13198Y14910
X14448Y14910
X13698Y11410
X13698Y10410
X19948Y14910
X19948Y18910
X11198Y21910
X10448Y3160
X9448Y3160
T03
X17448Y35410
X17448Y36410
X17448Y37410
X17448Y39410
T04
X5698Y2160
X5698Y3160
X6698Y3160
X7698Y3160
X7698Y2160
X6698Y2160
X2948Y18910
X2948Y19910
X9698Y19660
X9698Y20660
X14948Y20910
X14948Y21910
X15198Y27910
X14198Y27910
X13198Y27910
X12198Y27910
X11198Y27910
X10198Y27910
X10198Y30910
X11198Y30910
X12198Y30910
X13198Y30910
X14198Y30910
X15198Y30910
X16198Y30910
X16198Y27910
X21948Y29910
X21948Y30910
X25448Y21410
X25448Y20410
X25448Y19410
M30
