G75*
%MOIN*%
%OFA0B0*%
%FSLAX24Y24*%
%IPPOS*%
%LPD*%
%AMOC8*
5,1,8,0,0,1.08239X$1,22.5*
%
%ADD10C,0.0160*%
%ADD11C,0.0080*%
%ADD12C,0.0120*%
%ADD13C,0.0060*%
%ADD14R,0.0240X0.0340*%
%ADD15C,0.0100*%
%ADD16R,0.0340X0.0240*%
%ADD17R,0.0150X0.0200*%
%ADD18R,0.0200X0.0800*%
%ADD19R,0.0250X0.0200*%
%ADD20R,0.0800X0.0200*%
%ADD21R,0.0200X0.0250*%
%ADD22C,0.0320*%
%ADD23C,0.0050*%
%ADD24C,0.0006*%
D10*
X017624Y001410D02*
X023624Y001410D01*
X023624Y002160D01*
X023374Y001910D01*
X023874Y001910D01*
X023624Y002160D01*
X017874Y001910D02*
X017374Y001910D01*
X017624Y002160D01*
X017874Y001910D01*
X017624Y002160D02*
X017624Y001410D01*
X034374Y017910D02*
X034624Y017660D01*
X034874Y017910D01*
X034374Y017910D01*
X034624Y017660D02*
X034624Y018660D01*
X037624Y018660D01*
X037624Y017660D01*
X037374Y017910D01*
X037874Y017910D01*
X037624Y017660D01*
X009374Y028160D02*
X009124Y027910D01*
X009124Y028160D01*
X009124Y028410D01*
X009374Y028160D01*
X009124Y028160D01*
X008874Y028160D01*
X008874Y029160D01*
X007624Y029160D01*
D11*
X007577Y029540D02*
X007657Y029620D01*
X007657Y029940D01*
X007577Y030020D01*
X007416Y030020D01*
X007336Y029940D01*
X007336Y029860D01*
X007416Y029780D01*
X007657Y029780D01*
X007852Y029620D02*
X007932Y029540D01*
X008092Y029540D01*
X008172Y029620D01*
X008172Y029700D01*
X008092Y029780D01*
X008012Y029780D01*
X008092Y029780D02*
X008172Y029860D01*
X008172Y029940D01*
X008092Y030020D01*
X007932Y030020D01*
X007852Y029940D01*
X007577Y029540D02*
X007416Y029540D01*
X007336Y029620D01*
X007141Y029620D02*
X007061Y029540D01*
X006901Y029540D01*
X006821Y029620D01*
X006625Y029620D02*
X006545Y029540D01*
X006385Y029540D01*
X006305Y029620D01*
X006385Y029780D02*
X006545Y029780D01*
X006625Y029700D01*
X006625Y029620D01*
X006385Y029780D02*
X006305Y029860D01*
X006305Y029940D01*
X006385Y030020D01*
X006545Y030020D01*
X006625Y029940D01*
X006821Y029940D02*
X006901Y030020D01*
X007061Y030020D01*
X007141Y029940D01*
X007141Y029860D01*
X007061Y029780D01*
X007141Y029700D01*
X007141Y029620D01*
X007061Y029780D02*
X006981Y029780D01*
X006110Y029540D02*
X005789Y029540D01*
X005789Y030020D01*
X005514Y030020D02*
X005274Y029780D01*
X005594Y029780D01*
X005514Y029540D02*
X005514Y030020D01*
X005078Y030020D02*
X005078Y029940D01*
X004758Y029620D01*
X004758Y029540D01*
X005004Y029180D02*
X005164Y029020D01*
X005164Y028700D01*
X005164Y028940D02*
X004844Y028940D01*
X004844Y029020D02*
X005004Y029180D01*
X004844Y029020D02*
X004844Y028700D01*
X005440Y028780D02*
X005520Y028700D01*
X005440Y028780D02*
X005440Y029100D01*
X005360Y029020D02*
X005520Y029020D01*
X005703Y028940D02*
X005703Y028780D01*
X005784Y028700D01*
X005944Y028700D01*
X006024Y028780D01*
X006024Y028940D01*
X005944Y029020D01*
X005784Y029020D01*
X005703Y028940D01*
X006219Y029020D02*
X006299Y029020D01*
X006379Y028940D01*
X006459Y029020D01*
X006539Y028940D01*
X006539Y028700D01*
X006379Y028700D02*
X006379Y028940D01*
X006219Y029020D02*
X006219Y028700D01*
X005078Y030020D02*
X004758Y030020D01*
X004047Y029780D02*
X003727Y029780D01*
X003967Y030020D01*
X003967Y029540D01*
X003531Y029780D02*
X003211Y029780D01*
X003451Y030020D01*
X003451Y029540D01*
X003016Y029620D02*
X002936Y029540D01*
X002776Y029540D01*
X002696Y029620D01*
X002696Y029940D01*
X002776Y030020D01*
X002936Y030020D01*
X003016Y029940D01*
X002672Y029180D02*
X002352Y029180D01*
X002352Y028700D01*
X002352Y028940D02*
X002512Y028940D01*
X002867Y028860D02*
X003028Y029020D01*
X003108Y029020D01*
X003297Y028940D02*
X003297Y028780D01*
X003377Y028700D01*
X003537Y028700D01*
X003617Y028780D01*
X003617Y028940D01*
X003537Y029020D01*
X003377Y029020D01*
X003297Y028940D01*
X002867Y029020D02*
X002867Y028700D01*
X002512Y029540D02*
X002352Y029540D01*
X002432Y029540D02*
X002432Y030020D01*
X002352Y030020D02*
X002512Y030020D01*
X003813Y029020D02*
X003893Y029020D01*
X003973Y028940D01*
X004053Y029020D01*
X004133Y028940D01*
X004133Y028700D01*
X003973Y028700D02*
X003973Y028940D01*
X003813Y029020D02*
X003813Y028700D01*
X003764Y026680D02*
X003604Y026680D01*
X003524Y026600D01*
X003328Y026600D02*
X003248Y026680D01*
X003088Y026680D01*
X003008Y026600D01*
X003008Y026280D01*
X003088Y026200D01*
X003248Y026200D01*
X003328Y026280D01*
X003524Y026200D02*
X003844Y026520D01*
X003844Y026600D01*
X003764Y026680D01*
X003844Y026200D02*
X003524Y026200D01*
X002824Y026200D02*
X002664Y026200D01*
X002744Y026200D02*
X002744Y026680D01*
X002664Y026680D02*
X002824Y026680D01*
X004555Y026680D02*
X004875Y026680D01*
X004875Y026600D01*
X004555Y026280D01*
X004555Y026200D01*
X005071Y026440D02*
X005391Y026440D01*
X005311Y026200D02*
X005311Y026680D01*
X005071Y026440D01*
X005586Y026200D02*
X005907Y026200D01*
X006102Y026280D02*
X006182Y026200D01*
X006342Y026200D01*
X006422Y026280D01*
X006422Y026360D01*
X006342Y026440D01*
X006182Y026440D01*
X006102Y026520D01*
X006102Y026600D01*
X006182Y026680D01*
X006342Y026680D01*
X006422Y026600D01*
X006618Y026680D02*
X006938Y026680D01*
X006938Y026600D01*
X006618Y026280D01*
X006618Y026200D01*
X007133Y026440D02*
X007453Y026440D01*
X007373Y026200D02*
X007373Y026680D01*
X007133Y026440D01*
X005586Y026680D02*
X005586Y026200D01*
X003186Y021180D02*
X003266Y021100D01*
X003266Y021020D01*
X003186Y020940D01*
X003266Y020860D01*
X003266Y020780D01*
X003186Y020700D01*
X003026Y020700D01*
X002946Y020780D01*
X002750Y020700D02*
X002750Y021180D01*
X002946Y021100D02*
X003026Y021180D01*
X003186Y021180D01*
X003186Y020940D02*
X003106Y020940D01*
X002750Y020700D02*
X002430Y021180D01*
X002430Y020700D01*
X002235Y020780D02*
X002154Y020700D01*
X001994Y020700D01*
X001914Y020780D01*
X001914Y021100D01*
X001994Y021180D01*
X002154Y021180D01*
X002235Y021100D01*
X009164Y018870D02*
X009164Y018450D01*
X009374Y018450D01*
X009445Y018520D01*
X009445Y018800D01*
X009374Y018870D01*
X009164Y018870D01*
X009625Y018800D02*
X009625Y018730D01*
X009695Y018660D01*
X009835Y018660D01*
X009905Y018590D01*
X009905Y018520D01*
X009835Y018450D01*
X009695Y018450D01*
X009625Y018520D01*
X009625Y018800D02*
X009695Y018870D01*
X009835Y018870D01*
X009905Y018800D01*
X010085Y018870D02*
X010085Y018450D01*
X010085Y018590D02*
X010365Y018870D01*
X010545Y018870D02*
X010756Y018870D01*
X010826Y018800D01*
X010826Y018660D01*
X010756Y018590D01*
X010545Y018590D01*
X010545Y018450D02*
X010545Y018870D01*
X010686Y018590D02*
X010826Y018450D01*
X011006Y018520D02*
X011076Y018450D01*
X011216Y018450D01*
X011286Y018520D01*
X011286Y018800D01*
X011216Y018870D01*
X011076Y018870D01*
X011006Y018800D01*
X011006Y018520D01*
X011466Y018450D02*
X011466Y018870D01*
X011606Y018730D01*
X011746Y018870D01*
X011746Y018450D01*
X011927Y018450D02*
X012207Y018450D01*
X012387Y018450D02*
X012387Y018870D01*
X012667Y018450D01*
X012667Y018870D01*
X012207Y018870D02*
X011927Y018870D01*
X011927Y018450D01*
X011927Y018660D02*
X012067Y018660D01*
X010365Y018450D02*
X010155Y018660D01*
X014164Y019780D02*
X014244Y019700D01*
X014324Y019700D01*
X014404Y019780D01*
X014404Y020180D01*
X014324Y020180D02*
X014485Y020180D01*
X014680Y020180D02*
X014920Y020180D01*
X015000Y020100D01*
X015000Y019940D01*
X014920Y019860D01*
X014680Y019860D01*
X014680Y019700D02*
X014680Y020180D01*
X015196Y020100D02*
X015276Y020180D01*
X015436Y020180D01*
X015516Y020100D01*
X015516Y020020D01*
X015196Y019700D01*
X015516Y019700D01*
X019164Y024215D02*
X019164Y024376D01*
X019164Y024296D02*
X019644Y024296D01*
X019644Y024376D02*
X019644Y024215D01*
X019564Y024559D02*
X019644Y024639D01*
X019644Y024799D01*
X019564Y024880D01*
X019564Y025075D02*
X019644Y025155D01*
X019644Y025315D01*
X019564Y025395D01*
X019484Y025395D01*
X019404Y025315D01*
X019404Y025075D01*
X019564Y025075D01*
X019404Y025075D02*
X019244Y025235D01*
X019164Y025395D01*
X019244Y024880D02*
X019164Y024799D01*
X019164Y024639D01*
X019244Y024559D01*
X019564Y024559D01*
X019564Y026106D02*
X019644Y026106D01*
X019564Y026106D02*
X019244Y026426D01*
X019164Y026426D01*
X019164Y026106D01*
X019404Y026622D02*
X019164Y026862D01*
X019644Y026862D01*
X019404Y026942D02*
X019404Y026622D01*
X019164Y027137D02*
X019644Y027137D01*
X019644Y027458D01*
X019564Y027653D02*
X019644Y027733D01*
X019644Y027893D01*
X019564Y027973D01*
X019484Y027973D01*
X019404Y027893D01*
X019404Y027733D01*
X019324Y027653D01*
X019244Y027653D01*
X019164Y027733D01*
X019164Y027893D01*
X019244Y027973D01*
X019244Y028169D02*
X019164Y028249D01*
X019164Y028409D01*
X019244Y028489D01*
X019564Y028169D01*
X019644Y028249D01*
X019644Y028409D01*
X019564Y028489D01*
X019244Y028489D01*
X019244Y028684D02*
X019164Y028764D01*
X019164Y028925D01*
X019244Y029005D01*
X019324Y029005D01*
X019644Y028684D01*
X019644Y029005D01*
X019564Y028169D02*
X019244Y028169D01*
X025414Y022520D02*
X025574Y022680D01*
X025574Y022200D01*
X025414Y022200D02*
X025735Y022200D01*
X027414Y022020D02*
X027414Y021780D01*
X027494Y021700D01*
X027574Y021780D01*
X027654Y021700D01*
X027735Y021780D01*
X027735Y022020D01*
X027930Y022020D02*
X028010Y022020D01*
X028010Y021700D01*
X027930Y021700D02*
X028090Y021700D01*
X028354Y021780D02*
X028434Y021700D01*
X028354Y021780D02*
X028354Y022100D01*
X028274Y022020D02*
X028434Y022020D01*
X028617Y021940D02*
X028698Y022020D01*
X028858Y022020D01*
X028938Y021940D01*
X028938Y021700D01*
X028955Y021430D02*
X029115Y021430D01*
X029196Y021350D01*
X029196Y021270D01*
X029115Y021190D01*
X029196Y021110D01*
X029196Y021030D01*
X029115Y020950D01*
X028955Y020950D01*
X028875Y021030D01*
X029035Y021190D02*
X029115Y021190D01*
X028875Y021350D02*
X028955Y021430D01*
X028617Y021700D02*
X028617Y022180D01*
X028514Y022450D02*
X028354Y022450D01*
X028274Y022530D01*
X028274Y022690D01*
X028354Y022770D01*
X028514Y022770D01*
X028594Y022690D01*
X028594Y022530D01*
X028514Y022450D01*
X028789Y022450D02*
X028789Y022770D01*
X028869Y022770D01*
X028949Y022690D01*
X029030Y022770D01*
X029110Y022690D01*
X029110Y022450D01*
X028949Y022450D02*
X028949Y022690D01*
X029649Y022180D02*
X029969Y021700D01*
X029969Y022180D01*
X029981Y022450D02*
X029821Y022450D01*
X029901Y022450D02*
X029901Y022930D01*
X029821Y022930D02*
X029981Y022930D01*
X030164Y022770D02*
X030405Y022770D01*
X030485Y022690D01*
X030485Y022450D01*
X030760Y022530D02*
X030760Y022850D01*
X030680Y022770D02*
X030840Y022770D01*
X031024Y022690D02*
X031104Y022770D01*
X031264Y022770D01*
X031344Y022690D01*
X031344Y022610D01*
X031024Y022610D01*
X031024Y022530D02*
X031024Y022690D01*
X031024Y022530D02*
X031104Y022450D01*
X031264Y022450D01*
X031539Y022450D02*
X031539Y022770D01*
X031539Y022610D02*
X031700Y022770D01*
X031780Y022770D01*
X031969Y022770D02*
X032209Y022770D01*
X032289Y022690D01*
X032289Y022450D01*
X032485Y022530D02*
X032565Y022610D01*
X032805Y022610D01*
X032805Y022690D02*
X032805Y022450D01*
X032565Y022450D01*
X032485Y022530D01*
X032565Y022770D02*
X032725Y022770D01*
X032805Y022690D01*
X033000Y022450D02*
X033161Y022450D01*
X033080Y022450D02*
X033080Y022930D01*
X033000Y022930D01*
X032909Y022180D02*
X032909Y021700D01*
X032829Y021700D02*
X032989Y021700D01*
X033172Y021700D02*
X033332Y021700D01*
X033252Y021700D02*
X033252Y022180D01*
X033172Y022180D01*
X032909Y022180D02*
X032829Y022180D01*
X032565Y022180D02*
X032565Y022260D01*
X032565Y022020D02*
X032565Y021700D01*
X032485Y021700D02*
X032645Y021700D01*
X032467Y021430D02*
X032547Y021350D01*
X032547Y021270D01*
X032467Y021190D01*
X032307Y021190D01*
X032227Y021270D01*
X032227Y021350D01*
X032307Y021430D01*
X032467Y021430D01*
X032467Y021190D02*
X032547Y021110D01*
X032547Y021030D01*
X032467Y020950D01*
X032307Y020950D01*
X032227Y021030D01*
X032227Y021110D01*
X032307Y021190D01*
X032032Y020950D02*
X031711Y020950D01*
X031871Y020950D02*
X031871Y021430D01*
X031711Y021270D01*
X031516Y021350D02*
X031196Y021030D01*
X031276Y020950D01*
X031436Y020950D01*
X031516Y021030D01*
X031516Y021350D01*
X031436Y021430D01*
X031276Y021430D01*
X031196Y021350D01*
X031196Y021030D01*
X031000Y020950D02*
X030680Y020950D01*
X031000Y021270D01*
X031000Y021350D01*
X030920Y021430D01*
X030760Y021430D01*
X030680Y021350D01*
X030680Y021700D02*
X030840Y021700D01*
X030760Y021700D02*
X030760Y022020D01*
X030680Y022020D01*
X030760Y022180D02*
X030760Y022260D01*
X030840Y022450D02*
X030760Y022530D01*
X030164Y022450D02*
X030164Y022770D01*
X030244Y022020D02*
X030164Y021940D01*
X030164Y021780D01*
X030244Y021700D01*
X030405Y021700D01*
X030485Y021780D01*
X030485Y021940D01*
X030405Y022020D01*
X030244Y022020D01*
X029649Y022180D02*
X029649Y021700D01*
X029729Y021430D02*
X029649Y021350D01*
X029649Y021030D01*
X029969Y021350D01*
X029969Y021030D01*
X029889Y020950D01*
X029729Y020950D01*
X029649Y021030D01*
X029471Y021030D02*
X029471Y020950D01*
X029391Y020950D01*
X029391Y021030D01*
X029471Y021030D01*
X029729Y021430D02*
X029889Y021430D01*
X029969Y021350D01*
X029637Y020430D02*
X029637Y019950D01*
X029477Y019950D02*
X029797Y019950D01*
X029717Y019680D02*
X029557Y019680D01*
X029477Y019600D01*
X029477Y019280D01*
X029557Y019200D01*
X029717Y019200D01*
X029797Y019280D01*
X029992Y019200D02*
X030153Y019200D01*
X030073Y019200D02*
X030073Y019680D01*
X029992Y019680D01*
X029797Y019600D02*
X029717Y019680D01*
X030336Y019440D02*
X030336Y019280D01*
X030416Y019200D01*
X030576Y019200D01*
X030657Y019280D01*
X030657Y019440D01*
X030576Y019520D01*
X030416Y019520D01*
X030336Y019440D01*
X030852Y019440D02*
X030932Y019520D01*
X031172Y019520D01*
X031092Y019360D02*
X030932Y019360D01*
X030852Y019440D01*
X030852Y019200D02*
X031092Y019200D01*
X031172Y019280D01*
X031092Y019360D01*
X031368Y019360D02*
X031688Y019360D01*
X031688Y019440D01*
X031608Y019520D01*
X031448Y019520D01*
X031368Y019440D01*
X031368Y019280D01*
X031448Y019200D01*
X031608Y019200D01*
X031883Y019360D02*
X032203Y019360D01*
X032203Y019520D02*
X031883Y019520D01*
X031780Y019950D02*
X031860Y020030D01*
X031860Y020110D01*
X031780Y020190D01*
X031539Y020190D01*
X031539Y020030D01*
X031619Y019950D01*
X031780Y019950D01*
X032055Y020030D02*
X032135Y019950D01*
X032295Y019950D01*
X032375Y020030D01*
X032375Y020190D01*
X032295Y020270D01*
X032215Y020270D01*
X032055Y020190D01*
X032055Y020430D01*
X032375Y020430D01*
X032571Y020350D02*
X032651Y020430D01*
X032811Y020430D01*
X032891Y020350D01*
X032571Y020030D01*
X032651Y019950D01*
X032811Y019950D01*
X032891Y020030D01*
X032891Y020350D01*
X033086Y020350D02*
X033166Y020430D01*
X033327Y020430D01*
X033407Y020350D01*
X033407Y020270D01*
X033086Y019950D01*
X033407Y019950D01*
X033602Y019790D02*
X033762Y019950D01*
X033682Y019950D01*
X033682Y020030D01*
X033762Y020030D01*
X033762Y019950D01*
X033670Y019680D02*
X033510Y019680D01*
X033430Y019600D01*
X033430Y019280D01*
X033750Y019600D01*
X033750Y019280D01*
X033670Y019200D01*
X033510Y019200D01*
X033430Y019280D01*
X033235Y019280D02*
X033155Y019200D01*
X032995Y019200D01*
X032914Y019280D01*
X032914Y019440D02*
X033075Y019520D01*
X033155Y019520D01*
X033235Y019440D01*
X033235Y019280D01*
X032914Y019440D02*
X032914Y019680D01*
X033235Y019680D01*
X033670Y019680D02*
X033750Y019600D01*
X033946Y019600D02*
X034026Y019680D01*
X034186Y019680D01*
X034266Y019600D01*
X034266Y019520D01*
X033946Y019200D01*
X034266Y019200D01*
X034461Y019040D02*
X034622Y019200D01*
X034541Y019200D01*
X034541Y019280D01*
X034622Y019280D01*
X034622Y019200D01*
X035321Y019280D02*
X035401Y019200D01*
X035561Y019200D01*
X035641Y019280D01*
X035641Y019600D01*
X035561Y019680D01*
X035401Y019680D01*
X035321Y019600D01*
X035321Y019280D01*
X035836Y019200D02*
X036077Y019200D01*
X036157Y019280D01*
X036157Y019440D01*
X036077Y019520D01*
X035836Y019520D01*
X035836Y019040D01*
X036352Y019280D02*
X036352Y019440D01*
X036432Y019520D01*
X036592Y019520D01*
X036672Y019440D01*
X036672Y019360D01*
X036352Y019360D01*
X036352Y019280D02*
X036432Y019200D01*
X036592Y019200D01*
X036868Y019200D02*
X036868Y019520D01*
X037108Y019520D01*
X037188Y019440D01*
X037188Y019200D01*
X037383Y019360D02*
X037704Y019360D01*
X037704Y019520D02*
X037383Y019520D01*
X037280Y019950D02*
X037360Y020030D01*
X037360Y020350D01*
X037280Y020430D01*
X037040Y020430D01*
X037040Y019950D01*
X037280Y019950D01*
X037555Y020030D02*
X037555Y020190D01*
X037795Y020190D01*
X037875Y020110D01*
X037875Y020030D01*
X037795Y019950D01*
X037635Y019950D01*
X037555Y020030D01*
X037555Y020190D02*
X037715Y020350D01*
X037875Y020430D01*
X038071Y020430D02*
X038071Y020190D01*
X038231Y020270D01*
X038311Y020270D01*
X038391Y020190D01*
X038391Y020030D01*
X038311Y019950D01*
X038151Y019950D01*
X038071Y020030D01*
X038219Y019680D02*
X038219Y019200D01*
X038059Y019360D01*
X037899Y019200D01*
X037899Y019680D01*
X038415Y019680D02*
X038415Y019200D01*
X038655Y019200D01*
X038735Y019280D01*
X038735Y019600D01*
X038655Y019680D01*
X038415Y019680D01*
X038667Y019950D02*
X038827Y019950D01*
X038907Y020030D01*
X039102Y020030D02*
X039422Y020350D01*
X039422Y020030D01*
X039342Y019950D01*
X039182Y019950D01*
X039102Y020030D01*
X039102Y020350D01*
X039182Y020430D01*
X039342Y020430D01*
X039422Y020350D01*
X039618Y020350D02*
X039698Y020430D01*
X039858Y020430D01*
X039938Y020350D01*
X039938Y020270D01*
X039618Y019950D01*
X039938Y019950D01*
X040042Y019680D02*
X039962Y019600D01*
X039962Y019280D01*
X040042Y019200D01*
X040202Y019200D01*
X040282Y019280D01*
X040477Y019280D02*
X040557Y019200D01*
X040717Y019200D01*
X040797Y019280D01*
X040797Y019600D01*
X040477Y019280D01*
X040477Y019600D01*
X040557Y019680D01*
X040717Y019680D01*
X040797Y019600D01*
X040993Y019600D02*
X041073Y019680D01*
X041233Y019680D01*
X041313Y019600D01*
X041313Y019520D01*
X040993Y019200D01*
X041313Y019200D01*
X040282Y019600D02*
X040202Y019680D01*
X040042Y019680D01*
X039766Y019680D02*
X039446Y019680D01*
X039446Y019440D01*
X039606Y019520D01*
X039686Y019520D01*
X039766Y019440D01*
X039766Y019280D01*
X039686Y019200D01*
X039526Y019200D01*
X039446Y019280D01*
X039251Y019280D02*
X039251Y019360D01*
X039170Y019440D01*
X038930Y019440D01*
X038930Y019280D01*
X039010Y019200D01*
X039170Y019200D01*
X039251Y019280D01*
X039090Y019600D02*
X039251Y019680D01*
X039090Y019600D02*
X038930Y019440D01*
X038667Y019950D02*
X038586Y020030D01*
X038586Y020350D01*
X038667Y020430D01*
X038827Y020430D01*
X038907Y020350D01*
X038391Y020430D02*
X038071Y020430D01*
X038139Y020950D02*
X038219Y021030D01*
X038219Y021190D01*
X038139Y021270D01*
X037979Y021270D01*
X037899Y021190D01*
X037899Y021030D01*
X037979Y020950D01*
X038139Y020950D01*
X038495Y021030D02*
X038495Y021350D01*
X038415Y021270D02*
X038575Y021270D01*
X038758Y021190D02*
X038838Y021270D01*
X038999Y021270D01*
X039079Y021190D01*
X039079Y020950D01*
X038758Y020950D02*
X038758Y021430D01*
X038495Y021030D02*
X038575Y020950D01*
X037704Y020950D02*
X037704Y021190D01*
X037624Y021270D01*
X037543Y021190D01*
X037543Y020950D01*
X037383Y020950D02*
X037383Y021270D01*
X037463Y021270D01*
X037543Y021190D01*
X037188Y021190D02*
X037188Y020950D01*
X036948Y020950D01*
X036868Y021030D01*
X036948Y021110D01*
X037188Y021110D01*
X037188Y021190D02*
X037108Y021270D01*
X036948Y021270D01*
X036672Y021190D02*
X036592Y021110D01*
X036352Y021110D01*
X036352Y020950D02*
X036352Y021430D01*
X036592Y021430D01*
X036672Y021350D01*
X036672Y021190D01*
X036512Y021110D02*
X036672Y020950D01*
X036524Y020430D02*
X036524Y019950D01*
X036684Y020110D01*
X036844Y019950D01*
X036844Y020430D01*
X035813Y020350D02*
X035813Y020270D01*
X035733Y020190D01*
X035813Y020110D01*
X035813Y020030D01*
X035733Y019950D01*
X035573Y019950D01*
X035493Y020030D01*
X035653Y020190D02*
X035733Y020190D01*
X035813Y020350D02*
X035733Y020430D01*
X035573Y020430D01*
X035493Y020350D01*
X035297Y020190D02*
X034977Y020190D01*
X034782Y020270D02*
X034461Y019950D01*
X034782Y019950D01*
X034782Y020270D02*
X034782Y020350D01*
X034702Y020430D01*
X034541Y020430D01*
X034461Y020350D01*
X034885Y020950D02*
X034805Y021030D01*
X035125Y021350D01*
X035125Y021030D01*
X035045Y020950D01*
X034885Y020950D01*
X034805Y021030D02*
X034805Y021350D01*
X034885Y021430D01*
X035045Y021430D01*
X035125Y021350D01*
X035321Y021350D02*
X035321Y021270D01*
X035401Y021190D01*
X035561Y021190D01*
X035641Y021110D01*
X035641Y021030D01*
X035561Y020950D01*
X035401Y020950D01*
X035321Y021030D01*
X035321Y021110D01*
X035401Y021190D01*
X035561Y021190D02*
X035641Y021270D01*
X035641Y021350D01*
X035561Y021430D01*
X035401Y021430D01*
X035321Y021350D01*
X034610Y021190D02*
X034289Y021190D01*
X034094Y021110D02*
X034014Y021190D01*
X033774Y021190D01*
X033774Y021030D01*
X033854Y020950D01*
X034014Y020950D01*
X034094Y021030D01*
X034094Y021110D01*
X033934Y021350D02*
X034094Y021430D01*
X033934Y021350D02*
X033774Y021190D01*
X033578Y021350D02*
X033578Y021030D01*
X033498Y020950D01*
X033338Y020950D01*
X033258Y021030D01*
X033578Y021350D01*
X033498Y021430D01*
X033338Y021430D01*
X033258Y021350D01*
X033258Y021030D01*
X033063Y021190D02*
X032743Y021190D01*
X032295Y021700D02*
X032055Y021860D01*
X032295Y022020D01*
X032485Y022020D02*
X032565Y022020D01*
X032055Y022180D02*
X032055Y021700D01*
X031860Y021860D02*
X031539Y021860D01*
X031539Y021780D02*
X031539Y021940D01*
X031619Y022020D01*
X031780Y022020D01*
X031860Y021940D01*
X031860Y021860D01*
X031780Y021700D02*
X031619Y021700D01*
X031539Y021780D01*
X031344Y021780D02*
X031264Y021860D01*
X031104Y021860D01*
X031024Y021940D01*
X031104Y022020D01*
X031344Y022020D01*
X031344Y021780D02*
X031264Y021700D01*
X031024Y021700D01*
X031969Y022450D02*
X031969Y022770D01*
X033516Y021940D02*
X033596Y022020D01*
X033756Y022020D01*
X033836Y021940D01*
X033836Y021860D01*
X033516Y021860D01*
X033516Y021780D02*
X033516Y021940D01*
X033516Y021780D02*
X033596Y021700D01*
X033756Y021700D01*
X034032Y021700D02*
X034032Y022020D01*
X034192Y022020D02*
X034272Y022020D01*
X034192Y022020D02*
X034032Y021860D01*
X034100Y022450D02*
X033940Y022450D01*
X033860Y022530D01*
X034020Y022690D02*
X034100Y022690D01*
X034180Y022610D01*
X034180Y022530D01*
X034100Y022450D01*
X034100Y022690D02*
X034180Y022770D01*
X034180Y022850D01*
X034100Y022930D01*
X033940Y022930D01*
X033860Y022850D01*
X034375Y022850D02*
X034455Y022930D01*
X034616Y022930D01*
X034696Y022850D01*
X034696Y022770D01*
X034375Y022450D01*
X034696Y022450D01*
X035407Y022450D02*
X035407Y022930D01*
X035647Y022930D01*
X035727Y022850D01*
X035727Y022690D01*
X035647Y022610D01*
X035407Y022610D01*
X035567Y022610D02*
X035727Y022450D01*
X035922Y022450D02*
X035922Y022770D01*
X036082Y022930D01*
X036243Y022770D01*
X036243Y022450D01*
X036438Y022450D02*
X036438Y022930D01*
X036598Y022770D01*
X036758Y022930D01*
X036758Y022450D01*
X036243Y022690D02*
X035922Y022690D01*
X037469Y022450D02*
X037790Y022930D01*
X038501Y022930D02*
X038501Y022450D01*
X038501Y022610D02*
X038741Y022610D01*
X038821Y022690D01*
X038821Y022850D01*
X038741Y022930D01*
X038501Y022930D01*
X038661Y022610D02*
X038821Y022450D01*
X039016Y022530D02*
X039096Y022450D01*
X039256Y022450D01*
X039336Y022530D01*
X039336Y022850D01*
X039256Y022930D01*
X039096Y022930D01*
X039016Y022850D01*
X039016Y022530D01*
X039532Y022450D02*
X039532Y022930D01*
X039692Y022770D01*
X039852Y022930D01*
X039852Y022450D01*
X040047Y022450D02*
X040047Y022930D01*
X040047Y022770D02*
X040288Y022770D01*
X040368Y022690D01*
X040368Y022530D01*
X040288Y022450D01*
X040047Y022450D01*
X040563Y022530D02*
X040643Y022450D01*
X040803Y022450D01*
X040883Y022530D01*
X040883Y022690D01*
X040803Y022770D01*
X040643Y022770D01*
X040563Y022690D01*
X040563Y022530D01*
X041079Y022450D02*
X041399Y022770D01*
X041079Y022770D02*
X041399Y022450D01*
X036758Y018350D02*
X036758Y018270D01*
X036678Y018190D01*
X036758Y018110D01*
X036758Y018030D01*
X036678Y017950D01*
X036518Y017950D01*
X036438Y018030D01*
X036260Y018030D02*
X036260Y017950D01*
X036180Y017950D01*
X036180Y018030D01*
X036260Y018030D01*
X035985Y018030D02*
X035904Y017950D01*
X035744Y017950D01*
X035664Y018030D01*
X035985Y018350D01*
X035985Y018030D01*
X035985Y018350D02*
X035904Y018430D01*
X035744Y018430D01*
X035664Y018350D01*
X035664Y018030D01*
X036438Y018350D02*
X036518Y018430D01*
X036678Y018430D01*
X036758Y018350D01*
X036678Y018190D02*
X036598Y018190D01*
X035934Y014776D02*
X036014Y014696D01*
X035934Y014616D02*
X036014Y014536D01*
X035934Y014616D02*
X035774Y014616D01*
X035774Y014776D02*
X035934Y014776D01*
X035934Y014341D02*
X036014Y014341D01*
X036094Y014261D01*
X036174Y014341D01*
X036254Y014341D01*
X036334Y014261D01*
X036334Y014101D01*
X036254Y014021D01*
X036254Y013843D02*
X036334Y013843D01*
X036334Y013763D01*
X036254Y013763D01*
X036254Y013843D01*
X036254Y013567D02*
X036334Y013487D01*
X036334Y013327D01*
X036254Y013247D01*
X035934Y013567D01*
X036254Y013567D01*
X036254Y013247D02*
X035934Y013247D01*
X035854Y013327D01*
X035854Y013487D01*
X035934Y013567D01*
X035934Y014021D02*
X035854Y014101D01*
X035854Y014261D01*
X035934Y014341D01*
X036094Y014261D02*
X036094Y014181D01*
X035854Y012536D02*
X036334Y012536D01*
X036334Y012216D02*
X035854Y012216D01*
X036014Y012376D01*
X035854Y012536D01*
X036014Y012020D02*
X036334Y012020D01*
X036094Y012020D02*
X036094Y011700D01*
X036014Y011700D02*
X035854Y011860D01*
X036014Y012020D01*
X036014Y011700D02*
X036334Y011700D01*
X036334Y011505D02*
X036174Y011345D01*
X036174Y011425D02*
X036174Y011185D01*
X036334Y011185D02*
X035854Y011185D01*
X035854Y011425D01*
X035934Y011505D01*
X036094Y011505D01*
X036174Y011425D01*
X036174Y010989D02*
X036094Y010909D01*
X036094Y010749D01*
X036014Y010669D01*
X035934Y010669D01*
X035854Y010749D01*
X035854Y010909D01*
X035934Y010989D01*
X036174Y010989D02*
X036254Y010989D01*
X036334Y010909D01*
X036334Y010749D01*
X036254Y010669D01*
X036334Y009958D02*
X036094Y009718D01*
X036174Y009638D02*
X035854Y009958D01*
X035854Y009638D02*
X036334Y009638D01*
X036334Y009442D02*
X036334Y009122D01*
X036014Y009442D01*
X035934Y009442D01*
X035854Y009362D01*
X035854Y009202D01*
X035934Y009122D01*
X035934Y008927D02*
X036014Y008927D01*
X036094Y008847D01*
X036174Y008927D01*
X036254Y008927D01*
X036334Y008847D01*
X036334Y008686D01*
X036254Y008606D01*
X036094Y008766D02*
X036094Y008847D01*
X035934Y008927D02*
X035854Y008847D01*
X035854Y008686D01*
X035934Y008606D01*
X036014Y007895D02*
X036334Y007895D01*
X036094Y007895D02*
X036094Y007575D01*
X036014Y007575D02*
X035854Y007735D01*
X036014Y007895D01*
X036014Y007575D02*
X036334Y007575D01*
X036334Y007380D02*
X036334Y007059D01*
X036014Y007380D01*
X035934Y007380D01*
X035854Y007300D01*
X035854Y007139D01*
X035934Y007059D01*
X035934Y006864D02*
X035854Y006784D01*
X035854Y006624D01*
X035934Y006544D01*
X036254Y006544D01*
X036334Y006624D01*
X036334Y006784D01*
X036254Y006864D01*
X036334Y006360D02*
X036334Y006200D01*
X036334Y006280D02*
X035854Y006280D01*
X035854Y006200D02*
X035854Y006360D01*
X038854Y005565D02*
X038854Y005325D01*
X039334Y005325D01*
X039334Y005565D01*
X039254Y005645D01*
X039174Y005645D01*
X039094Y005565D01*
X039094Y005325D01*
X039014Y005130D02*
X038934Y005130D01*
X038854Y005050D01*
X038854Y004889D01*
X038934Y004809D01*
X038934Y004614D02*
X038854Y004534D01*
X038854Y004374D01*
X038934Y004294D01*
X039254Y004294D01*
X039334Y004374D01*
X039334Y004534D01*
X039254Y004614D01*
X039334Y004809D02*
X039014Y005130D01*
X039334Y005130D02*
X039334Y004809D01*
X039334Y004110D02*
X039334Y003950D01*
X039334Y004030D02*
X038854Y004030D01*
X038854Y003950D02*
X038854Y004110D01*
X038854Y005565D02*
X038934Y005645D01*
X039014Y005645D01*
X039094Y005565D01*
X030084Y006700D02*
X030084Y006860D01*
X030084Y006780D02*
X029604Y006780D01*
X029604Y006700D02*
X029604Y006860D01*
X029684Y007044D02*
X030004Y007044D01*
X030084Y007124D01*
X030084Y007284D01*
X030004Y007364D01*
X029844Y007559D02*
X029844Y007880D01*
X030084Y007800D02*
X029604Y007800D01*
X029844Y007559D01*
X029684Y007364D02*
X029604Y007284D01*
X029604Y007124D01*
X029684Y007044D01*
X029684Y008591D02*
X029604Y008671D01*
X029604Y008831D01*
X029684Y008911D01*
X029764Y008911D01*
X030084Y008591D01*
X030084Y008911D01*
X030004Y009106D02*
X030084Y009186D01*
X030084Y009347D01*
X030004Y009427D01*
X029684Y009427D01*
X029604Y009347D01*
X029604Y009186D01*
X029684Y009106D01*
X029764Y009106D01*
X029844Y009186D01*
X029844Y009427D01*
X029844Y009622D02*
X029844Y009782D01*
X030084Y009622D02*
X029604Y009622D01*
X029604Y009942D01*
X029684Y010138D02*
X029604Y010218D01*
X029604Y010378D01*
X029684Y010458D01*
X030004Y010138D01*
X030084Y010218D01*
X030084Y010378D01*
X030004Y010458D01*
X029684Y010458D01*
X029764Y010653D02*
X029604Y010813D01*
X030084Y010813D01*
X030084Y010653D02*
X030084Y010974D01*
X030004Y011169D02*
X029684Y011489D01*
X030004Y011489D01*
X030084Y011409D01*
X030084Y011249D01*
X030004Y011169D01*
X029684Y011169D01*
X029604Y011249D01*
X029604Y011409D01*
X029684Y011489D01*
X029684Y010138D02*
X030004Y010138D01*
X026266Y018200D02*
X025946Y018200D01*
X026106Y018200D02*
X026106Y018680D01*
X025946Y018520D01*
X025750Y018440D02*
X025670Y018360D01*
X025430Y018360D01*
X025430Y018200D02*
X025430Y018680D01*
X025670Y018680D01*
X025750Y018600D01*
X025750Y018440D01*
X025235Y018680D02*
X025074Y018680D01*
X025154Y018680D02*
X025154Y018280D01*
X025074Y018200D01*
X024994Y018200D01*
X024914Y018280D01*
X027414Y019280D02*
X027494Y019200D01*
X027574Y019200D01*
X027654Y019280D01*
X027654Y019680D01*
X027574Y019680D02*
X027735Y019680D01*
X027930Y019680D02*
X028170Y019680D01*
X028250Y019600D01*
X028250Y019440D01*
X028170Y019360D01*
X027930Y019360D01*
X027930Y019200D02*
X027930Y019680D01*
X027930Y019950D02*
X027930Y020430D01*
X028170Y020430D01*
X028250Y020350D01*
X028250Y020190D01*
X028170Y020110D01*
X027930Y020110D01*
X027654Y020030D02*
X027654Y020430D01*
X027574Y020430D02*
X027735Y020430D01*
X027654Y020030D02*
X027574Y019950D01*
X027494Y019950D01*
X027414Y020030D01*
X027414Y020950D02*
X027414Y021430D01*
X027574Y021270D01*
X027735Y021430D01*
X027735Y020950D01*
X027930Y020950D02*
X027930Y021430D01*
X028170Y021270D02*
X027930Y021110D01*
X028170Y020950D01*
X028606Y020430D02*
X028606Y019950D01*
X028446Y019950D02*
X028766Y019950D01*
X028686Y019680D02*
X028526Y019680D01*
X028446Y019600D01*
X028686Y019680D02*
X028766Y019600D01*
X028766Y019520D01*
X028446Y019200D01*
X028766Y019200D01*
X028446Y020270D02*
X028606Y020430D01*
X029477Y020270D02*
X029637Y020430D01*
X029992Y020190D02*
X030313Y020190D01*
X030508Y020350D02*
X030588Y020430D01*
X030748Y020430D01*
X030828Y020350D01*
X030828Y020270D01*
X030508Y019950D01*
X030828Y019950D01*
X031539Y020190D02*
X031700Y020350D01*
X031860Y020430D01*
X032571Y020350D02*
X032571Y020030D01*
X032719Y019680D02*
X032559Y019600D01*
X032399Y019440D01*
X032639Y019440D01*
X032719Y019360D01*
X032719Y019280D01*
X032639Y019200D01*
X032479Y019200D01*
X032399Y019280D01*
X032399Y019440D01*
X028010Y022180D02*
X028010Y022260D01*
X028090Y022450D02*
X028010Y022530D01*
X028010Y022850D01*
X027930Y022770D02*
X028090Y022770D01*
X027735Y022770D02*
X027574Y022930D01*
X027414Y022770D01*
X027414Y022450D01*
X027414Y022690D02*
X027735Y022690D01*
X027735Y022770D02*
X027735Y022450D01*
X019584Y013364D02*
X019584Y013044D01*
X019264Y013364D01*
X019184Y013364D01*
X019104Y013284D01*
X019104Y013124D01*
X019184Y013044D01*
X019184Y012849D02*
X019504Y012528D01*
X019584Y012608D01*
X019584Y012769D01*
X019504Y012849D01*
X019184Y012849D01*
X019104Y012769D01*
X019104Y012608D01*
X019184Y012528D01*
X019504Y012528D01*
X019504Y012333D02*
X019584Y012253D01*
X019584Y012093D01*
X019504Y012013D01*
X019184Y012013D01*
X019104Y012093D01*
X019104Y012253D01*
X019184Y012333D01*
X019104Y011817D02*
X019104Y011497D01*
X019344Y011497D01*
X019264Y011657D01*
X019264Y011737D01*
X019344Y011817D01*
X019504Y011817D01*
X019584Y011737D01*
X019584Y011577D01*
X019504Y011497D01*
X019504Y011302D02*
X019424Y011302D01*
X019344Y011222D01*
X019344Y010981D01*
X019504Y010981D01*
X019584Y011062D01*
X019584Y011222D01*
X019504Y011302D01*
X019184Y011142D02*
X019344Y010981D01*
X019184Y011142D02*
X019104Y011302D01*
X019184Y010786D02*
X019104Y010706D01*
X019104Y010466D01*
X019584Y010466D01*
X019584Y010706D01*
X019504Y010786D01*
X019184Y010786D01*
X019104Y010270D02*
X019584Y010270D01*
X019424Y010110D01*
X019584Y009950D01*
X019104Y009950D01*
X019104Y009239D02*
X019584Y008919D01*
X019584Y008208D02*
X019584Y007888D01*
X019264Y008208D01*
X019184Y008208D01*
X019104Y008128D01*
X019104Y007968D01*
X019184Y007888D01*
X019184Y007692D02*
X019504Y007372D01*
X019584Y007452D01*
X019584Y007612D01*
X019504Y007692D01*
X019184Y007692D01*
X019104Y007612D01*
X019104Y007452D01*
X019184Y007372D01*
X019504Y007372D01*
X019504Y007177D02*
X019584Y007097D01*
X019584Y006936D01*
X019504Y006856D01*
X019344Y006856D02*
X019264Y007016D01*
X019264Y007097D01*
X019344Y007177D01*
X019504Y007177D01*
X019344Y006856D02*
X019104Y006856D01*
X019104Y007177D01*
X019104Y006661D02*
X019184Y006501D01*
X019344Y006341D01*
X019344Y006581D01*
X019424Y006661D01*
X019504Y006661D01*
X019584Y006581D01*
X019584Y006421D01*
X019504Y006341D01*
X019344Y006341D01*
X019584Y005630D02*
X019584Y005309D01*
X019584Y005470D02*
X019104Y005470D01*
X019264Y005309D01*
X019184Y005114D02*
X019104Y005034D01*
X019104Y004874D01*
X019184Y004794D01*
X019504Y004794D01*
X019584Y004874D01*
X019584Y005034D01*
X019504Y005114D01*
X019584Y004610D02*
X019584Y004450D01*
X019584Y004530D02*
X019104Y004530D01*
X019104Y004450D02*
X019104Y004610D01*
X019225Y001120D02*
X019225Y000700D01*
X019085Y000700D02*
X019365Y000700D01*
X019085Y000980D02*
X019225Y001120D01*
X018905Y001120D02*
X018905Y000700D01*
X018625Y001120D01*
X018625Y000700D01*
X018445Y000770D02*
X018374Y000700D01*
X018234Y000700D01*
X018164Y000770D01*
X018164Y001050D01*
X018234Y001120D01*
X018374Y001120D01*
X018445Y001050D01*
X020006Y001050D02*
X020006Y000770D01*
X020076Y000700D01*
X020216Y000700D01*
X020286Y000770D01*
X020466Y000700D02*
X020466Y001120D01*
X020676Y001120D01*
X020746Y001050D01*
X020746Y000910D01*
X020676Y000840D01*
X020466Y000840D01*
X020286Y001050D02*
X020216Y001120D01*
X020076Y001120D01*
X020006Y001050D01*
X020927Y001120D02*
X020927Y000770D01*
X020997Y000700D01*
X021137Y000700D01*
X021207Y000770D01*
X021207Y001120D01*
X021847Y000910D02*
X021917Y000840D01*
X022058Y000840D01*
X022128Y000770D01*
X022058Y000700D01*
X021847Y000700D01*
X021847Y000910D02*
X021917Y000980D01*
X022128Y000980D01*
X022308Y000910D02*
X022308Y000770D01*
X022378Y000700D01*
X022518Y000700D01*
X022588Y000770D01*
X022588Y000910D01*
X022518Y000980D01*
X022378Y000980D01*
X022308Y000910D01*
X022768Y000910D02*
X022768Y000770D01*
X022838Y000700D01*
X023048Y000700D01*
X023229Y000700D02*
X023229Y001120D01*
X023048Y000980D02*
X022838Y000980D01*
X022768Y000910D01*
X023229Y000840D02*
X023439Y000980D01*
X023612Y000910D02*
X023682Y000980D01*
X023822Y000980D01*
X023893Y000910D01*
X023893Y000840D01*
X023612Y000840D01*
X023612Y000770D02*
X023612Y000910D01*
X023612Y000770D02*
X023682Y000700D01*
X023822Y000700D01*
X024143Y000770D02*
X024143Y001050D01*
X024073Y000980D02*
X024213Y000980D01*
X024143Y000770D02*
X024213Y000700D01*
X023439Y000700D02*
X023229Y000840D01*
X012229Y005806D02*
X008520Y005806D01*
X008520Y009518D01*
X012229Y009518D01*
X012229Y005806D01*
X007834Y005221D02*
X007754Y005302D01*
X007834Y005221D02*
X007834Y005061D01*
X007754Y004981D01*
X007434Y004981D01*
X007354Y005061D01*
X007354Y005221D01*
X007434Y005302D01*
X007434Y004786D02*
X007354Y004706D01*
X007354Y004546D01*
X007434Y004466D01*
X007754Y004466D01*
X007834Y004546D01*
X007834Y004706D01*
X007754Y004786D01*
X007674Y004270D02*
X007354Y004270D01*
X007354Y003950D02*
X007674Y003950D01*
X007834Y004110D01*
X007674Y004270D01*
X007451Y001430D02*
X007291Y001430D01*
X007211Y001350D01*
X007211Y001030D01*
X007291Y000950D01*
X007451Y000950D01*
X007531Y001030D01*
X007531Y001190D01*
X007371Y001190D01*
X007531Y001350D02*
X007451Y001430D01*
X007016Y001270D02*
X007016Y000950D01*
X007016Y001190D02*
X006696Y001190D01*
X006696Y001270D02*
X006856Y001430D01*
X007016Y001270D01*
X006696Y001270D02*
X006696Y000950D01*
X006340Y000950D02*
X006340Y001430D01*
X006180Y001430D02*
X006500Y001430D01*
X005985Y001430D02*
X005824Y001430D01*
X005904Y001430D02*
X005904Y001030D01*
X005824Y000950D01*
X005744Y000950D01*
X005664Y001030D01*
X005586Y032200D02*
X005907Y032200D01*
X006102Y032280D02*
X006182Y032200D01*
X006342Y032200D01*
X006422Y032280D01*
X006422Y032360D01*
X006342Y032440D01*
X006182Y032440D01*
X006102Y032520D01*
X006102Y032600D01*
X006182Y032680D01*
X006342Y032680D01*
X006422Y032600D01*
X006618Y032600D02*
X006618Y032520D01*
X006698Y032440D01*
X006858Y032440D01*
X006938Y032360D01*
X006938Y032280D01*
X006858Y032200D01*
X006698Y032200D01*
X006618Y032280D01*
X006618Y032360D01*
X006698Y032440D01*
X006858Y032440D02*
X006938Y032520D01*
X006938Y032600D01*
X006858Y032680D01*
X006698Y032680D01*
X006618Y032600D01*
X007133Y032440D02*
X007373Y032440D01*
X007453Y032360D01*
X007453Y032280D01*
X007373Y032200D01*
X007213Y032200D01*
X007133Y032280D01*
X007133Y032440D01*
X007293Y032600D01*
X007453Y032680D01*
X005586Y032680D02*
X005586Y032200D01*
X005311Y032200D02*
X005311Y032680D01*
X005071Y032440D01*
X005391Y032440D01*
X004875Y032600D02*
X004555Y032280D01*
X004555Y032200D01*
X004555Y032680D02*
X004875Y032680D01*
X004875Y032600D01*
X003844Y032680D02*
X003524Y032680D01*
X003524Y032440D01*
X003684Y032520D01*
X003764Y032520D01*
X003844Y032440D01*
X003844Y032280D01*
X003764Y032200D01*
X003604Y032200D01*
X003524Y032280D01*
X003328Y032280D02*
X003248Y032200D01*
X003088Y032200D01*
X003008Y032280D01*
X003008Y032600D01*
X003088Y032680D01*
X003248Y032680D01*
X003328Y032600D01*
X002824Y032680D02*
X002664Y032680D01*
X002744Y032680D02*
X002744Y032200D01*
X002664Y032200D02*
X002824Y032200D01*
D12*
X007437Y029660D02*
X007624Y029660D01*
X007624Y029160D01*
X007624Y028660D01*
X007437Y028660D01*
X010244Y025210D02*
X010244Y024910D01*
X010244Y024610D01*
X010494Y024610D02*
X010494Y024910D01*
X010494Y025210D01*
X010504Y024210D02*
X010504Y023910D01*
X010504Y023610D01*
X010254Y023610D02*
X010254Y023910D01*
X010254Y024210D01*
X012994Y024610D02*
X012994Y024910D01*
X012994Y025210D01*
X013244Y025210D02*
X013244Y024910D01*
X013244Y024610D01*
X019504Y030610D02*
X019504Y030910D01*
X019504Y031210D01*
X019754Y031210D02*
X019754Y030910D01*
X019754Y030610D01*
X009674Y033030D02*
X009374Y033030D01*
X009074Y033030D01*
X009074Y033280D02*
X009374Y033280D01*
X009674Y033280D01*
X011324Y016040D02*
X011624Y016040D01*
X011924Y016040D01*
X011924Y015790D02*
X011624Y015790D01*
X011324Y015790D01*
X007494Y011460D02*
X007494Y011160D01*
X007494Y010860D01*
X007244Y010860D02*
X007244Y011160D01*
X007244Y011460D01*
X035244Y002710D02*
X035244Y002410D01*
X035244Y002110D01*
X035494Y002110D02*
X035494Y002410D01*
X035494Y002710D01*
D13*
X005124Y003410D02*
X005124Y001910D01*
X005374Y001660D01*
X005874Y001660D01*
X006124Y001910D01*
X006124Y003410D01*
X005874Y003660D01*
X005374Y003660D01*
X005124Y003410D01*
X006124Y003410D02*
X006374Y003660D01*
X006874Y003660D01*
X007124Y003410D01*
X007124Y001910D01*
X006874Y001660D01*
X006374Y001660D01*
X006124Y001910D01*
X007124Y001910D02*
X007374Y001660D01*
X007874Y001660D01*
X008124Y001910D01*
X008124Y003410D01*
X007874Y003660D01*
X007374Y003660D01*
X007124Y003410D01*
X008924Y003560D02*
X008924Y002760D01*
X008926Y002743D01*
X008930Y002726D01*
X008937Y002710D01*
X008947Y002696D01*
X008960Y002683D01*
X008974Y002673D01*
X008990Y002666D01*
X009007Y002662D01*
X009024Y002660D01*
X010724Y002660D01*
X010741Y002662D01*
X010758Y002666D01*
X010774Y002673D01*
X010788Y002683D01*
X010801Y002696D01*
X010811Y002710D01*
X010818Y002726D01*
X010822Y002743D01*
X010824Y002760D01*
X010824Y003560D01*
X010822Y003577D01*
X010818Y003594D01*
X010811Y003610D01*
X010801Y003624D01*
X010788Y003637D01*
X010774Y003647D01*
X010758Y003654D01*
X010741Y003658D01*
X010724Y003660D01*
X009024Y003660D01*
X009007Y003658D01*
X008990Y003654D01*
X008974Y003647D01*
X008960Y003637D01*
X008947Y003624D01*
X008937Y003610D01*
X008930Y003594D01*
X008926Y003577D01*
X008924Y003560D01*
X009724Y003160D02*
X009774Y003160D01*
X009974Y003160D02*
X010024Y003160D01*
X016724Y002410D02*
X022024Y002410D01*
X022024Y022410D01*
X019724Y022410D01*
X019722Y022371D01*
X019716Y022332D01*
X019707Y022294D01*
X019694Y022257D01*
X019677Y022221D01*
X019657Y022188D01*
X019633Y022156D01*
X019607Y022127D01*
X019578Y022101D01*
X019546Y022077D01*
X019513Y022057D01*
X019477Y022040D01*
X019440Y022027D01*
X019402Y022018D01*
X019363Y022012D01*
X019324Y022010D01*
X019285Y022012D01*
X019246Y022018D01*
X019208Y022027D01*
X019171Y022040D01*
X019135Y022057D01*
X019102Y022077D01*
X019070Y022101D01*
X019041Y022127D01*
X019015Y022156D01*
X018991Y022188D01*
X018971Y022221D01*
X018954Y022257D01*
X018941Y022294D01*
X018932Y022332D01*
X018926Y022371D01*
X018924Y022410D01*
X016724Y022410D01*
X016724Y002410D01*
X017974Y002410D02*
X023274Y002410D01*
X023274Y022410D01*
X020974Y022410D01*
X020972Y022371D01*
X020966Y022332D01*
X020957Y022294D01*
X020944Y022257D01*
X020927Y022221D01*
X020907Y022188D01*
X020883Y022156D01*
X020857Y022127D01*
X020828Y022101D01*
X020796Y022077D01*
X020763Y022057D01*
X020727Y022040D01*
X020690Y022027D01*
X020652Y022018D01*
X020613Y022012D01*
X020574Y022010D01*
X020535Y022012D01*
X020496Y022018D01*
X020458Y022027D01*
X020421Y022040D01*
X020385Y022057D01*
X020352Y022077D01*
X020320Y022101D01*
X020291Y022127D01*
X020265Y022156D01*
X020241Y022188D01*
X020221Y022221D01*
X020204Y022257D01*
X020191Y022294D01*
X020182Y022332D01*
X020176Y022371D01*
X020174Y022410D01*
X017974Y022410D01*
X017974Y002410D01*
X027224Y001410D02*
X029474Y001410D01*
X029476Y001449D01*
X029482Y001488D01*
X029491Y001526D01*
X029504Y001563D01*
X029521Y001599D01*
X029541Y001632D01*
X029565Y001664D01*
X029591Y001693D01*
X029620Y001719D01*
X029652Y001743D01*
X029685Y001763D01*
X029721Y001780D01*
X029758Y001793D01*
X029796Y001802D01*
X029835Y001808D01*
X029874Y001810D01*
X029913Y001808D01*
X029952Y001802D01*
X029990Y001793D01*
X030027Y001780D01*
X030063Y001763D01*
X030096Y001743D01*
X030128Y001719D01*
X030157Y001693D01*
X030183Y001664D01*
X030207Y001632D01*
X030227Y001599D01*
X030244Y001563D01*
X030257Y001526D01*
X030266Y001488D01*
X030272Y001449D01*
X030274Y001410D01*
X032524Y001410D01*
X032524Y017410D01*
X027224Y017410D01*
X027224Y001410D01*
X028224Y002460D02*
X029024Y002460D01*
X029041Y002462D01*
X029058Y002466D01*
X029074Y002473D01*
X029088Y002483D01*
X029101Y002496D01*
X029111Y002510D01*
X029118Y002526D01*
X029122Y002543D01*
X029124Y002560D01*
X029124Y004260D01*
X029122Y004277D01*
X029118Y004294D01*
X029111Y004310D01*
X029101Y004324D01*
X029088Y004337D01*
X029074Y004347D01*
X029058Y004354D01*
X029041Y004358D01*
X029024Y004360D01*
X028224Y004360D01*
X028207Y004358D01*
X028190Y004354D01*
X028174Y004347D01*
X028160Y004337D01*
X028147Y004324D01*
X028137Y004310D01*
X028130Y004294D01*
X028126Y004277D01*
X028124Y004260D01*
X028124Y002560D01*
X028126Y002543D01*
X028130Y002526D01*
X028137Y002510D01*
X028147Y002496D01*
X028160Y002483D01*
X028174Y002473D01*
X028190Y002466D01*
X028207Y002462D01*
X028224Y002460D01*
X028624Y003260D02*
X028624Y003310D01*
X028624Y003510D02*
X028624Y003560D01*
X030774Y008160D02*
X031474Y008160D01*
X031491Y008162D01*
X031508Y008166D01*
X031524Y008173D01*
X031538Y008183D01*
X031551Y008196D01*
X031561Y008210D01*
X031568Y008226D01*
X031572Y008243D01*
X031574Y008260D01*
X031574Y008410D01*
X031524Y008460D01*
X031524Y010360D01*
X031574Y010410D01*
X031574Y010560D01*
X031572Y010577D01*
X031568Y010594D01*
X031561Y010610D01*
X031551Y010624D01*
X031538Y010637D01*
X031524Y010647D01*
X031508Y010654D01*
X031491Y010658D01*
X031474Y010660D01*
X030774Y010660D01*
X030757Y010658D01*
X030740Y010654D01*
X030724Y010647D01*
X030710Y010637D01*
X030697Y010624D01*
X030687Y010610D01*
X030680Y010594D01*
X030676Y010577D01*
X030674Y010560D01*
X030674Y010410D01*
X030724Y010360D01*
X030724Y008460D01*
X030674Y008410D01*
X030674Y008260D01*
X030676Y008243D01*
X030680Y008226D01*
X030687Y008210D01*
X030697Y008196D01*
X030710Y008183D01*
X030724Y008173D01*
X030740Y008166D01*
X030757Y008162D01*
X030774Y008160D01*
X035024Y003460D02*
X035024Y017360D01*
X040224Y017360D01*
X040224Y003460D01*
X038124Y003460D01*
X038122Y003504D01*
X038116Y003547D01*
X038107Y003589D01*
X038094Y003631D01*
X038077Y003671D01*
X038057Y003710D01*
X038034Y003747D01*
X038007Y003781D01*
X037978Y003814D01*
X037945Y003843D01*
X037911Y003870D01*
X037874Y003893D01*
X037835Y003913D01*
X037795Y003930D01*
X037753Y003943D01*
X037711Y003952D01*
X037668Y003958D01*
X037624Y003960D01*
X037580Y003958D01*
X037537Y003952D01*
X037495Y003943D01*
X037453Y003930D01*
X037413Y003913D01*
X037374Y003893D01*
X037337Y003870D01*
X037303Y003843D01*
X037270Y003814D01*
X037241Y003781D01*
X037214Y003747D01*
X037191Y003710D01*
X037171Y003671D01*
X037154Y003631D01*
X037141Y003589D01*
X037132Y003547D01*
X037126Y003504D01*
X037124Y003460D01*
X035024Y003460D01*
X034974Y003410D02*
X035724Y003410D01*
X035726Y003449D01*
X035732Y003488D01*
X035741Y003526D01*
X035754Y003563D01*
X035771Y003599D01*
X035791Y003632D01*
X035815Y003664D01*
X035841Y003693D01*
X035870Y003719D01*
X035902Y003743D01*
X035935Y003763D01*
X035971Y003780D01*
X036008Y003793D01*
X036046Y003802D01*
X036085Y003808D01*
X036124Y003810D01*
X036163Y003808D01*
X036202Y003802D01*
X036240Y003793D01*
X036277Y003780D01*
X036313Y003763D01*
X036346Y003743D01*
X036378Y003719D01*
X036407Y003693D01*
X036433Y003664D01*
X036457Y003632D01*
X036477Y003599D01*
X036494Y003563D01*
X036507Y003526D01*
X036516Y003488D01*
X036522Y003449D01*
X036524Y003410D01*
X037274Y003410D01*
X037274Y017410D01*
X034974Y017410D01*
X034974Y003410D01*
X034724Y002860D02*
X036024Y002860D01*
X036050Y002858D01*
X036076Y002853D01*
X036101Y002845D01*
X036124Y002833D01*
X036146Y002819D01*
X036165Y002801D01*
X036183Y002782D01*
X036197Y002760D01*
X036209Y002737D01*
X036217Y002712D01*
X036222Y002686D01*
X036224Y002660D01*
X035874Y002410D02*
X035494Y002410D01*
X035244Y002410D02*
X034874Y002410D01*
X034524Y002160D02*
X034526Y002134D01*
X034531Y002108D01*
X034539Y002083D01*
X034551Y002060D01*
X034565Y002038D01*
X034583Y002019D01*
X034602Y002001D01*
X034624Y001987D01*
X034647Y001975D01*
X034672Y001967D01*
X034698Y001962D01*
X034724Y001960D01*
X036024Y001960D01*
X036050Y001962D01*
X036076Y001967D01*
X036101Y001975D01*
X036124Y001987D01*
X036146Y002001D01*
X036165Y002019D01*
X036183Y002038D01*
X036197Y002060D01*
X036209Y002083D01*
X036217Y002108D01*
X036222Y002134D01*
X036224Y002160D01*
X034724Y002860D02*
X034698Y002858D01*
X034672Y002853D01*
X034647Y002845D01*
X034624Y002833D01*
X034602Y002819D01*
X034583Y002801D01*
X034565Y002782D01*
X034551Y002760D01*
X034539Y002737D01*
X034531Y002712D01*
X034526Y002686D01*
X034524Y002660D01*
X038124Y002760D02*
X038124Y002060D01*
X038126Y002043D01*
X038130Y002026D01*
X038137Y002010D01*
X038147Y001996D01*
X038160Y001983D01*
X038174Y001973D01*
X038190Y001966D01*
X038207Y001962D01*
X038224Y001960D01*
X038374Y001960D01*
X038424Y002010D01*
X040324Y002010D01*
X040374Y001960D01*
X040524Y001960D01*
X040541Y001962D01*
X040558Y001966D01*
X040574Y001973D01*
X040588Y001983D01*
X040601Y001996D01*
X040611Y002010D01*
X040618Y002026D01*
X040622Y002043D01*
X040624Y002060D01*
X040624Y002760D01*
X040622Y002777D01*
X040618Y002794D01*
X040611Y002810D01*
X040601Y002824D01*
X040588Y002837D01*
X040574Y002847D01*
X040558Y002854D01*
X040541Y002858D01*
X040524Y002860D01*
X040374Y002860D01*
X040324Y002810D01*
X038424Y002810D01*
X038374Y002860D01*
X038224Y002860D01*
X038207Y002858D01*
X038190Y002854D01*
X038174Y002847D01*
X038160Y002837D01*
X038147Y002824D01*
X038137Y002810D01*
X038130Y002794D01*
X038126Y002777D01*
X038124Y002760D01*
X041524Y006910D02*
X042224Y006910D01*
X042241Y006912D01*
X042258Y006916D01*
X042274Y006923D01*
X042288Y006933D01*
X042301Y006946D01*
X042311Y006960D01*
X042318Y006976D01*
X042322Y006993D01*
X042324Y007010D01*
X042324Y007160D01*
X042274Y007210D01*
X042274Y009110D01*
X042324Y009160D01*
X042324Y009310D01*
X042322Y009327D01*
X042318Y009344D01*
X042311Y009360D01*
X042301Y009374D01*
X042288Y009387D01*
X042274Y009397D01*
X042258Y009404D01*
X042241Y009408D01*
X042224Y009410D01*
X041524Y009410D01*
X041507Y009408D01*
X041490Y009404D01*
X041474Y009397D01*
X041460Y009387D01*
X041447Y009374D01*
X041437Y009360D01*
X041430Y009344D01*
X041426Y009327D01*
X041424Y009310D01*
X041424Y009160D01*
X041474Y009110D01*
X041474Y007210D01*
X041424Y007160D01*
X041424Y007010D01*
X041426Y006993D01*
X041430Y006976D01*
X041437Y006960D01*
X041447Y006946D01*
X041460Y006933D01*
X041474Y006923D01*
X041490Y006916D01*
X041507Y006912D01*
X041524Y006910D01*
X039574Y008260D02*
X039574Y008410D01*
X039524Y008460D01*
X039524Y010360D01*
X039574Y010410D01*
X039574Y010560D01*
X039572Y010577D01*
X039568Y010594D01*
X039561Y010610D01*
X039551Y010624D01*
X039538Y010637D01*
X039524Y010647D01*
X039508Y010654D01*
X039491Y010658D01*
X039474Y010660D01*
X038774Y010660D01*
X038757Y010658D01*
X038740Y010654D01*
X038724Y010647D01*
X038710Y010637D01*
X038697Y010624D01*
X038687Y010610D01*
X038680Y010594D01*
X038676Y010577D01*
X038674Y010560D01*
X038674Y010410D01*
X038724Y010360D01*
X038724Y008460D01*
X038674Y008410D01*
X038674Y008260D01*
X038676Y008243D01*
X038680Y008226D01*
X038687Y008210D01*
X038697Y008196D01*
X038710Y008183D01*
X038724Y008173D01*
X038740Y008166D01*
X038757Y008162D01*
X038774Y008160D01*
X039474Y008160D01*
X039491Y008162D01*
X039508Y008166D01*
X039524Y008173D01*
X039538Y008183D01*
X039551Y008196D01*
X039561Y008210D01*
X039568Y008226D01*
X039572Y008243D01*
X039574Y008260D01*
X025874Y019160D02*
X025624Y018910D01*
X025124Y018910D01*
X024874Y019160D01*
X024874Y019660D01*
X025124Y019910D01*
X024874Y020160D01*
X024874Y020660D01*
X025124Y020910D01*
X024874Y021160D01*
X024874Y021660D01*
X025124Y021910D01*
X025624Y021910D01*
X025874Y021660D01*
X025874Y021160D01*
X025624Y020910D01*
X025874Y020660D01*
X025874Y020160D01*
X025624Y019910D01*
X025874Y019660D01*
X025874Y019160D01*
X025624Y019910D02*
X025124Y019910D01*
X025124Y020910D02*
X025624Y020910D01*
X020274Y023410D02*
X017974Y023410D01*
X017974Y030410D01*
X018724Y030410D01*
X018974Y030460D02*
X020274Y030460D01*
X020274Y030410D02*
X019524Y030410D01*
X019522Y030371D01*
X019516Y030332D01*
X019507Y030294D01*
X019494Y030257D01*
X019477Y030221D01*
X019457Y030188D01*
X019433Y030156D01*
X019407Y030127D01*
X019378Y030101D01*
X019346Y030077D01*
X019313Y030057D01*
X019277Y030040D01*
X019240Y030027D01*
X019202Y030018D01*
X019163Y030012D01*
X019124Y030010D01*
X019085Y030012D01*
X019046Y030018D01*
X019008Y030027D01*
X018971Y030040D01*
X018935Y030057D01*
X018902Y030077D01*
X018870Y030101D01*
X018841Y030127D01*
X018815Y030156D01*
X018791Y030188D01*
X018771Y030221D01*
X018754Y030257D01*
X018741Y030294D01*
X018732Y030332D01*
X018726Y030371D01*
X018724Y030410D01*
X018774Y030660D02*
X018776Y030634D01*
X018781Y030608D01*
X018789Y030583D01*
X018801Y030560D01*
X018815Y030538D01*
X018833Y030519D01*
X018852Y030501D01*
X018874Y030487D01*
X018897Y030475D01*
X018922Y030467D01*
X018948Y030462D01*
X018974Y030460D01*
X019124Y030910D02*
X019504Y030910D01*
X019754Y030910D02*
X020124Y030910D01*
X020474Y030660D02*
X020472Y030634D01*
X020467Y030608D01*
X020459Y030583D01*
X020447Y030560D01*
X020433Y030538D01*
X020415Y030519D01*
X020396Y030501D01*
X020374Y030487D01*
X020351Y030475D01*
X020326Y030467D01*
X020300Y030462D01*
X020274Y030460D01*
X020274Y030410D02*
X020274Y023410D01*
X016624Y027010D02*
X016624Y027760D01*
X016624Y027660D02*
X016374Y027410D01*
X015874Y027410D01*
X015624Y027660D01*
X015374Y027410D01*
X014874Y027410D01*
X014624Y027660D01*
X014374Y027410D01*
X013874Y027410D01*
X013624Y027660D01*
X013374Y027410D01*
X012874Y027410D01*
X012624Y027660D01*
X012374Y027410D01*
X011874Y027410D01*
X011624Y027660D01*
X011374Y027410D01*
X010874Y027410D01*
X010624Y027660D01*
X010374Y027410D01*
X009874Y027410D01*
X009624Y027660D01*
X009624Y028160D01*
X009874Y028410D01*
X010374Y028410D01*
X010624Y028160D01*
X010874Y028410D01*
X011374Y028410D01*
X011624Y028160D01*
X011624Y027660D01*
X011624Y028160D02*
X011874Y028410D01*
X012374Y028410D01*
X012624Y028160D01*
X012874Y028410D01*
X013374Y028410D01*
X013624Y028160D01*
X013874Y028410D01*
X014374Y028410D01*
X014624Y028160D01*
X014624Y027660D01*
X014624Y028160D02*
X014874Y028410D01*
X015374Y028410D01*
X015624Y028160D01*
X015874Y028410D01*
X016374Y028410D01*
X016624Y028160D01*
X016624Y028560D02*
X016585Y028558D01*
X016546Y028552D01*
X016508Y028543D01*
X016471Y028530D01*
X016435Y028513D01*
X016402Y028493D01*
X016370Y028469D01*
X016341Y028443D01*
X016315Y028414D01*
X016291Y028382D01*
X016271Y028349D01*
X016254Y028313D01*
X016241Y028276D01*
X016232Y028238D01*
X016226Y028199D01*
X016224Y028160D01*
X016226Y028121D01*
X016232Y028082D01*
X016241Y028044D01*
X016254Y028007D01*
X016271Y027971D01*
X016291Y027938D01*
X016315Y027906D01*
X016341Y027877D01*
X016370Y027851D01*
X016402Y027827D01*
X016435Y027807D01*
X016471Y027790D01*
X016508Y027777D01*
X016546Y027768D01*
X016585Y027762D01*
X016624Y027760D01*
X016624Y027660D02*
X016624Y028160D01*
X016624Y028560D02*
X016624Y029310D01*
X009624Y029310D01*
X009624Y027010D01*
X016624Y027010D01*
X015624Y027660D02*
X015624Y028160D01*
X013624Y028160D02*
X013624Y027660D01*
X012624Y027660D02*
X012624Y028160D01*
X010624Y028160D02*
X010624Y027660D01*
X008874Y027560D02*
X008874Y026810D01*
X008835Y026808D01*
X008796Y026802D01*
X008758Y026793D01*
X008721Y026780D01*
X008685Y026763D01*
X008652Y026743D01*
X008620Y026719D01*
X008591Y026693D01*
X008565Y026664D01*
X008541Y026632D01*
X008521Y026599D01*
X008504Y026563D01*
X008491Y026526D01*
X008482Y026488D01*
X008476Y026449D01*
X008474Y026410D01*
X008476Y026371D01*
X008482Y026332D01*
X008491Y026294D01*
X008504Y026257D01*
X008521Y026221D01*
X008541Y026188D01*
X008565Y026156D01*
X008591Y026127D01*
X008620Y026101D01*
X008652Y026077D01*
X008685Y026057D01*
X008721Y026040D01*
X008758Y026027D01*
X008796Y026018D01*
X008835Y026012D01*
X008874Y026010D01*
X008874Y025260D01*
X001874Y025260D01*
X001874Y027560D01*
X008874Y027560D01*
X009724Y025360D02*
X011024Y025360D01*
X011050Y025358D01*
X011076Y025353D01*
X011101Y025345D01*
X011124Y025333D01*
X011146Y025319D01*
X011165Y025301D01*
X011183Y025282D01*
X011197Y025260D01*
X011209Y025237D01*
X011217Y025212D01*
X011222Y025186D01*
X011224Y025160D01*
X010874Y024910D02*
X010494Y024910D01*
X010244Y024910D02*
X009874Y024910D01*
X009524Y024660D02*
X009526Y024634D01*
X009531Y024608D01*
X009539Y024583D01*
X009551Y024560D01*
X009565Y024538D01*
X009583Y024519D01*
X009602Y024501D01*
X009624Y024487D01*
X009647Y024475D01*
X009672Y024467D01*
X009698Y024462D01*
X009724Y024460D01*
X011024Y024460D01*
X011024Y024360D02*
X009724Y024360D01*
X009698Y024358D01*
X009672Y024353D01*
X009647Y024345D01*
X009624Y024333D01*
X009602Y024319D01*
X009583Y024301D01*
X009565Y024282D01*
X009551Y024260D01*
X009539Y024237D01*
X009531Y024212D01*
X009526Y024186D01*
X009524Y024160D01*
X009874Y023910D02*
X010254Y023910D01*
X010504Y023910D02*
X010874Y023910D01*
X011224Y024160D02*
X011222Y024186D01*
X011217Y024212D01*
X011209Y024237D01*
X011197Y024260D01*
X011183Y024282D01*
X011165Y024301D01*
X011146Y024319D01*
X011124Y024333D01*
X011101Y024345D01*
X011076Y024353D01*
X011050Y024358D01*
X011024Y024360D01*
X011024Y024460D02*
X011050Y024462D01*
X011076Y024467D01*
X011101Y024475D01*
X011124Y024487D01*
X011146Y024501D01*
X011165Y024519D01*
X011183Y024538D01*
X011197Y024560D01*
X011209Y024583D01*
X011217Y024608D01*
X011222Y024634D01*
X011224Y024660D01*
X012274Y024660D02*
X012276Y024634D01*
X012281Y024608D01*
X012289Y024583D01*
X012301Y024560D01*
X012315Y024538D01*
X012333Y024519D01*
X012352Y024501D01*
X012374Y024487D01*
X012397Y024475D01*
X012422Y024467D01*
X012448Y024462D01*
X012474Y024460D01*
X013774Y024460D01*
X013800Y024462D01*
X013826Y024467D01*
X013851Y024475D01*
X013874Y024487D01*
X013896Y024501D01*
X013915Y024519D01*
X013933Y024538D01*
X013947Y024560D01*
X013959Y024583D01*
X013967Y024608D01*
X013972Y024634D01*
X013974Y024660D01*
X013624Y024910D02*
X013244Y024910D01*
X012994Y024910D02*
X012624Y024910D01*
X012274Y025160D02*
X012276Y025186D01*
X012281Y025212D01*
X012289Y025237D01*
X012301Y025260D01*
X012315Y025282D01*
X012333Y025301D01*
X012352Y025319D01*
X012374Y025333D01*
X012397Y025345D01*
X012422Y025353D01*
X012448Y025358D01*
X012474Y025360D01*
X013774Y025360D01*
X013800Y025358D01*
X013826Y025353D01*
X013851Y025345D01*
X013874Y025333D01*
X013896Y025319D01*
X013915Y025301D01*
X013933Y025282D01*
X013947Y025260D01*
X013959Y025237D01*
X013967Y025212D01*
X013972Y025186D01*
X013974Y025160D01*
X014374Y024310D02*
X014524Y024310D01*
X014541Y024308D01*
X014558Y024304D01*
X014574Y024297D01*
X014588Y024287D01*
X014601Y024274D01*
X014611Y024260D01*
X014618Y024244D01*
X014622Y024227D01*
X014624Y024210D01*
X014624Y023610D01*
X014622Y023593D01*
X014618Y023576D01*
X014611Y023560D01*
X014601Y023546D01*
X014588Y023533D01*
X014574Y023523D01*
X014558Y023516D01*
X014541Y023512D01*
X014524Y023510D01*
X014374Y023510D01*
X014324Y023560D01*
X012924Y023560D01*
X012874Y023510D01*
X012724Y023510D01*
X012707Y023512D01*
X012690Y023516D01*
X012674Y023523D01*
X012660Y023533D01*
X012647Y023546D01*
X012637Y023560D01*
X012630Y023576D01*
X012626Y023593D01*
X012624Y023610D01*
X012624Y024210D01*
X012626Y024227D01*
X012630Y024244D01*
X012637Y024260D01*
X012647Y024274D01*
X012660Y024287D01*
X012674Y024297D01*
X012690Y024304D01*
X012707Y024308D01*
X012724Y024310D01*
X012874Y024310D01*
X012924Y024260D01*
X014324Y024260D01*
X014374Y024310D01*
X014624Y022410D02*
X014374Y022160D01*
X014374Y021660D01*
X014624Y021410D01*
X014374Y021160D01*
X014374Y020660D01*
X014624Y020410D01*
X015124Y020410D01*
X015374Y020660D01*
X015374Y021160D01*
X015124Y021410D01*
X014624Y021410D01*
X015124Y021410D02*
X015374Y021660D01*
X015374Y022160D01*
X015124Y022410D01*
X014624Y022410D01*
X011024Y023460D02*
X009724Y023460D01*
X009698Y023462D01*
X009672Y023467D01*
X009647Y023475D01*
X009624Y023487D01*
X009602Y023501D01*
X009583Y023519D01*
X009565Y023538D01*
X009551Y023560D01*
X009539Y023583D01*
X009531Y023608D01*
X009526Y023634D01*
X009524Y023660D01*
X009174Y023260D02*
X009124Y023310D01*
X008974Y023310D01*
X008957Y023308D01*
X008940Y023304D01*
X008924Y023297D01*
X008910Y023287D01*
X008897Y023274D01*
X008887Y023260D01*
X008880Y023244D01*
X008876Y023227D01*
X008874Y023210D01*
X008874Y022610D01*
X008876Y022593D01*
X008880Y022576D01*
X008887Y022560D01*
X008897Y022546D01*
X008910Y022533D01*
X008924Y022523D01*
X008940Y022516D01*
X008957Y022512D01*
X008974Y022510D01*
X009124Y022510D01*
X009174Y022560D01*
X010574Y022560D01*
X010624Y022510D01*
X010774Y022510D01*
X010791Y022512D01*
X010808Y022516D01*
X010824Y022523D01*
X010838Y022533D01*
X010851Y022546D01*
X010861Y022560D01*
X010868Y022576D01*
X010872Y022593D01*
X010874Y022610D01*
X010874Y023210D01*
X010872Y023227D01*
X010868Y023244D01*
X010861Y023260D01*
X010851Y023274D01*
X010838Y023287D01*
X010824Y023297D01*
X010808Y023304D01*
X010791Y023308D01*
X010774Y023310D01*
X010624Y023310D01*
X010574Y023260D01*
X009174Y023260D01*
X009124Y022310D02*
X008974Y022310D01*
X008957Y022308D01*
X008940Y022304D01*
X008924Y022297D01*
X008910Y022287D01*
X008897Y022274D01*
X008887Y022260D01*
X008880Y022244D01*
X008876Y022227D01*
X008874Y022210D01*
X008874Y021610D01*
X008876Y021593D01*
X008880Y021576D01*
X008887Y021560D01*
X008897Y021546D01*
X008910Y021533D01*
X008924Y021523D01*
X008940Y021516D01*
X008957Y021512D01*
X008974Y021510D01*
X009124Y021510D01*
X009174Y021560D01*
X010574Y021560D01*
X010624Y021510D01*
X010774Y021510D01*
X010791Y021512D01*
X010808Y021516D01*
X010824Y021523D01*
X010838Y021533D01*
X010851Y021546D01*
X010861Y021560D01*
X010868Y021576D01*
X010872Y021593D01*
X010874Y021610D01*
X010874Y022210D01*
X010872Y022227D01*
X010868Y022244D01*
X010861Y022260D01*
X010851Y022274D01*
X010838Y022287D01*
X010824Y022297D01*
X010808Y022304D01*
X010791Y022308D01*
X010774Y022310D01*
X010624Y022310D01*
X010574Y022260D01*
X009174Y022260D01*
X009124Y022310D01*
X009374Y021160D02*
X009874Y021160D01*
X010124Y020910D01*
X010124Y020410D01*
X009874Y020160D01*
X010124Y019910D01*
X010124Y019410D01*
X009874Y019160D01*
X009374Y019160D01*
X009124Y019410D01*
X009124Y019910D01*
X009374Y020160D01*
X009124Y020410D01*
X009124Y020910D01*
X009374Y021160D01*
X009374Y020160D02*
X009874Y020160D01*
X007624Y020260D02*
X007624Y019560D01*
X007622Y019543D01*
X007618Y019526D01*
X007611Y019510D01*
X007601Y019496D01*
X007588Y019483D01*
X007574Y019473D01*
X007558Y019466D01*
X007541Y019462D01*
X007524Y019460D01*
X007374Y019460D01*
X007324Y019510D01*
X005424Y019510D01*
X005374Y019460D01*
X005224Y019460D01*
X005207Y019462D01*
X005190Y019466D01*
X005174Y019473D01*
X005160Y019483D01*
X005147Y019496D01*
X005137Y019510D01*
X005130Y019526D01*
X005126Y019543D01*
X005124Y019560D01*
X005124Y020260D01*
X005126Y020277D01*
X005130Y020294D01*
X005137Y020310D01*
X005147Y020324D01*
X005160Y020337D01*
X005174Y020347D01*
X005190Y020354D01*
X005207Y020358D01*
X005224Y020360D01*
X005374Y020360D01*
X005424Y020310D01*
X007324Y020310D01*
X007374Y020360D01*
X007524Y020360D01*
X007541Y020358D01*
X007558Y020354D01*
X007574Y020347D01*
X007588Y020337D01*
X007601Y020324D01*
X007611Y020310D01*
X007618Y020294D01*
X007622Y020277D01*
X007624Y020260D01*
X007524Y019360D02*
X007374Y019360D01*
X007324Y019310D01*
X005424Y019310D01*
X005374Y019360D01*
X005224Y019360D01*
X005207Y019358D01*
X005190Y019354D01*
X005174Y019347D01*
X005160Y019337D01*
X005147Y019324D01*
X005137Y019310D01*
X005130Y019294D01*
X005126Y019277D01*
X005124Y019260D01*
X005124Y018560D01*
X005126Y018543D01*
X005130Y018526D01*
X005137Y018510D01*
X005147Y018496D01*
X005160Y018483D01*
X005174Y018473D01*
X005190Y018466D01*
X005207Y018462D01*
X005224Y018460D01*
X005374Y018460D01*
X005424Y018510D01*
X007324Y018510D01*
X007374Y018460D01*
X007524Y018460D01*
X007541Y018462D01*
X007558Y018466D01*
X007574Y018473D01*
X007588Y018483D01*
X007601Y018496D01*
X007611Y018510D01*
X007618Y018526D01*
X007622Y018543D01*
X007624Y018560D01*
X007624Y019260D01*
X007622Y019277D01*
X007618Y019294D01*
X007611Y019310D01*
X007601Y019324D01*
X007588Y019337D01*
X007574Y019347D01*
X007558Y019354D01*
X007541Y019358D01*
X007524Y019360D01*
X010124Y016460D02*
X010124Y016110D01*
X009874Y016110D01*
X009874Y015980D01*
X010374Y015980D01*
X010374Y016110D01*
X010124Y016110D01*
X009632Y016664D02*
X009585Y016631D01*
X009540Y016595D01*
X009497Y016556D01*
X009457Y016515D01*
X009420Y016471D01*
X009385Y016424D01*
X009354Y016376D01*
X009326Y016326D01*
X009301Y016274D01*
X009279Y016220D01*
X009261Y016166D01*
X009247Y016110D01*
X009236Y016053D01*
X009228Y015996D01*
X009224Y015939D01*
X009224Y015881D01*
X009228Y015824D01*
X009236Y015767D01*
X009247Y015710D01*
X009261Y015654D01*
X009279Y015600D01*
X009301Y015546D01*
X009326Y015494D01*
X009354Y015444D01*
X009385Y015396D01*
X009420Y015349D01*
X009457Y015305D01*
X009497Y015264D01*
X009540Y015225D01*
X009585Y015189D01*
X009632Y015156D01*
X009874Y015360D02*
X009874Y015560D01*
X009974Y015460D02*
X009774Y015460D01*
X009874Y015710D02*
X010124Y015710D01*
X010374Y015710D01*
X010374Y015840D01*
X009874Y015840D01*
X009874Y015710D01*
X010124Y015710D02*
X010124Y015360D01*
X010616Y015156D02*
X010663Y015189D01*
X010708Y015225D01*
X010751Y015264D01*
X010791Y015305D01*
X010828Y015349D01*
X010863Y015396D01*
X010894Y015444D01*
X010922Y015494D01*
X010947Y015546D01*
X010969Y015600D01*
X010987Y015654D01*
X011001Y015710D01*
X011012Y015767D01*
X011020Y015824D01*
X011024Y015881D01*
X011024Y015939D01*
X011020Y015996D01*
X011012Y016053D01*
X011001Y016110D01*
X010987Y016166D01*
X010969Y016220D01*
X010947Y016274D01*
X010922Y016326D01*
X010894Y016376D01*
X010863Y016424D01*
X010828Y016471D01*
X010791Y016515D01*
X010751Y016556D01*
X010708Y016595D01*
X010663Y016631D01*
X010616Y016664D01*
X011174Y016560D02*
X011174Y015260D01*
X011176Y015234D01*
X011181Y015208D01*
X011189Y015183D01*
X011201Y015160D01*
X011215Y015138D01*
X011233Y015119D01*
X011252Y015101D01*
X011274Y015087D01*
X011297Y015075D01*
X011322Y015067D01*
X011348Y015062D01*
X011374Y015060D01*
X011624Y015410D02*
X011624Y015790D01*
X011624Y016040D02*
X011624Y016410D01*
X011374Y016760D02*
X011348Y016758D01*
X011322Y016753D01*
X011297Y016745D01*
X011274Y016733D01*
X011252Y016719D01*
X011233Y016701D01*
X011215Y016682D01*
X011201Y016660D01*
X011189Y016637D01*
X011181Y016612D01*
X011176Y016586D01*
X011174Y016560D01*
X011874Y016760D02*
X011900Y016758D01*
X011926Y016753D01*
X011951Y016745D01*
X011974Y016733D01*
X011996Y016719D01*
X012015Y016701D01*
X012033Y016682D01*
X012047Y016660D01*
X012059Y016637D01*
X012067Y016612D01*
X012072Y016586D01*
X012074Y016560D01*
X012074Y015260D01*
X012072Y015234D01*
X012067Y015208D01*
X012059Y015183D01*
X012047Y015160D01*
X012033Y015138D01*
X012015Y015119D01*
X011996Y015101D01*
X011974Y015087D01*
X011951Y015075D01*
X011926Y015067D01*
X011900Y015062D01*
X011874Y015060D01*
X013424Y015357D02*
X013424Y015463D01*
X014024Y015085D02*
X014024Y016735D01*
X013424Y016463D02*
X013424Y016357D01*
X010324Y016040D02*
X009924Y016040D01*
X008024Y011610D02*
X006724Y011610D01*
X006698Y011608D01*
X006672Y011603D01*
X006647Y011595D01*
X006624Y011583D01*
X006602Y011569D01*
X006583Y011551D01*
X006565Y011532D01*
X006551Y011510D01*
X006539Y011487D01*
X006531Y011462D01*
X006526Y011436D01*
X006524Y011410D01*
X006874Y011160D02*
X007244Y011160D01*
X007494Y011160D02*
X007874Y011160D01*
X008224Y010910D02*
X008222Y010884D01*
X008217Y010858D01*
X008209Y010833D01*
X008197Y010810D01*
X008183Y010788D01*
X008165Y010769D01*
X008146Y010751D01*
X008124Y010737D01*
X008101Y010725D01*
X008076Y010717D01*
X008050Y010712D01*
X008024Y010710D01*
X006724Y010710D01*
X006698Y010712D01*
X006672Y010717D01*
X006647Y010725D01*
X006624Y010737D01*
X006602Y010751D01*
X006583Y010769D01*
X006565Y010788D01*
X006551Y010810D01*
X006539Y010833D01*
X006531Y010858D01*
X006526Y010884D01*
X006524Y010910D01*
X008024Y011610D02*
X008050Y011608D01*
X008076Y011603D01*
X008101Y011595D01*
X008124Y011583D01*
X008146Y011569D01*
X008165Y011551D01*
X008183Y011532D01*
X008197Y011510D01*
X008209Y011487D01*
X008217Y011462D01*
X008222Y011436D01*
X008224Y011410D01*
X003124Y018410D02*
X002624Y018410D01*
X002374Y018660D01*
X002374Y019160D01*
X002624Y019410D01*
X002374Y019660D01*
X002374Y020160D01*
X002624Y020410D01*
X003124Y020410D01*
X003374Y020160D01*
X003374Y019660D01*
X003124Y019410D01*
X003374Y019160D01*
X003374Y018660D01*
X003124Y018410D01*
X003124Y019410D02*
X002624Y019410D01*
X002524Y022410D02*
X004224Y022410D01*
X004241Y022412D01*
X004258Y022416D01*
X004274Y022423D01*
X004288Y022433D01*
X004301Y022446D01*
X004311Y022460D01*
X004318Y022476D01*
X004322Y022493D01*
X004324Y022510D01*
X004324Y023310D01*
X004322Y023327D01*
X004318Y023344D01*
X004311Y023360D01*
X004301Y023374D01*
X004288Y023387D01*
X004274Y023397D01*
X004258Y023404D01*
X004241Y023408D01*
X004224Y023410D01*
X002524Y023410D01*
X002507Y023408D01*
X002490Y023404D01*
X002474Y023397D01*
X002460Y023387D01*
X002447Y023374D01*
X002437Y023360D01*
X002430Y023344D01*
X002426Y023327D01*
X002424Y023310D01*
X002424Y022510D01*
X002426Y022493D01*
X002430Y022476D01*
X002437Y022460D01*
X002447Y022446D01*
X002460Y022433D01*
X002474Y022423D01*
X002490Y022416D01*
X002507Y022412D01*
X002524Y022410D01*
X003224Y022910D02*
X003274Y022910D01*
X003474Y022910D02*
X003524Y022910D01*
X003574Y023510D02*
X005174Y023510D01*
X005191Y023512D01*
X005208Y023516D01*
X005224Y023523D01*
X005238Y023533D01*
X005251Y023546D01*
X005261Y023560D01*
X005268Y023576D01*
X005272Y023593D01*
X005274Y023610D01*
X005274Y024210D01*
X005272Y024227D01*
X005268Y024244D01*
X005261Y024260D01*
X005251Y024274D01*
X005238Y024287D01*
X005224Y024297D01*
X005208Y024304D01*
X005191Y024308D01*
X005174Y024310D01*
X003574Y024310D01*
X003557Y024308D01*
X003540Y024304D01*
X003524Y024297D01*
X003510Y024287D01*
X003497Y024274D01*
X003487Y024260D01*
X003480Y024244D01*
X003476Y024227D01*
X003474Y024210D01*
X003474Y023610D01*
X003476Y023593D01*
X003480Y023576D01*
X003487Y023560D01*
X003497Y023546D01*
X003510Y023533D01*
X003524Y023523D01*
X003540Y023516D01*
X003557Y023512D01*
X003574Y023510D01*
X003974Y023660D02*
X003974Y024160D01*
X004374Y023910D01*
X004374Y024160D01*
X004374Y023910D02*
X004374Y023660D01*
X004374Y023910D02*
X003974Y023660D01*
X003774Y023910D02*
X004374Y023910D01*
X004624Y023910D01*
X009524Y025160D02*
X009526Y025186D01*
X009531Y025212D01*
X009539Y025237D01*
X009551Y025260D01*
X009565Y025282D01*
X009583Y025301D01*
X009602Y025319D01*
X009624Y025333D01*
X009647Y025345D01*
X009672Y025353D01*
X009698Y025358D01*
X009724Y025360D01*
X011224Y023660D02*
X011222Y023634D01*
X011217Y023608D01*
X011209Y023583D01*
X011197Y023560D01*
X011183Y023538D01*
X011165Y023519D01*
X011146Y023501D01*
X011124Y023487D01*
X011101Y023475D01*
X011076Y023467D01*
X011050Y023462D01*
X011024Y023460D01*
X010874Y030410D02*
X010624Y030660D01*
X010374Y030410D01*
X009874Y030410D01*
X009624Y030660D01*
X009624Y031160D01*
X009874Y031410D01*
X010374Y031410D01*
X010624Y031160D01*
X010874Y031410D01*
X011374Y031410D01*
X011624Y031160D01*
X011874Y031410D01*
X012374Y031410D01*
X012624Y031160D01*
X012874Y031410D01*
X013374Y031410D01*
X013624Y031160D01*
X013874Y031410D01*
X014374Y031410D01*
X014624Y031160D01*
X014874Y031410D01*
X015374Y031410D01*
X015624Y031160D01*
X015874Y031410D01*
X016374Y031410D01*
X016624Y031160D01*
X016624Y030660D01*
X016374Y030410D01*
X015874Y030410D01*
X015624Y030660D01*
X015374Y030410D01*
X014874Y030410D01*
X014624Y030660D01*
X014624Y031160D01*
X014624Y030660D02*
X014374Y030410D01*
X013874Y030410D01*
X013624Y030660D01*
X013374Y030410D01*
X012874Y030410D01*
X012624Y030660D01*
X012374Y030410D01*
X011874Y030410D01*
X011624Y030660D01*
X011624Y031160D01*
X011624Y030660D02*
X011374Y030410D01*
X010874Y030410D01*
X010624Y030660D02*
X010624Y031160D01*
X009824Y032510D02*
X009824Y033810D01*
X009822Y033836D01*
X009817Y033862D01*
X009809Y033887D01*
X009797Y033910D01*
X009783Y033932D01*
X009765Y033951D01*
X009746Y033969D01*
X009724Y033983D01*
X009701Y033995D01*
X009676Y034003D01*
X009650Y034008D01*
X009624Y034010D01*
X009374Y033660D02*
X009374Y033280D01*
X009374Y033030D02*
X009374Y032660D01*
X009124Y032310D02*
X009098Y032312D01*
X009072Y032317D01*
X009047Y032325D01*
X009024Y032337D01*
X009002Y032351D01*
X008983Y032369D01*
X008965Y032388D01*
X008951Y032410D01*
X008939Y032433D01*
X008931Y032458D01*
X008926Y032484D01*
X008924Y032510D01*
X008924Y033810D01*
X008926Y033836D01*
X008931Y033862D01*
X008939Y033887D01*
X008951Y033910D01*
X008965Y033932D01*
X008983Y033951D01*
X009002Y033969D01*
X009024Y033983D01*
X009047Y033995D01*
X009072Y034003D01*
X009098Y034008D01*
X009124Y034010D01*
X008874Y033560D02*
X008874Y032810D01*
X008835Y032808D01*
X008796Y032802D01*
X008758Y032793D01*
X008721Y032780D01*
X008685Y032763D01*
X008652Y032743D01*
X008620Y032719D01*
X008591Y032693D01*
X008565Y032664D01*
X008541Y032632D01*
X008521Y032599D01*
X008504Y032563D01*
X008491Y032526D01*
X008482Y032488D01*
X008476Y032449D01*
X008474Y032410D01*
X008476Y032371D01*
X008482Y032332D01*
X008491Y032294D01*
X008504Y032257D01*
X008521Y032221D01*
X008541Y032188D01*
X008565Y032156D01*
X008591Y032127D01*
X008620Y032101D01*
X008652Y032077D01*
X008685Y032057D01*
X008721Y032040D01*
X008758Y032027D01*
X008796Y032018D01*
X008835Y032012D01*
X008874Y032010D01*
X008874Y031260D01*
X001874Y031260D01*
X001874Y033560D01*
X008874Y033560D01*
X009824Y032510D02*
X009822Y032484D01*
X009817Y032458D01*
X009809Y032433D01*
X009797Y032410D01*
X009783Y032388D01*
X009765Y032369D01*
X009746Y032351D01*
X009724Y032337D01*
X009701Y032325D01*
X009676Y032317D01*
X009650Y032312D01*
X009624Y032310D01*
X009974Y034760D02*
X010124Y034760D01*
X010174Y034810D01*
X011574Y034810D01*
X011624Y034760D01*
X011774Y034760D01*
X011791Y034762D01*
X011808Y034766D01*
X011824Y034773D01*
X011838Y034783D01*
X011851Y034796D01*
X011861Y034810D01*
X011868Y034826D01*
X011872Y034843D01*
X011874Y034860D01*
X011874Y035460D01*
X011872Y035477D01*
X011868Y035494D01*
X011861Y035510D01*
X011851Y035524D01*
X011838Y035537D01*
X011824Y035547D01*
X011808Y035554D01*
X011791Y035558D01*
X011774Y035560D01*
X011624Y035560D01*
X011574Y035510D01*
X010174Y035510D01*
X010124Y035560D01*
X009974Y035560D01*
X009957Y035558D01*
X009940Y035554D01*
X009924Y035547D01*
X009910Y035537D01*
X009897Y035524D01*
X009887Y035510D01*
X009880Y035494D01*
X009876Y035477D01*
X009874Y035460D01*
X009874Y034860D01*
X009876Y034843D01*
X009880Y034826D01*
X009887Y034810D01*
X009897Y034796D01*
X009910Y034783D01*
X009924Y034773D01*
X009940Y034766D01*
X009957Y034762D01*
X009974Y034760D01*
X007624Y034860D02*
X007624Y035460D01*
X007622Y035477D01*
X007618Y035494D01*
X007611Y035510D01*
X007601Y035524D01*
X007588Y035537D01*
X007574Y035547D01*
X007558Y035554D01*
X007541Y035558D01*
X007524Y035560D01*
X007374Y035560D01*
X007324Y035510D01*
X005924Y035510D01*
X005874Y035560D01*
X005724Y035560D01*
X005707Y035558D01*
X005690Y035554D01*
X005674Y035547D01*
X005660Y035537D01*
X005647Y035524D01*
X005637Y035510D01*
X005630Y035494D01*
X005626Y035477D01*
X005624Y035460D01*
X005624Y034860D01*
X005626Y034843D01*
X005630Y034826D01*
X005637Y034810D01*
X005647Y034796D01*
X005660Y034783D01*
X005674Y034773D01*
X005690Y034766D01*
X005707Y034762D01*
X005724Y034760D01*
X005874Y034760D01*
X005924Y034810D01*
X007324Y034810D01*
X007374Y034760D01*
X007524Y034760D01*
X007541Y034762D01*
X007558Y034766D01*
X007574Y034773D01*
X007588Y034783D01*
X007601Y034796D01*
X007611Y034810D01*
X007618Y034826D01*
X007622Y034843D01*
X007624Y034860D01*
X004824Y034760D02*
X004824Y035560D01*
X004822Y035577D01*
X004818Y035594D01*
X004811Y035610D01*
X004801Y035624D01*
X004788Y035637D01*
X004774Y035647D01*
X004758Y035654D01*
X004741Y035658D01*
X004724Y035660D01*
X003024Y035660D01*
X003007Y035658D01*
X002990Y035654D01*
X002974Y035647D01*
X002960Y035637D01*
X002947Y035624D01*
X002937Y035610D01*
X002930Y035594D01*
X002926Y035577D01*
X002924Y035560D01*
X002924Y034760D01*
X002926Y034743D01*
X002930Y034726D01*
X002937Y034710D01*
X002947Y034696D01*
X002960Y034683D01*
X002974Y034673D01*
X002990Y034666D01*
X003007Y034662D01*
X003024Y034660D01*
X004724Y034660D01*
X004741Y034662D01*
X004758Y034666D01*
X004774Y034673D01*
X004788Y034683D01*
X004801Y034696D01*
X004811Y034710D01*
X004818Y034726D01*
X004822Y034743D01*
X004824Y034760D01*
X004024Y035160D02*
X003974Y035160D01*
X003774Y035160D02*
X003724Y035160D01*
X012624Y031160D02*
X012624Y030660D01*
X013624Y030660D02*
X013624Y031160D01*
X014324Y032760D02*
X014924Y032760D01*
X014941Y032762D01*
X014958Y032766D01*
X014974Y032773D01*
X014988Y032783D01*
X015001Y032796D01*
X015011Y032810D01*
X015018Y032826D01*
X015022Y032843D01*
X015024Y032860D01*
X015024Y034460D01*
X015022Y034477D01*
X015018Y034494D01*
X015011Y034510D01*
X015001Y034524D01*
X014988Y034537D01*
X014974Y034547D01*
X014958Y034554D01*
X014941Y034558D01*
X014924Y034560D01*
X014324Y034560D01*
X014307Y034558D01*
X014290Y034554D01*
X014274Y034547D01*
X014260Y034537D01*
X014247Y034524D01*
X014237Y034510D01*
X014230Y034494D01*
X014226Y034477D01*
X014224Y034460D01*
X014224Y032860D01*
X014226Y032843D01*
X014230Y032826D01*
X014237Y032810D01*
X014247Y032796D01*
X014260Y032783D01*
X014274Y032773D01*
X014290Y032766D01*
X014307Y032762D01*
X014324Y032760D01*
X014624Y033410D02*
X014624Y033660D01*
X014874Y033660D01*
X014624Y033660D02*
X014374Y034060D01*
X014874Y034060D01*
X014624Y033660D01*
X014374Y033660D01*
X014624Y033660D02*
X014624Y034260D01*
X015624Y031160D02*
X015624Y030660D01*
X018774Y031160D02*
X018776Y031186D01*
X018781Y031212D01*
X018789Y031237D01*
X018801Y031260D01*
X018815Y031282D01*
X018833Y031301D01*
X018852Y031319D01*
X018874Y031333D01*
X018897Y031345D01*
X018922Y031353D01*
X018948Y031358D01*
X018974Y031360D01*
X020274Y031360D01*
X020300Y031358D01*
X020326Y031353D01*
X020351Y031345D01*
X020374Y031333D01*
X020396Y031319D01*
X020415Y031301D01*
X020433Y031282D01*
X020447Y031260D01*
X020459Y031237D01*
X020467Y031212D01*
X020472Y031186D01*
X020474Y031160D01*
X020224Y018160D02*
X019524Y018160D01*
X019507Y018158D01*
X019490Y018154D01*
X019474Y018147D01*
X019460Y018137D01*
X019447Y018124D01*
X019437Y018110D01*
X019430Y018094D01*
X019426Y018077D01*
X019424Y018060D01*
X019424Y017910D01*
X019474Y017860D01*
X019474Y015960D01*
X019424Y015910D01*
X019424Y015760D01*
X019426Y015743D01*
X019430Y015726D01*
X019437Y015710D01*
X019447Y015696D01*
X019460Y015683D01*
X019474Y015673D01*
X019490Y015666D01*
X019507Y015662D01*
X019524Y015660D01*
X020224Y015660D01*
X020241Y015662D01*
X020258Y015666D01*
X020274Y015673D01*
X020288Y015683D01*
X020301Y015696D01*
X020311Y015710D01*
X020318Y015726D01*
X020322Y015743D01*
X020324Y015760D01*
X020324Y015910D01*
X020274Y015960D01*
X020274Y017860D01*
X020324Y017910D01*
X020324Y018060D01*
X020322Y018077D01*
X020318Y018094D01*
X020311Y018110D01*
X020301Y018124D01*
X020288Y018137D01*
X020274Y018147D01*
X020258Y018154D01*
X020241Y018158D01*
X020224Y018160D01*
D14*
X019874Y018330D03*
X019874Y015490D03*
X031124Y010830D03*
X031124Y007990D03*
X039124Y007990D03*
X039124Y010830D03*
X041874Y009580D03*
X041874Y006740D03*
D15*
X028924Y003510D02*
X028624Y003510D01*
X028324Y003510D01*
X028324Y003310D02*
X028624Y003310D01*
X028924Y003310D01*
X009974Y003160D02*
X009974Y002860D01*
X009774Y002860D02*
X009774Y003160D01*
X009774Y003460D01*
X009974Y003460D02*
X009974Y003160D01*
X008701Y009136D02*
X008703Y009163D01*
X008709Y009190D01*
X008718Y009216D01*
X008731Y009240D01*
X008747Y009263D01*
X008766Y009282D01*
X008788Y009299D01*
X008812Y009313D01*
X008837Y009323D01*
X008864Y009330D01*
X008891Y009333D01*
X008919Y009332D01*
X008946Y009327D01*
X008972Y009319D01*
X008996Y009307D01*
X009019Y009291D01*
X009040Y009273D01*
X009057Y009252D01*
X009072Y009228D01*
X009083Y009203D01*
X009091Y009177D01*
X009095Y009150D01*
X009095Y009122D01*
X009091Y009095D01*
X009083Y009069D01*
X009072Y009044D01*
X009057Y009020D01*
X009040Y008999D01*
X009019Y008981D01*
X008997Y008965D01*
X008972Y008953D01*
X008946Y008945D01*
X008919Y008940D01*
X008891Y008939D01*
X008864Y008942D01*
X008837Y008949D01*
X008812Y008959D01*
X008788Y008973D01*
X008766Y008990D01*
X008747Y009009D01*
X008731Y009032D01*
X008718Y009056D01*
X008709Y009082D01*
X008703Y009109D01*
X008701Y009136D01*
X003474Y022610D02*
X003474Y022910D01*
X003474Y023210D01*
X003274Y023210D02*
X003274Y022910D01*
X003274Y022610D01*
X003774Y034860D02*
X003774Y035160D01*
X003774Y035460D01*
X003974Y035460D02*
X003974Y035160D01*
X003974Y034860D01*
D16*
X004954Y019910D03*
X004954Y018910D03*
X007794Y018910D03*
X007794Y019910D03*
X037954Y002410D03*
X040794Y002410D03*
D17*
X014699Y023910D03*
X012549Y023910D03*
X010949Y022910D03*
X010949Y021910D03*
X008799Y021910D03*
X008799Y022910D03*
X009799Y035160D03*
X007699Y035160D03*
X005549Y035160D03*
X011949Y035160D03*
D18*
X005024Y023910D03*
D19*
X005399Y023910D03*
X003349Y023910D03*
D20*
X014624Y033010D03*
D21*
X014624Y032635D03*
X014624Y034685D03*
D22*
X017374Y035410D02*
X017374Y037535D01*
D23*
X016374Y037410D02*
X016374Y040910D01*
X016374Y042910D01*
X016874Y042910D01*
X016874Y044660D01*
X017874Y044660D01*
X017874Y042910D01*
X016874Y042910D01*
X017874Y042910D02*
X018374Y042910D01*
X018374Y040910D01*
X016374Y040910D01*
X018374Y040910D02*
X018374Y037410D01*
X016374Y037410D01*
X010509Y016171D02*
X010509Y015944D01*
X010509Y016058D02*
X010849Y016058D01*
X010849Y015698D02*
X010509Y015698D01*
X010509Y015585D02*
X010509Y015812D01*
D24*
X013835Y014937D02*
X013812Y014986D01*
X013863Y015011D01*
X013912Y015040D01*
X013959Y015071D01*
X014005Y015105D01*
X014038Y015063D01*
X014038Y015062D01*
X013990Y015027D01*
X013940Y014994D01*
X013889Y014964D01*
X013835Y014937D01*
X013833Y014941D01*
X013886Y014968D01*
X013938Y014998D01*
X013987Y015031D01*
X014035Y015066D01*
X014032Y015070D01*
X013985Y015035D01*
X013935Y015002D01*
X013884Y014973D01*
X013831Y014946D01*
X013829Y014950D01*
X013882Y014977D01*
X013933Y015007D01*
X013982Y015039D01*
X014029Y015074D01*
X014026Y015078D01*
X013979Y015043D01*
X013930Y015011D01*
X013879Y014982D01*
X013827Y014955D01*
X013825Y014959D01*
X013877Y014986D01*
X013927Y015015D01*
X013976Y015047D01*
X014023Y015082D01*
X014020Y015086D01*
X013973Y015051D01*
X013925Y015019D01*
X013874Y014990D01*
X013823Y014964D01*
X013821Y014969D01*
X013872Y014995D01*
X013922Y015024D01*
X013970Y015055D01*
X014017Y015090D01*
X014014Y015094D01*
X013967Y015060D01*
X013919Y015028D01*
X013870Y014999D01*
X013818Y014973D01*
X013816Y014978D01*
X013867Y015004D01*
X013917Y015032D01*
X013965Y015064D01*
X014011Y015098D01*
X014007Y015102D01*
X013962Y015068D01*
X013914Y015036D01*
X013865Y015008D01*
X013814Y014982D01*
X012913Y016883D02*
X012936Y016834D01*
X012880Y016806D01*
X012826Y016774D01*
X012775Y016739D01*
X012725Y016701D01*
X012678Y016660D01*
X012634Y016616D01*
X012592Y016570D01*
X012554Y016521D01*
X012518Y016470D01*
X012485Y016417D01*
X012456Y016362D01*
X012430Y016305D01*
X012408Y016247D01*
X012389Y016187D01*
X012374Y016127D01*
X012363Y016065D01*
X012355Y016003D01*
X012351Y015941D01*
X012351Y015879D01*
X012355Y015817D01*
X012363Y015755D01*
X012374Y015693D01*
X012389Y015633D01*
X012408Y015573D01*
X012430Y015515D01*
X012456Y015458D01*
X012485Y015403D01*
X012518Y015350D01*
X012554Y015299D01*
X012592Y015250D01*
X012634Y015204D01*
X012678Y015160D01*
X012725Y015119D01*
X012775Y015081D01*
X012826Y015046D01*
X012880Y015014D01*
X012936Y014986D01*
X012913Y014937D01*
X012856Y014966D01*
X012801Y014998D01*
X012747Y015034D01*
X012697Y015073D01*
X012648Y015114D01*
X012602Y015159D01*
X012559Y015206D01*
X012519Y015256D01*
X012481Y015307D01*
X012447Y015362D01*
X012416Y015417D01*
X012389Y015475D01*
X012365Y015534D01*
X012344Y015595D01*
X012327Y015657D01*
X012314Y015719D01*
X012305Y015782D01*
X012299Y015846D01*
X012297Y015910D01*
X012299Y015974D01*
X012305Y016038D01*
X012314Y016101D01*
X012327Y016163D01*
X012344Y016225D01*
X012365Y016286D01*
X012389Y016345D01*
X012416Y016403D01*
X012447Y016458D01*
X012481Y016513D01*
X012519Y016564D01*
X012559Y016614D01*
X012602Y016661D01*
X012648Y016706D01*
X012697Y016747D01*
X012747Y016786D01*
X012801Y016822D01*
X012856Y016854D01*
X012913Y016883D01*
X012915Y016879D01*
X012857Y016849D01*
X012800Y016816D01*
X012746Y016779D01*
X012694Y016739D01*
X012645Y016696D01*
X012599Y016650D01*
X012555Y016602D01*
X012514Y016550D01*
X012477Y016497D01*
X012443Y016441D01*
X012412Y016383D01*
X012385Y016324D01*
X012362Y016263D01*
X012342Y016200D01*
X012326Y016137D01*
X012314Y016073D01*
X012306Y016008D01*
X012302Y015943D01*
X012302Y015877D01*
X012306Y015812D01*
X012314Y015747D01*
X012326Y015683D01*
X012342Y015620D01*
X012362Y015557D01*
X012385Y015496D01*
X012412Y015437D01*
X012443Y015379D01*
X012477Y015323D01*
X012514Y015270D01*
X012555Y015218D01*
X012599Y015170D01*
X012645Y015124D01*
X012694Y015081D01*
X012746Y015041D01*
X012800Y015004D01*
X012857Y014971D01*
X012915Y014941D01*
X012917Y014946D01*
X012859Y014976D01*
X012803Y015009D01*
X012749Y015045D01*
X012698Y015085D01*
X012649Y015128D01*
X012602Y015173D01*
X012559Y015222D01*
X012518Y015273D01*
X012481Y015326D01*
X012447Y015381D01*
X012417Y015439D01*
X012390Y015498D01*
X012366Y015559D01*
X012347Y015621D01*
X012331Y015684D01*
X012319Y015748D01*
X012311Y015813D01*
X012307Y015877D01*
X012307Y015943D01*
X012311Y016007D01*
X012319Y016072D01*
X012331Y016136D01*
X012347Y016199D01*
X012366Y016261D01*
X012390Y016322D01*
X012417Y016381D01*
X012447Y016439D01*
X012481Y016494D01*
X012518Y016547D01*
X012559Y016598D01*
X012602Y016647D01*
X012649Y016692D01*
X012698Y016735D01*
X012749Y016775D01*
X012803Y016811D01*
X012859Y016844D01*
X012917Y016874D01*
X012919Y016870D01*
X012861Y016840D01*
X012806Y016807D01*
X012752Y016771D01*
X012701Y016731D01*
X012652Y016689D01*
X012606Y016643D01*
X012563Y016595D01*
X012522Y016544D01*
X012485Y016491D01*
X012451Y016436D01*
X012421Y016379D01*
X012394Y016320D01*
X012371Y016260D01*
X012352Y016198D01*
X012336Y016135D01*
X012324Y016071D01*
X012316Y016007D01*
X012312Y015942D01*
X012312Y015878D01*
X012316Y015813D01*
X012324Y015749D01*
X012336Y015685D01*
X012352Y015622D01*
X012371Y015560D01*
X012394Y015500D01*
X012421Y015441D01*
X012451Y015384D01*
X012485Y015329D01*
X012522Y015276D01*
X012563Y015225D01*
X012606Y015177D01*
X012652Y015131D01*
X012701Y015089D01*
X012752Y015049D01*
X012806Y015013D01*
X012861Y014980D01*
X012919Y014950D01*
X012921Y014955D01*
X012864Y014984D01*
X012808Y015017D01*
X012755Y015053D01*
X012704Y015093D01*
X012655Y015135D01*
X012609Y015180D01*
X012566Y015228D01*
X012526Y015279D01*
X012489Y015331D01*
X012456Y015386D01*
X012426Y015443D01*
X012399Y015502D01*
X012376Y015562D01*
X012357Y015624D01*
X012341Y015686D01*
X012329Y015750D01*
X012321Y015813D01*
X012317Y015878D01*
X012317Y015942D01*
X012321Y016007D01*
X012329Y016070D01*
X012341Y016134D01*
X012357Y016196D01*
X012376Y016258D01*
X012399Y016318D01*
X012426Y016377D01*
X012456Y016434D01*
X012489Y016489D01*
X012526Y016541D01*
X012566Y016592D01*
X012609Y016640D01*
X012655Y016685D01*
X012704Y016727D01*
X012755Y016767D01*
X012808Y016803D01*
X012864Y016836D01*
X012921Y016865D01*
X012923Y016861D01*
X012866Y016831D01*
X012811Y016799D01*
X012758Y016763D01*
X012707Y016724D01*
X012659Y016681D01*
X012613Y016636D01*
X012570Y016589D01*
X012530Y016538D01*
X012494Y016486D01*
X012460Y016431D01*
X012430Y016374D01*
X012404Y016316D01*
X012381Y016256D01*
X012361Y016195D01*
X012346Y016133D01*
X012334Y016070D01*
X012326Y016006D01*
X012322Y015942D01*
X012322Y015878D01*
X012326Y015814D01*
X012334Y015750D01*
X012346Y015687D01*
X012361Y015625D01*
X012381Y015564D01*
X012404Y015504D01*
X012430Y015446D01*
X012460Y015389D01*
X012494Y015334D01*
X012530Y015282D01*
X012570Y015231D01*
X012613Y015184D01*
X012659Y015139D01*
X012707Y015096D01*
X012758Y015057D01*
X012811Y015021D01*
X012866Y014989D01*
X012923Y014959D01*
X012925Y014964D01*
X012869Y014993D01*
X012814Y015026D01*
X012761Y015061D01*
X012710Y015100D01*
X012662Y015142D01*
X012617Y015187D01*
X012574Y015235D01*
X012534Y015285D01*
X012498Y015337D01*
X012464Y015391D01*
X012435Y015448D01*
X012408Y015506D01*
X012385Y015565D01*
X012366Y015626D01*
X012351Y015688D01*
X012339Y015751D01*
X012331Y015814D01*
X012327Y015878D01*
X012327Y015942D01*
X012331Y016006D01*
X012339Y016069D01*
X012351Y016132D01*
X012366Y016194D01*
X012385Y016255D01*
X012408Y016314D01*
X012435Y016372D01*
X012464Y016429D01*
X012498Y016483D01*
X012534Y016535D01*
X012574Y016585D01*
X012617Y016633D01*
X012662Y016678D01*
X012710Y016720D01*
X012761Y016759D01*
X012814Y016794D01*
X012869Y016827D01*
X012925Y016856D01*
X012927Y016851D01*
X012871Y016823D01*
X012816Y016790D01*
X012764Y016755D01*
X012713Y016716D01*
X012665Y016674D01*
X012620Y016629D01*
X012578Y016582D01*
X012538Y016532D01*
X012502Y016480D01*
X012469Y016426D01*
X012439Y016370D01*
X012413Y016312D01*
X012390Y016253D01*
X012371Y016192D01*
X012356Y016131D01*
X012344Y016068D01*
X012336Y016005D01*
X012332Y015942D01*
X012332Y015878D01*
X012336Y015815D01*
X012344Y015752D01*
X012356Y015689D01*
X012371Y015628D01*
X012390Y015567D01*
X012413Y015508D01*
X012439Y015450D01*
X012469Y015394D01*
X012502Y015340D01*
X012538Y015288D01*
X012578Y015238D01*
X012620Y015191D01*
X012665Y015146D01*
X012713Y015104D01*
X012764Y015065D01*
X012816Y015030D01*
X012871Y014997D01*
X012927Y014969D01*
X012930Y014973D01*
X012873Y015002D01*
X012819Y015034D01*
X012767Y015069D01*
X012717Y015108D01*
X012669Y015150D01*
X012624Y015194D01*
X012582Y015241D01*
X012542Y015291D01*
X012506Y015342D01*
X012473Y015396D01*
X012444Y015452D01*
X012417Y015510D01*
X012395Y015569D01*
X012376Y015629D01*
X012361Y015690D01*
X012349Y015753D01*
X012341Y015815D01*
X012337Y015878D01*
X012337Y015942D01*
X012341Y016005D01*
X012349Y016067D01*
X012361Y016130D01*
X012376Y016191D01*
X012395Y016251D01*
X012417Y016310D01*
X012444Y016368D01*
X012473Y016424D01*
X012506Y016478D01*
X012542Y016529D01*
X012582Y016579D01*
X012624Y016626D01*
X012669Y016670D01*
X012717Y016712D01*
X012767Y016751D01*
X012819Y016786D01*
X012873Y016818D01*
X012930Y016847D01*
X012932Y016842D01*
X012876Y016814D01*
X012822Y016782D01*
X012770Y016746D01*
X012720Y016708D01*
X012672Y016667D01*
X012627Y016623D01*
X012585Y016576D01*
X012546Y016526D01*
X012510Y016475D01*
X012478Y016421D01*
X012448Y016366D01*
X012422Y016308D01*
X012399Y016250D01*
X012381Y016190D01*
X012365Y016129D01*
X012354Y016067D01*
X012346Y016004D01*
X012342Y015941D01*
X012342Y015879D01*
X012346Y015816D01*
X012354Y015753D01*
X012365Y015691D01*
X012381Y015630D01*
X012399Y015570D01*
X012422Y015512D01*
X012448Y015454D01*
X012478Y015399D01*
X012510Y015345D01*
X012546Y015294D01*
X012585Y015244D01*
X012627Y015197D01*
X012672Y015153D01*
X012720Y015112D01*
X012770Y015074D01*
X012822Y015038D01*
X012876Y015006D01*
X012932Y014978D01*
X012934Y014982D01*
X012878Y015011D01*
X012824Y015043D01*
X012772Y015078D01*
X012723Y015116D01*
X012676Y015157D01*
X012631Y015201D01*
X012589Y015248D01*
X012550Y015297D01*
X012515Y015348D01*
X012482Y015401D01*
X012453Y015457D01*
X012427Y015514D01*
X012404Y015572D01*
X012385Y015632D01*
X012370Y015693D01*
X012359Y015754D01*
X012351Y015816D01*
X012347Y015879D01*
X012347Y015941D01*
X012351Y016004D01*
X012359Y016066D01*
X012370Y016127D01*
X012385Y016188D01*
X012404Y016248D01*
X012427Y016306D01*
X012453Y016363D01*
X012482Y016419D01*
X012515Y016472D01*
X012550Y016523D01*
X012589Y016572D01*
X012631Y016619D01*
X012676Y016663D01*
X012723Y016704D01*
X012772Y016742D01*
X012824Y016777D01*
X012878Y016809D01*
X012934Y016838D01*
X014038Y016757D02*
X014004Y016715D01*
X014005Y016715D02*
X013957Y016750D01*
X013908Y016783D01*
X013856Y016812D01*
X013803Y016839D01*
X013825Y016887D01*
X013826Y016888D01*
X013882Y016860D01*
X013936Y016829D01*
X013988Y016795D01*
X014038Y016758D01*
X014035Y016754D01*
X013985Y016791D01*
X013933Y016825D01*
X013879Y016855D01*
X013824Y016883D01*
X013822Y016879D01*
X013877Y016851D01*
X013931Y016820D01*
X013982Y016787D01*
X014032Y016750D01*
X014029Y016746D01*
X013980Y016782D01*
X013928Y016816D01*
X013875Y016847D01*
X013819Y016874D01*
X013817Y016870D01*
X013872Y016842D01*
X013925Y016812D01*
X013977Y016778D01*
X014026Y016742D01*
X014023Y016738D01*
X013974Y016774D01*
X013923Y016808D01*
X013870Y016838D01*
X013815Y016865D01*
X013813Y016860D01*
X013868Y016833D01*
X013920Y016803D01*
X013971Y016770D01*
X014020Y016734D01*
X014017Y016730D01*
X013968Y016766D01*
X013918Y016799D01*
X013865Y016829D01*
X013811Y016856D01*
X013809Y016851D01*
X013863Y016825D01*
X013915Y016795D01*
X013965Y016762D01*
X014014Y016726D01*
X014011Y016722D01*
X013962Y016758D01*
X013912Y016790D01*
X013860Y016820D01*
X013807Y016847D01*
X013805Y016842D01*
X013858Y016816D01*
X013910Y016786D01*
X013960Y016754D01*
X014007Y016718D01*
M02*
