%
M48
M72
T01C0.0236
T02C0.0320
T03C0.0354
T04C0.0400
%
T01
X13874Y6410
X19124Y3410
X28624Y16410
X13374Y20160
T02
X11374Y21910
X11374Y22910
X11374Y23910
X12124Y23910
X12124Y24910
X11374Y24910
X11124Y26660
X10124Y26660
X9374Y24910
X8374Y24910
X7374Y24910
X6374Y24910
X5374Y24910
X4374Y24910
X3374Y24910
X2374Y24910
X2874Y23910
X2874Y22910
X3874Y22910
X5874Y23910
X8374Y22910
X9374Y23910
X8374Y21910
X8374Y19910
X8374Y18910
X10124Y16910
X11624Y16910
X13374Y16910
X13374Y15910
X13374Y14910
X11624Y14910
X10124Y14910
X8374Y11160
X6374Y11160
X9374Y3160
X10374Y3160
X16374Y2910
X16374Y3910
X16374Y4910
X17624Y4910
X17624Y3910
X17624Y2910
X17624Y5910
X17624Y6910
X17624Y7910
X17624Y8910
X16374Y8910
X16374Y7910
X16374Y6910
X16374Y5910
X16374Y9910
X16374Y10910
X16374Y11910
X16374Y12910
X17624Y12910
X17624Y11910
X17624Y10910
X17624Y9910
X17624Y13910
X17624Y14910
X17624Y15910
X17624Y16910
X17624Y17910
X16374Y17910
X16374Y16910
X16374Y15910
X16374Y14910
X16374Y13910
X19874Y14910
X22374Y14910
X22374Y13910
X22374Y12910
X22374Y11910
X22374Y10910
X22374Y9910
X22374Y8910
X22374Y7910
X22374Y6910
X22374Y5910
X22374Y4910
X22374Y3910
X22374Y2910
X23624Y2910
X23624Y3910
X23624Y4910
X23624Y5910
X23624Y6910
X23624Y7910
X23624Y8910
X23624Y9910
X23624Y10910
X23624Y11910
X23624Y12910
X23624Y13910
X23624Y14910
X23624Y15910
X23624Y16910
X23624Y17910
X23624Y18910
X23624Y19910
X23624Y20910
X23624Y21910
X22374Y21910
X22374Y20910
X22374Y19910
X22374Y18910
X22374Y17910
X22374Y16910
X22374Y15910
X19874Y18910
X17624Y18910
X17624Y19910
X17624Y20910
X17624Y21910
X16374Y21910
X16374Y20910
X16374Y19910
X16374Y18910
X15124Y23910
X14124Y24910
X14124Y26660
X13124Y26660
X12124Y26660
X12124Y29660
X13124Y29660
X14124Y29660
X15124Y29660
X16124Y29660
X17624Y29910
X17624Y28910
X17624Y27910
X17624Y26910
X17624Y25910
X17624Y24910
X17624Y23910
X16124Y26660
X15124Y26660
X11124Y29660
X10124Y29660
X8374Y30910
X7374Y30910
X6374Y30910
X5374Y30910
X4374Y30910
X3374Y30910
X2374Y30910
X2374Y33910
X3374Y33910
X4374Y33910
X5374Y33910
X6374Y33910
X7374Y33910
X8374Y33910
X9374Y34160
X9374Y35160
X8124Y35160
X5124Y35160
X4374Y35160
X3374Y35160
X9374Y32160
X12374Y35160
X14624Y35160
X14624Y32160
X18624Y30910
X20624Y30910
X20624Y29910
X20624Y28910
X20624Y27910
X20624Y26910
X20624Y25910
X20624Y24910
X20624Y23910
X26874Y16910
X26874Y15910
X26874Y14910
X26874Y13910
X26874Y12910
X26874Y11910
X26874Y10910
X26874Y9910
X26874Y8910
X26874Y7910
X26874Y6910
X26874Y5910
X26874Y4910
X26874Y3910
X26874Y2910
X26874Y1910
X28624Y2910
X28624Y3910
X31124Y7410
X32874Y6910
X32874Y5910
X32874Y4910
X32874Y3910
X32874Y2910
X32874Y1910
X34374Y2410
X34624Y3910
X34624Y3910
X34624Y4910
X34624Y4910
X34624Y5910
X34624Y5910
X34624Y6910
X34624Y6910
X34624Y7910
X34624Y7910
X34624Y8910
X34624Y8910
X34624Y9910
X34624Y9910
X34624Y10910
X34624Y10910
X34624Y11910
X34624Y11910
X34624Y12910
X34624Y12910
X34624Y13910
X34624Y13910
X34624Y14910
X34624Y14910
X34624Y15910
X34624Y15910
X34624Y16910
X34624Y16910
X32874Y16910
X32874Y15910
X32874Y14910
X32874Y13910
X32874Y12910
X32874Y11910
X32874Y10910
X32874Y9910
X32874Y8910
X32874Y7910
X31124Y11410
X37624Y10910
X37624Y9910
X37624Y8910
X37624Y7910
X37624Y6910
X37624Y5910
X37624Y4910
X37624Y3910
X37374Y2410
X36374Y2410
X40624Y3910
X40624Y4910
X40624Y5910
X40624Y6910
X40624Y7910
X40624Y8910
X40624Y9910
X40624Y10910
X40624Y11910
X40624Y12910
X40624Y13910
X40624Y14910
X40624Y15910
X40624Y16910
X37624Y16910
X37624Y15910
X37624Y14910
X37624Y13910
X37624Y12910
X37624Y11910
X39124Y11410
X41874Y10160
X39124Y7410
X41874Y6160
X41374Y2410
X8374Y27910
X7374Y27910
X6374Y27910
X5374Y27910
X4374Y27910
X3374Y27910
X2374Y27910
X4374Y19910
X4374Y18910
T03
X17374Y35410
X17374Y36410
X17374Y37410
X17374Y39410
T04
X5624Y2160
X6624Y2160
X7624Y2160
X7624Y3160
X6624Y3160
X5624Y3160
X2874Y18910
X2874Y19910
X9624Y19660
X9624Y20660
X14874Y20910
X14874Y21910
X15124Y27910
X16124Y27910
X14124Y27910
X13124Y27910
X12124Y27910
X11124Y27910
X10124Y27910
X10124Y30910
X11124Y30910
X12124Y30910
X13124Y30910
X14124Y30910
X15124Y30910
X16124Y30910
X25374Y21410
X25374Y20410
X25374Y19410
M30
