G75*
%MOIN*%
%OFA0B0*%
%FSLAX24Y24*%
%IPPOS*%
%LPD*%
%AMOC8*
5,1,8,0,0,1.08239X$1,22.5*
%
%ADD10C,0.0120*%
%ADD11C,0.0000*%
%ADD12C,0.0520*%
%ADD13OC8,0.0520*%
%ADD14C,0.0600*%
%ADD15R,0.0709X0.0197*%
%ADD16R,0.0197X0.0709*%
%ADD17OC8,0.0600*%
%ADD18C,0.0520*%
%ADD19R,0.0554X0.0554*%
%ADD20C,0.0240*%
%ADD21R,0.0396X0.0396*%
%ADD22C,0.0160*%
D10*
X001374Y000160D02*
X001374Y040932D01*
X018624Y040932D01*
X018624Y040910D02*
X018624Y031910D01*
X022624Y031910D01*
X022624Y023410D01*
X042874Y023410D01*
X042829Y023432D02*
X042829Y000160D01*
X001374Y000160D01*
X005124Y002910D02*
X005374Y002660D01*
X005874Y002660D01*
X006374Y003160D01*
X006624Y003160D01*
X007124Y002910D02*
X006624Y002410D01*
X006624Y002160D01*
X007124Y002910D02*
X007124Y005910D01*
X007299Y006085D01*
X008012Y006085D01*
X008012Y006400D02*
X005864Y006400D01*
X005624Y006160D01*
X005624Y003160D01*
X005124Y002910D02*
X005124Y006660D01*
X005179Y006715D01*
X008012Y006715D01*
X008012Y007030D02*
X002254Y007030D01*
X002124Y007160D01*
X002124Y023910D01*
X001874Y024160D01*
X001874Y034410D01*
X002124Y034660D01*
X005874Y034660D01*
X005874Y032660D01*
X006374Y032160D01*
X006374Y030910D01*
X005874Y030410D02*
X005874Y032160D01*
X005374Y032660D01*
X005374Y033910D01*
X005874Y034660D02*
X012374Y034660D01*
X012374Y035160D01*
X012374Y034660D02*
X014624Y034660D01*
X015124Y034660D01*
X016874Y036410D01*
X017374Y036410D01*
X014624Y035160D02*
X014624Y034660D01*
X013874Y031660D02*
X008124Y031660D01*
X007874Y031410D01*
X007874Y030410D01*
X007624Y030160D01*
X006124Y030160D01*
X005874Y030410D01*
X004374Y030910D02*
X004374Y029160D01*
X004624Y028910D01*
X012874Y028910D01*
X013124Y028660D01*
X013124Y027910D01*
X012624Y028410D02*
X012374Y028660D01*
X006624Y028660D01*
X006374Y028410D01*
X006374Y027910D01*
X005624Y025910D02*
X005374Y025660D01*
X005374Y024910D01*
X005624Y025910D02*
X010374Y025910D01*
X010624Y026160D01*
X010624Y027160D01*
X011124Y027660D01*
X011124Y027910D01*
X010124Y027910D02*
X010124Y026660D01*
X012124Y026660D02*
X012124Y027910D01*
X012624Y028410D02*
X012624Y026160D01*
X012874Y025910D01*
X016124Y025910D01*
X016374Y025660D01*
X016374Y023160D01*
X016624Y022910D01*
X021374Y022910D01*
X021624Y023160D01*
X021624Y027660D01*
X021374Y027910D01*
X020624Y027910D01*
X020624Y024910D02*
X021124Y024910D01*
X021374Y024660D01*
X021374Y023410D01*
X021124Y023160D01*
X016874Y023160D01*
X016624Y023410D01*
X016624Y028410D01*
X016374Y028660D01*
X015374Y028660D01*
X015124Y028410D01*
X015124Y027910D01*
X016124Y027910D02*
X016124Y026660D01*
X014124Y026660D02*
X014124Y027910D01*
X013124Y029660D02*
X013124Y030910D01*
X012124Y030910D02*
X012124Y029660D01*
X011124Y029660D02*
X011124Y030910D01*
X010124Y030910D02*
X010124Y029660D01*
X007374Y030910D02*
X007374Y032410D01*
X007624Y032660D01*
X017374Y032660D01*
X017624Y032410D01*
X017624Y029910D01*
X016124Y029660D02*
X016124Y030910D01*
X015124Y030910D02*
X015124Y029660D01*
X014124Y030910D02*
X014124Y031410D01*
X013874Y031660D01*
X014374Y022660D02*
X014124Y022410D01*
X014124Y018410D01*
X013874Y018160D01*
X005874Y018160D01*
X005624Y017910D01*
X005624Y008160D01*
X005809Y007975D01*
X008012Y007975D01*
X008012Y007660D02*
X005624Y007660D01*
X005374Y007910D01*
X005374Y018910D01*
X004374Y018910D01*
X005374Y018910D02*
X005374Y019160D01*
X005624Y019410D01*
X008624Y019410D01*
X008874Y019660D01*
X009624Y019660D01*
X007374Y017660D02*
X007124Y017410D01*
X007124Y009160D01*
X007364Y008920D01*
X008012Y008920D01*
X008012Y009235D02*
X007549Y009235D01*
X007374Y009410D01*
X007374Y017160D01*
X007624Y017410D01*
X024124Y017410D01*
X024374Y017660D01*
X041374Y017660D01*
X041624Y017410D01*
X041624Y012660D01*
X041374Y012410D01*
X039374Y012410D01*
X039124Y012160D01*
X039124Y011410D01*
X041124Y010410D02*
X031374Y010410D01*
X031124Y010660D01*
X031124Y011410D01*
X028124Y008660D02*
X028124Y004660D01*
X027874Y004410D01*
X025374Y004410D01*
X025124Y004160D01*
X025124Y002660D01*
X024874Y002410D01*
X020374Y002410D01*
X019874Y002910D01*
X017624Y002910D01*
X016374Y002910D01*
X011374Y002910D01*
X011124Y003160D01*
X011124Y003910D01*
X011004Y004030D01*
X011004Y005298D01*
X010689Y005298D02*
X010689Y003845D01*
X010874Y003660D01*
X010874Y002410D01*
X011124Y002160D01*
X026124Y002160D01*
X026374Y002410D01*
X031499Y002410D01*
X031749Y002660D01*
X031749Y004660D01*
X031999Y004910D01*
X032874Y004910D01*
X032874Y003910D02*
X032249Y003910D01*
X031999Y003660D01*
X031999Y001660D01*
X031749Y001410D01*
X010124Y001410D01*
X009874Y001660D01*
X009874Y003910D01*
X010059Y004095D01*
X010059Y005298D01*
X009744Y005298D02*
X009744Y004405D01*
X009374Y004035D01*
X009374Y003160D01*
X008874Y003910D02*
X008874Y001410D01*
X009124Y001160D01*
X033374Y001160D01*
X033624Y001410D01*
X033624Y002660D01*
X033374Y002910D01*
X032874Y002910D01*
X027874Y005660D02*
X027874Y008160D01*
X027624Y008410D01*
X026374Y008410D01*
X026124Y008660D01*
X026124Y010660D01*
X026374Y010910D01*
X026874Y010910D01*
X025124Y010160D02*
X024874Y009910D01*
X023624Y009910D01*
X022374Y009910D01*
X022374Y010910D02*
X023624Y010910D01*
X024624Y010910D01*
X024874Y011160D01*
X024874Y015660D01*
X025124Y015910D01*
X026874Y015910D01*
X026874Y014910D02*
X025374Y014910D01*
X025124Y014660D01*
X025124Y010160D01*
X025374Y009160D02*
X025124Y008910D01*
X023624Y008910D01*
X022374Y008910D01*
X022374Y007910D02*
X023624Y007910D01*
X025374Y007910D01*
X025624Y008160D01*
X025624Y012660D01*
X025874Y012910D01*
X026874Y012910D01*
X026874Y013910D02*
X025624Y013910D01*
X025374Y013660D01*
X025374Y009160D01*
X026874Y008910D02*
X027874Y008910D01*
X028124Y008660D01*
X027374Y007910D02*
X026874Y007910D01*
X027374Y007910D02*
X027624Y007660D01*
X027624Y006660D01*
X027374Y006410D01*
X024874Y006410D01*
X024624Y006160D01*
X024624Y004660D01*
X024374Y004410D01*
X020374Y004410D01*
X019874Y004910D01*
X017624Y004910D01*
X016374Y004910D01*
X012874Y004910D01*
X012736Y005048D01*
X012736Y006085D01*
X012736Y006400D02*
X012864Y006400D01*
X012874Y006410D01*
X013874Y006410D01*
X014624Y006160D02*
X014874Y005910D01*
X016374Y005910D01*
X017624Y005910D01*
X019874Y005910D01*
X020374Y005410D01*
X024124Y005410D01*
X024374Y005660D01*
X024374Y006660D01*
X024624Y006910D01*
X026874Y006910D01*
X027874Y005660D02*
X027624Y005410D01*
X025124Y005410D01*
X024874Y005160D01*
X024874Y003660D01*
X024624Y003410D01*
X020374Y003410D01*
X019874Y003910D01*
X017624Y003910D01*
X016374Y003910D01*
X011874Y003910D01*
X011634Y004150D01*
X011634Y005298D01*
X011319Y005298D02*
X011319Y004215D01*
X011374Y004160D01*
X011374Y003660D01*
X011624Y003410D01*
X019124Y003410D01*
X019874Y004410D02*
X012124Y004410D01*
X011949Y004585D01*
X011949Y005298D01*
X010374Y005298D02*
X010374Y003160D01*
X009429Y004465D02*
X008874Y003910D01*
X008624Y004160D02*
X008624Y001160D01*
X008874Y000910D01*
X040374Y000910D01*
X040624Y001160D01*
X040624Y003910D01*
X041374Y002410D02*
X041374Y000910D01*
X041124Y000660D01*
X008624Y000660D01*
X008374Y000910D01*
X008374Y004410D01*
X008812Y004848D01*
X008812Y005298D01*
X008799Y005298D01*
X009114Y005298D02*
X009114Y004650D01*
X008624Y004160D01*
X009429Y004465D02*
X009429Y005298D01*
X008012Y007345D02*
X003189Y007345D01*
X002874Y007660D01*
X002874Y018910D01*
X006874Y017660D02*
X007124Y017910D01*
X014874Y017910D01*
X015624Y018660D01*
X015624Y020160D01*
X015874Y020410D01*
X022874Y020410D01*
X023374Y020910D01*
X023624Y020910D01*
X024124Y020910D01*
X024624Y020410D01*
X025374Y020410D01*
X025374Y019410D02*
X024624Y019410D01*
X024124Y018910D01*
X023624Y018910D01*
X022374Y018910D01*
X022374Y019910D02*
X023624Y019910D01*
X023624Y021910D02*
X022374Y021910D01*
X022374Y017910D02*
X023624Y017910D01*
X023624Y016910D02*
X022374Y016910D01*
X022374Y015910D02*
X020624Y015910D01*
X020124Y016410D01*
X009124Y016410D01*
X008799Y016085D01*
X008799Y010022D01*
X009114Y010022D02*
X009114Y015150D01*
X009374Y015410D01*
X020124Y015410D01*
X020624Y014910D01*
X022374Y014910D01*
X023624Y014910D01*
X023624Y013910D02*
X022374Y013910D01*
X020374Y013910D01*
X019874Y014410D01*
X009624Y014410D01*
X009429Y014215D01*
X009429Y010022D01*
X009744Y010022D02*
X009744Y013780D01*
X009874Y013910D01*
X016374Y013910D01*
X017624Y013910D01*
X017624Y012910D02*
X016374Y012910D01*
X010624Y012910D01*
X010374Y012660D01*
X010374Y010022D01*
X010059Y010022D02*
X010059Y013095D01*
X010374Y013410D01*
X019874Y013410D01*
X020374Y012910D01*
X022374Y012910D01*
X023624Y012910D01*
X024124Y012910D01*
X024374Y013160D01*
X024374Y017160D01*
X024624Y017410D01*
X041124Y017410D01*
X041374Y017160D01*
X041374Y016160D01*
X041124Y015910D01*
X040624Y015910D01*
X041874Y018160D02*
X041874Y011160D01*
X041124Y010410D01*
X041874Y010660D02*
X041874Y010160D01*
X041874Y010660D02*
X042124Y010910D01*
X042124Y022410D01*
X041874Y022660D01*
X014374Y022660D01*
X016374Y019910D02*
X017624Y019910D01*
X017624Y018910D02*
X016374Y018910D01*
X015874Y018410D02*
X041624Y018410D01*
X041874Y018160D01*
X026874Y016910D02*
X024874Y016910D01*
X024624Y016660D01*
X024624Y012160D01*
X024374Y011910D01*
X023624Y011910D01*
X022374Y011910D01*
X020374Y011910D01*
X019874Y012410D01*
X010874Y012410D01*
X010689Y012225D01*
X010689Y010022D01*
X011004Y010022D02*
X011004Y011790D01*
X011124Y011910D01*
X016374Y011910D01*
X017624Y011910D01*
X017624Y010910D02*
X016374Y010910D01*
X011624Y010910D01*
X011319Y010605D01*
X011319Y010022D01*
X011949Y010022D02*
X015762Y010022D01*
X015874Y009910D01*
X016374Y009910D01*
X017624Y009910D01*
X017624Y008910D02*
X016374Y008910D01*
X015874Y008910D01*
X015549Y009235D01*
X012736Y009235D01*
X012736Y008920D02*
X015364Y008920D01*
X015624Y008660D01*
X015624Y008160D01*
X015874Y007910D01*
X016374Y007910D01*
X017624Y007910D01*
X017624Y006910D02*
X016374Y006910D01*
X015374Y006910D01*
X015124Y007160D01*
X015124Y008160D01*
X014994Y008290D01*
X012736Y008290D01*
X012736Y008605D02*
X015179Y008605D01*
X015374Y008410D01*
X015374Y007660D01*
X015624Y007410D01*
X019874Y007410D01*
X020374Y006910D01*
X022374Y006910D01*
X023624Y006910D01*
X023624Y005910D02*
X022374Y005910D01*
X020374Y005910D01*
X019874Y006410D01*
X015124Y006410D01*
X014874Y006660D01*
X014874Y007660D01*
X014559Y007975D01*
X012736Y007975D01*
X012736Y007660D02*
X014374Y007660D01*
X014624Y007410D01*
X014624Y006160D01*
X014374Y005660D02*
X014624Y005410D01*
X019874Y005410D01*
X020374Y004910D01*
X022374Y004910D01*
X023624Y004910D01*
X023624Y003910D02*
X022374Y003910D01*
X020374Y003910D01*
X019874Y004410D01*
X014374Y005660D02*
X014374Y007160D01*
X014189Y007345D01*
X012736Y007345D01*
X008012Y008605D02*
X006929Y008605D01*
X006874Y008660D01*
X006874Y017660D01*
X007374Y017660D02*
X015124Y017660D01*
X015874Y018410D01*
X016374Y017910D02*
X017624Y017910D01*
X017624Y016910D02*
X016374Y016910D01*
X016374Y015910D02*
X017624Y015910D01*
X022374Y015910D02*
X023624Y015910D01*
D11*
X001374Y000160D02*
X001374Y039530D01*
D12*
X002374Y034170D02*
X002374Y033650D01*
X003374Y033650D02*
X003374Y034170D01*
X004374Y034170D02*
X004374Y033650D01*
X005374Y033650D02*
X005374Y034170D01*
X006374Y034170D02*
X006374Y033650D01*
X007374Y033650D02*
X007374Y034170D01*
X008374Y034170D02*
X008374Y033650D01*
X008374Y031170D02*
X008374Y030650D01*
X007374Y030650D02*
X007374Y031170D01*
X006374Y031170D02*
X006374Y030650D01*
X005374Y030650D02*
X005374Y031170D01*
X004374Y031170D02*
X004374Y030650D01*
X003374Y030650D02*
X003374Y031170D01*
X002374Y031170D02*
X002374Y030650D01*
X002374Y028170D02*
X002374Y027650D01*
X003374Y027650D02*
X003374Y028170D01*
X004374Y028170D02*
X004374Y027650D01*
X005374Y027650D02*
X005374Y028170D01*
X006374Y028170D02*
X006374Y027650D01*
X007374Y027650D02*
X007374Y028170D01*
X008374Y028170D02*
X008374Y027650D01*
X010124Y026920D02*
X010124Y026400D01*
X011124Y026400D02*
X011124Y026920D01*
X012124Y026920D02*
X012124Y026400D01*
X013124Y026400D02*
X013124Y026920D01*
X014124Y026920D02*
X014124Y026400D01*
X015124Y026400D02*
X015124Y026920D01*
X016124Y026920D02*
X016124Y026400D01*
X017364Y025910D02*
X017884Y025910D01*
X017884Y024910D02*
X017364Y024910D01*
X017364Y023910D02*
X017884Y023910D01*
X017884Y021910D02*
X017364Y021910D01*
X016634Y021910D02*
X016114Y021910D01*
X016114Y020910D02*
X016634Y020910D01*
X017364Y020910D02*
X017884Y020910D01*
X017884Y019910D02*
X017364Y019910D01*
X016634Y019910D02*
X016114Y019910D01*
X016114Y018910D02*
X016634Y018910D01*
X017364Y018910D02*
X017884Y018910D01*
X017884Y017910D02*
X017364Y017910D01*
X016634Y017910D02*
X016114Y017910D01*
X016114Y016910D02*
X016634Y016910D01*
X017364Y016910D02*
X017884Y016910D01*
X017884Y015910D02*
X017364Y015910D01*
X016634Y015910D02*
X016114Y015910D01*
X016114Y014910D02*
X016634Y014910D01*
X017364Y014910D02*
X017884Y014910D01*
X017884Y013910D02*
X017364Y013910D01*
X016634Y013910D02*
X016114Y013910D01*
X016114Y012910D02*
X016634Y012910D01*
X017364Y012910D02*
X017884Y012910D01*
X017884Y011910D02*
X017364Y011910D01*
X016634Y011910D02*
X016114Y011910D01*
X016114Y010910D02*
X016634Y010910D01*
X017364Y010910D02*
X017884Y010910D01*
X017884Y009910D02*
X017364Y009910D01*
X016634Y009910D02*
X016114Y009910D01*
X016114Y008910D02*
X016634Y008910D01*
X017364Y008910D02*
X017884Y008910D01*
X017884Y007910D02*
X017364Y007910D01*
X016634Y007910D02*
X016114Y007910D01*
X016114Y006910D02*
X016634Y006910D01*
X017364Y006910D02*
X017884Y006910D01*
X017884Y005910D02*
X017364Y005910D01*
X016634Y005910D02*
X016114Y005910D01*
X016114Y004910D02*
X016634Y004910D01*
X017364Y004910D02*
X017884Y004910D01*
X017884Y003910D02*
X017364Y003910D01*
X016634Y003910D02*
X016114Y003910D01*
X016114Y002910D02*
X016634Y002910D01*
X017364Y002910D02*
X017884Y002910D01*
X022114Y002910D02*
X022634Y002910D01*
X023364Y002910D02*
X023884Y002910D01*
X023884Y003910D02*
X023364Y003910D01*
X022634Y003910D02*
X022114Y003910D01*
X022114Y004910D02*
X022634Y004910D01*
X023364Y004910D02*
X023884Y004910D01*
X023884Y005910D02*
X023364Y005910D01*
X022634Y005910D02*
X022114Y005910D01*
X022114Y006910D02*
X022634Y006910D01*
X023364Y006910D02*
X023884Y006910D01*
X023884Y007910D02*
X023364Y007910D01*
X022634Y007910D02*
X022114Y007910D01*
X022114Y008910D02*
X022634Y008910D01*
X023364Y008910D02*
X023884Y008910D01*
X023884Y009910D02*
X023364Y009910D01*
X022634Y009910D02*
X022114Y009910D01*
X022114Y010910D02*
X022634Y010910D01*
X023364Y010910D02*
X023884Y010910D01*
X023884Y011910D02*
X023364Y011910D01*
X022634Y011910D02*
X022114Y011910D01*
X022114Y012910D02*
X022634Y012910D01*
X023364Y012910D02*
X023884Y012910D01*
X023884Y013910D02*
X023364Y013910D01*
X022634Y013910D02*
X022114Y013910D01*
X022114Y014910D02*
X022634Y014910D01*
X023364Y014910D02*
X023884Y014910D01*
X023884Y015910D02*
X023364Y015910D01*
X022634Y015910D02*
X022114Y015910D01*
X022114Y016910D02*
X022634Y016910D01*
X023364Y016910D02*
X023884Y016910D01*
X023884Y017910D02*
X023364Y017910D01*
X022634Y017910D02*
X022114Y017910D01*
X022114Y018910D02*
X022634Y018910D01*
X023364Y018910D02*
X023884Y018910D01*
X023884Y019910D02*
X023364Y019910D01*
X022634Y019910D02*
X022114Y019910D01*
X022114Y020910D02*
X022634Y020910D01*
X023364Y020910D02*
X023884Y020910D01*
X023884Y021910D02*
X023364Y021910D01*
X022634Y021910D02*
X022114Y021910D01*
X020884Y023910D02*
X020364Y023910D01*
X020364Y024910D02*
X020884Y024910D01*
X020884Y025910D02*
X020364Y025910D01*
X020364Y026910D02*
X020884Y026910D01*
X020884Y027910D02*
X020364Y027910D01*
X020364Y028910D02*
X020884Y028910D01*
X020884Y029910D02*
X020364Y029910D01*
X017884Y029910D02*
X017364Y029910D01*
X017364Y028910D02*
X017884Y028910D01*
X017884Y027910D02*
X017364Y027910D01*
X017364Y026910D02*
X017884Y026910D01*
X016124Y029400D02*
X016124Y029920D01*
X015124Y029920D02*
X015124Y029400D01*
X014124Y029400D02*
X014124Y029920D01*
X013124Y029920D02*
X013124Y029400D01*
X012124Y029400D02*
X012124Y029920D01*
X011124Y029920D02*
X011124Y029400D01*
X010124Y029400D02*
X010124Y029920D01*
X008374Y025170D02*
X008374Y024650D01*
X007374Y024650D02*
X007374Y025170D01*
X006374Y025170D02*
X006374Y024650D01*
X005374Y024650D02*
X005374Y025170D01*
X004374Y025170D02*
X004374Y024650D01*
X003374Y024650D02*
X003374Y025170D01*
X002374Y025170D02*
X002374Y024650D01*
X013114Y016910D02*
X013634Y016910D01*
X013634Y015910D02*
X013114Y015910D01*
X013114Y014910D02*
X013634Y014910D01*
X026614Y014910D02*
X027134Y014910D01*
X027134Y013910D02*
X026614Y013910D01*
X026614Y012910D02*
X027134Y012910D01*
X027134Y011910D02*
X026614Y011910D01*
X026614Y010910D02*
X027134Y010910D01*
X027134Y009910D02*
X026614Y009910D01*
X026614Y008910D02*
X027134Y008910D01*
X027134Y007910D02*
X026614Y007910D01*
X026614Y006910D02*
X027134Y006910D01*
X027134Y005910D02*
X026614Y005910D01*
X026614Y004910D02*
X027134Y004910D01*
X027134Y003910D02*
X026614Y003910D01*
X026614Y002910D02*
X027134Y002910D01*
X027134Y001910D02*
X026614Y001910D01*
X032614Y001910D02*
X033134Y001910D01*
X033134Y002910D02*
X032614Y002910D01*
X032614Y003910D02*
X033134Y003910D01*
X033134Y004910D02*
X032614Y004910D01*
X032614Y005910D02*
X033134Y005910D01*
X033134Y006910D02*
X032614Y006910D01*
X032614Y007910D02*
X033134Y007910D01*
X033134Y008910D02*
X032614Y008910D01*
X032614Y009910D02*
X033134Y009910D01*
X033134Y010910D02*
X032614Y010910D01*
X032614Y011910D02*
X033134Y011910D01*
X033134Y012910D02*
X032614Y012910D01*
X032614Y013910D02*
X033134Y013910D01*
X033134Y014910D02*
X032614Y014910D01*
X032614Y015910D02*
X033134Y015910D01*
X033134Y016910D02*
X032614Y016910D01*
X034364Y016910D02*
X034884Y016910D01*
X034364Y016910D01*
X034364Y015910D02*
X034884Y015910D01*
X034364Y015910D01*
X034364Y014910D02*
X034884Y014910D01*
X034364Y014910D01*
X034364Y013910D02*
X034884Y013910D01*
X034364Y013910D01*
X034364Y012910D02*
X034884Y012910D01*
X034364Y012910D01*
X034364Y011910D02*
X034884Y011910D01*
X034364Y011910D01*
X034364Y010910D02*
X034884Y010910D01*
X034364Y010910D01*
X034364Y009910D02*
X034884Y009910D01*
X034364Y009910D01*
X034364Y008910D02*
X034884Y008910D01*
X034364Y008910D01*
X034364Y007910D02*
X034884Y007910D01*
X034364Y007910D01*
X034364Y006910D02*
X034884Y006910D01*
X034364Y006910D01*
X034364Y005910D02*
X034884Y005910D01*
X034364Y005910D01*
X034364Y004910D02*
X034884Y004910D01*
X034364Y004910D01*
X034364Y003910D02*
X034884Y003910D01*
X034364Y003910D01*
X037364Y003910D02*
X037884Y003910D01*
X037884Y004910D02*
X037364Y004910D01*
X037364Y005910D02*
X037884Y005910D01*
X037884Y006910D02*
X037364Y006910D01*
X037364Y007910D02*
X037884Y007910D01*
X037884Y008910D02*
X037364Y008910D01*
X037364Y009910D02*
X037884Y009910D01*
X037884Y010910D02*
X037364Y010910D01*
X037364Y011910D02*
X037884Y011910D01*
X037884Y012910D02*
X037364Y012910D01*
X037364Y013910D02*
X037884Y013910D01*
X037884Y014910D02*
X037364Y014910D01*
X037364Y015910D02*
X037884Y015910D01*
X037884Y016910D02*
X037364Y016910D01*
X040364Y016910D02*
X040884Y016910D01*
X040884Y015910D02*
X040364Y015910D01*
X040364Y014910D02*
X040884Y014910D01*
X040884Y013910D02*
X040364Y013910D01*
X040364Y012910D02*
X040884Y012910D01*
X040884Y011910D02*
X040364Y011910D01*
X040364Y010910D02*
X040884Y010910D01*
X040884Y009910D02*
X040364Y009910D01*
X040364Y008910D02*
X040884Y008910D01*
X040884Y007910D02*
X040364Y007910D01*
X040364Y006910D02*
X040884Y006910D01*
X040884Y005910D02*
X040364Y005910D01*
X040364Y004910D02*
X040884Y004910D01*
X040884Y003910D02*
X040364Y003910D01*
X027134Y015910D02*
X026614Y015910D01*
X026614Y016910D02*
X027134Y016910D01*
D13*
X031124Y011410D03*
X031124Y007410D03*
X028624Y003910D03*
X028624Y002910D03*
X034374Y002410D03*
X036374Y002410D03*
X037374Y002410D03*
X041374Y002410D03*
X041874Y006160D03*
X039124Y007410D03*
X041874Y010160D03*
X039124Y011410D03*
X019874Y014910D03*
X019874Y018910D03*
X015124Y023910D03*
X014124Y024910D03*
X012124Y024910D03*
X011374Y024910D03*
X011374Y023910D03*
X012124Y023910D03*
X011374Y022910D03*
X011374Y021910D03*
X009374Y023910D03*
X009374Y024910D03*
X008374Y022910D03*
X008374Y021910D03*
X008374Y019910D03*
X008374Y018910D03*
X010124Y016910D03*
X011624Y016910D03*
X011624Y014910D03*
X008374Y011160D03*
X006374Y011160D03*
X009374Y003160D03*
X010374Y003160D03*
X004374Y018910D03*
X004374Y019910D03*
X003874Y022910D03*
X002874Y022910D03*
X009374Y032160D03*
X009374Y034160D03*
X009374Y035160D03*
X008124Y035160D03*
X005124Y035160D03*
X004374Y035160D03*
X003374Y035160D03*
X012374Y035160D03*
X018624Y030910D03*
X020624Y030910D03*
D14*
X015174Y021910D02*
X014574Y021910D01*
X014574Y020910D02*
X015174Y020910D01*
X009924Y020660D02*
X009324Y020660D01*
X009324Y019660D02*
X009924Y019660D01*
X003174Y019910D02*
X002574Y019910D01*
X002574Y018910D02*
X003174Y018910D01*
X025074Y019410D02*
X025674Y019410D01*
X025674Y020410D02*
X025074Y020410D01*
X025074Y021410D02*
X025674Y021410D01*
D15*
X012736Y009235D03*
X012736Y008920D03*
X012736Y008605D03*
X012736Y008290D03*
X012736Y007975D03*
X012736Y007660D03*
X012736Y007345D03*
X012736Y007030D03*
X012736Y006715D03*
X012736Y006400D03*
X012736Y006085D03*
X008012Y006085D03*
X008012Y006400D03*
X008012Y006715D03*
X008012Y007030D03*
X008012Y007345D03*
X008012Y007660D03*
X008012Y007975D03*
X008012Y008290D03*
X008012Y008605D03*
X008012Y008920D03*
X008012Y009235D03*
D16*
X008799Y010022D03*
X009114Y010022D03*
X009429Y010022D03*
X009744Y010022D03*
X010059Y010022D03*
X010374Y010022D03*
X010689Y010022D03*
X011004Y010022D03*
X011319Y010022D03*
X011634Y010022D03*
X011949Y010022D03*
X011949Y005298D03*
X011634Y005298D03*
X011319Y005298D03*
X011004Y005298D03*
X010689Y005298D03*
X010374Y005298D03*
X010059Y005298D03*
X009744Y005298D03*
X009429Y005298D03*
X009114Y005298D03*
X008799Y005298D03*
D17*
X007624Y003160D03*
X006624Y003160D03*
X005624Y003160D03*
X005624Y002160D03*
X006624Y002160D03*
X007624Y002160D03*
X010124Y027910D03*
X011124Y027910D03*
X012124Y027910D03*
X013124Y027910D03*
X014124Y027910D03*
X015124Y027910D03*
X016124Y027910D03*
X016124Y030910D03*
X015124Y030910D03*
X014124Y030910D03*
X013124Y030910D03*
X012124Y030910D03*
X011124Y030910D03*
X010124Y030910D03*
D18*
X014624Y032160D03*
X014624Y035160D03*
X005874Y023910D03*
X002874Y023910D03*
X010124Y014910D03*
D19*
X017374Y035410D03*
X017374Y036410D03*
X017374Y037410D03*
X017374Y039410D03*
D20*
X018624Y030910D02*
X018624Y024160D01*
X018374Y023910D01*
X017624Y023910D01*
X013374Y025160D02*
X013374Y020160D01*
X012124Y020910D02*
X012124Y023910D01*
X013374Y025160D02*
X013124Y025410D01*
X010374Y025410D01*
X009874Y024910D01*
X009374Y024910D01*
X009624Y020660D02*
X011874Y020660D01*
X012124Y020910D01*
X016374Y014910D02*
X017624Y014910D01*
X019874Y014910D01*
X028624Y016410D02*
X028624Y003910D01*
X028624Y002910D02*
X029124Y002910D01*
X029374Y003160D01*
X029374Y016660D01*
X029624Y016910D01*
X032874Y016910D01*
X031124Y007410D02*
X035374Y007410D01*
X035624Y007160D01*
X035624Y004160D01*
X035374Y003910D01*
X034624Y003910D01*
D21*
X028624Y016410D03*
X019124Y003410D03*
X013874Y006410D03*
X013374Y020160D03*
D22*
X008374Y011160D02*
X008124Y011160D01*
X007874Y010910D01*
X007874Y010160D01*
X008874Y009160D01*
X011624Y009160D01*
X011624Y010012D01*
X011634Y010022D01*
X011624Y009160D02*
X011624Y007160D01*
X011754Y007030D01*
X012736Y007030D01*
X012736Y006715D02*
X010429Y006715D01*
X010374Y006660D01*
X010374Y008160D01*
X010244Y008290D01*
X008012Y008290D01*
X006494Y008290D01*
X006374Y008410D01*
X006374Y011160D01*
X010374Y006660D02*
X010374Y005298D01*
X022374Y002910D02*
X023624Y002910D01*
M02*
