G75*
%MOIN*%
%OFA0B0*%
%FSLAX24Y24*%
%IPPOS*%
%LPD*%
%AMOC8*
5,1,8,0,0,1.08239X$1,22.5*
%
%ADD10R,0.0709X0.0197*%
%ADD11R,0.0197X0.0709*%
D10*
X008012Y006085D03*
X008012Y006400D03*
X008012Y006715D03*
X008012Y007030D03*
X008012Y007345D03*
X008012Y007660D03*
X008012Y007975D03*
X008012Y008290D03*
X008012Y008605D03*
X008012Y008920D03*
X008012Y009235D03*
X012736Y009235D03*
X012736Y008920D03*
X012736Y008605D03*
X012736Y008290D03*
X012736Y007975D03*
X012736Y007660D03*
X012736Y007345D03*
X012736Y007030D03*
X012736Y006715D03*
X012736Y006400D03*
X012736Y006085D03*
D11*
X011949Y005298D03*
X011634Y005298D03*
X011319Y005298D03*
X011004Y005298D03*
X010689Y005298D03*
X010374Y005298D03*
X010059Y005298D03*
X009744Y005298D03*
X009429Y005298D03*
X009114Y005298D03*
X008799Y005298D03*
X008799Y010022D03*
X009114Y010022D03*
X009429Y010022D03*
X009744Y010022D03*
X010059Y010022D03*
X010374Y010022D03*
X010689Y010022D03*
X011004Y010022D03*
X011319Y010022D03*
X011634Y010022D03*
X011949Y010022D03*
M02*
