G75*
%MOIN*%
%OFA0B0*%
%FSLAX24Y24*%
%IPPOS*%
%LPD*%
%AMOC8*
5,1,8,0,0,1.08239X$1,22.5*
%
%ADD10C,0.0520*%
%ADD11OC8,0.0520*%
%ADD12C,0.0600*%
%ADD13OC8,0.0600*%
%ADD14C,0.0520*%
%ADD15R,0.0554X0.0554*%
%ADD16C,0.0240*%
%ADD17C,0.0160*%
%ADD18R,0.0396X0.0396*%
%ADD19C,0.0120*%
D10*
X013114Y014910D02*
X013634Y014910D01*
X013634Y015910D02*
X013114Y015910D01*
X013114Y016910D02*
X013634Y016910D01*
X016114Y016910D02*
X016634Y016910D01*
X017364Y016910D02*
X017884Y016910D01*
X017884Y015910D02*
X017364Y015910D01*
X016634Y015910D02*
X016114Y015910D01*
X016114Y014910D02*
X016634Y014910D01*
X017364Y014910D02*
X017884Y014910D01*
X017884Y013910D02*
X017364Y013910D01*
X016634Y013910D02*
X016114Y013910D01*
X016114Y012910D02*
X016634Y012910D01*
X017364Y012910D02*
X017884Y012910D01*
X017884Y011910D02*
X017364Y011910D01*
X016634Y011910D02*
X016114Y011910D01*
X016114Y010910D02*
X016634Y010910D01*
X017364Y010910D02*
X017884Y010910D01*
X017884Y009910D02*
X017364Y009910D01*
X016634Y009910D02*
X016114Y009910D01*
X016114Y008910D02*
X016634Y008910D01*
X017364Y008910D02*
X017884Y008910D01*
X017884Y007910D02*
X017364Y007910D01*
X016634Y007910D02*
X016114Y007910D01*
X016114Y006910D02*
X016634Y006910D01*
X017364Y006910D02*
X017884Y006910D01*
X017884Y005910D02*
X017364Y005910D01*
X016634Y005910D02*
X016114Y005910D01*
X016114Y004910D02*
X016634Y004910D01*
X017364Y004910D02*
X017884Y004910D01*
X017884Y003910D02*
X017364Y003910D01*
X016634Y003910D02*
X016114Y003910D01*
X016114Y002910D02*
X016634Y002910D01*
X017364Y002910D02*
X017884Y002910D01*
X022114Y002910D02*
X022634Y002910D01*
X023364Y002910D02*
X023884Y002910D01*
X023884Y003910D02*
X023364Y003910D01*
X022634Y003910D02*
X022114Y003910D01*
X022114Y004910D02*
X022634Y004910D01*
X023364Y004910D02*
X023884Y004910D01*
X023884Y005910D02*
X023364Y005910D01*
X022634Y005910D02*
X022114Y005910D01*
X022114Y006910D02*
X022634Y006910D01*
X023364Y006910D02*
X023884Y006910D01*
X023884Y007910D02*
X023364Y007910D01*
X022634Y007910D02*
X022114Y007910D01*
X022114Y008910D02*
X022634Y008910D01*
X023364Y008910D02*
X023884Y008910D01*
X023884Y009910D02*
X023364Y009910D01*
X022634Y009910D02*
X022114Y009910D01*
X022114Y010910D02*
X022634Y010910D01*
X023364Y010910D02*
X023884Y010910D01*
X023884Y011910D02*
X023364Y011910D01*
X022634Y011910D02*
X022114Y011910D01*
X022114Y012910D02*
X022634Y012910D01*
X023364Y012910D02*
X023884Y012910D01*
X023884Y013910D02*
X023364Y013910D01*
X022634Y013910D02*
X022114Y013910D01*
X022114Y014910D02*
X022634Y014910D01*
X023364Y014910D02*
X023884Y014910D01*
X023884Y015910D02*
X023364Y015910D01*
X022634Y015910D02*
X022114Y015910D01*
X022114Y016910D02*
X022634Y016910D01*
X023364Y016910D02*
X023884Y016910D01*
X023884Y017910D02*
X023364Y017910D01*
X022634Y017910D02*
X022114Y017910D01*
X022114Y018910D02*
X022634Y018910D01*
X023364Y018910D02*
X023884Y018910D01*
X023884Y019910D02*
X023364Y019910D01*
X022634Y019910D02*
X022114Y019910D01*
X022114Y020910D02*
X022634Y020910D01*
X023364Y020910D02*
X023884Y020910D01*
X023884Y021910D02*
X023364Y021910D01*
X022634Y021910D02*
X022114Y021910D01*
X020884Y023910D02*
X020364Y023910D01*
X020364Y024910D02*
X020884Y024910D01*
X020884Y025910D02*
X020364Y025910D01*
X020364Y026910D02*
X020884Y026910D01*
X020884Y027910D02*
X020364Y027910D01*
X020364Y028910D02*
X020884Y028910D01*
X020884Y029910D02*
X020364Y029910D01*
X017884Y029910D02*
X017364Y029910D01*
X017364Y028910D02*
X017884Y028910D01*
X017884Y027910D02*
X017364Y027910D01*
X017364Y026910D02*
X017884Y026910D01*
X017884Y025910D02*
X017364Y025910D01*
X017364Y024910D02*
X017884Y024910D01*
X017884Y023910D02*
X017364Y023910D01*
X017364Y021910D02*
X017884Y021910D01*
X017884Y020910D02*
X017364Y020910D01*
X016634Y020910D02*
X016114Y020910D01*
X016114Y019910D02*
X016634Y019910D01*
X017364Y019910D02*
X017884Y019910D01*
X017884Y018910D02*
X017364Y018910D01*
X016634Y018910D02*
X016114Y018910D01*
X016114Y017910D02*
X016634Y017910D01*
X017364Y017910D02*
X017884Y017910D01*
X016634Y021910D02*
X016114Y021910D01*
X016124Y026400D02*
X016124Y026920D01*
X015124Y026920D02*
X015124Y026400D01*
X014124Y026400D02*
X014124Y026920D01*
X013124Y026920D02*
X013124Y026400D01*
X012124Y026400D02*
X012124Y026920D01*
X011124Y026920D02*
X011124Y026400D01*
X010124Y026400D02*
X010124Y026920D01*
X008374Y027650D02*
X008374Y028170D01*
X007374Y028170D02*
X007374Y027650D01*
X006374Y027650D02*
X006374Y028170D01*
X005374Y028170D02*
X005374Y027650D01*
X004374Y027650D02*
X004374Y028170D01*
X003374Y028170D02*
X003374Y027650D01*
X002374Y027650D02*
X002374Y028170D01*
X002374Y030650D02*
X002374Y031170D01*
X003374Y031170D02*
X003374Y030650D01*
X004374Y030650D02*
X004374Y031170D01*
X005374Y031170D02*
X005374Y030650D01*
X006374Y030650D02*
X006374Y031170D01*
X007374Y031170D02*
X007374Y030650D01*
X008374Y030650D02*
X008374Y031170D01*
X010124Y029920D02*
X010124Y029400D01*
X011124Y029400D02*
X011124Y029920D01*
X012124Y029920D02*
X012124Y029400D01*
X013124Y029400D02*
X013124Y029920D01*
X014124Y029920D02*
X014124Y029400D01*
X015124Y029400D02*
X015124Y029920D01*
X016124Y029920D02*
X016124Y029400D01*
X008374Y025170D02*
X008374Y024650D01*
X007374Y024650D02*
X007374Y025170D01*
X006374Y025170D02*
X006374Y024650D01*
X005374Y024650D02*
X005374Y025170D01*
X004374Y025170D02*
X004374Y024650D01*
X003374Y024650D02*
X003374Y025170D01*
X002374Y025170D02*
X002374Y024650D01*
X002374Y033650D02*
X002374Y034170D01*
X003374Y034170D02*
X003374Y033650D01*
X004374Y033650D02*
X004374Y034170D01*
X005374Y034170D02*
X005374Y033650D01*
X006374Y033650D02*
X006374Y034170D01*
X007374Y034170D02*
X007374Y033650D01*
X008374Y033650D02*
X008374Y034170D01*
X026614Y016910D02*
X027134Y016910D01*
X027134Y015910D02*
X026614Y015910D01*
X026614Y014910D02*
X027134Y014910D01*
X027134Y013910D02*
X026614Y013910D01*
X026614Y012910D02*
X027134Y012910D01*
X027134Y011910D02*
X026614Y011910D01*
X026614Y010910D02*
X027134Y010910D01*
X027134Y009910D02*
X026614Y009910D01*
X026614Y008910D02*
X027134Y008910D01*
X027134Y007910D02*
X026614Y007910D01*
X026614Y006910D02*
X027134Y006910D01*
X027134Y005910D02*
X026614Y005910D01*
X026614Y004910D02*
X027134Y004910D01*
X027134Y003910D02*
X026614Y003910D01*
X026614Y002910D02*
X027134Y002910D01*
X027134Y001910D02*
X026614Y001910D01*
X032614Y001910D02*
X033134Y001910D01*
X033134Y002910D02*
X032614Y002910D01*
X032614Y003910D02*
X033134Y003910D01*
X033134Y004910D02*
X032614Y004910D01*
X032614Y005910D02*
X033134Y005910D01*
X033134Y006910D02*
X032614Y006910D01*
X032614Y007910D02*
X033134Y007910D01*
X033134Y008910D02*
X032614Y008910D01*
X032614Y009910D02*
X033134Y009910D01*
X033134Y010910D02*
X032614Y010910D01*
X032614Y011910D02*
X033134Y011910D01*
X033134Y012910D02*
X032614Y012910D01*
X032614Y013910D02*
X033134Y013910D01*
X033134Y014910D02*
X032614Y014910D01*
X032614Y015910D02*
X033134Y015910D01*
X033134Y016910D02*
X032614Y016910D01*
X034364Y016910D02*
X034884Y016910D01*
X034364Y016910D01*
X034364Y015910D02*
X034884Y015910D01*
X034364Y015910D01*
X034364Y014910D02*
X034884Y014910D01*
X034364Y014910D01*
X034364Y013910D02*
X034884Y013910D01*
X034364Y013910D01*
X034364Y012910D02*
X034884Y012910D01*
X034364Y012910D01*
X034364Y011910D02*
X034884Y011910D01*
X034364Y011910D01*
X034364Y010910D02*
X034884Y010910D01*
X034364Y010910D01*
X034364Y009910D02*
X034884Y009910D01*
X034364Y009910D01*
X034364Y008910D02*
X034884Y008910D01*
X034364Y008910D01*
X034364Y007910D02*
X034884Y007910D01*
X034364Y007910D01*
X034364Y006910D02*
X034884Y006910D01*
X034364Y006910D01*
X034364Y005910D02*
X034884Y005910D01*
X034364Y005910D01*
X034364Y004910D02*
X034884Y004910D01*
X034364Y004910D01*
X034364Y003910D02*
X034884Y003910D01*
X034364Y003910D01*
X037364Y003910D02*
X037884Y003910D01*
X037884Y004910D02*
X037364Y004910D01*
X037364Y005910D02*
X037884Y005910D01*
X037884Y006910D02*
X037364Y006910D01*
X037364Y007910D02*
X037884Y007910D01*
X037884Y008910D02*
X037364Y008910D01*
X037364Y009910D02*
X037884Y009910D01*
X037884Y010910D02*
X037364Y010910D01*
X037364Y011910D02*
X037884Y011910D01*
X037884Y012910D02*
X037364Y012910D01*
X037364Y013910D02*
X037884Y013910D01*
X037884Y014910D02*
X037364Y014910D01*
X037364Y015910D02*
X037884Y015910D01*
X037884Y016910D02*
X037364Y016910D01*
X040364Y016910D02*
X040884Y016910D01*
X040884Y015910D02*
X040364Y015910D01*
X040364Y014910D02*
X040884Y014910D01*
X040884Y013910D02*
X040364Y013910D01*
X040364Y012910D02*
X040884Y012910D01*
X040884Y011910D02*
X040364Y011910D01*
X040364Y010910D02*
X040884Y010910D01*
X040884Y009910D02*
X040364Y009910D01*
X040364Y008910D02*
X040884Y008910D01*
X040884Y007910D02*
X040364Y007910D01*
X040364Y006910D02*
X040884Y006910D01*
X040884Y005910D02*
X040364Y005910D01*
X040364Y004910D02*
X040884Y004910D01*
X040884Y003910D02*
X040364Y003910D01*
D11*
X041374Y002410D03*
X041874Y006160D03*
X039124Y007410D03*
X041874Y010160D03*
X039124Y011410D03*
X031124Y011410D03*
X031124Y007410D03*
X028624Y003910D03*
X028624Y002910D03*
X034374Y002410D03*
X036374Y002410D03*
X037374Y002410D03*
X019874Y014910D03*
X019874Y018910D03*
X015124Y023910D03*
X014124Y024910D03*
X012124Y024910D03*
X011374Y024910D03*
X011374Y023910D03*
X012124Y023910D03*
X011374Y022910D03*
X011374Y021910D03*
X009374Y023910D03*
X009374Y024910D03*
X008374Y022910D03*
X008374Y021910D03*
X008374Y019910D03*
X008374Y018910D03*
X010124Y016910D03*
X011624Y016910D03*
X011624Y014910D03*
X008374Y011160D03*
X006374Y011160D03*
X009374Y003160D03*
X010374Y003160D03*
X004374Y018910D03*
X004374Y019910D03*
X003874Y022910D03*
X002874Y022910D03*
X009374Y032160D03*
X009374Y034160D03*
X009374Y035160D03*
X008124Y035160D03*
X005124Y035160D03*
X004374Y035160D03*
X003374Y035160D03*
X012374Y035160D03*
X018624Y030910D03*
X020624Y030910D03*
D12*
X015174Y021910D02*
X014574Y021910D01*
X014574Y020910D02*
X015174Y020910D01*
X009924Y020660D02*
X009324Y020660D01*
X009324Y019660D02*
X009924Y019660D01*
X003174Y019910D02*
X002574Y019910D01*
X002574Y018910D02*
X003174Y018910D01*
X025074Y019410D02*
X025674Y019410D01*
X025674Y020410D02*
X025074Y020410D01*
X025074Y021410D02*
X025674Y021410D01*
D13*
X016124Y027910D03*
X015124Y027910D03*
X014124Y027910D03*
X013124Y027910D03*
X012124Y027910D03*
X011124Y027910D03*
X010124Y027910D03*
X010124Y030910D03*
X011124Y030910D03*
X012124Y030910D03*
X013124Y030910D03*
X014124Y030910D03*
X015124Y030910D03*
X016124Y030910D03*
X007624Y003160D03*
X006624Y003160D03*
X005624Y003160D03*
X005624Y002160D03*
X006624Y002160D03*
X007624Y002160D03*
D14*
X010124Y014910D03*
X005874Y023910D03*
X002874Y023910D03*
X014624Y032160D03*
X014624Y035160D03*
D15*
X017374Y035410D03*
X017374Y036410D03*
X017374Y037410D03*
X017374Y039410D03*
D16*
X017374Y035410D02*
X017374Y032910D01*
X017374Y031660D01*
X017624Y031410D01*
X020374Y031410D01*
X020624Y031160D01*
X020624Y030910D01*
X020624Y029910D01*
X017374Y032910D02*
X009624Y032910D01*
X009374Y032660D01*
X009374Y032160D01*
X008374Y032160D01*
X008374Y030910D01*
X008374Y032160D02*
X007374Y032160D01*
X007374Y033910D01*
X007374Y032160D02*
X003624Y032160D01*
X003374Y031910D02*
X003374Y030910D01*
X003374Y029660D01*
X003624Y029410D01*
X005374Y029410D01*
X005374Y027910D01*
X005374Y029410D02*
X006624Y029410D01*
X006874Y029160D01*
X006874Y026910D01*
X007374Y026410D01*
X007374Y024910D01*
X008374Y024910D01*
X009374Y024910D01*
X011374Y024910D02*
X011374Y023910D01*
X011374Y023410D01*
X011374Y022910D01*
X011374Y023410D02*
X012124Y023410D01*
X012124Y024910D01*
X012124Y023910D01*
X012124Y023410D02*
X016374Y023410D01*
X016874Y023910D01*
X017624Y023910D01*
X017624Y021910D02*
X017374Y021910D01*
X016874Y021410D01*
X015874Y021410D01*
X015374Y020910D01*
X014874Y020910D01*
X014874Y021910D02*
X016374Y021910D01*
X013374Y020160D02*
X013374Y016910D01*
X015124Y016910D01*
X015374Y016660D01*
X015374Y015160D01*
X015624Y014910D01*
X016374Y014910D01*
X017624Y014910D01*
X019874Y014910D02*
X019874Y016160D01*
X020124Y016410D01*
X028624Y016410D01*
X032874Y016910D02*
X033624Y016910D01*
X034124Y017410D01*
X035874Y017410D01*
X036374Y016910D01*
X037624Y016910D01*
X040624Y016910D01*
X041624Y007410D02*
X039124Y007410D01*
X041624Y007410D02*
X041874Y007160D01*
X041874Y006160D01*
X041874Y002160D01*
X041624Y001910D01*
X039624Y001910D01*
X039124Y002410D01*
X037374Y002410D01*
X036374Y002410D01*
X035874Y002410D01*
X035624Y002660D01*
X035624Y003660D01*
X035374Y003910D01*
X034624Y003910D01*
X034124Y003910D01*
X033624Y003410D01*
X030124Y003410D01*
X029624Y003910D01*
X028624Y003910D01*
X026874Y003910D01*
X026874Y002910D01*
X026874Y001910D01*
X028624Y001410D02*
X028624Y002910D01*
X028624Y001410D02*
X034124Y001410D01*
X034374Y001660D01*
X034374Y002410D01*
X028624Y001410D02*
X023874Y001410D01*
X023624Y001660D01*
X023624Y002910D01*
X022374Y002910D02*
X021374Y002910D01*
X020874Y002410D01*
X014874Y002410D01*
X014624Y002660D01*
X014624Y008160D01*
X014624Y015660D01*
X014374Y015910D01*
X013374Y015910D01*
X011874Y015910D01*
X011624Y016160D01*
X011624Y016910D01*
X010124Y016910D01*
X010124Y014910D02*
X008374Y014910D01*
X008374Y011160D01*
X007874Y011160D01*
X007624Y010910D01*
X007624Y003160D01*
X009374Y003160D01*
X010374Y003160D02*
X010374Y002410D01*
X010124Y002160D01*
X007624Y002160D01*
X010374Y003160D02*
X010374Y007910D01*
X010624Y008160D01*
X014624Y008160D01*
X013374Y014910D02*
X011624Y014910D01*
X010124Y014910D01*
X008374Y014910D02*
X008374Y018910D01*
X008374Y019910D01*
X009624Y020660D02*
X006374Y020660D01*
X006374Y011160D01*
X006374Y020660D02*
X002874Y020660D01*
X002874Y022910D01*
X001874Y020910D02*
X002124Y020660D01*
X002874Y020660D01*
X001874Y020910D02*
X001874Y026160D01*
X002374Y026660D01*
X002374Y027910D01*
X002374Y028910D01*
X001874Y029410D01*
X001874Y032160D01*
X002374Y032660D01*
X002374Y033910D01*
X002374Y035660D01*
X002624Y035910D01*
X003374Y035910D01*
X009124Y035910D01*
X009374Y035660D01*
X009374Y035160D01*
X009374Y034160D01*
X003374Y035160D02*
X003374Y035910D01*
D17*
X003624Y032160D02*
X003374Y031910D01*
X022374Y002910D02*
X023624Y002910D01*
D18*
X019124Y003410D03*
X013874Y006410D03*
X013374Y020160D03*
X028624Y016410D03*
D19*
X005874Y001660D02*
X005624Y001910D01*
X005624Y002160D01*
X005874Y001660D02*
X013624Y001660D01*
X013874Y001910D01*
X013874Y006410D01*
X016374Y005910D02*
X017624Y005910D01*
X017624Y006910D02*
X016374Y006910D01*
X016374Y007910D02*
X017624Y007910D01*
X019874Y007910D01*
X020374Y007410D01*
X029624Y007410D01*
X030374Y006660D01*
X032124Y006660D01*
X032374Y006910D01*
X032874Y006910D01*
X033624Y006910D01*
X034124Y007410D01*
X035874Y007410D01*
X036374Y006910D01*
X037624Y006910D01*
X040624Y006910D01*
X040624Y005910D02*
X037624Y005910D01*
X036374Y005910D01*
X035874Y006410D01*
X034124Y006410D01*
X033624Y005910D01*
X032874Y005910D01*
X030124Y005910D01*
X029624Y006410D01*
X020374Y006410D01*
X019874Y006910D01*
X017624Y006910D01*
X017624Y008910D02*
X016374Y008910D01*
X017624Y008910D02*
X019874Y008910D01*
X020374Y008410D01*
X029624Y008410D01*
X030124Y007910D01*
X032874Y007910D01*
X033624Y007910D01*
X034124Y008410D01*
X035874Y008410D01*
X036374Y007910D01*
X037624Y007910D01*
X040624Y007910D01*
X040624Y008910D02*
X037624Y008910D01*
X036374Y008910D01*
X035874Y009410D01*
X034124Y009410D01*
X033624Y008910D01*
X032874Y008910D01*
X030124Y008910D01*
X029624Y009410D01*
X020374Y009410D01*
X019874Y009910D01*
X017624Y009910D01*
X016374Y009910D01*
X016374Y010910D02*
X017624Y010910D01*
X019874Y010910D01*
X020374Y010410D01*
X029624Y010410D01*
X030124Y009910D01*
X032874Y009910D01*
X033624Y009910D01*
X034124Y010410D01*
X035874Y010410D01*
X036374Y009910D01*
X037624Y009910D01*
X040624Y009910D01*
X040624Y010910D02*
X037624Y010910D01*
X036374Y010910D01*
X035874Y011410D01*
X034124Y011410D01*
X033624Y010910D01*
X032874Y010910D01*
X030124Y010910D01*
X029624Y011410D01*
X020374Y011410D01*
X019874Y011910D01*
X017624Y011910D01*
X016374Y011910D01*
X016374Y012910D02*
X017624Y012910D01*
X019874Y012910D01*
X020374Y012410D01*
X029624Y012410D01*
X030124Y011910D01*
X032874Y011910D01*
X033624Y011910D01*
X034124Y012410D01*
X035874Y012410D01*
X036374Y011910D01*
X037624Y011910D01*
X040624Y011910D01*
X040624Y012910D02*
X037624Y012910D01*
X036374Y012910D01*
X035874Y013410D01*
X034124Y013410D01*
X033624Y012910D01*
X032874Y012910D01*
X030124Y012910D01*
X029624Y013410D01*
X020374Y013410D01*
X019874Y013910D01*
X017624Y013910D01*
X016374Y013910D01*
X016374Y015910D02*
X017624Y015910D01*
X017624Y016910D02*
X016374Y016910D01*
X016374Y017910D02*
X017624Y017910D01*
X017624Y018910D02*
X016374Y018910D01*
X016374Y019910D02*
X017624Y019910D01*
X017624Y020910D02*
X016374Y020910D01*
X019124Y022660D02*
X019374Y022910D01*
X019374Y025160D01*
X019624Y025410D01*
X021124Y025410D01*
X021374Y025660D01*
X021374Y026660D01*
X021124Y026910D01*
X020624Y026910D01*
X020624Y025910D02*
X019374Y025910D01*
X019124Y025660D01*
X019124Y025160D01*
X018874Y024910D01*
X017624Y024910D01*
X018124Y025410D02*
X018374Y025660D01*
X018374Y026660D01*
X018124Y026910D01*
X017624Y026910D01*
X017624Y027910D02*
X018874Y027910D01*
X019374Y028410D01*
X021374Y028410D01*
X021624Y028160D01*
X021624Y024660D01*
X021374Y024410D01*
X019874Y024410D01*
X019624Y024160D01*
X019624Y022660D01*
X019374Y022410D01*
X012124Y022410D01*
X011874Y022160D01*
X011874Y021660D01*
X011624Y021410D01*
X011374Y021410D01*
X011374Y021910D01*
X011374Y021410D02*
X003624Y021410D01*
X003374Y021660D01*
X003374Y024910D01*
X002874Y023910D02*
X002874Y029160D01*
X002374Y029660D01*
X002374Y030910D01*
X002874Y032160D02*
X003374Y032660D01*
X003374Y033910D01*
X004374Y033910D02*
X004374Y035160D01*
X005124Y035160D01*
X005374Y033910D02*
X005374Y033410D01*
X005624Y033160D01*
X006624Y033160D01*
X006874Y033410D01*
X006874Y034410D01*
X007124Y034660D01*
X008124Y034660D01*
X008374Y034410D01*
X008374Y033910D01*
X008124Y035160D02*
X006624Y035160D01*
X006374Y034910D01*
X006374Y033910D01*
X005624Y031660D02*
X005374Y031410D01*
X005374Y030910D01*
X005624Y031660D02*
X007624Y031660D01*
X007874Y031410D01*
X007874Y029910D01*
X008374Y029410D01*
X008374Y027910D01*
X007374Y027910D02*
X007374Y029660D01*
X007124Y029910D01*
X006624Y029910D01*
X006374Y030160D01*
X006374Y030910D01*
X003874Y028660D02*
X002874Y029660D01*
X002874Y032160D01*
X003874Y028660D02*
X003874Y027410D01*
X004124Y027160D01*
X006124Y027160D01*
X006374Y027410D01*
X006374Y027910D01*
X004874Y026160D02*
X004624Y026410D01*
X003624Y026410D01*
X003374Y026660D01*
X003374Y027910D01*
X004874Y026160D02*
X004874Y022660D01*
X005124Y022410D01*
X011624Y022410D01*
X011874Y022660D01*
X019124Y022660D01*
X020624Y023910D02*
X021624Y023910D01*
X021874Y024160D01*
X021874Y029160D01*
X021624Y029410D01*
X016874Y029410D01*
X016374Y028910D01*
X014624Y028910D01*
X014624Y032160D01*
X014624Y028910D02*
X011874Y028910D01*
X011624Y028660D01*
X011624Y026160D01*
X011874Y025910D01*
X013874Y025910D01*
X014124Y025660D01*
X014124Y024910D01*
X014124Y024160D01*
X014374Y023910D01*
X015124Y023910D01*
X016624Y025410D02*
X018124Y025410D01*
X017624Y025910D02*
X017124Y025910D01*
X016874Y026160D01*
X016874Y028160D01*
X017124Y028410D01*
X018874Y028410D01*
X019374Y028910D01*
X020624Y028910D01*
X017624Y028910D02*
X016874Y028910D01*
X016624Y028660D01*
X012374Y028660D01*
X012124Y028410D01*
X012124Y027910D01*
X015124Y026660D02*
X015124Y026160D01*
X015374Y025910D01*
X016124Y025910D01*
X016624Y025410D01*
X022374Y021910D02*
X023624Y021910D01*
X023124Y021410D02*
X025374Y021410D01*
X023624Y019910D02*
X022374Y019910D01*
X022374Y018910D02*
X023624Y018910D01*
X023624Y017910D02*
X022374Y017910D01*
X020124Y017910D01*
X019874Y018160D01*
X019874Y018910D01*
X022374Y016910D02*
X023624Y016910D01*
X023624Y015910D02*
X022374Y015910D01*
X021874Y015410D02*
X021624Y015160D01*
X021624Y014160D01*
X021874Y013910D01*
X022374Y013910D01*
X023624Y013910D01*
X023624Y014910D02*
X025124Y014910D01*
X025624Y014410D01*
X029624Y014410D01*
X030124Y013910D01*
X032874Y013910D01*
X033624Y013910D01*
X034124Y014410D01*
X035874Y014410D01*
X036374Y013910D01*
X037624Y013910D01*
X040624Y013910D01*
X040624Y014910D02*
X037624Y014910D01*
X036374Y014910D01*
X035874Y015410D01*
X034124Y015410D01*
X033624Y014910D01*
X032874Y014910D01*
X030124Y014910D01*
X029624Y015410D01*
X021874Y015410D01*
X022374Y014910D02*
X023624Y014910D01*
X023624Y012910D02*
X022374Y012910D01*
X022374Y011910D02*
X023624Y011910D01*
X023624Y010910D02*
X022374Y010910D01*
X022374Y009910D02*
X023624Y009910D01*
X023624Y008910D02*
X022374Y008910D01*
X022374Y007910D02*
X023624Y007910D01*
X023624Y006910D02*
X022374Y006910D01*
X022374Y005910D02*
X023624Y005910D01*
X023624Y004910D02*
X022374Y004910D01*
X022374Y003910D02*
X023624Y003910D01*
X024374Y003410D02*
X024624Y003660D01*
X024624Y005660D01*
X024874Y005910D01*
X026874Y005910D01*
X029624Y005910D01*
X030124Y005410D01*
X033624Y005410D01*
X034124Y005910D01*
X034624Y005910D01*
X034124Y005410D02*
X035874Y005410D01*
X036374Y004910D01*
X037624Y004910D01*
X040624Y004910D01*
X041124Y004410D02*
X036374Y004410D01*
X035874Y004910D01*
X034624Y004910D01*
X034124Y005410D02*
X033624Y004910D01*
X032874Y004910D01*
X033624Y006410D02*
X034124Y006910D01*
X034624Y006910D01*
X034624Y007910D02*
X034124Y007910D01*
X033624Y007410D01*
X032374Y007410D01*
X031874Y006910D01*
X030624Y006910D01*
X029624Y007910D01*
X026874Y007910D01*
X026874Y006910D02*
X029624Y006910D01*
X030124Y006410D01*
X033624Y006410D01*
X033624Y008410D02*
X034124Y008910D01*
X034624Y008910D01*
X034124Y009910D02*
X033624Y009410D01*
X030124Y009410D01*
X029624Y009910D01*
X026874Y009910D01*
X026874Y010910D02*
X029624Y010910D01*
X030124Y010410D01*
X033624Y010410D01*
X034124Y010910D01*
X034624Y010910D01*
X034624Y009910D02*
X034124Y009910D01*
X034624Y009910D02*
X035874Y009910D01*
X036374Y009410D01*
X041624Y009410D01*
X041874Y009660D01*
X041874Y010160D01*
X039124Y011410D02*
X036374Y011410D01*
X035874Y011910D01*
X034624Y011910D01*
X034624Y012910D02*
X034124Y012910D01*
X033624Y012410D01*
X030124Y012410D01*
X029624Y012910D01*
X026874Y012910D01*
X026874Y011910D02*
X029624Y011910D01*
X030124Y011410D01*
X031124Y011410D01*
X030124Y013410D02*
X029624Y013910D01*
X026874Y013910D01*
X026874Y014910D02*
X029624Y014910D01*
X030124Y014410D01*
X033624Y014410D01*
X034124Y014910D01*
X034624Y014910D01*
X034624Y013910D02*
X034124Y013910D01*
X033624Y013410D01*
X030124Y013410D01*
X030124Y015410D02*
X033624Y015410D01*
X034124Y015910D01*
X034624Y015910D01*
X034124Y016410D02*
X035874Y016410D01*
X036374Y015910D01*
X037624Y015910D01*
X040624Y015910D01*
X034624Y016910D02*
X034124Y016910D01*
X033624Y016410D01*
X030374Y016410D01*
X029874Y016910D01*
X026874Y016910D01*
X026874Y015910D02*
X029624Y015910D01*
X030124Y015410D01*
X032874Y015910D02*
X033624Y015910D01*
X034124Y016410D01*
X029624Y008910D02*
X026874Y008910D01*
X029624Y008910D02*
X030124Y008410D01*
X033624Y008410D01*
X035624Y004410D02*
X030124Y004410D01*
X029624Y004910D01*
X026874Y004910D01*
X024374Y003410D02*
X019124Y003410D01*
X017624Y002910D02*
X016374Y002910D01*
X016374Y003910D02*
X017624Y003910D01*
X017624Y004910D02*
X016374Y004910D01*
X002874Y018910D02*
X002874Y019910D01*
X004374Y019910D01*
X004124Y021910D02*
X008374Y021910D01*
X008374Y022910D02*
X008374Y023910D01*
X009374Y023910D01*
X008374Y023910D02*
X006374Y023910D01*
X006374Y024910D01*
X006374Y023910D02*
X005874Y023910D01*
X004374Y024160D02*
X004374Y024910D01*
X004374Y024160D02*
X003874Y023660D01*
X003874Y022910D01*
X003874Y022160D01*
X004124Y021910D01*
X022374Y020910D02*
X022624Y020910D01*
X023124Y021410D01*
X035624Y004410D02*
X036124Y003910D01*
X037624Y003910D01*
X040624Y003910D01*
X041124Y004410D02*
X041374Y004160D01*
X041374Y002410D01*
M02*
