G75*
G70*
%OFA0B0*%
%FSLAX24Y24*%
%IPPOS*%
%LPD*%
%AMOC8*
5,1,8,0,0,1.08239X$1,22.5*
%
%ADD10C,0.0120*%
%ADD11C,0.0000*%
%ADD12C,0.0520*%
%ADD13OC8,0.0520*%
%ADD14C,0.0600*%
%ADD15C,0.0520*%
%ADD16R,0.0515X0.0515*%
%ADD17C,0.0160*%
%ADD18R,0.0531X0.0531*%
D10*
X001374Y000160D02*
X001374Y041682D01*
X018624Y041682D01*
X018624Y041660D02*
X018624Y033910D01*
X022624Y033910D01*
X022624Y024160D01*
X043374Y024160D01*
X043329Y024182D02*
X043329Y000160D01*
X001374Y000160D01*
X009124Y002410D02*
X009124Y006910D01*
X009374Y007160D01*
X010374Y007160D01*
X015374Y006910D02*
X015374Y004910D01*
X015624Y004660D01*
X016374Y004660D01*
X017624Y004660D01*
X017624Y003660D02*
X020374Y003660D01*
X020874Y004160D01*
X027624Y004160D01*
X027874Y004410D01*
X027874Y009410D01*
X027624Y009660D01*
X026874Y009660D01*
X026374Y009660D01*
X025374Y009910D02*
X025124Y009660D01*
X023624Y009660D01*
X022374Y009660D01*
X022374Y008660D02*
X023624Y008660D01*
X025374Y008660D01*
X025624Y008910D01*
X025624Y013410D01*
X025874Y013660D01*
X026874Y013660D01*
X026874Y012660D02*
X026124Y012660D01*
X025874Y012410D01*
X025874Y008410D01*
X025624Y008160D01*
X021374Y008160D01*
X021124Y008410D01*
X021124Y017910D01*
X020874Y018160D01*
X015374Y018160D01*
X015124Y018410D01*
X015124Y019660D01*
X016374Y019660D02*
X017624Y019660D01*
X017624Y020660D02*
X016374Y020660D01*
X015374Y021660D02*
X015874Y022160D01*
X017124Y022160D01*
X017624Y022660D01*
X016624Y023660D02*
X021374Y023660D01*
X021624Y023910D01*
X021624Y028410D01*
X021374Y028660D01*
X020624Y028660D01*
X020624Y025660D02*
X021124Y025660D01*
X021374Y025410D01*
X021374Y024160D01*
X021124Y023910D01*
X016874Y023910D01*
X016624Y024160D01*
X016624Y029160D01*
X016374Y029410D01*
X015374Y029410D01*
X015124Y029160D01*
X015124Y028660D01*
X014124Y028660D02*
X014124Y027410D01*
X013124Y028660D02*
X013124Y029410D01*
X012874Y029660D01*
X004624Y029660D01*
X004374Y029910D01*
X004374Y031660D01*
X005874Y031160D02*
X005874Y033660D01*
X006124Y033910D01*
X011374Y033910D01*
X011624Y034160D01*
X011624Y035910D01*
X014124Y033160D02*
X014124Y031660D01*
X013124Y031660D02*
X013124Y030410D01*
X012124Y030410D02*
X012124Y031660D01*
X011124Y031660D02*
X011124Y030410D01*
X010124Y030410D02*
X010124Y031660D01*
X010874Y029410D02*
X006124Y029410D01*
X005874Y029160D01*
X005874Y027410D01*
X005374Y026910D01*
X005374Y025660D01*
X005874Y025160D02*
X005874Y026410D01*
X006124Y026660D01*
X016124Y026660D01*
X016374Y026410D01*
X016374Y023910D01*
X016624Y023660D01*
X015374Y021660D02*
X014874Y021660D01*
X013374Y022160D02*
X013124Y021910D01*
X013374Y022160D02*
X013374Y023160D01*
X013624Y023410D01*
X041624Y023410D01*
X041874Y023160D01*
X041874Y010910D01*
X041124Y016660D02*
X040624Y016660D01*
X041124Y016660D02*
X041374Y016910D01*
X041374Y017910D01*
X041124Y018160D01*
X024624Y018160D01*
X024374Y017910D01*
X024374Y013910D01*
X024124Y013660D01*
X023624Y013660D01*
X022374Y013660D01*
X022374Y012660D02*
X023624Y012660D01*
X024374Y012660D01*
X024624Y012910D01*
X024624Y017410D01*
X024874Y017660D01*
X026874Y017660D01*
X026874Y016660D02*
X025124Y016660D01*
X024874Y016410D01*
X024874Y011910D01*
X024624Y011660D01*
X023624Y011660D01*
X022374Y011660D01*
X022374Y010660D02*
X023624Y010660D01*
X024874Y010660D01*
X025124Y010910D01*
X025124Y015410D01*
X025374Y015660D01*
X026874Y015660D01*
X026874Y014660D02*
X025624Y014660D01*
X025374Y014410D01*
X025374Y009910D01*
X026874Y008660D02*
X027374Y008660D01*
X027624Y008410D01*
X027624Y005410D01*
X027374Y005160D01*
X020874Y005160D01*
X020374Y005660D01*
X017624Y005660D01*
X016374Y005660D01*
X016374Y006660D02*
X017624Y006660D01*
X020374Y006660D01*
X020874Y006160D01*
X024374Y006160D01*
X024624Y006410D01*
X024624Y007410D01*
X024874Y007660D01*
X026874Y007660D01*
X026124Y008160D02*
X025874Y007910D01*
X024624Y007910D01*
X024374Y007660D01*
X024374Y007410D01*
X024124Y007160D01*
X015624Y007160D01*
X015374Y006910D01*
X016374Y007660D02*
X017624Y007660D01*
X017624Y008660D02*
X016374Y008660D01*
X016374Y009660D02*
X017624Y009660D01*
X017624Y010660D02*
X016374Y010660D01*
X016374Y011660D02*
X017624Y011660D01*
X017624Y012660D02*
X016374Y012660D01*
X016374Y013660D02*
X017624Y013660D01*
X017624Y014660D02*
X016374Y014660D01*
X016374Y016660D02*
X017624Y016660D01*
X017624Y017660D02*
X016374Y017660D01*
X016374Y018660D02*
X017624Y018660D01*
X022374Y018660D02*
X023624Y018660D01*
X023624Y017660D02*
X022374Y017660D01*
X022374Y016660D02*
X023624Y016660D01*
X023624Y015660D02*
X022374Y015660D01*
X022374Y014660D02*
X023624Y014660D01*
X026374Y011660D02*
X026124Y011410D01*
X026124Y008160D01*
X023624Y007660D02*
X022374Y007660D01*
X022374Y006660D02*
X023624Y006660D01*
X023624Y005660D02*
X022374Y005660D01*
X022374Y004660D02*
X023624Y004660D01*
X017624Y003660D02*
X016374Y003660D01*
X026374Y011660D02*
X026874Y011660D01*
X024124Y019660D02*
X023624Y019660D01*
X022374Y019660D01*
X022374Y020660D02*
X023624Y020660D01*
X023624Y021660D02*
X024124Y021660D01*
X024624Y021160D01*
X025374Y021160D01*
X025374Y020160D02*
X024624Y020160D01*
X024124Y019660D01*
X023624Y022660D02*
X022374Y022660D01*
X016124Y027410D02*
X016124Y028660D01*
X016124Y030410D02*
X016124Y031660D01*
X015874Y032660D02*
X015624Y032910D01*
X015624Y033410D01*
X015374Y033660D01*
X006624Y033660D01*
X006374Y033410D01*
X006374Y031660D01*
X005874Y031160D02*
X006124Y030910D01*
X007124Y030910D01*
X007374Y031160D01*
X007374Y031660D01*
X010124Y028660D02*
X010124Y027410D01*
X011124Y028660D02*
X011124Y029160D01*
X010874Y029410D01*
X012124Y028660D02*
X012124Y027410D01*
X015124Y030410D02*
X015124Y031660D01*
X015874Y032660D02*
X017374Y032660D01*
X017624Y032410D01*
X017624Y030660D01*
X005874Y025160D02*
X005624Y024910D01*
X003124Y024910D01*
X002874Y025160D01*
X002874Y033660D01*
X003374Y034160D01*
X003374Y034660D01*
D11*
X001374Y039530D02*
X001374Y000160D01*
D12*
X003374Y006150D02*
X003374Y006670D01*
X004374Y006670D02*
X004374Y006150D01*
X005374Y006150D02*
X005374Y006670D01*
X006374Y006670D02*
X006374Y006150D01*
X007374Y006150D02*
X007374Y006670D01*
X008374Y006670D02*
X008374Y006150D01*
X013864Y010160D02*
X014384Y010160D01*
X014384Y011160D02*
X013864Y011160D01*
X013864Y012160D02*
X014384Y012160D01*
X016114Y011660D02*
X016634Y011660D01*
X017364Y011660D02*
X017884Y011660D01*
X017884Y010660D02*
X017364Y010660D01*
X016634Y010660D02*
X016114Y010660D01*
X016114Y009660D02*
X016634Y009660D01*
X017364Y009660D02*
X017884Y009660D01*
X017884Y008660D02*
X017364Y008660D01*
X016634Y008660D02*
X016114Y008660D01*
X016114Y007660D02*
X016634Y007660D01*
X017364Y007660D02*
X017884Y007660D01*
X017884Y006660D02*
X017364Y006660D01*
X016634Y006660D02*
X016114Y006660D01*
X016114Y005660D02*
X016634Y005660D01*
X017364Y005660D02*
X017884Y005660D01*
X017884Y004660D02*
X017364Y004660D01*
X016634Y004660D02*
X016114Y004660D01*
X016114Y003660D02*
X016634Y003660D01*
X017364Y003660D02*
X017884Y003660D01*
X022114Y003660D02*
X022634Y003660D01*
X023364Y003660D02*
X023884Y003660D01*
X023884Y004660D02*
X023364Y004660D01*
X022634Y004660D02*
X022114Y004660D01*
X022114Y005660D02*
X022634Y005660D01*
X023364Y005660D02*
X023884Y005660D01*
X023884Y006660D02*
X023364Y006660D01*
X022634Y006660D02*
X022114Y006660D01*
X022114Y007660D02*
X022634Y007660D01*
X023364Y007660D02*
X023884Y007660D01*
X023884Y008660D02*
X023364Y008660D01*
X022634Y008660D02*
X022114Y008660D01*
X022114Y009660D02*
X022634Y009660D01*
X023364Y009660D02*
X023884Y009660D01*
X023884Y010660D02*
X023364Y010660D01*
X022634Y010660D02*
X022114Y010660D01*
X022114Y011660D02*
X022634Y011660D01*
X023364Y011660D02*
X023884Y011660D01*
X023884Y012660D02*
X023364Y012660D01*
X022634Y012660D02*
X022114Y012660D01*
X022114Y013660D02*
X022634Y013660D01*
X023364Y013660D02*
X023884Y013660D01*
X023884Y014660D02*
X023364Y014660D01*
X022634Y014660D02*
X022114Y014660D01*
X022114Y015660D02*
X022634Y015660D01*
X023364Y015660D02*
X023884Y015660D01*
X023884Y016660D02*
X023364Y016660D01*
X022634Y016660D02*
X022114Y016660D01*
X022114Y017660D02*
X022634Y017660D01*
X023364Y017660D02*
X023884Y017660D01*
X023884Y018660D02*
X023364Y018660D01*
X022634Y018660D02*
X022114Y018660D01*
X022114Y019660D02*
X022634Y019660D01*
X023364Y019660D02*
X023884Y019660D01*
X023884Y020660D02*
X023364Y020660D01*
X022634Y020660D02*
X022114Y020660D01*
X022114Y021660D02*
X022634Y021660D01*
X023364Y021660D02*
X023884Y021660D01*
X023884Y022660D02*
X023364Y022660D01*
X022634Y022660D02*
X022114Y022660D01*
X020884Y024660D02*
X020364Y024660D01*
X020364Y025660D02*
X020884Y025660D01*
X020884Y026660D02*
X020364Y026660D01*
X020364Y027660D02*
X020884Y027660D01*
X020884Y028660D02*
X020364Y028660D01*
X020364Y029660D02*
X020884Y029660D01*
X020884Y030660D02*
X020364Y030660D01*
X017884Y030660D02*
X017364Y030660D01*
X017364Y029660D02*
X017884Y029660D01*
X017884Y028660D02*
X017364Y028660D01*
X017364Y027660D02*
X017884Y027660D01*
X017884Y026660D02*
X017364Y026660D01*
X017364Y025660D02*
X017884Y025660D01*
X017884Y024660D02*
X017364Y024660D01*
X017364Y022660D02*
X017884Y022660D01*
X017884Y021660D02*
X017364Y021660D01*
X016634Y021660D02*
X016114Y021660D01*
X016114Y020660D02*
X016634Y020660D01*
X017364Y020660D02*
X017884Y020660D01*
X017884Y019660D02*
X017364Y019660D01*
X016634Y019660D02*
X016114Y019660D01*
X016114Y018660D02*
X016634Y018660D01*
X017364Y018660D02*
X017884Y018660D01*
X017884Y017660D02*
X017364Y017660D01*
X016634Y017660D02*
X016114Y017660D01*
X016114Y016660D02*
X016634Y016660D01*
X017364Y016660D02*
X017884Y016660D01*
X017884Y015660D02*
X017364Y015660D01*
X016634Y015660D02*
X016114Y015660D01*
X016114Y014660D02*
X016634Y014660D01*
X017364Y014660D02*
X017884Y014660D01*
X017884Y013660D02*
X017364Y013660D01*
X016634Y013660D02*
X016114Y013660D01*
X016114Y012660D02*
X016634Y012660D01*
X017364Y012660D02*
X017884Y012660D01*
X026614Y012660D02*
X027134Y012660D01*
X027134Y011660D02*
X026614Y011660D01*
X026614Y010660D02*
X027134Y010660D01*
X027134Y009660D02*
X026614Y009660D01*
X026614Y008660D02*
X027134Y008660D01*
X027134Y007660D02*
X026614Y007660D01*
X026614Y006660D02*
X027134Y006660D01*
X027134Y005660D02*
X026614Y005660D01*
X026614Y004660D02*
X027134Y004660D01*
X027134Y003660D02*
X026614Y003660D01*
X026614Y002660D02*
X027134Y002660D01*
X032614Y002660D02*
X033134Y002660D01*
X033134Y003660D02*
X032614Y003660D01*
X032614Y004660D02*
X033134Y004660D01*
X033134Y005660D02*
X032614Y005660D01*
X032614Y006660D02*
X033134Y006660D01*
X033134Y007660D02*
X032614Y007660D01*
X032614Y008660D02*
X033134Y008660D01*
X033134Y009660D02*
X032614Y009660D01*
X032614Y010660D02*
X033134Y010660D01*
X033134Y011660D02*
X032614Y011660D01*
X032614Y012660D02*
X033134Y012660D01*
X033134Y013660D02*
X032614Y013660D01*
X032614Y014660D02*
X033134Y014660D01*
X033134Y015660D02*
X032614Y015660D01*
X032614Y016660D02*
X033134Y016660D01*
X033134Y017660D02*
X032614Y017660D01*
X034364Y017660D02*
X034884Y017660D01*
X034364Y017660D01*
X034364Y016660D02*
X034884Y016660D01*
X034364Y016660D01*
X034364Y015660D02*
X034884Y015660D01*
X034364Y015660D01*
X034364Y014660D02*
X034884Y014660D01*
X034364Y014660D01*
X034364Y013660D02*
X034884Y013660D01*
X034364Y013660D01*
X034364Y012660D02*
X034884Y012660D01*
X034364Y012660D01*
X034364Y011660D02*
X034884Y011660D01*
X034364Y011660D01*
X034364Y010660D02*
X034884Y010660D01*
X034364Y010660D01*
X034364Y009660D02*
X034884Y009660D01*
X034364Y009660D01*
X034364Y008660D02*
X034884Y008660D01*
X034364Y008660D01*
X034364Y007660D02*
X034884Y007660D01*
X034364Y007660D01*
X034364Y006660D02*
X034884Y006660D01*
X034364Y006660D01*
X034364Y005660D02*
X034884Y005660D01*
X034364Y005660D01*
X034364Y004660D02*
X034884Y004660D01*
X034364Y004660D01*
X037364Y004660D02*
X037884Y004660D01*
X037884Y005660D02*
X037364Y005660D01*
X037364Y006660D02*
X037884Y006660D01*
X037884Y007660D02*
X037364Y007660D01*
X037364Y008660D02*
X037884Y008660D01*
X037884Y009660D02*
X037364Y009660D01*
X037364Y010660D02*
X037884Y010660D01*
X037884Y011660D02*
X037364Y011660D01*
X037364Y012660D02*
X037884Y012660D01*
X037884Y013660D02*
X037364Y013660D01*
X037364Y014660D02*
X037884Y014660D01*
X037884Y015660D02*
X037364Y015660D01*
X037364Y016660D02*
X037884Y016660D01*
X037884Y017660D02*
X037364Y017660D01*
X038864Y017160D02*
X039384Y017160D01*
X039384Y016160D02*
X038864Y016160D01*
X038864Y015160D02*
X039384Y015160D01*
X039384Y014160D02*
X038864Y014160D01*
X038864Y013160D02*
X039384Y013160D01*
X040364Y012660D02*
X040884Y012660D01*
X040884Y011660D02*
X040364Y011660D01*
X040364Y010660D02*
X040884Y010660D01*
X040884Y009660D02*
X040364Y009660D01*
X040364Y008660D02*
X040884Y008660D01*
X040884Y007660D02*
X040364Y007660D01*
X040364Y006660D02*
X040884Y006660D01*
X040884Y005660D02*
X040364Y005660D01*
X040364Y004660D02*
X040884Y004660D01*
X040884Y013660D02*
X040364Y013660D01*
X040364Y014660D02*
X040884Y014660D01*
X040884Y015660D02*
X040364Y015660D01*
X040364Y016660D02*
X040884Y016660D01*
X040884Y017660D02*
X040364Y017660D01*
X027134Y017660D02*
X026614Y017660D01*
X026614Y016660D02*
X027134Y016660D01*
X027134Y015660D02*
X026614Y015660D01*
X026614Y014660D02*
X027134Y014660D01*
X027134Y013660D02*
X026614Y013660D01*
X016634Y022660D02*
X016114Y022660D01*
X016124Y027150D02*
X016124Y027670D01*
X015124Y027670D02*
X015124Y027150D01*
X014124Y027150D02*
X014124Y027670D01*
X013124Y027670D02*
X013124Y027150D01*
X012124Y027150D02*
X012124Y027670D01*
X011124Y027670D02*
X011124Y027150D01*
X010124Y027150D02*
X010124Y027670D01*
X008374Y028400D02*
X008374Y028920D01*
X007374Y028920D02*
X007374Y028400D01*
X006374Y028400D02*
X006374Y028920D01*
X005374Y028920D02*
X005374Y028400D01*
X004374Y028400D02*
X004374Y028920D01*
X003374Y028920D02*
X003374Y028400D01*
X002374Y028400D02*
X002374Y028920D01*
X002374Y031400D02*
X002374Y031920D01*
X003374Y031920D02*
X003374Y031400D01*
X004374Y031400D02*
X004374Y031920D01*
X005374Y031920D02*
X005374Y031400D01*
X006374Y031400D02*
X006374Y031920D01*
X007374Y031920D02*
X007374Y031400D01*
X008374Y031400D02*
X008374Y031920D01*
X010124Y030670D02*
X010124Y030150D01*
X011124Y030150D02*
X011124Y030670D01*
X012124Y030670D02*
X012124Y030150D01*
X013124Y030150D02*
X013124Y030670D01*
X014124Y030670D02*
X014124Y030150D01*
X015124Y030150D02*
X015124Y030670D01*
X016124Y030670D02*
X016124Y030150D01*
X008374Y025920D02*
X008374Y025400D01*
X007374Y025400D02*
X007374Y025920D01*
X006374Y025920D02*
X006374Y025400D01*
X005374Y025400D02*
X005374Y025920D01*
X004374Y025920D02*
X004374Y025400D01*
X003374Y025400D02*
X003374Y025920D01*
X002374Y025920D02*
X002374Y025400D01*
X002374Y034400D02*
X002374Y034920D01*
X003374Y034920D02*
X003374Y034400D01*
X004374Y034400D02*
X004374Y034920D01*
X005374Y034920D02*
X005374Y034400D01*
X006374Y034400D02*
X006374Y034920D01*
X007374Y034920D02*
X007374Y034400D01*
X008374Y034400D02*
X008374Y034920D01*
D13*
X009374Y034910D03*
X008124Y035910D03*
X008624Y036660D03*
X011624Y036660D03*
X009374Y032910D03*
X005124Y035910D03*
X004374Y035910D03*
X002374Y035910D03*
X009374Y025660D03*
X008374Y024410D03*
X007374Y024410D03*
X008624Y022910D03*
X007374Y022410D03*
X007124Y021410D03*
X007124Y020410D03*
X004374Y019660D03*
X004374Y017660D03*
X004874Y015660D03*
X004874Y014660D03*
X005874Y014660D03*
X005874Y015660D03*
X006874Y015660D03*
X006874Y014660D03*
X007874Y015660D03*
X008874Y015660D03*
X008874Y014660D03*
X009874Y014660D03*
X009874Y015660D03*
X010874Y014660D03*
X010874Y013660D03*
X009874Y013660D03*
X009874Y012660D03*
X009874Y011660D03*
X009874Y010660D03*
X009874Y009660D03*
X008874Y009660D03*
X007874Y009660D03*
X007874Y008660D03*
X008874Y008660D03*
X009874Y008660D03*
X010874Y009660D03*
X010874Y010660D03*
X010874Y011660D03*
X010874Y012660D03*
X012374Y014160D03*
X014374Y014160D03*
X014374Y015160D03*
X019874Y015660D03*
X019874Y019660D03*
X014624Y025160D03*
X015624Y026160D03*
X012624Y026160D03*
X012624Y025160D03*
X011374Y025660D03*
X011374Y024410D03*
X011624Y022910D03*
X004374Y023410D03*
X002374Y023410D03*
X002374Y018410D03*
X003874Y014660D03*
X003874Y013660D03*
X003874Y012660D03*
X003874Y011660D03*
X003874Y010660D03*
X003874Y009660D03*
X004874Y009660D03*
X004874Y008660D03*
X005874Y008660D03*
X005874Y009660D03*
X006874Y009660D03*
X006874Y008660D03*
X004874Y010660D03*
X004874Y011660D03*
X004874Y012660D03*
X004874Y013660D03*
X002374Y014410D03*
X011124Y003660D03*
X012124Y003660D03*
X025624Y002660D03*
X025624Y004660D03*
X031124Y008160D03*
X031124Y012160D03*
X039124Y012160D03*
X041874Y010910D03*
X039124Y008160D03*
X041874Y006910D03*
X041374Y003160D03*
X037374Y003160D03*
X036374Y003160D03*
X034374Y003160D03*
X020124Y031910D03*
X018124Y031910D03*
D14*
X016124Y031960D02*
X016124Y031360D01*
X015124Y031360D02*
X015124Y031960D01*
X014124Y031960D02*
X014124Y031360D01*
X013124Y031360D02*
X013124Y031960D01*
X013824Y033160D02*
X014424Y033160D01*
X014424Y034160D02*
X013824Y034160D01*
X012124Y031960D02*
X012124Y031360D01*
X011124Y031360D02*
X011124Y031960D01*
X010124Y031960D02*
X010124Y031360D01*
X010124Y028960D02*
X010124Y028360D01*
X011124Y028360D02*
X011124Y028960D01*
X012124Y028960D02*
X012124Y028360D01*
X013124Y028360D02*
X013124Y028960D01*
X014124Y028960D02*
X014124Y028360D01*
X015124Y028360D02*
X015124Y028960D01*
X016124Y028960D02*
X016124Y028360D01*
X015174Y022660D02*
X014574Y022660D01*
X014574Y021660D02*
X015174Y021660D01*
X008674Y021410D02*
X008074Y021410D01*
X008074Y020410D02*
X008674Y020410D01*
X002674Y020660D02*
X002074Y020660D01*
X002074Y021660D02*
X002674Y021660D01*
X007124Y002710D02*
X007124Y002110D01*
X008124Y002110D02*
X008124Y002710D01*
X009124Y002710D02*
X009124Y002110D01*
X010124Y002110D02*
X010124Y002710D01*
X011124Y002710D02*
X011124Y002110D01*
X012124Y002110D02*
X012124Y002710D01*
X025074Y020160D02*
X025674Y020160D01*
X025674Y021160D02*
X025074Y021160D01*
X025074Y022160D02*
X025674Y022160D01*
D15*
X012374Y015160D03*
X007874Y014660D03*
X005874Y024410D03*
X002874Y024410D03*
X011624Y032910D03*
X011624Y035910D03*
D16*
X017374Y036160D03*
X017374Y037160D03*
X017374Y038160D03*
X017374Y040160D03*
D17*
X017374Y036160D02*
X017374Y033410D01*
X017624Y033160D01*
X020374Y033160D01*
X020624Y032910D01*
X020624Y030660D01*
X019124Y031660D02*
X019124Y024910D01*
X018874Y024660D01*
X017624Y024660D01*
X014124Y019660D02*
X006624Y019660D01*
X005874Y019660D01*
X005374Y020160D01*
X003124Y020160D01*
X002874Y019910D01*
X002874Y014910D01*
X002374Y014410D01*
X002374Y006410D01*
X003374Y006410D01*
X002374Y006410D02*
X002374Y001160D01*
X002624Y000910D01*
X026624Y000910D01*
X026874Y001160D01*
X026874Y002660D01*
X025624Y002660D02*
X025624Y003160D01*
X028624Y003160D01*
X034374Y003160D01*
X033624Y004160D02*
X034124Y004660D01*
X034624Y004660D01*
X033624Y004160D02*
X031374Y004160D01*
X031124Y004410D01*
X031124Y008160D01*
X028624Y003160D02*
X028624Y017410D01*
X028874Y017660D01*
X032874Y017660D01*
X039124Y013160D02*
X039374Y013160D01*
X039624Y012910D01*
X039624Y008410D01*
X039874Y008160D01*
X041624Y008160D01*
X041874Y007910D01*
X041874Y006910D01*
X041874Y003910D01*
X041624Y003660D01*
X039874Y003660D01*
X039374Y003160D01*
X037374Y003160D01*
X025624Y003160D02*
X023624Y003160D01*
X023624Y003660D01*
X022374Y003660D01*
X023624Y003160D02*
X012624Y003160D01*
X012624Y007910D01*
X007374Y007910D01*
X006374Y007910D02*
X006124Y007910D01*
X005874Y007660D01*
X005874Y001660D01*
X006124Y001410D01*
X011874Y001410D01*
X012124Y001660D01*
X012124Y002410D01*
X012624Y003160D02*
X011374Y003160D01*
X011124Y002910D01*
X011124Y002410D01*
X012624Y007910D02*
X012624Y010910D01*
X012874Y011160D01*
X014124Y011160D01*
X014624Y011160D01*
X014874Y011410D01*
X014874Y013910D01*
X014624Y014160D01*
X014374Y014160D01*
X013374Y014160D01*
X013374Y017410D01*
X013124Y017660D01*
X004374Y017660D01*
X003874Y016910D02*
X003624Y017160D01*
X003624Y019410D01*
X003874Y019660D01*
X004374Y019660D01*
X006624Y019660D02*
X006624Y020410D01*
X007124Y020410D01*
X006624Y020410D02*
X006624Y024660D01*
X006874Y024910D01*
X007124Y024910D01*
X007374Y025160D01*
X007374Y025660D01*
X009374Y024160D02*
X009374Y022410D01*
X009374Y020660D01*
X009124Y020410D01*
X008374Y020410D01*
X009374Y022410D02*
X007374Y022410D01*
X009374Y024160D02*
X009624Y024410D01*
X011374Y024410D01*
X014124Y019660D02*
X014374Y019410D01*
X014374Y015910D01*
X014624Y015660D01*
X015374Y015660D01*
X015374Y010410D01*
X015124Y010160D01*
X014124Y010160D01*
X014124Y012160D02*
X012624Y012160D01*
X012374Y012410D01*
X012374Y014160D01*
X012624Y014160D01*
X012874Y014410D01*
X012874Y016660D01*
X012624Y016910D01*
X003874Y016910D01*
X015374Y015660D02*
X016374Y015660D01*
X017624Y015660D01*
X019874Y015660D01*
X019124Y031660D02*
X018874Y031910D01*
X018124Y031910D01*
D18*
X013124Y021910D03*
X015124Y019660D03*
X007374Y007910D03*
X006374Y007910D03*
X010374Y007160D03*
M02*
