G75*
G70*
%OFA0B0*%
%FSLAX24Y24*%
%IPPOS*%
%LPD*%
%AMOC8*
5,1,8,0,0,1.08239X$1,22.5*
%
%ADD10C,0.0520*%
%ADD11OC8,0.0520*%
%ADD12C,0.0600*%
%ADD13C,0.0520*%
%ADD14R,0.0515X0.0515*%
%ADD15C,0.0160*%
%ADD16C,0.0120*%
%ADD17R,0.0531X0.0531*%
D10*
X003374Y006150D02*
X003374Y006670D01*
X004374Y006670D02*
X004374Y006150D01*
X005374Y006150D02*
X005374Y006670D01*
X006374Y006670D02*
X006374Y006150D01*
X007374Y006150D02*
X007374Y006670D01*
X008374Y006670D02*
X008374Y006150D01*
X013864Y010160D02*
X014384Y010160D01*
X014384Y011160D02*
X013864Y011160D01*
X013864Y012160D02*
X014384Y012160D01*
X016114Y011660D02*
X016634Y011660D01*
X017364Y011660D02*
X017884Y011660D01*
X017884Y010660D02*
X017364Y010660D01*
X016634Y010660D02*
X016114Y010660D01*
X016114Y009660D02*
X016634Y009660D01*
X017364Y009660D02*
X017884Y009660D01*
X017884Y008660D02*
X017364Y008660D01*
X016634Y008660D02*
X016114Y008660D01*
X016114Y007660D02*
X016634Y007660D01*
X017364Y007660D02*
X017884Y007660D01*
X017884Y006660D02*
X017364Y006660D01*
X016634Y006660D02*
X016114Y006660D01*
X016114Y005660D02*
X016634Y005660D01*
X017364Y005660D02*
X017884Y005660D01*
X017884Y004660D02*
X017364Y004660D01*
X016634Y004660D02*
X016114Y004660D01*
X016114Y003660D02*
X016634Y003660D01*
X017364Y003660D02*
X017884Y003660D01*
X022114Y003660D02*
X022634Y003660D01*
X023364Y003660D02*
X023884Y003660D01*
X023884Y004660D02*
X023364Y004660D01*
X022634Y004660D02*
X022114Y004660D01*
X022114Y005660D02*
X022634Y005660D01*
X023364Y005660D02*
X023884Y005660D01*
X023884Y006660D02*
X023364Y006660D01*
X022634Y006660D02*
X022114Y006660D01*
X022114Y007660D02*
X022634Y007660D01*
X023364Y007660D02*
X023884Y007660D01*
X023884Y008660D02*
X023364Y008660D01*
X022634Y008660D02*
X022114Y008660D01*
X022114Y009660D02*
X022634Y009660D01*
X023364Y009660D02*
X023884Y009660D01*
X023884Y010660D02*
X023364Y010660D01*
X022634Y010660D02*
X022114Y010660D01*
X022114Y011660D02*
X022634Y011660D01*
X023364Y011660D02*
X023884Y011660D01*
X023884Y012660D02*
X023364Y012660D01*
X022634Y012660D02*
X022114Y012660D01*
X022114Y013660D02*
X022634Y013660D01*
X023364Y013660D02*
X023884Y013660D01*
X023884Y014660D02*
X023364Y014660D01*
X022634Y014660D02*
X022114Y014660D01*
X022114Y015660D02*
X022634Y015660D01*
X023364Y015660D02*
X023884Y015660D01*
X023884Y016660D02*
X023364Y016660D01*
X022634Y016660D02*
X022114Y016660D01*
X022114Y017660D02*
X022634Y017660D01*
X023364Y017660D02*
X023884Y017660D01*
X023884Y018660D02*
X023364Y018660D01*
X022634Y018660D02*
X022114Y018660D01*
X022114Y019660D02*
X022634Y019660D01*
X023364Y019660D02*
X023884Y019660D01*
X023884Y020660D02*
X023364Y020660D01*
X022634Y020660D02*
X022114Y020660D01*
X022114Y021660D02*
X022634Y021660D01*
X023364Y021660D02*
X023884Y021660D01*
X023884Y022660D02*
X023364Y022660D01*
X022634Y022660D02*
X022114Y022660D01*
X020884Y024660D02*
X020364Y024660D01*
X020364Y025660D02*
X020884Y025660D01*
X020884Y026660D02*
X020364Y026660D01*
X020364Y027660D02*
X020884Y027660D01*
X020884Y028660D02*
X020364Y028660D01*
X020364Y029660D02*
X020884Y029660D01*
X020884Y030660D02*
X020364Y030660D01*
X017884Y030660D02*
X017364Y030660D01*
X017364Y029660D02*
X017884Y029660D01*
X017884Y028660D02*
X017364Y028660D01*
X017364Y027660D02*
X017884Y027660D01*
X017884Y026660D02*
X017364Y026660D01*
X017364Y025660D02*
X017884Y025660D01*
X017884Y024660D02*
X017364Y024660D01*
X017364Y022660D02*
X017884Y022660D01*
X017884Y021660D02*
X017364Y021660D01*
X016634Y021660D02*
X016114Y021660D01*
X016114Y020660D02*
X016634Y020660D01*
X017364Y020660D02*
X017884Y020660D01*
X017884Y019660D02*
X017364Y019660D01*
X016634Y019660D02*
X016114Y019660D01*
X016114Y018660D02*
X016634Y018660D01*
X017364Y018660D02*
X017884Y018660D01*
X017884Y017660D02*
X017364Y017660D01*
X016634Y017660D02*
X016114Y017660D01*
X016114Y016660D02*
X016634Y016660D01*
X017364Y016660D02*
X017884Y016660D01*
X017884Y015660D02*
X017364Y015660D01*
X016634Y015660D02*
X016114Y015660D01*
X016114Y014660D02*
X016634Y014660D01*
X017364Y014660D02*
X017884Y014660D01*
X017884Y013660D02*
X017364Y013660D01*
X016634Y013660D02*
X016114Y013660D01*
X016114Y012660D02*
X016634Y012660D01*
X017364Y012660D02*
X017884Y012660D01*
X026614Y012660D02*
X027134Y012660D01*
X027134Y011660D02*
X026614Y011660D01*
X026614Y010660D02*
X027134Y010660D01*
X027134Y009660D02*
X026614Y009660D01*
X026614Y008660D02*
X027134Y008660D01*
X027134Y007660D02*
X026614Y007660D01*
X026614Y006660D02*
X027134Y006660D01*
X027134Y005660D02*
X026614Y005660D01*
X026614Y004660D02*
X027134Y004660D01*
X027134Y003660D02*
X026614Y003660D01*
X026614Y002660D02*
X027134Y002660D01*
X032614Y002660D02*
X033134Y002660D01*
X033134Y003660D02*
X032614Y003660D01*
X032614Y004660D02*
X033134Y004660D01*
X033134Y005660D02*
X032614Y005660D01*
X032614Y006660D02*
X033134Y006660D01*
X033134Y007660D02*
X032614Y007660D01*
X032614Y008660D02*
X033134Y008660D01*
X033134Y009660D02*
X032614Y009660D01*
X032614Y010660D02*
X033134Y010660D01*
X033134Y011660D02*
X032614Y011660D01*
X032614Y012660D02*
X033134Y012660D01*
X033134Y013660D02*
X032614Y013660D01*
X032614Y014660D02*
X033134Y014660D01*
X033134Y015660D02*
X032614Y015660D01*
X032614Y016660D02*
X033134Y016660D01*
X033134Y017660D02*
X032614Y017660D01*
X034364Y017660D02*
X034884Y017660D01*
X034364Y017660D01*
X034364Y016660D02*
X034884Y016660D01*
X034364Y016660D01*
X034364Y015660D02*
X034884Y015660D01*
X034364Y015660D01*
X034364Y014660D02*
X034884Y014660D01*
X034364Y014660D01*
X034364Y013660D02*
X034884Y013660D01*
X034364Y013660D01*
X034364Y012660D02*
X034884Y012660D01*
X034364Y012660D01*
X034364Y011660D02*
X034884Y011660D01*
X034364Y011660D01*
X034364Y010660D02*
X034884Y010660D01*
X034364Y010660D01*
X034364Y009660D02*
X034884Y009660D01*
X034364Y009660D01*
X034364Y008660D02*
X034884Y008660D01*
X034364Y008660D01*
X034364Y007660D02*
X034884Y007660D01*
X034364Y007660D01*
X034364Y006660D02*
X034884Y006660D01*
X034364Y006660D01*
X034364Y005660D02*
X034884Y005660D01*
X034364Y005660D01*
X034364Y004660D02*
X034884Y004660D01*
X034364Y004660D01*
X037364Y004660D02*
X037884Y004660D01*
X037884Y005660D02*
X037364Y005660D01*
X037364Y006660D02*
X037884Y006660D01*
X037884Y007660D02*
X037364Y007660D01*
X037364Y008660D02*
X037884Y008660D01*
X037884Y009660D02*
X037364Y009660D01*
X037364Y010660D02*
X037884Y010660D01*
X037884Y011660D02*
X037364Y011660D01*
X037364Y012660D02*
X037884Y012660D01*
X037884Y013660D02*
X037364Y013660D01*
X037364Y014660D02*
X037884Y014660D01*
X037884Y015660D02*
X037364Y015660D01*
X037364Y016660D02*
X037884Y016660D01*
X037884Y017660D02*
X037364Y017660D01*
X038864Y017160D02*
X039384Y017160D01*
X039384Y016160D02*
X038864Y016160D01*
X038864Y015160D02*
X039384Y015160D01*
X039384Y014160D02*
X038864Y014160D01*
X038864Y013160D02*
X039384Y013160D01*
X040364Y012660D02*
X040884Y012660D01*
X040884Y011660D02*
X040364Y011660D01*
X040364Y010660D02*
X040884Y010660D01*
X040884Y009660D02*
X040364Y009660D01*
X040364Y008660D02*
X040884Y008660D01*
X040884Y007660D02*
X040364Y007660D01*
X040364Y006660D02*
X040884Y006660D01*
X040884Y005660D02*
X040364Y005660D01*
X040364Y004660D02*
X040884Y004660D01*
X040884Y013660D02*
X040364Y013660D01*
X040364Y014660D02*
X040884Y014660D01*
X040884Y015660D02*
X040364Y015660D01*
X040364Y016660D02*
X040884Y016660D01*
X040884Y017660D02*
X040364Y017660D01*
X027134Y017660D02*
X026614Y017660D01*
X026614Y016660D02*
X027134Y016660D01*
X027134Y015660D02*
X026614Y015660D01*
X026614Y014660D02*
X027134Y014660D01*
X027134Y013660D02*
X026614Y013660D01*
X016634Y022660D02*
X016114Y022660D01*
X016124Y027150D02*
X016124Y027670D01*
X015124Y027670D02*
X015124Y027150D01*
X014124Y027150D02*
X014124Y027670D01*
X013124Y027670D02*
X013124Y027150D01*
X012124Y027150D02*
X012124Y027670D01*
X011124Y027670D02*
X011124Y027150D01*
X010124Y027150D02*
X010124Y027670D01*
X008374Y028400D02*
X008374Y028920D01*
X007374Y028920D02*
X007374Y028400D01*
X006374Y028400D02*
X006374Y028920D01*
X005374Y028920D02*
X005374Y028400D01*
X004374Y028400D02*
X004374Y028920D01*
X003374Y028920D02*
X003374Y028400D01*
X002374Y028400D02*
X002374Y028920D01*
X002374Y031400D02*
X002374Y031920D01*
X003374Y031920D02*
X003374Y031400D01*
X004374Y031400D02*
X004374Y031920D01*
X005374Y031920D02*
X005374Y031400D01*
X006374Y031400D02*
X006374Y031920D01*
X007374Y031920D02*
X007374Y031400D01*
X008374Y031400D02*
X008374Y031920D01*
X010124Y030670D02*
X010124Y030150D01*
X011124Y030150D02*
X011124Y030670D01*
X012124Y030670D02*
X012124Y030150D01*
X013124Y030150D02*
X013124Y030670D01*
X014124Y030670D02*
X014124Y030150D01*
X015124Y030150D02*
X015124Y030670D01*
X016124Y030670D02*
X016124Y030150D01*
X008374Y025920D02*
X008374Y025400D01*
X007374Y025400D02*
X007374Y025920D01*
X006374Y025920D02*
X006374Y025400D01*
X005374Y025400D02*
X005374Y025920D01*
X004374Y025920D02*
X004374Y025400D01*
X003374Y025400D02*
X003374Y025920D01*
X002374Y025920D02*
X002374Y025400D01*
X002374Y034400D02*
X002374Y034920D01*
X003374Y034920D02*
X003374Y034400D01*
X004374Y034400D02*
X004374Y034920D01*
X005374Y034920D02*
X005374Y034400D01*
X006374Y034400D02*
X006374Y034920D01*
X007374Y034920D02*
X007374Y034400D01*
X008374Y034400D02*
X008374Y034920D01*
D11*
X009374Y034910D03*
X008124Y035910D03*
X008624Y036660D03*
X011624Y036660D03*
X009374Y032910D03*
X005124Y035910D03*
X004374Y035910D03*
X002374Y035910D03*
X009374Y025660D03*
X008374Y024410D03*
X007374Y024410D03*
X008624Y022910D03*
X007374Y022410D03*
X007124Y021410D03*
X007124Y020410D03*
X004374Y019660D03*
X004374Y017660D03*
X004874Y015660D03*
X004874Y014660D03*
X005874Y014660D03*
X005874Y015660D03*
X006874Y015660D03*
X006874Y014660D03*
X007874Y015660D03*
X008874Y015660D03*
X008874Y014660D03*
X009874Y014660D03*
X009874Y015660D03*
X010874Y014660D03*
X010874Y013660D03*
X009874Y013660D03*
X009874Y012660D03*
X009874Y011660D03*
X009874Y010660D03*
X009874Y009660D03*
X008874Y009660D03*
X007874Y009660D03*
X007874Y008660D03*
X008874Y008660D03*
X009874Y008660D03*
X010874Y009660D03*
X010874Y010660D03*
X010874Y011660D03*
X010874Y012660D03*
X012374Y014160D03*
X014374Y014160D03*
X014374Y015160D03*
X019874Y015660D03*
X019874Y019660D03*
X014624Y025160D03*
X015624Y026160D03*
X012624Y026160D03*
X012624Y025160D03*
X011374Y025660D03*
X011374Y024410D03*
X011624Y022910D03*
X004374Y023410D03*
X002374Y023410D03*
X002374Y018410D03*
X003874Y014660D03*
X003874Y013660D03*
X003874Y012660D03*
X003874Y011660D03*
X003874Y010660D03*
X003874Y009660D03*
X004874Y009660D03*
X004874Y008660D03*
X005874Y008660D03*
X005874Y009660D03*
X006874Y009660D03*
X006874Y008660D03*
X004874Y010660D03*
X004874Y011660D03*
X004874Y012660D03*
X004874Y013660D03*
X002374Y014410D03*
X011124Y003660D03*
X012124Y003660D03*
X025624Y002660D03*
X025624Y004660D03*
X031124Y008160D03*
X031124Y012160D03*
X039124Y012160D03*
X041874Y010910D03*
X039124Y008160D03*
X041874Y006910D03*
X041374Y003160D03*
X037374Y003160D03*
X036374Y003160D03*
X034374Y003160D03*
X020124Y031910D03*
X018124Y031910D03*
D12*
X016124Y031960D02*
X016124Y031360D01*
X015124Y031360D02*
X015124Y031960D01*
X014124Y031960D02*
X014124Y031360D01*
X013124Y031360D02*
X013124Y031960D01*
X013824Y033160D02*
X014424Y033160D01*
X014424Y034160D02*
X013824Y034160D01*
X012124Y031960D02*
X012124Y031360D01*
X011124Y031360D02*
X011124Y031960D01*
X010124Y031960D02*
X010124Y031360D01*
X010124Y028960D02*
X010124Y028360D01*
X011124Y028360D02*
X011124Y028960D01*
X012124Y028960D02*
X012124Y028360D01*
X013124Y028360D02*
X013124Y028960D01*
X014124Y028960D02*
X014124Y028360D01*
X015124Y028360D02*
X015124Y028960D01*
X016124Y028960D02*
X016124Y028360D01*
X015174Y022660D02*
X014574Y022660D01*
X014574Y021660D02*
X015174Y021660D01*
X008674Y021410D02*
X008074Y021410D01*
X008074Y020410D02*
X008674Y020410D01*
X002674Y020660D02*
X002074Y020660D01*
X002074Y021660D02*
X002674Y021660D01*
X007124Y002710D02*
X007124Y002110D01*
X008124Y002110D02*
X008124Y002710D01*
X009124Y002710D02*
X009124Y002110D01*
X010124Y002110D02*
X010124Y002710D01*
X011124Y002710D02*
X011124Y002110D01*
X012124Y002110D02*
X012124Y002710D01*
X025074Y020160D02*
X025674Y020160D01*
X025674Y021160D02*
X025074Y021160D01*
X025074Y022160D02*
X025674Y022160D01*
D13*
X012374Y015160D03*
X007874Y014660D03*
X005874Y024410D03*
X002874Y024410D03*
X011624Y032910D03*
X011624Y035910D03*
D14*
X017374Y036160D03*
X017374Y037160D03*
X017374Y038160D03*
X017374Y040160D03*
D15*
X015374Y033660D02*
X015624Y033410D01*
X015624Y032910D01*
X015874Y032660D01*
X019874Y032660D01*
X020124Y032410D01*
X020124Y031910D01*
X020374Y031910D01*
X020624Y031660D01*
X020624Y030660D01*
X015374Y033660D02*
X009624Y033660D01*
X009374Y033410D01*
X009374Y032910D01*
X008374Y032910D01*
X008374Y031660D01*
X008374Y032910D02*
X007374Y032910D01*
X007374Y034660D01*
X007374Y032910D02*
X003624Y032910D01*
X003374Y032660D01*
X003374Y031660D01*
X003374Y030410D01*
X003624Y030160D01*
X005374Y030160D01*
X005374Y028660D01*
X006874Y027660D02*
X006874Y029910D01*
X006624Y030160D01*
X005374Y030160D01*
X006874Y027660D02*
X007374Y027160D01*
X007374Y025660D01*
X008374Y025660D01*
X009374Y025660D01*
X011374Y025660D02*
X011374Y024410D01*
X012624Y024910D02*
X012624Y025160D01*
X012624Y025660D01*
X012624Y026160D01*
X012624Y025660D02*
X011374Y025660D01*
X012624Y024910D02*
X012874Y024660D01*
X017624Y024660D01*
X017624Y015660D02*
X016374Y015660D01*
X014374Y015160D02*
X014374Y014160D01*
X012374Y014160D02*
X009874Y014160D01*
X009874Y014660D01*
X009874Y014910D01*
X010124Y015160D01*
X012374Y015160D01*
X009874Y014160D02*
X009374Y014160D01*
X009124Y013910D01*
X009124Y010660D01*
X006124Y010660D01*
X005874Y010410D01*
X005874Y009660D01*
X005874Y009410D01*
X006374Y008910D01*
X006374Y007910D01*
X007374Y007910D02*
X007374Y008910D01*
X006874Y009410D01*
X006874Y009660D01*
X006874Y009910D01*
X007124Y010160D01*
X010124Y010160D01*
X010624Y010660D01*
X010874Y010660D01*
X009874Y010660D02*
X009124Y010660D01*
X004874Y013660D02*
X004624Y013660D01*
X004374Y013910D01*
X004374Y017660D01*
X004374Y018410D01*
X004624Y018660D01*
X008124Y018660D01*
X008374Y018910D01*
X008374Y020410D01*
X007374Y022410D02*
X002624Y022410D01*
X002374Y022660D01*
X002374Y023410D01*
X002374Y024410D01*
X001874Y024910D01*
X001874Y026910D01*
X002374Y027410D01*
X002374Y028660D01*
X002374Y029660D01*
X001874Y030160D01*
X001874Y032410D01*
X002374Y032910D01*
X002374Y034660D01*
X002374Y035910D01*
X002374Y036410D01*
X002624Y036660D01*
X008624Y036660D01*
X009124Y036660D01*
X009374Y036410D01*
X009374Y034910D01*
X032874Y017660D02*
X033624Y017660D01*
X034124Y018160D01*
X035874Y018160D01*
X036374Y017660D01*
X037624Y017660D01*
X040624Y017660D01*
X041624Y008160D02*
X039124Y008160D01*
X041624Y008160D02*
X041874Y007910D01*
X041874Y006910D01*
X037374Y003160D02*
X036374Y003160D01*
X035874Y003160D01*
X035624Y003410D01*
X035624Y004410D01*
X035374Y004660D01*
X034624Y004660D01*
X034124Y004660D01*
X033624Y004160D01*
X030124Y004160D01*
X029624Y004660D01*
X026874Y004660D01*
X025624Y004660D01*
X026874Y004660D02*
X026874Y003660D01*
X026874Y002660D01*
X023624Y003660D02*
X022374Y003660D01*
X012124Y003660D02*
X012124Y002410D01*
X011124Y002410D02*
X011124Y003660D01*
D16*
X002124Y000910D02*
X001874Y001160D01*
X001874Y011410D01*
X002124Y011660D01*
X003874Y011660D01*
X004124Y011160D02*
X004624Y011660D01*
X004874Y011660D01*
X004124Y012160D02*
X004624Y012660D01*
X004874Y012660D01*
X004124Y012160D02*
X002124Y012160D01*
X001874Y012410D01*
X001874Y014910D01*
X002374Y015410D01*
X002374Y018410D01*
X002374Y020660D01*
X002374Y021660D01*
X003374Y021660D02*
X003624Y021910D01*
X013124Y021910D01*
X013374Y021160D02*
X021124Y021160D01*
X021374Y021410D01*
X021374Y023910D01*
X021624Y024160D01*
X021874Y024160D01*
X022124Y024410D01*
X022124Y032660D01*
X021874Y032910D01*
X016374Y032910D01*
X016124Y033160D01*
X016124Y035910D01*
X016124Y036910D01*
X016374Y037160D01*
X017374Y037160D01*
X016124Y035910D02*
X011624Y035910D01*
X011624Y036660D01*
X014124Y034160D02*
X008624Y034160D01*
X008374Y034410D01*
X008374Y034660D01*
X008374Y035160D01*
X008124Y035410D01*
X007124Y035410D01*
X006874Y035160D01*
X006874Y034160D01*
X006624Y033910D01*
X005624Y033910D01*
X005374Y034160D01*
X005374Y034660D01*
X004374Y034660D02*
X004374Y035910D01*
X005124Y035910D01*
X006374Y035660D02*
X006374Y034660D01*
X006374Y035660D02*
X006624Y035910D01*
X008124Y035910D01*
X007624Y032660D02*
X005624Y032660D01*
X005374Y032410D01*
X005374Y031660D01*
X007374Y031660D02*
X007374Y028660D01*
X006374Y028660D02*
X006374Y028160D01*
X006124Y027910D01*
X004124Y027910D01*
X003874Y028160D01*
X003874Y029410D01*
X002874Y030410D01*
X002874Y033660D01*
X003374Y034160D01*
X003374Y034660D01*
X002374Y031660D02*
X002374Y030410D01*
X002874Y029910D01*
X002874Y024410D01*
X003374Y023160D02*
X003624Y022910D01*
X007624Y022910D01*
X008124Y022410D01*
X011374Y022410D01*
X011624Y022660D01*
X011624Y022910D01*
X011624Y023410D01*
X011874Y023660D01*
X019374Y023660D01*
X019624Y023910D01*
X019624Y024910D01*
X019874Y025160D01*
X021374Y025160D01*
X021624Y025410D01*
X021624Y028910D01*
X021374Y029160D01*
X019374Y029160D01*
X018874Y028660D01*
X017624Y028660D01*
X017124Y029160D02*
X018874Y029160D01*
X019374Y029660D01*
X020624Y029660D01*
X021624Y030160D02*
X021874Y029910D01*
X021874Y024910D01*
X021624Y024660D01*
X020624Y024660D01*
X019374Y024410D02*
X019374Y025910D01*
X019624Y026160D01*
X021124Y026160D01*
X021374Y026410D01*
X021374Y027410D01*
X021124Y027660D01*
X020624Y027660D01*
X020624Y026660D02*
X019374Y026660D01*
X019124Y026410D01*
X019124Y025910D01*
X018874Y025660D01*
X017624Y025660D01*
X018374Y026160D02*
X016624Y026160D01*
X016124Y026660D01*
X015374Y026660D01*
X015124Y026910D01*
X015124Y027410D01*
X014124Y027410D02*
X014124Y028660D01*
X012374Y029410D02*
X012124Y029160D01*
X012124Y028660D01*
X012124Y027410D01*
X011624Y026910D02*
X011624Y029660D01*
X016374Y029660D01*
X016874Y030160D01*
X021624Y030160D01*
X018624Y027410D02*
X018374Y027660D01*
X017624Y027660D01*
X017624Y026660D02*
X017124Y026660D01*
X016874Y026910D01*
X016874Y028910D01*
X017124Y029160D01*
X016624Y029410D02*
X016874Y029660D01*
X017624Y029660D01*
X016624Y029410D02*
X012374Y029410D01*
X011624Y029660D02*
X011624Y032910D01*
X011124Y031660D02*
X011124Y030410D01*
X010124Y030410D02*
X010124Y031660D01*
X012124Y031660D02*
X012124Y030410D01*
X013124Y030410D02*
X013124Y031660D01*
X015124Y031660D02*
X015124Y030410D01*
X016124Y030410D02*
X016124Y031660D01*
X016124Y028660D02*
X016124Y027410D01*
X015624Y026160D02*
X014624Y026160D01*
X014624Y025160D01*
X014624Y026160D02*
X014624Y026410D01*
X014374Y026660D01*
X011874Y026660D01*
X011624Y026910D01*
X010124Y027410D02*
X010124Y028660D01*
X008374Y028660D02*
X008374Y030160D01*
X007874Y030660D01*
X007874Y032410D01*
X007624Y032660D01*
X003374Y028660D02*
X003374Y027410D01*
X003624Y027160D01*
X004624Y027160D01*
X004874Y026910D01*
X004874Y024160D01*
X005124Y023910D01*
X016374Y023910D01*
X016624Y024160D01*
X019124Y024160D01*
X019374Y024410D01*
X018374Y026160D02*
X018624Y026410D01*
X018624Y027410D01*
X016374Y022660D02*
X014874Y022660D01*
X016374Y021660D02*
X017624Y021660D01*
X017624Y020660D02*
X016374Y020660D01*
X016374Y019660D02*
X017624Y019660D01*
X017624Y018660D02*
X016374Y018660D01*
X015624Y019160D02*
X015374Y018910D01*
X015374Y018410D01*
X015124Y018160D01*
X005624Y018160D01*
X005374Y017910D01*
X005374Y015410D01*
X004874Y014910D01*
X004874Y014660D01*
X004874Y015660D02*
X004874Y018160D01*
X005124Y018410D01*
X014874Y018410D01*
X015124Y018660D01*
X015124Y019660D01*
X015624Y019160D02*
X019124Y019160D01*
X019374Y018910D01*
X019374Y018410D01*
X019624Y018160D01*
X021124Y018160D01*
X021374Y017910D01*
X021374Y016410D01*
X021624Y016160D01*
X024374Y016160D01*
X024624Y016410D01*
X024624Y018660D01*
X024874Y018910D01*
X041874Y018910D01*
X042124Y018660D01*
X042124Y012410D01*
X041874Y012160D01*
X039124Y012160D01*
X036374Y012160D01*
X035874Y012660D01*
X034624Y012660D01*
X034124Y012160D02*
X033624Y011660D01*
X032874Y011660D01*
X030124Y011660D01*
X029624Y012160D01*
X020374Y012160D01*
X019874Y012660D01*
X017624Y012660D01*
X016374Y012660D01*
X013874Y012660D01*
X013624Y012910D01*
X013624Y016160D01*
X013374Y016410D01*
X009124Y016410D01*
X008874Y016160D01*
X008874Y015660D01*
X008374Y015410D02*
X007874Y014910D01*
X007874Y014660D01*
X008374Y015410D02*
X008374Y016410D01*
X008624Y016660D01*
X013624Y016660D01*
X013874Y016410D01*
X013874Y013410D01*
X014124Y013160D01*
X019874Y013160D01*
X020374Y012660D01*
X022374Y012660D01*
X023624Y012660D01*
X023624Y011660D02*
X022374Y011660D01*
X022374Y010660D02*
X023624Y010660D01*
X023624Y009660D02*
X022374Y009660D01*
X022374Y008660D02*
X023624Y008660D01*
X023624Y007660D02*
X022374Y007660D01*
X020374Y007660D01*
X019874Y008160D01*
X012624Y008160D01*
X012374Y008410D01*
X012374Y012910D01*
X012124Y013160D01*
X010624Y013160D01*
X010124Y013660D01*
X009874Y013660D01*
X009874Y012660D02*
X010124Y012660D01*
X010624Y012160D01*
X011624Y012160D01*
X011874Y011910D01*
X011874Y007660D01*
X012124Y007410D01*
X015624Y007410D01*
X015874Y007160D01*
X019874Y007160D01*
X020374Y006660D01*
X022374Y006660D01*
X023624Y006660D01*
X024374Y006410D02*
X024624Y006660D01*
X026874Y006660D01*
X029624Y006660D01*
X030124Y006160D01*
X033624Y006160D01*
X034124Y006660D01*
X034624Y006660D01*
X034124Y006160D02*
X035874Y006160D01*
X036374Y005660D01*
X037624Y005660D01*
X040624Y005660D01*
X041124Y005160D02*
X036374Y005160D01*
X035874Y005660D01*
X034624Y005660D01*
X034124Y006160D02*
X033624Y005660D01*
X032874Y005660D01*
X030124Y005660D01*
X029624Y006160D01*
X024874Y006160D01*
X024624Y005910D01*
X024624Y002660D01*
X024374Y002410D01*
X014124Y002410D01*
X013874Y002660D01*
X013874Y005160D01*
X013624Y005410D01*
X008124Y005410D01*
X007874Y005660D01*
X007874Y006410D01*
X007374Y006410D01*
X006874Y006410D02*
X006374Y006410D01*
X005874Y006410D02*
X005374Y006410D01*
X005874Y006410D02*
X005874Y008660D01*
X005374Y008910D02*
X005374Y008160D01*
X005124Y007910D01*
X004624Y007910D01*
X004374Y007660D01*
X004374Y006410D01*
X004374Y004910D01*
X004624Y004660D01*
X012874Y004660D01*
X013124Y004410D01*
X013124Y001910D01*
X013374Y001660D01*
X033374Y001660D01*
X033624Y001910D01*
X033624Y003410D01*
X033374Y003660D01*
X032874Y003660D01*
X032874Y004660D02*
X030124Y004660D01*
X029624Y005160D01*
X025374Y005160D01*
X025124Y004910D01*
X025124Y002160D01*
X024874Y001910D01*
X013624Y001910D01*
X013374Y002160D01*
X013374Y004660D01*
X013124Y004910D01*
X006124Y004910D01*
X005874Y005160D01*
X005874Y006410D01*
X006874Y006410D02*
X006874Y008660D01*
X007874Y008660D02*
X007874Y006410D01*
X008374Y006410D02*
X008374Y008910D01*
X007874Y009410D01*
X007874Y009660D01*
X008874Y009660D02*
X008874Y009410D01*
X009374Y008910D01*
X009374Y006410D01*
X009624Y006160D01*
X014374Y006160D01*
X014624Y005910D01*
X014624Y003410D01*
X014874Y003160D01*
X021124Y003160D01*
X021374Y003410D01*
X021374Y005410D01*
X021624Y005660D01*
X022374Y005660D01*
X023624Y005660D01*
X023624Y004660D02*
X022374Y004660D01*
X021874Y004660D01*
X021624Y004410D01*
X021624Y003160D01*
X021374Y002910D01*
X014624Y002910D01*
X014374Y003160D01*
X014374Y005660D01*
X014124Y005910D01*
X009124Y005910D01*
X008874Y006160D01*
X008874Y008660D01*
X009874Y008660D02*
X009874Y006660D01*
X010124Y006410D01*
X014624Y006410D01*
X014874Y006160D01*
X014874Y003910D01*
X015124Y003660D01*
X016374Y003660D01*
X017624Y003660D01*
X017624Y004660D02*
X016374Y004660D01*
X015374Y004660D01*
X015124Y004910D01*
X015124Y006410D01*
X014874Y006660D01*
X011124Y006660D01*
X010874Y006910D01*
X010874Y009660D01*
X010374Y009160D02*
X009874Y009660D01*
X010374Y009160D02*
X010374Y007160D01*
X011374Y007160D02*
X011374Y010910D01*
X011124Y011160D01*
X010624Y011160D01*
X010124Y011660D01*
X009874Y011660D01*
X010874Y011660D02*
X011374Y011660D01*
X011624Y011410D01*
X011624Y007410D01*
X011874Y007160D01*
X015374Y007160D01*
X015874Y006660D01*
X016374Y006660D01*
X017624Y006660D01*
X017624Y005660D02*
X016374Y005660D01*
X015624Y005660D01*
X015374Y005910D01*
X015374Y006660D01*
X015124Y006910D01*
X011624Y006910D01*
X011374Y007160D01*
X012124Y007910D02*
X012374Y007660D01*
X016374Y007660D01*
X017624Y007660D01*
X019874Y007660D01*
X020374Y007160D01*
X029624Y007160D01*
X030124Y006660D01*
X032874Y006660D01*
X033624Y006660D01*
X034124Y007160D01*
X035874Y007160D01*
X036374Y006660D01*
X037624Y006660D01*
X040624Y006660D01*
X040624Y007660D02*
X037624Y007660D01*
X036374Y007660D01*
X035874Y008160D01*
X034124Y008160D01*
X033624Y007660D01*
X032874Y007660D01*
X032374Y007660D01*
X032124Y007410D01*
X030374Y007410D01*
X029624Y008160D01*
X020374Y008160D01*
X019874Y008660D01*
X017624Y008660D01*
X016374Y008660D01*
X012874Y008660D01*
X012624Y008910D01*
X012624Y013410D01*
X012374Y013660D01*
X010874Y013660D01*
X010874Y012660D02*
X011874Y012660D01*
X012124Y012410D01*
X012124Y007910D01*
X013124Y009660D02*
X012874Y009910D01*
X012874Y014410D01*
X012624Y014660D01*
X010874Y014660D01*
X009874Y015660D02*
X012874Y015660D01*
X013124Y015410D01*
X013124Y010910D01*
X013374Y010660D01*
X016374Y010660D01*
X017624Y010660D01*
X019874Y010660D01*
X020374Y010160D01*
X029624Y010160D01*
X030124Y009660D01*
X032874Y009660D01*
X033624Y009660D01*
X034124Y010160D01*
X035874Y010160D01*
X036374Y009660D01*
X037624Y009660D01*
X040624Y009660D01*
X040624Y008660D02*
X037624Y008660D01*
X036374Y008660D01*
X035874Y009160D01*
X034124Y009160D01*
X033624Y008660D01*
X032874Y008660D01*
X030124Y008660D01*
X029624Y009160D01*
X020374Y009160D01*
X019874Y009660D01*
X017624Y009660D01*
X016374Y009660D01*
X013124Y009660D01*
X013624Y011660D02*
X013374Y011910D01*
X013374Y015910D01*
X013124Y016160D01*
X009624Y016160D01*
X009374Y015910D01*
X009374Y015410D01*
X008874Y014910D01*
X008874Y014660D01*
X007874Y015660D02*
X007874Y016660D01*
X008124Y016910D01*
X014624Y016910D01*
X014874Y016660D01*
X014874Y013910D01*
X015124Y013660D01*
X016374Y013660D01*
X017624Y013660D01*
X019874Y013660D01*
X020374Y013160D01*
X029624Y013160D01*
X030124Y012660D01*
X032874Y012660D01*
X033624Y012660D01*
X034124Y013160D01*
X035874Y013160D01*
X036374Y012660D01*
X037624Y012660D01*
X040624Y012660D01*
X040624Y011660D02*
X037624Y011660D01*
X036374Y011660D01*
X035874Y012160D01*
X034124Y012160D01*
X034124Y011660D02*
X034624Y011660D01*
X034124Y011660D02*
X033624Y011160D01*
X030124Y011160D01*
X029624Y011660D01*
X026874Y011660D01*
X026874Y010660D02*
X029624Y010660D01*
X030124Y010160D01*
X033624Y010160D01*
X034124Y010660D01*
X034624Y010660D01*
X035874Y010660D01*
X036374Y010160D01*
X041624Y010160D01*
X041874Y010410D01*
X041874Y010910D01*
X040624Y010660D02*
X037624Y010660D01*
X036374Y010660D01*
X035874Y011160D01*
X034124Y011160D01*
X033624Y010660D01*
X032874Y010660D01*
X030124Y010660D01*
X029624Y011160D01*
X020374Y011160D01*
X019874Y011660D01*
X017624Y011660D01*
X016374Y011660D01*
X013624Y011660D01*
X015374Y014160D02*
X015124Y014410D01*
X015124Y016910D01*
X014874Y017160D01*
X007624Y017160D01*
X007374Y016910D01*
X007374Y015410D01*
X006874Y014910D01*
X006874Y014660D01*
X006374Y015410D02*
X005874Y014910D01*
X005874Y014660D01*
X006374Y015410D02*
X006374Y017410D01*
X006624Y017660D01*
X015374Y017660D01*
X015874Y017160D01*
X020624Y017160D01*
X020874Y016910D01*
X020874Y014910D01*
X021124Y014660D01*
X022374Y014660D01*
X023624Y014660D01*
X024874Y014660D01*
X025124Y014910D01*
X025124Y018160D01*
X025374Y018410D01*
X041374Y018410D01*
X041624Y018160D01*
X041624Y015910D01*
X041374Y015660D01*
X040624Y015660D01*
X039124Y015660D01*
X039124Y015160D01*
X039124Y014660D02*
X039124Y014160D01*
X039124Y014660D02*
X037624Y014660D01*
X036374Y014660D01*
X035874Y015160D01*
X034124Y015160D01*
X033624Y014660D01*
X032874Y014660D01*
X033624Y014160D02*
X030124Y014160D01*
X029624Y014660D01*
X026874Y014660D01*
X026874Y015660D02*
X029624Y015660D01*
X030124Y015160D01*
X033624Y015160D01*
X034124Y015660D01*
X034624Y015660D01*
X034124Y016160D02*
X035874Y016160D01*
X036374Y015660D01*
X037624Y015660D01*
X039124Y015660D01*
X039124Y016160D02*
X039124Y016660D01*
X037624Y016660D01*
X036374Y016660D01*
X035874Y017160D01*
X034124Y017160D01*
X033624Y016660D01*
X032874Y016660D01*
X033624Y016160D02*
X034124Y016660D01*
X034624Y016660D01*
X034124Y016160D02*
X033624Y015660D01*
X032874Y015660D01*
X033624Y016160D02*
X030124Y016160D01*
X029624Y016660D01*
X026874Y016660D01*
X026874Y017660D02*
X029874Y017660D01*
X030374Y017160D01*
X033624Y017160D01*
X034124Y017660D01*
X034624Y017660D01*
X035874Y017660D01*
X036374Y017160D01*
X039124Y017160D01*
X039124Y016660D02*
X040624Y016660D01*
X040624Y014660D02*
X039124Y014660D01*
X037624Y013660D02*
X040624Y013660D01*
X040624Y014660D02*
X041624Y014660D01*
X041874Y014910D01*
X041874Y018410D01*
X041624Y018660D01*
X025124Y018660D01*
X024874Y018410D01*
X024874Y015910D01*
X024624Y015660D01*
X023624Y015660D01*
X022374Y015660D01*
X021374Y015660D01*
X021124Y015910D01*
X021124Y017660D01*
X020874Y017910D01*
X018874Y017910D01*
X018624Y018160D01*
X015624Y018160D01*
X015374Y017910D01*
X006124Y017910D01*
X005874Y017660D01*
X005874Y015660D01*
X006874Y015660D02*
X006874Y017160D01*
X007124Y017410D01*
X015124Y017410D01*
X015374Y017160D01*
X015374Y014910D01*
X015624Y014660D01*
X016374Y014660D01*
X017624Y014660D01*
X019874Y014660D01*
X020374Y014160D01*
X029624Y014160D01*
X030124Y013660D01*
X032874Y013660D01*
X033624Y013660D01*
X034124Y014160D01*
X035874Y014160D01*
X036374Y013660D01*
X037624Y013660D01*
X034624Y013660D02*
X034124Y013660D01*
X033624Y013160D01*
X030124Y013160D01*
X029624Y013660D01*
X026874Y013660D01*
X026874Y012660D02*
X029624Y012660D01*
X030124Y012160D01*
X031124Y012160D01*
X029624Y009660D02*
X030124Y009160D01*
X033624Y009160D01*
X034124Y009660D01*
X034624Y009660D01*
X034624Y008660D02*
X034124Y008660D01*
X033624Y008160D01*
X032374Y008160D01*
X031874Y007660D01*
X030624Y007660D01*
X030374Y007910D01*
X030124Y008160D01*
X029624Y008660D01*
X026874Y008660D01*
X026874Y009660D02*
X029624Y009660D01*
X029624Y007660D02*
X030124Y007160D01*
X033624Y007160D01*
X034124Y007660D01*
X034624Y007660D01*
X035624Y005160D02*
X036124Y004660D01*
X037624Y004660D01*
X040624Y004660D01*
X041124Y005160D02*
X041374Y004910D01*
X041374Y003160D01*
X041374Y001660D01*
X041124Y001410D01*
X013124Y001410D01*
X012874Y001660D01*
X012874Y004160D01*
X012624Y004410D01*
X005124Y004410D01*
X004124Y004410D01*
X003874Y004660D01*
X003874Y008410D01*
X004124Y008660D01*
X004874Y008660D01*
X005374Y008910D02*
X004874Y009410D01*
X004874Y009660D01*
X004374Y009410D02*
X004124Y009160D01*
X003124Y009160D01*
X002874Y008910D01*
X002874Y002660D01*
X003124Y002410D01*
X007124Y002410D01*
X007624Y001910D02*
X007624Y002910D01*
X007874Y003160D01*
X009874Y003160D01*
X010124Y002910D01*
X010124Y002410D01*
X008124Y002410D02*
X008124Y001660D01*
X007874Y001410D01*
X002624Y001410D01*
X002374Y001660D01*
X002374Y010410D01*
X002624Y010660D01*
X003874Y010660D01*
X004124Y011160D02*
X002374Y011160D01*
X002124Y010910D01*
X002124Y001410D01*
X002374Y001160D01*
X042124Y001160D01*
X042374Y001410D01*
X042374Y018910D01*
X042124Y019160D01*
X024624Y019160D01*
X024374Y018910D01*
X024374Y016910D01*
X024124Y016660D01*
X023624Y016660D01*
X022374Y016660D01*
X022374Y017660D02*
X023624Y017660D01*
X023624Y018660D02*
X022374Y018660D01*
X020124Y018660D01*
X019874Y018910D01*
X019874Y019660D01*
X017624Y017660D02*
X016374Y017660D01*
X016374Y016660D02*
X017624Y016660D01*
X015374Y014160D02*
X019874Y014160D01*
X020374Y013660D01*
X022374Y013660D01*
X023624Y013660D01*
X026874Y007660D02*
X029624Y007660D01*
X029624Y005660D02*
X030124Y005160D01*
X035624Y005160D01*
X029624Y005660D02*
X026874Y005660D01*
X025124Y005660D01*
X024874Y005410D01*
X024874Y002410D01*
X024624Y002160D01*
X013874Y002160D01*
X013624Y002410D01*
X013624Y004910D01*
X013374Y005160D01*
X007124Y005160D01*
X006874Y005410D01*
X006874Y006410D01*
X008374Y006410D02*
X008374Y005910D01*
X008624Y005660D01*
X013874Y005660D01*
X014124Y005410D01*
X014124Y002910D01*
X014374Y002660D01*
X024124Y002660D01*
X024374Y002910D01*
X024374Y006410D01*
X033624Y014160D02*
X034124Y014660D01*
X034624Y014660D01*
X042374Y021160D02*
X042624Y020910D01*
X042624Y001160D01*
X042374Y000910D01*
X002124Y000910D01*
X002874Y001660D02*
X002624Y001910D01*
X002624Y009410D01*
X002874Y009660D01*
X003874Y009660D01*
X004374Y009410D02*
X004374Y009910D01*
X004874Y010410D01*
X004874Y010660D01*
X003874Y012660D02*
X003374Y012660D01*
X003124Y012910D01*
X003124Y020160D01*
X003374Y020410D01*
X003374Y021660D01*
X003624Y021160D02*
X003874Y021410D01*
X007124Y021410D01*
X008374Y021410D01*
X008624Y022910D02*
X008624Y023160D01*
X008374Y023410D01*
X004374Y023410D01*
X004374Y025660D01*
X003374Y025660D02*
X003374Y023160D01*
X003624Y021160D02*
X003624Y020160D01*
X003374Y019910D01*
X003374Y013910D01*
X003624Y013660D01*
X003874Y013660D01*
X003874Y014660D02*
X003874Y020660D01*
X004124Y020910D01*
X013124Y020910D01*
X013374Y021160D01*
X008374Y024410D02*
X007374Y024410D01*
X006374Y024410D01*
X006374Y025660D01*
X006374Y024410D02*
X005874Y024410D01*
X022374Y022660D02*
X023624Y022660D01*
X023124Y022160D02*
X025374Y022160D01*
X025374Y021160D02*
X042374Y021160D01*
X023624Y020660D02*
X022374Y020660D01*
X022374Y019660D02*
X023624Y019660D01*
X022624Y021660D02*
X023124Y022160D01*
X022624Y021660D02*
X022374Y021660D01*
X007624Y001910D02*
X007374Y001660D01*
X002874Y001660D01*
D17*
X006374Y007910D03*
X007374Y007910D03*
X010374Y007160D03*
X015124Y019660D03*
X013124Y021910D03*
M02*
