%
M48
M72
T01C0.0315
T02C0.0320
T03C0.0354
T04C0.0400
%
T01
X17374Y36160
X17374Y37160
X17374Y38160
X17374Y40160
T02
X3374Y6410
X4374Y6410
X5374Y6410
X6374Y6410
X7374Y6410
X8374Y6410
X7874Y8660
X7874Y9660
X8874Y9660
X8874Y8660
X9874Y8660
X9874Y9660
X9874Y10660
X9874Y11660
X9874Y12660
X9874Y13660
X10874Y13660
X10874Y12660
X10874Y11660
X10874Y10660
X10874Y9660
X14124Y10160
X14124Y11160
X14124Y12160
X14374Y14160
X14374Y15160
X16374Y14660
X16374Y15660
X16374Y16660
X16374Y17660
X16374Y18660
X16374Y19660
X16374Y20660
X16374Y21660
X16374Y22660
X17624Y22660
X17624Y21660
X17624Y20660
X17624Y19660
X17624Y18660
X17624Y17660
X17624Y16660
X17624Y15660
X17624Y14660
X17624Y13660
X17624Y12660
X17624Y11660
X17624Y10660
X17624Y9660
X17624Y8660
X17624Y7660
X17624Y6660
X17624Y5660
X17624Y4660
X17624Y3660
X16374Y3660
X16374Y4660
X16374Y5660
X16374Y6660
X16374Y7660
X16374Y8660
X16374Y9660
X16374Y10660
X16374Y11660
X16374Y12660
X16374Y13660
X19874Y15660
X22374Y15660
X22374Y14660
X22374Y13660
X22374Y12660
X22374Y11660
X22374Y10660
X22374Y9660
X22374Y8660
X22374Y7660
X22374Y6660
X22374Y5660
X22374Y4660
X22374Y3660
X23624Y3660
X23624Y4660
X23624Y5660
X23624Y6660
X23624Y7660
X23624Y8660
X23624Y9660
X23624Y10660
X23624Y11660
X23624Y12660
X23624Y13660
X23624Y14660
X23624Y15660
X23624Y16660
X23624Y17660
X23624Y18660
X23624Y19660
X23624Y20660
X23624Y21660
X23624Y22660
X22374Y22660
X22374Y21660
X22374Y20660
X22374Y19660
X22374Y18660
X22374Y17660
X22374Y16660
X19874Y19660
X20624Y24660
X20624Y25660
X20624Y26660
X20624Y27660
X20624Y28660
X20624Y29660
X20624Y30660
X20124Y31910
X18124Y31910
X17624Y30660
X17624Y29660
X17624Y28660
X17624Y27660
X17624Y26660
X17624Y25660
X17624Y24660
X15624Y26160
X14624Y25160
X12624Y25160
X12624Y26160
X11374Y25660
X11374Y24410
X11624Y22910
X9374Y25660
X8374Y25660
X7374Y25660
X6374Y25660
X5374Y25660
X4374Y25660
X3374Y25660
X2374Y25660
X2874Y24410
X2374Y23410
X4374Y23410
X5874Y24410
X7374Y24410
X8374Y24410
X8624Y22910
X7374Y22410
X7124Y21410
X7124Y20410
X4374Y19660
X4374Y17660
X4874Y15660
X4874Y14660
X5874Y14660
X5874Y15660
X6874Y15660
X6874Y14660
X7874Y14660
X7874Y15660
X8874Y15660
X8874Y14660
X9874Y14660
X9874Y15660
X10874Y14660
X12374Y14160
X12374Y15160
X6874Y9660
X5874Y9660
X4874Y9660
X4874Y8660
X5874Y8660
X6874Y8660
X4874Y10660
X4874Y11660
X4874Y12660
X4874Y13660
X3874Y13660
X3874Y12660
X3874Y11660
X3874Y10660
X3874Y9660
X2374Y14410
X3874Y14660
X2374Y18410
X10124Y27410
X11124Y27410
X12124Y27410
X13124Y27410
X14124Y27410
X15124Y27410
X16124Y27410
X16124Y30410
X15124Y30410
X14124Y30410
X13124Y30410
X12124Y30410
X11124Y30410
X10124Y30410
X8374Y31660
X7374Y31660
X6374Y31660
X5374Y31660
X4374Y31660
X3374Y31660
X2374Y31660
X2374Y28660
X3374Y28660
X4374Y28660
X5374Y28660
X6374Y28660
X7374Y28660
X8374Y28660
X9374Y32910
X9374Y34910
X8374Y34660
X8124Y35910
X8624Y36660
X7374Y34660
X6374Y34660
X5374Y34660
X4374Y34660
X4374Y35910
X5124Y35910
X3374Y34660
X2374Y34660
X2374Y35910
X11624Y35910
X11624Y36660
X11624Y32910
X26874Y17660
X26874Y16660
X26874Y15660
X26874Y14660
X26874Y13660
X26874Y12660
X26874Y11660
X26874Y10660
X26874Y9660
X26874Y8660
X26874Y7660
X26874Y6660
X26874Y5660
X26874Y4660
X26874Y3660
X26874Y2660
X25624Y2660
X25624Y4660
X31124Y8160
X32874Y7660
X32874Y6660
X32874Y5660
X32874Y4660
X32874Y3660
X32874Y2660
X34374Y3160
X34624Y4660
X34624Y4660
X34624Y5660
X34624Y5660
X34624Y6660
X34624Y6660
X34624Y7660
X34624Y7660
X34624Y8660
X34624Y8660
X34624Y9660
X34624Y9660
X34624Y10660
X34624Y10660
X34624Y11660
X34624Y11660
X34624Y12660
X34624Y12660
X34624Y13660
X34624Y13660
X34624Y14660
X34624Y14660
X34624Y15660
X34624Y15660
X34624Y16660
X34624Y16660
X34624Y17660
X34624Y17660
X32874Y17660
X32874Y16660
X32874Y15660
X32874Y14660
X32874Y13660
X32874Y12660
X32874Y11660
X32874Y10660
X32874Y9660
X32874Y8660
X31124Y12160
X37624Y11660
X37624Y10660
X37624Y9660
X37624Y8660
X37624Y7660
X37624Y6660
X37624Y5660
X37624Y4660
X37374Y3160
X36374Y3160
X40624Y4660
X40624Y5660
X40624Y6660
X40624Y7660
X40624Y8660
X40624Y9660
X40624Y10660
X40624Y11660
X40624Y12660
X40624Y13660
X40624Y14660
X40624Y15660
X40624Y16660
X40624Y17660
X39124Y17160
X39124Y16160
X39124Y15160
X39124Y14160
X39124Y13160
X39124Y12160
X37624Y12660
X37624Y13660
X37624Y14660
X37624Y15660
X37624Y16660
X37624Y17660
X41874Y10910
X39124Y8160
X41874Y6910
X41374Y3160
X12124Y3660
X11124Y3660
T03
X10374Y7160
X7374Y7910
X6374Y7910
X15124Y19660
X13124Y21910
T04
X14874Y21660
X14874Y22660
X15124Y28660
X14124Y28660
X13124Y28660
X12124Y28660
X11124Y28660
X10124Y28660
X10124Y31660
X11124Y31660
X12124Y31660
X13124Y31660
X14124Y31660
X15124Y31660
X16124Y31660
X14124Y33160
X14124Y34160
X16124Y28660
X8374Y21410
X8374Y20410
X2374Y20660
X2374Y21660
X7124Y2410
X8124Y2410
X9124Y2410
X10124Y2410
X11124Y2410
X12124Y2410
X25374Y20160
X25374Y21160
X25374Y22160
M30
