G75*
G70*
%OFA0B0*%
%FSLAX24Y24*%
%IPPOS*%
%LPD*%
%AMOC8*
5,1,8,0,0,1.08239X$1,22.5*
%
%ADD10C,0.0160*%
%ADD11C,0.0080*%
%ADD12C,0.0060*%
%ADD13R,0.0240X0.0340*%
%ADD14C,0.0050*%
%ADD15C,0.0200*%
%ADD16C,0.0120*%
%ADD17C,0.0100*%
%ADD18R,0.0150X0.0200*%
%ADD19R,0.0200X0.0800*%
%ADD20R,0.0250X0.0200*%
%ADD21R,0.0800X0.0200*%
%ADD22R,0.0200X0.0250*%
%ADD23C,0.0320*%
%ADD24C,0.0010*%
%ADD25R,0.0340X0.0240*%
D10*
X017374Y002410D02*
X017624Y002660D01*
X017874Y002410D01*
X017374Y002410D01*
X017624Y002660D02*
X017624Y001910D01*
X023624Y001910D01*
X023624Y002660D01*
X023374Y002410D01*
X023874Y002410D01*
X023624Y002660D01*
X034624Y018410D02*
X034374Y018660D01*
X034874Y018660D01*
X034624Y018410D01*
X034624Y019410D01*
X037624Y019410D01*
X037624Y018410D01*
X037374Y018660D01*
X037874Y018660D01*
X037624Y018410D01*
X009374Y028910D02*
X009124Y028660D01*
X009124Y029160D01*
X009374Y028910D01*
X009124Y028910D01*
X008874Y029160D01*
X008874Y029910D01*
X008624Y029910D01*
D11*
X008235Y029860D02*
X008235Y029780D01*
X008155Y029700D01*
X007995Y029700D01*
X007914Y029780D01*
X007719Y029780D02*
X007719Y030100D01*
X007639Y030180D01*
X007479Y030180D01*
X007399Y030100D01*
X007399Y030020D01*
X007479Y029940D01*
X007719Y029940D01*
X007719Y029780D02*
X007639Y029700D01*
X007479Y029700D01*
X007399Y029780D01*
X007203Y029780D02*
X007123Y029700D01*
X006963Y029700D01*
X006883Y029780D01*
X006688Y029780D02*
X006608Y029700D01*
X006448Y029700D01*
X006368Y029780D01*
X006448Y029940D02*
X006608Y029940D01*
X006688Y029860D01*
X006688Y029780D01*
X006448Y029940D02*
X006368Y030020D01*
X006368Y030100D01*
X006448Y030180D01*
X006608Y030180D01*
X006688Y030100D01*
X006883Y030100D02*
X006963Y030180D01*
X007123Y030180D01*
X007203Y030100D01*
X007203Y030020D01*
X007123Y029940D01*
X007203Y029860D01*
X007203Y029780D01*
X007123Y029940D02*
X007043Y029940D01*
X007914Y030100D02*
X007995Y030180D01*
X008155Y030180D01*
X008235Y030100D01*
X008235Y030020D01*
X008155Y029940D01*
X008235Y029860D01*
X008155Y029940D02*
X008075Y029940D01*
X006172Y029700D02*
X005852Y029700D01*
X005852Y030180D01*
X005576Y030180D02*
X005336Y029940D01*
X005657Y029940D01*
X005576Y029700D02*
X005576Y030180D01*
X005141Y030180D02*
X005141Y030100D01*
X004821Y029780D01*
X004821Y029700D01*
X004821Y030180D02*
X005141Y030180D01*
X004110Y029940D02*
X003789Y029940D01*
X004030Y030180D01*
X004030Y029700D01*
X003594Y029940D02*
X003274Y029940D01*
X003514Y030180D01*
X003514Y029700D01*
X003078Y029780D02*
X002998Y029700D01*
X002838Y029700D01*
X002758Y029780D01*
X002758Y030100D01*
X002838Y030180D01*
X002998Y030180D01*
X003078Y030100D01*
X002574Y030180D02*
X002414Y030180D01*
X002494Y030180D02*
X002494Y029700D01*
X002414Y029700D02*
X002574Y029700D01*
X002664Y027430D02*
X002824Y027430D01*
X002744Y027430D02*
X002744Y026950D01*
X002664Y026950D02*
X002824Y026950D01*
X003008Y027030D02*
X003088Y026950D01*
X003248Y026950D01*
X003328Y027030D01*
X003524Y026950D02*
X003844Y027270D01*
X003844Y027350D01*
X003764Y027430D01*
X003604Y027430D01*
X003524Y027350D01*
X003328Y027350D02*
X003248Y027430D01*
X003088Y027430D01*
X003008Y027350D01*
X003008Y027030D01*
X003524Y026950D02*
X003844Y026950D01*
X004555Y026950D02*
X004555Y027030D01*
X004875Y027350D01*
X004875Y027430D01*
X004555Y027430D01*
X005071Y027190D02*
X005391Y027190D01*
X005311Y026950D02*
X005311Y027430D01*
X005071Y027190D01*
X005586Y027430D02*
X005586Y026950D01*
X005907Y026950D01*
X006102Y027030D02*
X006182Y026950D01*
X006342Y026950D01*
X006422Y027030D01*
X006422Y027110D01*
X006342Y027190D01*
X006182Y027190D01*
X006102Y027270D01*
X006102Y027350D01*
X006182Y027430D01*
X006342Y027430D01*
X006422Y027350D01*
X006618Y027430D02*
X006938Y027430D01*
X006938Y027350D01*
X006618Y027030D01*
X006618Y026950D01*
X007133Y027190D02*
X007373Y027430D01*
X007373Y026950D01*
X007453Y027190D02*
X007133Y027190D01*
X009434Y021552D02*
X009514Y021552D01*
X009594Y021471D01*
X009674Y021552D01*
X009754Y021552D01*
X009834Y021471D01*
X009834Y021311D01*
X009754Y021231D01*
X009594Y021391D02*
X009594Y021471D01*
X009434Y021552D02*
X009354Y021471D01*
X009354Y021311D01*
X009434Y021231D01*
X009434Y021036D02*
X009594Y021036D01*
X009674Y020956D01*
X009674Y020716D01*
X009834Y020716D02*
X009354Y020716D01*
X009354Y020956D01*
X009434Y021036D01*
X009354Y020520D02*
X009354Y020360D01*
X009354Y020440D02*
X009754Y020440D01*
X009834Y020360D01*
X009834Y020280D01*
X009754Y020200D01*
X009707Y019620D02*
X009427Y019620D01*
X009427Y019200D01*
X009707Y019200D01*
X009887Y019200D02*
X009887Y019620D01*
X010167Y019200D01*
X010167Y019620D01*
X009567Y019410D02*
X009427Y019410D01*
X009246Y019620D02*
X009246Y019200D01*
X008966Y019200D02*
X008966Y019620D01*
X009106Y019480D01*
X009246Y019620D01*
X008786Y019550D02*
X008716Y019620D01*
X008576Y019620D01*
X008506Y019550D01*
X008506Y019270D01*
X008576Y019200D01*
X008716Y019200D01*
X008786Y019270D01*
X008786Y019550D01*
X008326Y019550D02*
X008326Y019410D01*
X008256Y019340D01*
X008045Y019340D01*
X008045Y019200D02*
X008045Y019620D01*
X008256Y019620D01*
X008326Y019550D01*
X008186Y019340D02*
X008326Y019200D01*
X007865Y019200D02*
X007655Y019410D01*
X007585Y019340D02*
X007865Y019620D01*
X007585Y019620D02*
X007585Y019200D01*
X007405Y019270D02*
X007335Y019200D01*
X007195Y019200D01*
X007125Y019270D01*
X007195Y019410D02*
X007335Y019410D01*
X007405Y019340D01*
X007405Y019270D01*
X007195Y019410D02*
X007125Y019480D01*
X007125Y019550D01*
X007195Y019620D01*
X007335Y019620D01*
X007405Y019550D01*
X006945Y019550D02*
X006874Y019620D01*
X006664Y019620D01*
X006664Y019200D01*
X006874Y019200D01*
X006945Y019270D01*
X006945Y019550D01*
X003834Y020530D02*
X003754Y020450D01*
X003434Y020450D01*
X003354Y020530D01*
X003354Y020690D01*
X003434Y020770D01*
X003354Y020966D02*
X003834Y021286D01*
X003354Y021286D01*
X003434Y021481D02*
X003354Y021561D01*
X003354Y021721D01*
X003434Y021802D01*
X003514Y021802D01*
X003594Y021721D01*
X003674Y021802D01*
X003754Y021802D01*
X003834Y021721D01*
X003834Y021561D01*
X003754Y021481D01*
X003594Y021641D02*
X003594Y021721D01*
X003834Y020966D02*
X003354Y020966D01*
X003754Y020770D02*
X003834Y020690D01*
X003834Y020530D01*
X014164Y020530D02*
X014244Y020450D01*
X014324Y020450D01*
X014404Y020530D01*
X014404Y020930D01*
X014324Y020930D02*
X014485Y020930D01*
X014680Y020930D02*
X014920Y020930D01*
X015000Y020850D01*
X015000Y020690D01*
X014920Y020610D01*
X014680Y020610D01*
X014680Y020450D02*
X014680Y020930D01*
X015196Y020850D02*
X015276Y020930D01*
X015436Y020930D01*
X015516Y020850D01*
X015516Y020770D01*
X015196Y020450D01*
X015516Y020450D01*
X019164Y024965D02*
X019164Y025126D01*
X019164Y025046D02*
X019644Y025046D01*
X019644Y025126D02*
X019644Y024965D01*
X019564Y025309D02*
X019644Y025389D01*
X019644Y025549D01*
X019564Y025630D01*
X019564Y025825D02*
X019644Y025905D01*
X019644Y026065D01*
X019564Y026145D01*
X019484Y026145D01*
X019404Y026065D01*
X019404Y025825D01*
X019564Y025825D01*
X019404Y025825D02*
X019244Y025985D01*
X019164Y026145D01*
X019244Y025630D02*
X019164Y025549D01*
X019164Y025389D01*
X019244Y025309D01*
X019564Y025309D01*
X019564Y026856D02*
X019644Y026856D01*
X019564Y026856D02*
X019244Y027176D01*
X019164Y027176D01*
X019164Y026856D01*
X019404Y027372D02*
X019404Y027692D01*
X019164Y027612D02*
X019404Y027372D01*
X019644Y027612D02*
X019164Y027612D01*
X019164Y027887D02*
X019644Y027887D01*
X019644Y028208D01*
X019564Y028403D02*
X019644Y028483D01*
X019644Y028643D01*
X019564Y028723D01*
X019484Y028723D01*
X019404Y028643D01*
X019404Y028483D01*
X019324Y028403D01*
X019244Y028403D01*
X019164Y028483D01*
X019164Y028643D01*
X019244Y028723D01*
X019244Y028919D02*
X019164Y028999D01*
X019164Y029159D01*
X019244Y029239D01*
X019564Y028919D01*
X019644Y028999D01*
X019644Y029159D01*
X019564Y029239D01*
X019244Y029239D01*
X019244Y029434D02*
X019164Y029514D01*
X019164Y029675D01*
X019244Y029755D01*
X019324Y029755D01*
X019644Y029434D01*
X019644Y029755D01*
X019564Y028919D02*
X019244Y028919D01*
X025414Y023270D02*
X025574Y023430D01*
X025574Y022950D01*
X025414Y022950D02*
X025735Y022950D01*
X027414Y022770D02*
X027414Y022530D01*
X027494Y022450D01*
X027574Y022530D01*
X027654Y022450D01*
X027735Y022530D01*
X027735Y022770D01*
X027930Y022770D02*
X028010Y022770D01*
X028010Y022450D01*
X027930Y022450D02*
X028090Y022450D01*
X028354Y022530D02*
X028354Y022850D01*
X028274Y022770D02*
X028434Y022770D01*
X028617Y022690D02*
X028698Y022770D01*
X028858Y022770D01*
X028938Y022690D01*
X028938Y022450D01*
X028955Y022180D02*
X028875Y022100D01*
X028955Y022180D02*
X029115Y022180D01*
X029196Y022100D01*
X029196Y022020D01*
X028875Y021700D01*
X029196Y021700D01*
X029391Y021700D02*
X029471Y021700D01*
X029471Y021780D01*
X029391Y021780D01*
X029391Y021700D01*
X029649Y021700D02*
X029969Y021700D01*
X029809Y021700D02*
X029809Y022180D01*
X029649Y022020D01*
X029649Y022450D02*
X029649Y022930D01*
X029969Y022450D01*
X029969Y022930D01*
X029981Y023200D02*
X029821Y023200D01*
X029901Y023200D02*
X029901Y023680D01*
X029821Y023680D02*
X029981Y023680D01*
X030164Y023520D02*
X030405Y023520D01*
X030485Y023440D01*
X030485Y023200D01*
X030760Y023280D02*
X030840Y023200D01*
X030760Y023280D02*
X030760Y023600D01*
X030680Y023520D02*
X030840Y023520D01*
X031024Y023440D02*
X031104Y023520D01*
X031264Y023520D01*
X031344Y023440D01*
X031344Y023360D01*
X031024Y023360D01*
X031024Y023280D02*
X031024Y023440D01*
X031024Y023280D02*
X031104Y023200D01*
X031264Y023200D01*
X031539Y023200D02*
X031539Y023520D01*
X031539Y023360D02*
X031700Y023520D01*
X031780Y023520D01*
X031969Y023520D02*
X032209Y023520D01*
X032289Y023440D01*
X032289Y023200D01*
X032485Y023280D02*
X032565Y023200D01*
X032805Y023200D01*
X032805Y023440D01*
X032725Y023520D01*
X032565Y023520D01*
X032565Y023360D02*
X032805Y023360D01*
X032565Y023360D02*
X032485Y023280D01*
X032565Y023010D02*
X032565Y022930D01*
X032565Y022770D02*
X032565Y022450D01*
X032485Y022450D02*
X032645Y022450D01*
X032829Y022450D02*
X032989Y022450D01*
X032909Y022450D02*
X032909Y022930D01*
X032829Y022930D01*
X032565Y022770D02*
X032485Y022770D01*
X032295Y022770D02*
X032055Y022610D01*
X032295Y022450D01*
X032055Y022450D02*
X032055Y022930D01*
X031969Y023200D02*
X031969Y023520D01*
X031780Y022770D02*
X031860Y022690D01*
X031860Y022610D01*
X031539Y022610D01*
X031539Y022530D02*
X031539Y022690D01*
X031619Y022770D01*
X031780Y022770D01*
X031780Y022450D02*
X031619Y022450D01*
X031539Y022530D01*
X031344Y022530D02*
X031264Y022610D01*
X031104Y022610D01*
X031024Y022690D01*
X031104Y022770D01*
X031344Y022770D01*
X031344Y022530D02*
X031264Y022450D01*
X031024Y022450D01*
X030840Y022450D02*
X030680Y022450D01*
X030760Y022450D02*
X030760Y022770D01*
X030680Y022770D01*
X030760Y022930D02*
X030760Y023010D01*
X030485Y022690D02*
X030405Y022770D01*
X030244Y022770D01*
X030164Y022690D01*
X030164Y022530D01*
X030244Y022450D01*
X030405Y022450D01*
X030485Y022530D01*
X030485Y022690D01*
X030760Y022180D02*
X030680Y022100D01*
X030760Y022180D02*
X030920Y022180D01*
X031000Y022100D01*
X031000Y022020D01*
X030680Y021700D01*
X031000Y021700D01*
X031196Y021780D02*
X031516Y022100D01*
X031516Y021780D01*
X031436Y021700D01*
X031276Y021700D01*
X031196Y021780D01*
X031196Y022100D01*
X031276Y022180D01*
X031436Y022180D01*
X031516Y022100D01*
X031711Y022020D02*
X031871Y022180D01*
X031871Y021700D01*
X031711Y021700D02*
X032032Y021700D01*
X032227Y021700D02*
X032547Y022020D01*
X032547Y022100D01*
X032467Y022180D01*
X032307Y022180D01*
X032227Y022100D01*
X032227Y021700D02*
X032547Y021700D01*
X032743Y021940D02*
X033063Y021940D01*
X033258Y021780D02*
X033578Y022100D01*
X033578Y021780D01*
X033498Y021700D01*
X033338Y021700D01*
X033258Y021780D01*
X033258Y022100D01*
X033338Y022180D01*
X033498Y022180D01*
X033578Y022100D01*
X033774Y021940D02*
X034094Y021940D01*
X034289Y021940D02*
X034610Y021940D01*
X034805Y022020D02*
X034965Y022180D01*
X034965Y021700D01*
X034805Y021700D02*
X035125Y021700D01*
X035321Y021780D02*
X035401Y021700D01*
X035561Y021700D01*
X035641Y021780D01*
X035641Y021940D01*
X035561Y022020D01*
X035481Y022020D01*
X035321Y021940D01*
X035321Y022180D01*
X035641Y022180D01*
X036352Y022180D02*
X036352Y021700D01*
X036352Y021860D02*
X036592Y021860D01*
X036672Y021940D01*
X036672Y022100D01*
X036592Y022180D01*
X036352Y022180D01*
X036512Y021860D02*
X036672Y021700D01*
X036868Y021780D02*
X036948Y021860D01*
X037188Y021860D01*
X037188Y021940D02*
X037188Y021700D01*
X036948Y021700D01*
X036868Y021780D01*
X036948Y022020D02*
X037108Y022020D01*
X037188Y021940D01*
X037383Y022020D02*
X037463Y022020D01*
X037543Y021940D01*
X037624Y022020D01*
X037704Y021940D01*
X037704Y021700D01*
X037543Y021700D02*
X037543Y021940D01*
X037383Y022020D02*
X037383Y021700D01*
X037280Y021180D02*
X037040Y021180D01*
X037040Y020700D01*
X037280Y020700D01*
X037360Y020780D01*
X037360Y021100D01*
X037280Y021180D01*
X037555Y020940D02*
X037795Y020940D01*
X037875Y020860D01*
X037875Y020780D01*
X037795Y020700D01*
X037635Y020700D01*
X037555Y020780D01*
X037555Y020940D01*
X037715Y021100D01*
X037875Y021180D01*
X038071Y021180D02*
X038071Y020940D01*
X038231Y021020D01*
X038311Y021020D01*
X038391Y020940D01*
X038391Y020780D01*
X038311Y020700D01*
X038151Y020700D01*
X038071Y020780D01*
X038219Y020430D02*
X038219Y019950D01*
X038059Y020110D01*
X037899Y019950D01*
X037899Y020430D01*
X037704Y020270D02*
X037383Y020270D01*
X037383Y020110D02*
X037704Y020110D01*
X037188Y020190D02*
X037188Y019950D01*
X037188Y020190D02*
X037108Y020270D01*
X036868Y020270D01*
X036868Y019950D01*
X036672Y020110D02*
X036352Y020110D01*
X036352Y020030D02*
X036352Y020190D01*
X036432Y020270D01*
X036592Y020270D01*
X036672Y020190D01*
X036672Y020110D01*
X036592Y019950D02*
X036432Y019950D01*
X036352Y020030D01*
X036157Y020030D02*
X036077Y019950D01*
X035836Y019950D01*
X035836Y019790D02*
X035836Y020270D01*
X036077Y020270D01*
X036157Y020190D01*
X036157Y020030D01*
X035904Y019180D02*
X035985Y019100D01*
X035664Y018780D01*
X035744Y018700D01*
X035904Y018700D01*
X035985Y018780D01*
X035985Y019100D01*
X035904Y019180D02*
X035744Y019180D01*
X035664Y019100D01*
X035664Y018780D01*
X036180Y018780D02*
X036260Y018780D01*
X036260Y018700D01*
X036180Y018700D01*
X036180Y018780D01*
X036438Y018780D02*
X036518Y018700D01*
X036678Y018700D01*
X036758Y018780D01*
X036758Y018860D01*
X036678Y018940D01*
X036598Y018940D01*
X036678Y018940D02*
X036758Y019020D01*
X036758Y019100D01*
X036678Y019180D01*
X036518Y019180D01*
X036438Y019100D01*
X035561Y019950D02*
X035641Y020030D01*
X035641Y020350D01*
X035561Y020430D01*
X035401Y020430D01*
X035321Y020350D01*
X035321Y020030D01*
X035401Y019950D01*
X035561Y019950D01*
X035573Y020700D02*
X035493Y020780D01*
X035573Y020700D02*
X035733Y020700D01*
X035813Y020780D01*
X035813Y020860D01*
X035733Y020940D01*
X035653Y020940D01*
X035733Y020940D02*
X035813Y021020D01*
X035813Y021100D01*
X035733Y021180D01*
X035573Y021180D01*
X035493Y021100D01*
X035297Y020940D02*
X034977Y020940D01*
X034782Y021020D02*
X034782Y021100D01*
X034702Y021180D01*
X034541Y021180D01*
X034461Y021100D01*
X034782Y021020D02*
X034461Y020700D01*
X034782Y020700D01*
X034266Y020350D02*
X034186Y020430D01*
X034026Y020430D01*
X033946Y020350D01*
X033750Y020350D02*
X033430Y020030D01*
X033510Y019950D01*
X033670Y019950D01*
X033750Y020030D01*
X033750Y020350D01*
X033670Y020430D01*
X033510Y020430D01*
X033430Y020350D01*
X033430Y020030D01*
X033235Y020030D02*
X033155Y019950D01*
X032995Y019950D01*
X032914Y020030D01*
X032914Y020190D02*
X033075Y020270D01*
X033155Y020270D01*
X033235Y020190D01*
X033235Y020030D01*
X032914Y020190D02*
X032914Y020430D01*
X033235Y020430D01*
X033086Y020700D02*
X033407Y021020D01*
X033407Y021100D01*
X033327Y021180D01*
X033166Y021180D01*
X033086Y021100D01*
X032891Y021100D02*
X032891Y020780D01*
X032811Y020700D01*
X032651Y020700D01*
X032571Y020780D01*
X032891Y021100D01*
X032811Y021180D01*
X032651Y021180D01*
X032571Y021100D01*
X032571Y020780D01*
X032375Y020780D02*
X032295Y020700D01*
X032135Y020700D01*
X032055Y020780D01*
X032055Y020940D02*
X032215Y021020D01*
X032295Y021020D01*
X032375Y020940D01*
X032375Y020780D01*
X032055Y020940D02*
X032055Y021180D01*
X032375Y021180D01*
X031860Y021180D02*
X031700Y021100D01*
X031539Y020940D01*
X031780Y020940D01*
X031860Y020860D01*
X031860Y020780D01*
X031780Y020700D01*
X031619Y020700D01*
X031539Y020780D01*
X031539Y020940D01*
X031608Y020270D02*
X031688Y020190D01*
X031688Y020110D01*
X031368Y020110D01*
X031368Y020030D02*
X031368Y020190D01*
X031448Y020270D01*
X031608Y020270D01*
X031883Y020270D02*
X032203Y020270D01*
X032203Y020110D02*
X031883Y020110D01*
X031608Y019950D02*
X031448Y019950D01*
X031368Y020030D01*
X031172Y020030D02*
X031092Y020110D01*
X030932Y020110D01*
X030852Y020190D01*
X030932Y020270D01*
X031172Y020270D01*
X031172Y020030D02*
X031092Y019950D01*
X030852Y019950D01*
X030657Y020030D02*
X030657Y020190D01*
X030576Y020270D01*
X030416Y020270D01*
X030336Y020190D01*
X030336Y020030D01*
X030416Y019950D01*
X030576Y019950D01*
X030657Y020030D01*
X030153Y019950D02*
X029992Y019950D01*
X030073Y019950D02*
X030073Y020430D01*
X029992Y020430D01*
X029797Y020350D02*
X029717Y020430D01*
X029557Y020430D01*
X029477Y020350D01*
X029477Y020030D01*
X029557Y019950D01*
X029717Y019950D01*
X029797Y020030D01*
X029797Y020700D02*
X029477Y020700D01*
X029637Y020700D02*
X029637Y021180D01*
X029477Y021020D01*
X029992Y020940D02*
X030313Y020940D01*
X030508Y021100D02*
X030588Y021180D01*
X030748Y021180D01*
X030828Y021100D01*
X030828Y021020D01*
X030508Y020700D01*
X030828Y020700D01*
X032399Y020190D02*
X032399Y020030D01*
X032479Y019950D01*
X032639Y019950D01*
X032719Y020030D01*
X032719Y020110D01*
X032639Y020190D01*
X032399Y020190D01*
X032559Y020350D01*
X032719Y020430D01*
X033086Y020700D02*
X033407Y020700D01*
X033602Y020540D02*
X033762Y020700D01*
X033682Y020700D01*
X033682Y020780D01*
X033762Y020780D01*
X033762Y020700D01*
X034266Y020350D02*
X034266Y020270D01*
X033946Y019950D01*
X034266Y019950D01*
X034461Y019790D02*
X034622Y019950D01*
X034541Y019950D01*
X034541Y020030D01*
X034622Y020030D01*
X034622Y019950D01*
X034014Y021700D02*
X034014Y022180D01*
X033774Y021940D01*
X033756Y022450D02*
X033596Y022450D01*
X033516Y022530D01*
X033516Y022690D01*
X033596Y022770D01*
X033756Y022770D01*
X033836Y022690D01*
X033836Y022610D01*
X033516Y022610D01*
X033332Y022450D02*
X033172Y022450D01*
X033252Y022450D02*
X033252Y022930D01*
X033172Y022930D01*
X033161Y023200D02*
X033000Y023200D01*
X033080Y023200D02*
X033080Y023680D01*
X033000Y023680D01*
X033860Y023600D02*
X033940Y023680D01*
X034100Y023680D01*
X034180Y023600D01*
X034180Y023520D01*
X034100Y023440D01*
X034180Y023360D01*
X034180Y023280D01*
X034100Y023200D01*
X033940Y023200D01*
X033860Y023280D01*
X034020Y023440D02*
X034100Y023440D01*
X034375Y023600D02*
X034455Y023680D01*
X034616Y023680D01*
X034696Y023600D01*
X034696Y023520D01*
X034375Y023200D01*
X034696Y023200D01*
X034272Y022770D02*
X034192Y022770D01*
X034032Y022610D01*
X034032Y022450D02*
X034032Y022770D01*
X035407Y023200D02*
X035407Y023680D01*
X035647Y023680D01*
X035727Y023600D01*
X035727Y023440D01*
X035647Y023360D01*
X035407Y023360D01*
X035567Y023360D02*
X035727Y023200D01*
X035922Y023200D02*
X035922Y023520D01*
X036082Y023680D01*
X036243Y023520D01*
X036243Y023200D01*
X036438Y023200D02*
X036438Y023680D01*
X036598Y023520D01*
X036758Y023680D01*
X036758Y023200D01*
X036243Y023440D02*
X035922Y023440D01*
X037469Y023200D02*
X037790Y023680D01*
X038501Y023680D02*
X038501Y023200D01*
X038501Y023360D02*
X038741Y023360D01*
X038821Y023440D01*
X038821Y023600D01*
X038741Y023680D01*
X038501Y023680D01*
X038661Y023360D02*
X038821Y023200D01*
X039016Y023280D02*
X039096Y023200D01*
X039256Y023200D01*
X039336Y023280D01*
X039336Y023600D01*
X039256Y023680D01*
X039096Y023680D01*
X039016Y023600D01*
X039016Y023280D01*
X039532Y023200D02*
X039532Y023680D01*
X039692Y023520D01*
X039852Y023680D01*
X039852Y023200D01*
X040047Y023200D02*
X040288Y023200D01*
X040368Y023280D01*
X040368Y023440D01*
X040288Y023520D01*
X040047Y023520D01*
X040047Y023680D02*
X040047Y023200D01*
X040563Y023280D02*
X040643Y023200D01*
X040803Y023200D01*
X040883Y023280D01*
X040883Y023440D01*
X040803Y023520D01*
X040643Y023520D01*
X040563Y023440D01*
X040563Y023280D01*
X041079Y023200D02*
X041399Y023520D01*
X041079Y023520D02*
X041399Y023200D01*
X039858Y021180D02*
X039698Y021180D01*
X039618Y021100D01*
X039422Y021100D02*
X039422Y020780D01*
X039342Y020700D01*
X039182Y020700D01*
X039102Y020780D01*
X039422Y021100D01*
X039342Y021180D01*
X039182Y021180D01*
X039102Y021100D01*
X039102Y020780D01*
X038907Y020780D02*
X038827Y020700D01*
X038667Y020700D01*
X038586Y020780D01*
X038586Y021100D01*
X038667Y021180D01*
X038827Y021180D01*
X038907Y021100D01*
X038391Y021180D02*
X038071Y021180D01*
X038139Y021700D02*
X038219Y021780D01*
X038219Y021940D01*
X038139Y022020D01*
X037979Y022020D01*
X037899Y021940D01*
X037899Y021780D01*
X037979Y021700D01*
X038139Y021700D01*
X038495Y021780D02*
X038495Y022100D01*
X038415Y022020D02*
X038575Y022020D01*
X038758Y021940D02*
X038838Y022020D01*
X038999Y022020D01*
X039079Y021940D01*
X039079Y021700D01*
X038758Y021700D02*
X038758Y022180D01*
X038495Y021780D02*
X038575Y021700D01*
X038655Y020430D02*
X038415Y020430D01*
X038415Y019950D01*
X038655Y019950D01*
X038735Y020030D01*
X038735Y020350D01*
X038655Y020430D01*
X038930Y020190D02*
X038930Y020030D01*
X039010Y019950D01*
X039170Y019950D01*
X039251Y020030D01*
X039251Y020110D01*
X039170Y020190D01*
X038930Y020190D01*
X039090Y020350D01*
X039251Y020430D01*
X039446Y020430D02*
X039446Y020190D01*
X039606Y020270D01*
X039686Y020270D01*
X039766Y020190D01*
X039766Y020030D01*
X039686Y019950D01*
X039526Y019950D01*
X039446Y020030D01*
X039446Y020430D02*
X039766Y020430D01*
X039962Y020350D02*
X039962Y020030D01*
X040042Y019950D01*
X040202Y019950D01*
X040282Y020030D01*
X040477Y020030D02*
X040797Y020350D01*
X040797Y020030D01*
X040717Y019950D01*
X040557Y019950D01*
X040477Y020030D01*
X040477Y020350D01*
X040557Y020430D01*
X040717Y020430D01*
X040797Y020350D01*
X040993Y020350D02*
X041073Y020430D01*
X041233Y020430D01*
X041313Y020350D01*
X041313Y020270D01*
X040993Y019950D01*
X041313Y019950D01*
X040282Y020350D02*
X040202Y020430D01*
X040042Y020430D01*
X039962Y020350D01*
X039938Y020700D02*
X039618Y020700D01*
X039938Y021020D01*
X039938Y021100D01*
X039858Y021180D01*
X036844Y021180D02*
X036844Y020700D01*
X036684Y020860D01*
X036524Y020700D01*
X036524Y021180D01*
X035934Y015526D02*
X036014Y015446D01*
X035934Y015366D02*
X036014Y015286D01*
X035934Y015366D02*
X035774Y015366D01*
X035774Y015526D02*
X035934Y015526D01*
X035934Y015091D02*
X036014Y015091D01*
X036094Y015011D01*
X036174Y015091D01*
X036254Y015091D01*
X036334Y015011D01*
X036334Y014851D01*
X036254Y014771D01*
X036254Y014593D02*
X036334Y014593D01*
X036334Y014513D01*
X036254Y014513D01*
X036254Y014593D01*
X036254Y014317D02*
X035934Y014317D01*
X036254Y013997D01*
X036334Y014077D01*
X036334Y014237D01*
X036254Y014317D01*
X036254Y013997D02*
X035934Y013997D01*
X035854Y014077D01*
X035854Y014237D01*
X035934Y014317D01*
X035934Y014771D02*
X035854Y014851D01*
X035854Y015011D01*
X035934Y015091D01*
X036094Y015011D02*
X036094Y014931D01*
X035854Y013286D02*
X036334Y013286D01*
X036334Y012966D02*
X035854Y012966D01*
X036014Y013126D01*
X035854Y013286D01*
X036014Y012770D02*
X036334Y012770D01*
X036094Y012770D02*
X036094Y012450D01*
X036014Y012450D02*
X035854Y012610D01*
X036014Y012770D01*
X036014Y012450D02*
X036334Y012450D01*
X036334Y012255D02*
X036174Y012095D01*
X036174Y012175D02*
X036174Y011935D01*
X036334Y011935D02*
X035854Y011935D01*
X035854Y012175D01*
X035934Y012255D01*
X036094Y012255D01*
X036174Y012175D01*
X036174Y011739D02*
X036094Y011659D01*
X036094Y011499D01*
X036014Y011419D01*
X035934Y011419D01*
X035854Y011499D01*
X035854Y011659D01*
X035934Y011739D01*
X036174Y011739D02*
X036254Y011739D01*
X036334Y011659D01*
X036334Y011499D01*
X036254Y011419D01*
X036334Y010708D02*
X036094Y010468D01*
X036174Y010388D02*
X035854Y010708D01*
X035854Y010388D02*
X036334Y010388D01*
X036334Y010192D02*
X036334Y009872D01*
X036014Y010192D01*
X035934Y010192D01*
X035854Y010112D01*
X035854Y009952D01*
X035934Y009872D01*
X035934Y009677D02*
X036014Y009677D01*
X036094Y009597D01*
X036174Y009677D01*
X036254Y009677D01*
X036334Y009597D01*
X036334Y009436D01*
X036254Y009356D01*
X036094Y009516D02*
X036094Y009597D01*
X035934Y009677D02*
X035854Y009597D01*
X035854Y009436D01*
X035934Y009356D01*
X036014Y008645D02*
X036334Y008645D01*
X036094Y008645D02*
X036094Y008325D01*
X036014Y008325D02*
X035854Y008485D01*
X036014Y008645D01*
X036014Y008325D02*
X036334Y008325D01*
X036334Y008130D02*
X036334Y007809D01*
X036014Y008130D01*
X035934Y008130D01*
X035854Y008050D01*
X035854Y007889D01*
X035934Y007809D01*
X035934Y007614D02*
X035854Y007534D01*
X035854Y007374D01*
X035934Y007294D01*
X036254Y007294D01*
X036334Y007374D01*
X036334Y007534D01*
X036254Y007614D01*
X036334Y007110D02*
X036334Y006950D01*
X036334Y007030D02*
X035854Y007030D01*
X035854Y006950D02*
X035854Y007110D01*
X038854Y006315D02*
X038934Y006395D01*
X039014Y006395D01*
X039094Y006315D01*
X039094Y006075D01*
X039014Y005880D02*
X038934Y005880D01*
X038854Y005800D01*
X038854Y005639D01*
X038934Y005559D01*
X038934Y005364D02*
X038854Y005284D01*
X038854Y005124D01*
X038934Y005044D01*
X039254Y005044D01*
X039334Y005124D01*
X039334Y005284D01*
X039254Y005364D01*
X039334Y005559D02*
X039014Y005880D01*
X038854Y006075D02*
X038854Y006315D01*
X038854Y006075D02*
X039334Y006075D01*
X039334Y006315D01*
X039254Y006395D01*
X039174Y006395D01*
X039094Y006315D01*
X039334Y005880D02*
X039334Y005559D01*
X039334Y004860D02*
X039334Y004700D01*
X039334Y004780D02*
X038854Y004780D01*
X038854Y004700D02*
X038854Y004860D01*
X030084Y007450D02*
X030084Y007610D01*
X030084Y007530D02*
X029604Y007530D01*
X029604Y007450D02*
X029604Y007610D01*
X029684Y007794D02*
X030004Y007794D01*
X030084Y007874D01*
X030084Y008034D01*
X030004Y008114D01*
X029844Y008309D02*
X029844Y008630D01*
X029604Y008550D02*
X029844Y008309D01*
X029684Y008114D02*
X029604Y008034D01*
X029604Y007874D01*
X029684Y007794D01*
X029604Y008550D02*
X030084Y008550D01*
X030084Y009341D02*
X029764Y009661D01*
X029684Y009661D01*
X029604Y009581D01*
X029604Y009421D01*
X029684Y009341D01*
X030084Y009341D02*
X030084Y009661D01*
X030004Y009856D02*
X030084Y009936D01*
X030084Y010097D01*
X030004Y010177D01*
X029684Y010177D01*
X029604Y010097D01*
X029604Y009936D01*
X029684Y009856D01*
X029764Y009856D01*
X029844Y009936D01*
X029844Y010177D01*
X029844Y010372D02*
X029844Y010532D01*
X029604Y010372D02*
X029604Y010692D01*
X029684Y010888D02*
X029604Y010968D01*
X029604Y011128D01*
X029684Y011208D01*
X030004Y010888D01*
X030084Y010968D01*
X030084Y011128D01*
X030004Y011208D01*
X029684Y011208D01*
X029764Y011403D02*
X029604Y011563D01*
X030084Y011563D01*
X030084Y011403D02*
X030084Y011724D01*
X030004Y011919D02*
X029684Y012239D01*
X030004Y012239D01*
X030084Y012159D01*
X030084Y011999D01*
X030004Y011919D01*
X029684Y011919D01*
X029604Y011999D01*
X029604Y012159D01*
X029684Y012239D01*
X029684Y010888D02*
X030004Y010888D01*
X030084Y010372D02*
X029604Y010372D01*
X022301Y002550D02*
X022301Y002270D01*
X022371Y002200D01*
X022371Y002480D02*
X022231Y002480D01*
X022051Y002410D02*
X022051Y002340D01*
X021771Y002340D01*
X021771Y002270D02*
X021771Y002410D01*
X021841Y002480D01*
X021981Y002480D01*
X022051Y002410D01*
X021981Y002200D02*
X021841Y002200D01*
X021771Y002270D01*
X021597Y002200D02*
X021387Y002340D01*
X021597Y002480D01*
X021387Y002620D02*
X021387Y002200D01*
X021207Y002200D02*
X020997Y002200D01*
X020927Y002270D01*
X020927Y002410D01*
X020997Y002480D01*
X021207Y002480D01*
X020746Y002410D02*
X020746Y002270D01*
X020676Y002200D01*
X020536Y002200D01*
X020466Y002270D01*
X020466Y002410D01*
X020536Y002480D01*
X020676Y002480D01*
X020746Y002410D01*
X020286Y002480D02*
X020076Y002480D01*
X020006Y002410D01*
X020076Y002340D01*
X020216Y002340D01*
X020286Y002270D01*
X020216Y002200D01*
X020006Y002200D01*
X019365Y002270D02*
X019365Y002620D01*
X019085Y002620D02*
X019085Y002270D01*
X019155Y002200D01*
X019295Y002200D01*
X019365Y002270D01*
X018905Y002410D02*
X018835Y002340D01*
X018625Y002340D01*
X018625Y002200D02*
X018625Y002620D01*
X018835Y002620D01*
X018905Y002550D01*
X018905Y002410D01*
X018445Y002270D02*
X018374Y002200D01*
X018234Y002200D01*
X018164Y002270D01*
X018164Y002550D01*
X018234Y002620D01*
X018374Y002620D01*
X018445Y002550D01*
X019104Y005200D02*
X019104Y005360D01*
X019104Y005280D02*
X019584Y005280D01*
X019584Y005200D02*
X019584Y005360D01*
X019504Y005544D02*
X019584Y005624D01*
X019584Y005784D01*
X019504Y005864D01*
X019584Y006059D02*
X019584Y006380D01*
X019584Y006220D02*
X019104Y006220D01*
X019264Y006059D01*
X019184Y005864D02*
X019104Y005784D01*
X019104Y005624D01*
X019184Y005544D01*
X019504Y005544D01*
X019504Y007091D02*
X019584Y007171D01*
X019584Y007331D01*
X019504Y007411D01*
X019424Y007411D01*
X019344Y007331D01*
X019344Y007091D01*
X019504Y007091D01*
X019344Y007091D02*
X019184Y007251D01*
X019104Y007411D01*
X019104Y007606D02*
X019344Y007606D01*
X019264Y007766D01*
X019264Y007847D01*
X019344Y007927D01*
X019504Y007927D01*
X019584Y007847D01*
X019584Y007686D01*
X019504Y007606D01*
X019104Y007606D02*
X019104Y007927D01*
X019184Y008122D02*
X019104Y008202D01*
X019104Y008362D01*
X019184Y008442D01*
X019504Y008122D01*
X019584Y008202D01*
X019584Y008362D01*
X019504Y008442D01*
X019184Y008442D01*
X019184Y008638D02*
X019104Y008718D01*
X019104Y008878D01*
X019184Y008958D01*
X019264Y008958D01*
X019584Y008638D01*
X019584Y008958D01*
X019584Y009669D02*
X019104Y009989D01*
X019104Y010700D02*
X019584Y010700D01*
X019424Y010860D01*
X019584Y011020D01*
X019104Y011020D01*
X019104Y011216D02*
X019104Y011456D01*
X019184Y011536D01*
X019504Y011536D01*
X019584Y011456D01*
X019584Y011216D01*
X019104Y011216D01*
X019344Y011731D02*
X019344Y011972D01*
X019424Y012052D01*
X019504Y012052D01*
X019584Y011972D01*
X019584Y011812D01*
X019504Y011731D01*
X019344Y011731D01*
X019184Y011892D01*
X019104Y012052D01*
X019104Y012247D02*
X019344Y012247D01*
X019264Y012407D01*
X019264Y012487D01*
X019344Y012567D01*
X019504Y012567D01*
X019584Y012487D01*
X019584Y012327D01*
X019504Y012247D01*
X019104Y012247D02*
X019104Y012567D01*
X019184Y012763D02*
X019104Y012843D01*
X019104Y013003D01*
X019184Y013083D01*
X019184Y013278D02*
X019104Y013358D01*
X019104Y013519D01*
X019184Y013599D01*
X019504Y013278D01*
X019584Y013358D01*
X019584Y013519D01*
X019504Y013599D01*
X019184Y013599D01*
X019184Y013794D02*
X019104Y013874D01*
X019104Y014034D01*
X019184Y014114D01*
X019264Y014114D01*
X019584Y013794D01*
X019584Y014114D01*
X019504Y013278D02*
X019184Y013278D01*
X019504Y013083D02*
X019584Y013003D01*
X019584Y012843D01*
X019504Y012763D01*
X019184Y012763D01*
X019184Y008122D02*
X019504Y008122D01*
X012084Y005971D02*
X012084Y005811D01*
X012004Y005731D01*
X011684Y005731D01*
X011604Y005811D01*
X011604Y005971D01*
X011684Y006052D01*
X012004Y006052D02*
X012084Y005971D01*
X012004Y005536D02*
X012084Y005456D01*
X012084Y005296D01*
X012004Y005216D01*
X011684Y005216D01*
X011604Y005296D01*
X011604Y005456D01*
X011684Y005536D01*
X011604Y005020D02*
X011924Y005020D01*
X012084Y004860D01*
X011924Y004700D01*
X011604Y004700D01*
X010701Y001680D02*
X010541Y001680D01*
X010461Y001600D01*
X010461Y001280D01*
X010541Y001200D01*
X010701Y001200D01*
X010781Y001280D01*
X010781Y001440D01*
X010621Y001440D01*
X010781Y001600D02*
X010701Y001680D01*
X010266Y001520D02*
X010266Y001200D01*
X010266Y001440D02*
X009946Y001440D01*
X009946Y001520D02*
X010106Y001680D01*
X010266Y001520D01*
X009946Y001520D02*
X009946Y001200D01*
X009590Y001200D02*
X009590Y001680D01*
X009430Y001680D02*
X009750Y001680D01*
X009235Y001680D02*
X009074Y001680D01*
X009154Y001680D02*
X009154Y001280D01*
X009074Y001200D01*
X008994Y001200D01*
X008914Y001280D01*
X026754Y019950D02*
X026834Y020030D01*
X026834Y020110D01*
X026754Y020190D01*
X026354Y020190D01*
X026354Y020110D02*
X026354Y020270D01*
X026354Y020466D02*
X026354Y020706D01*
X026434Y020786D01*
X026594Y020786D01*
X026674Y020706D01*
X026674Y020466D01*
X026834Y020466D02*
X026354Y020466D01*
X026514Y020981D02*
X026354Y021141D01*
X026834Y021141D01*
X026834Y020981D02*
X026834Y021302D01*
X027414Y021700D02*
X027414Y022180D01*
X027574Y022020D01*
X027735Y022180D01*
X027735Y021700D01*
X027930Y021700D02*
X027930Y022180D01*
X028170Y022020D02*
X027930Y021860D01*
X028170Y021700D01*
X028170Y021180D02*
X028250Y021100D01*
X028250Y020940D01*
X028170Y020860D01*
X027930Y020860D01*
X027930Y020700D02*
X027930Y021180D01*
X028170Y021180D01*
X028446Y021020D02*
X028606Y021180D01*
X028606Y020700D01*
X028446Y020700D02*
X028766Y020700D01*
X028686Y020430D02*
X028526Y020430D01*
X028446Y020350D01*
X028250Y020350D02*
X028250Y020190D01*
X028170Y020110D01*
X027930Y020110D01*
X027930Y019950D02*
X027930Y020430D01*
X028170Y020430D01*
X028250Y020350D01*
X028686Y020430D02*
X028766Y020350D01*
X028766Y020270D01*
X028446Y019950D01*
X028766Y019950D01*
X027654Y020030D02*
X027654Y020430D01*
X027574Y020430D02*
X027735Y020430D01*
X027574Y020700D02*
X027654Y020780D01*
X027654Y021180D01*
X027574Y021180D02*
X027735Y021180D01*
X027574Y020700D02*
X027494Y020700D01*
X027414Y020780D01*
X027414Y020030D02*
X027494Y019950D01*
X027574Y019950D01*
X027654Y020030D01*
X028434Y022450D02*
X028354Y022530D01*
X028617Y022450D02*
X028617Y022930D01*
X028514Y023200D02*
X028594Y023280D01*
X028594Y023440D01*
X028514Y023520D01*
X028354Y023520D01*
X028274Y023440D01*
X028274Y023280D01*
X028354Y023200D01*
X028514Y023200D01*
X028789Y023200D02*
X028789Y023520D01*
X028869Y023520D01*
X028949Y023440D01*
X029030Y023520D01*
X029110Y023440D01*
X029110Y023200D01*
X028949Y023200D02*
X028949Y023440D01*
X028090Y023520D02*
X027930Y023520D01*
X028010Y023600D02*
X028010Y023280D01*
X028090Y023200D01*
X028010Y023010D02*
X028010Y022930D01*
X027735Y023200D02*
X027735Y023520D01*
X027574Y023680D01*
X027414Y023520D01*
X027414Y023200D01*
X027414Y023440D02*
X027735Y023440D01*
X030164Y023520D02*
X030164Y023200D01*
X007453Y033030D02*
X007453Y033110D01*
X007373Y033190D01*
X007133Y033190D01*
X007133Y033030D01*
X007213Y032950D01*
X007373Y032950D01*
X007453Y033030D01*
X007293Y033350D02*
X007133Y033190D01*
X006938Y033110D02*
X006938Y033030D01*
X006858Y032950D01*
X006698Y032950D01*
X006618Y033030D01*
X006618Y033110D01*
X006698Y033190D01*
X006858Y033190D01*
X006938Y033110D01*
X006858Y033190D02*
X006938Y033270D01*
X006938Y033350D01*
X006858Y033430D01*
X006698Y033430D01*
X006618Y033350D01*
X006618Y033270D01*
X006698Y033190D01*
X006422Y033110D02*
X006422Y033030D01*
X006342Y032950D01*
X006182Y032950D01*
X006102Y033030D01*
X006182Y033190D02*
X006342Y033190D01*
X006422Y033110D01*
X006422Y033350D02*
X006342Y033430D01*
X006182Y033430D01*
X006102Y033350D01*
X006102Y033270D01*
X006182Y033190D01*
X005907Y032950D02*
X005586Y032950D01*
X005586Y033430D01*
X005311Y033430D02*
X005071Y033190D01*
X005391Y033190D01*
X005311Y032950D02*
X005311Y033430D01*
X004875Y033430D02*
X004875Y033350D01*
X004555Y033030D01*
X004555Y032950D01*
X004555Y033430D02*
X004875Y033430D01*
X003844Y033430D02*
X003524Y033430D01*
X003524Y033190D01*
X003684Y033270D01*
X003764Y033270D01*
X003844Y033190D01*
X003844Y033030D01*
X003764Y032950D01*
X003604Y032950D01*
X003524Y033030D01*
X003328Y033030D02*
X003248Y032950D01*
X003088Y032950D01*
X003008Y033030D01*
X003008Y033350D01*
X003088Y033430D01*
X003248Y033430D01*
X003328Y033350D01*
X002824Y033430D02*
X002664Y033430D01*
X002744Y033430D02*
X002744Y032950D01*
X002664Y032950D02*
X002824Y032950D01*
X007293Y033350D02*
X007453Y033430D01*
D12*
X008874Y033560D02*
X008874Y034310D01*
X001874Y034310D01*
X001874Y032010D01*
X008874Y032010D01*
X008874Y032760D01*
X008835Y032762D01*
X008796Y032768D01*
X008758Y032777D01*
X008721Y032790D01*
X008685Y032807D01*
X008652Y032827D01*
X008620Y032851D01*
X008591Y032877D01*
X008565Y032906D01*
X008541Y032938D01*
X008521Y032971D01*
X008504Y033007D01*
X008491Y033044D01*
X008482Y033082D01*
X008476Y033121D01*
X008474Y033160D01*
X008476Y033199D01*
X008482Y033238D01*
X008491Y033276D01*
X008504Y033313D01*
X008521Y033349D01*
X008541Y033382D01*
X008565Y033414D01*
X008591Y033443D01*
X008620Y033469D01*
X008652Y033493D01*
X008685Y033513D01*
X008721Y033530D01*
X008758Y033543D01*
X008796Y033552D01*
X008835Y033558D01*
X008874Y033560D01*
X008924Y033260D02*
X008924Y034560D01*
X008926Y034586D01*
X008931Y034612D01*
X008939Y034637D01*
X008951Y034660D01*
X008965Y034682D01*
X008983Y034701D01*
X009002Y034719D01*
X009024Y034733D01*
X009047Y034745D01*
X009072Y034753D01*
X009098Y034758D01*
X009124Y034760D01*
X009374Y034410D02*
X009374Y034030D01*
X009374Y033780D02*
X009374Y033410D01*
X009124Y033060D02*
X009098Y033062D01*
X009072Y033067D01*
X009047Y033075D01*
X009024Y033087D01*
X009002Y033101D01*
X008983Y033119D01*
X008965Y033138D01*
X008951Y033160D01*
X008939Y033183D01*
X008931Y033208D01*
X008926Y033234D01*
X008924Y033260D01*
X009624Y033060D02*
X009650Y033062D01*
X009676Y033067D01*
X009701Y033075D01*
X009724Y033087D01*
X009746Y033101D01*
X009765Y033119D01*
X009783Y033138D01*
X009797Y033160D01*
X009809Y033183D01*
X009817Y033208D01*
X009822Y033234D01*
X009824Y033260D01*
X009824Y034560D01*
X009822Y034586D01*
X009817Y034612D01*
X009809Y034637D01*
X009797Y034660D01*
X009783Y034682D01*
X009765Y034701D01*
X009746Y034719D01*
X009724Y034733D01*
X009701Y034745D01*
X009676Y034753D01*
X009650Y034758D01*
X009624Y034760D01*
X009374Y036260D02*
X009424Y036310D01*
X010824Y036310D01*
X010874Y036260D01*
X011024Y036260D01*
X011041Y036262D01*
X011058Y036266D01*
X011074Y036273D01*
X011088Y036283D01*
X011101Y036296D01*
X011111Y036310D01*
X011118Y036326D01*
X011122Y036343D01*
X011124Y036360D01*
X011124Y036960D01*
X011122Y036977D01*
X011118Y036994D01*
X011111Y037010D01*
X011101Y037024D01*
X011088Y037037D01*
X011074Y037047D01*
X011058Y037054D01*
X011041Y037058D01*
X011024Y037060D01*
X010874Y037060D01*
X010824Y037010D01*
X009424Y037010D01*
X009374Y037060D01*
X009224Y037060D01*
X009207Y037058D01*
X009190Y037054D01*
X009174Y037047D01*
X009160Y037037D01*
X009147Y037024D01*
X009137Y037010D01*
X009130Y036994D01*
X009126Y036977D01*
X009124Y036960D01*
X009124Y036360D01*
X009126Y036343D01*
X009130Y036326D01*
X009137Y036310D01*
X009147Y036296D01*
X009160Y036283D01*
X009174Y036273D01*
X009190Y036266D01*
X009207Y036262D01*
X009224Y036260D01*
X009374Y036260D01*
X007624Y036210D02*
X007624Y035610D01*
X007622Y035593D01*
X007618Y035576D01*
X007611Y035560D01*
X007601Y035546D01*
X007588Y035533D01*
X007574Y035523D01*
X007558Y035516D01*
X007541Y035512D01*
X007524Y035510D01*
X007374Y035510D01*
X007324Y035560D01*
X005924Y035560D01*
X005874Y035510D01*
X005724Y035510D01*
X005707Y035512D01*
X005690Y035516D01*
X005674Y035523D01*
X005660Y035533D01*
X005647Y035546D01*
X005637Y035560D01*
X005630Y035576D01*
X005626Y035593D01*
X005624Y035610D01*
X005624Y036210D01*
X005626Y036227D01*
X005630Y036244D01*
X005637Y036260D01*
X005647Y036274D01*
X005660Y036287D01*
X005674Y036297D01*
X005690Y036304D01*
X005707Y036308D01*
X005724Y036310D01*
X005874Y036310D01*
X005924Y036260D01*
X007324Y036260D01*
X007374Y036310D01*
X007524Y036310D01*
X007541Y036308D01*
X007558Y036304D01*
X007574Y036297D01*
X007588Y036287D01*
X007601Y036274D01*
X007611Y036260D01*
X007618Y036244D01*
X007622Y036227D01*
X007624Y036210D01*
X004224Y036160D02*
X004222Y036186D01*
X004217Y036212D01*
X004209Y036237D01*
X004197Y036260D01*
X004183Y036282D01*
X004165Y036301D01*
X004146Y036319D01*
X004124Y036333D01*
X004101Y036345D01*
X004076Y036353D01*
X004050Y036358D01*
X004024Y036360D01*
X002724Y036360D01*
X002698Y036358D01*
X002672Y036353D01*
X002647Y036345D01*
X002624Y036333D01*
X002602Y036319D01*
X002583Y036301D01*
X002565Y036282D01*
X002551Y036260D01*
X002539Y036237D01*
X002531Y036212D01*
X002526Y036186D01*
X002524Y036160D01*
X002874Y035910D02*
X003244Y035910D01*
X003494Y035910D02*
X003874Y035910D01*
X004224Y035660D02*
X004222Y035634D01*
X004217Y035608D01*
X004209Y035583D01*
X004197Y035560D01*
X004183Y035538D01*
X004165Y035519D01*
X004146Y035501D01*
X004124Y035487D01*
X004101Y035475D01*
X004076Y035467D01*
X004050Y035462D01*
X004024Y035460D01*
X002724Y035460D01*
X002698Y035462D01*
X002672Y035467D01*
X002647Y035475D01*
X002624Y035487D01*
X002602Y035501D01*
X002583Y035519D01*
X002565Y035538D01*
X002551Y035560D01*
X002539Y035583D01*
X002531Y035608D01*
X002526Y035634D01*
X002524Y035660D01*
X001874Y028310D02*
X001874Y026010D01*
X008874Y026010D01*
X008874Y026760D01*
X008835Y026762D01*
X008796Y026768D01*
X008758Y026777D01*
X008721Y026790D01*
X008685Y026807D01*
X008652Y026827D01*
X008620Y026851D01*
X008591Y026877D01*
X008565Y026906D01*
X008541Y026938D01*
X008521Y026971D01*
X008504Y027007D01*
X008491Y027044D01*
X008482Y027082D01*
X008476Y027121D01*
X008474Y027160D01*
X008476Y027199D01*
X008482Y027238D01*
X008491Y027276D01*
X008504Y027313D01*
X008521Y027349D01*
X008541Y027382D01*
X008565Y027414D01*
X008591Y027443D01*
X008620Y027469D01*
X008652Y027493D01*
X008685Y027513D01*
X008721Y027530D01*
X008758Y027543D01*
X008796Y027552D01*
X008835Y027558D01*
X008874Y027560D01*
X008874Y028310D01*
X001874Y028310D01*
X003574Y024810D02*
X005174Y024810D01*
X005191Y024808D01*
X005208Y024804D01*
X005224Y024797D01*
X005238Y024787D01*
X005251Y024774D01*
X005261Y024760D01*
X005268Y024744D01*
X005272Y024727D01*
X005274Y024710D01*
X005274Y024110D01*
X005272Y024093D01*
X005268Y024076D01*
X005261Y024060D01*
X005251Y024046D01*
X005238Y024033D01*
X005224Y024023D01*
X005208Y024016D01*
X005191Y024012D01*
X005174Y024010D01*
X003574Y024010D01*
X003557Y024012D01*
X003540Y024016D01*
X003524Y024023D01*
X003510Y024033D01*
X003497Y024046D01*
X003487Y024060D01*
X003480Y024076D01*
X003476Y024093D01*
X003474Y024110D01*
X003474Y024710D01*
X003476Y024727D01*
X003480Y024744D01*
X003487Y024760D01*
X003497Y024774D01*
X003510Y024787D01*
X003524Y024797D01*
X003540Y024804D01*
X003557Y024808D01*
X003574Y024810D01*
X003974Y024660D02*
X003974Y024160D01*
X004374Y024410D01*
X004374Y024660D01*
X004374Y024410D02*
X004374Y024160D01*
X004374Y024410D02*
X003774Y024410D01*
X003974Y024660D02*
X004374Y024410D01*
X004624Y024410D01*
X004024Y023860D02*
X002724Y023860D01*
X002698Y023858D01*
X002672Y023853D01*
X002647Y023845D01*
X002624Y023833D01*
X002602Y023819D01*
X002583Y023801D01*
X002565Y023782D01*
X002551Y023760D01*
X002539Y023737D01*
X002531Y023712D01*
X002526Y023686D01*
X002524Y023660D01*
X002874Y023410D02*
X003244Y023410D01*
X003494Y023410D02*
X003874Y023410D01*
X004224Y023160D02*
X004222Y023134D01*
X004217Y023108D01*
X004209Y023083D01*
X004197Y023060D01*
X004183Y023038D01*
X004165Y023019D01*
X004146Y023001D01*
X004124Y022987D01*
X004101Y022975D01*
X004076Y022967D01*
X004050Y022962D01*
X004024Y022960D01*
X002724Y022960D01*
X002698Y022962D01*
X002672Y022967D01*
X002647Y022975D01*
X002624Y022987D01*
X002602Y023001D01*
X002583Y023019D01*
X002565Y023038D01*
X002551Y023060D01*
X002539Y023083D01*
X002531Y023108D01*
X002526Y023134D01*
X002524Y023160D01*
X002624Y022160D02*
X002124Y022160D01*
X001874Y021910D01*
X001874Y021410D01*
X002124Y021160D01*
X002624Y021160D01*
X002874Y021410D01*
X002874Y021910D01*
X002624Y022160D01*
X002624Y021160D02*
X002874Y020910D01*
X002874Y020410D01*
X002624Y020160D01*
X002124Y020160D01*
X001874Y020410D01*
X001874Y020910D01*
X002124Y021160D01*
X003924Y019310D02*
X003924Y018010D01*
X003926Y017984D01*
X003931Y017958D01*
X003939Y017933D01*
X003951Y017910D01*
X003965Y017888D01*
X003983Y017869D01*
X004002Y017851D01*
X004024Y017837D01*
X004047Y017825D01*
X004072Y017817D01*
X004098Y017812D01*
X004124Y017810D01*
X004374Y018160D02*
X004374Y018530D01*
X004374Y018780D02*
X004374Y019160D01*
X004124Y019510D02*
X004098Y019508D01*
X004072Y019503D01*
X004047Y019495D01*
X004024Y019483D01*
X004002Y019469D01*
X003983Y019451D01*
X003965Y019432D01*
X003951Y019410D01*
X003939Y019387D01*
X003931Y019362D01*
X003926Y019336D01*
X003924Y019310D01*
X004624Y019510D02*
X004650Y019508D01*
X004676Y019503D01*
X004701Y019495D01*
X004724Y019483D01*
X004746Y019469D01*
X004765Y019451D01*
X004783Y019432D01*
X004797Y019410D01*
X004809Y019387D01*
X004817Y019362D01*
X004822Y019336D01*
X004824Y019310D01*
X004824Y018010D01*
X004822Y017984D01*
X004817Y017958D01*
X004809Y017933D01*
X004797Y017910D01*
X004783Y017888D01*
X004765Y017869D01*
X004746Y017851D01*
X004724Y017837D01*
X004701Y017825D01*
X004676Y017817D01*
X004650Y017812D01*
X004624Y017810D01*
X002824Y017560D02*
X002824Y017410D01*
X002774Y017360D01*
X002774Y015460D01*
X002824Y015410D01*
X002824Y015260D01*
X002822Y015243D01*
X002818Y015226D01*
X002811Y015210D01*
X002801Y015196D01*
X002788Y015183D01*
X002774Y015173D01*
X002758Y015166D01*
X002741Y015162D01*
X002724Y015160D01*
X002024Y015160D01*
X002007Y015162D01*
X001990Y015166D01*
X001974Y015173D01*
X001960Y015183D01*
X001947Y015196D01*
X001937Y015210D01*
X001930Y015226D01*
X001926Y015243D01*
X001924Y015260D01*
X001924Y015410D01*
X001974Y015460D01*
X001974Y017360D01*
X001924Y017410D01*
X001924Y017560D01*
X001926Y017577D01*
X001930Y017594D01*
X001937Y017610D01*
X001947Y017624D01*
X001960Y017637D01*
X001974Y017647D01*
X001990Y017654D01*
X002007Y017658D01*
X002024Y017660D01*
X002724Y017660D01*
X002741Y017658D01*
X002758Y017654D01*
X002774Y017647D01*
X002788Y017637D01*
X002801Y017624D01*
X002811Y017610D01*
X002818Y017594D01*
X002822Y017577D01*
X002824Y017560D01*
X006924Y022760D02*
X006924Y024060D01*
X006926Y024086D01*
X006931Y024112D01*
X006939Y024137D01*
X006951Y024160D01*
X006965Y024182D01*
X006983Y024201D01*
X007002Y024219D01*
X007024Y024233D01*
X007047Y024245D01*
X007072Y024253D01*
X007098Y024258D01*
X007124Y024260D01*
X007374Y023910D02*
X007374Y023530D01*
X007374Y023280D02*
X007374Y022910D01*
X007124Y022560D02*
X007098Y022562D01*
X007072Y022567D01*
X007047Y022575D01*
X007024Y022587D01*
X007002Y022601D01*
X006983Y022619D01*
X006965Y022638D01*
X006951Y022660D01*
X006939Y022683D01*
X006931Y022708D01*
X006926Y022734D01*
X006924Y022760D01*
X007624Y022560D02*
X007650Y022562D01*
X007676Y022567D01*
X007701Y022575D01*
X007724Y022587D01*
X007746Y022601D01*
X007765Y022619D01*
X007783Y022638D01*
X007797Y022660D01*
X007809Y022683D01*
X007817Y022708D01*
X007822Y022734D01*
X007824Y022760D01*
X007824Y024060D01*
X007822Y024086D01*
X007817Y024112D01*
X007809Y024137D01*
X007797Y024160D01*
X007783Y024182D01*
X007765Y024201D01*
X007746Y024219D01*
X007724Y024233D01*
X007701Y024245D01*
X007676Y024253D01*
X007650Y024258D01*
X007624Y024260D01*
X008874Y024110D02*
X008874Y024710D01*
X008876Y024727D01*
X008880Y024744D01*
X008887Y024760D01*
X008897Y024774D01*
X008910Y024787D01*
X008924Y024797D01*
X008940Y024804D01*
X008957Y024808D01*
X008974Y024810D01*
X009124Y024810D01*
X009174Y024760D01*
X010574Y024760D01*
X010624Y024810D01*
X010774Y024810D01*
X010791Y024808D01*
X010808Y024804D01*
X010824Y024797D01*
X010838Y024787D01*
X010851Y024774D01*
X010861Y024760D01*
X010868Y024744D01*
X010872Y024727D01*
X010874Y024710D01*
X010874Y024110D01*
X010872Y024093D01*
X010868Y024076D01*
X010861Y024060D01*
X010851Y024046D01*
X010838Y024033D01*
X010824Y024023D01*
X010808Y024016D01*
X010791Y024012D01*
X010774Y024010D01*
X010624Y024010D01*
X010574Y024060D01*
X009174Y024060D01*
X009124Y024010D01*
X008974Y024010D01*
X008957Y024012D01*
X008940Y024016D01*
X008924Y024023D01*
X008910Y024033D01*
X008897Y024046D01*
X008887Y024060D01*
X008880Y024076D01*
X008876Y024093D01*
X008874Y024110D01*
X009224Y023310D02*
X009374Y023310D01*
X009424Y023260D01*
X010824Y023260D01*
X010874Y023310D01*
X011024Y023310D01*
X011041Y023308D01*
X011058Y023304D01*
X011074Y023297D01*
X011088Y023287D01*
X011101Y023274D01*
X011111Y023260D01*
X011118Y023244D01*
X011122Y023227D01*
X011124Y023210D01*
X011124Y022610D01*
X011122Y022593D01*
X011118Y022576D01*
X011111Y022560D01*
X011101Y022546D01*
X011088Y022533D01*
X011074Y022523D01*
X011058Y022516D01*
X011041Y022512D01*
X011024Y022510D01*
X010874Y022510D01*
X010824Y022560D01*
X009424Y022560D01*
X009374Y022510D01*
X009224Y022510D01*
X009207Y022512D01*
X009190Y022516D01*
X009174Y022523D01*
X009160Y022533D01*
X009147Y022546D01*
X009137Y022560D01*
X009130Y022576D01*
X009126Y022593D01*
X009124Y022610D01*
X009124Y023210D01*
X009126Y023227D01*
X009130Y023244D01*
X009137Y023260D01*
X009147Y023274D01*
X009160Y023287D01*
X009174Y023297D01*
X009190Y023304D01*
X009207Y023308D01*
X009224Y023310D01*
X008624Y021910D02*
X008124Y021910D01*
X007874Y021660D01*
X007874Y021160D01*
X008124Y020910D01*
X007874Y020660D01*
X007874Y020160D01*
X008124Y019910D01*
X008624Y019910D01*
X008874Y020160D01*
X008874Y020660D01*
X008624Y020910D01*
X008124Y020910D01*
X008624Y020910D02*
X008874Y021160D01*
X008874Y021660D01*
X008624Y021910D01*
X009724Y025210D02*
X011024Y025210D01*
X011050Y025212D01*
X011076Y025217D01*
X011101Y025225D01*
X011124Y025237D01*
X011146Y025251D01*
X011165Y025269D01*
X011183Y025288D01*
X011197Y025310D01*
X011209Y025333D01*
X011217Y025358D01*
X011222Y025384D01*
X011224Y025410D01*
X010874Y025660D02*
X010494Y025660D01*
X010244Y025660D02*
X009874Y025660D01*
X009524Y025910D02*
X009526Y025936D01*
X009531Y025962D01*
X009539Y025987D01*
X009551Y026010D01*
X009565Y026032D01*
X009583Y026051D01*
X009602Y026069D01*
X009624Y026083D01*
X009647Y026095D01*
X009672Y026103D01*
X009698Y026108D01*
X009724Y026110D01*
X011024Y026110D01*
X011050Y026108D01*
X011076Y026103D01*
X011101Y026095D01*
X011124Y026083D01*
X011146Y026069D01*
X011165Y026051D01*
X011183Y026032D01*
X011197Y026010D01*
X011209Y025987D01*
X011217Y025962D01*
X011222Y025936D01*
X011224Y025910D01*
X009724Y025210D02*
X009698Y025212D01*
X009672Y025217D01*
X009647Y025225D01*
X009624Y025237D01*
X009602Y025251D01*
X009583Y025269D01*
X009565Y025288D01*
X009551Y025310D01*
X009539Y025333D01*
X009531Y025358D01*
X009526Y025384D01*
X009524Y025410D01*
X009624Y027760D02*
X009624Y030060D01*
X016624Y030060D01*
X016624Y029310D01*
X016374Y029160D02*
X016624Y028910D01*
X016624Y029310D02*
X016585Y029308D01*
X016546Y029302D01*
X016508Y029293D01*
X016471Y029280D01*
X016435Y029263D01*
X016402Y029243D01*
X016370Y029219D01*
X016341Y029193D01*
X016315Y029164D01*
X016291Y029132D01*
X016271Y029099D01*
X016254Y029063D01*
X016241Y029026D01*
X016232Y028988D01*
X016226Y028949D01*
X016224Y028910D01*
X016226Y028871D01*
X016232Y028832D01*
X016241Y028794D01*
X016254Y028757D01*
X016271Y028721D01*
X016291Y028688D01*
X016315Y028656D01*
X016341Y028627D01*
X016370Y028601D01*
X016402Y028577D01*
X016435Y028557D01*
X016471Y028540D01*
X016508Y028527D01*
X016546Y028518D01*
X016585Y028512D01*
X016624Y028510D01*
X016624Y027760D01*
X009624Y027760D01*
X009874Y028160D02*
X010374Y028160D01*
X010624Y028410D01*
X010874Y028160D01*
X011374Y028160D01*
X011624Y028410D01*
X011624Y028910D01*
X011374Y029160D01*
X010874Y029160D01*
X010624Y028910D01*
X010624Y028410D01*
X010624Y028910D02*
X010374Y029160D01*
X009874Y029160D01*
X009624Y028910D01*
X009624Y028410D01*
X009874Y028160D01*
X011624Y028410D02*
X011874Y028160D01*
X012374Y028160D01*
X012624Y028410D01*
X012874Y028160D01*
X013374Y028160D01*
X013624Y028410D01*
X013874Y028160D01*
X014374Y028160D01*
X014624Y028410D01*
X014624Y028910D01*
X014374Y029160D01*
X013874Y029160D01*
X013624Y028910D01*
X013624Y028410D01*
X013624Y028910D02*
X013374Y029160D01*
X012874Y029160D01*
X012624Y028910D01*
X012624Y028410D01*
X012624Y028910D02*
X012374Y029160D01*
X011874Y029160D01*
X011624Y028910D01*
X011374Y031160D02*
X010874Y031160D01*
X010624Y031410D01*
X010374Y031160D01*
X009874Y031160D01*
X009624Y031410D01*
X009624Y031910D01*
X009874Y032160D01*
X010374Y032160D01*
X010624Y031910D01*
X010874Y032160D01*
X011374Y032160D01*
X011624Y031910D01*
X011874Y032160D01*
X012374Y032160D01*
X012624Y031910D01*
X012874Y032160D01*
X013374Y032160D01*
X013624Y031910D01*
X013874Y032160D01*
X014374Y032160D01*
X014624Y031910D01*
X014874Y032160D01*
X015374Y032160D01*
X015624Y031910D01*
X015874Y032160D01*
X016374Y032160D01*
X016624Y031910D01*
X016624Y031410D01*
X016374Y031160D01*
X015874Y031160D01*
X015624Y031410D01*
X015374Y031160D01*
X014874Y031160D01*
X014624Y031410D01*
X014624Y031910D01*
X014374Y032660D02*
X014624Y032910D01*
X014624Y033410D01*
X014374Y033660D01*
X014624Y033910D01*
X014624Y034410D01*
X014374Y034660D01*
X013874Y034660D01*
X013624Y034410D01*
X013624Y033910D01*
X013874Y033660D01*
X014374Y033660D01*
X013874Y033660D02*
X013624Y033410D01*
X013624Y032910D01*
X013874Y032660D01*
X014374Y032660D01*
X013624Y031910D02*
X013624Y031410D01*
X013374Y031160D01*
X012874Y031160D01*
X012624Y031410D01*
X012374Y031160D01*
X011874Y031160D01*
X011624Y031410D01*
X011624Y031910D01*
X011624Y031410D02*
X011374Y031160D01*
X010624Y031410D02*
X010624Y031910D01*
X011324Y033510D02*
X011924Y033510D01*
X011941Y033512D01*
X011958Y033516D01*
X011974Y033523D01*
X011988Y033533D01*
X012001Y033546D01*
X012011Y033560D01*
X012018Y033576D01*
X012022Y033593D01*
X012024Y033610D01*
X012024Y035210D01*
X012022Y035227D01*
X012018Y035244D01*
X012011Y035260D01*
X012001Y035274D01*
X011988Y035287D01*
X011974Y035297D01*
X011958Y035304D01*
X011941Y035308D01*
X011924Y035310D01*
X011324Y035310D01*
X011307Y035308D01*
X011290Y035304D01*
X011274Y035297D01*
X011260Y035287D01*
X011247Y035274D01*
X011237Y035260D01*
X011230Y035244D01*
X011226Y035227D01*
X011224Y035210D01*
X011224Y033610D01*
X011226Y033593D01*
X011230Y033576D01*
X011237Y033560D01*
X011247Y033546D01*
X011260Y033533D01*
X011274Y033523D01*
X011290Y033516D01*
X011307Y033512D01*
X011324Y033510D01*
X011624Y034160D02*
X011624Y034410D01*
X011874Y034410D01*
X011624Y034410D02*
X011374Y034810D01*
X011874Y034810D01*
X011624Y034410D01*
X011374Y034410D01*
X011624Y034410D02*
X011624Y035010D01*
X012624Y031910D02*
X012624Y031410D01*
X013624Y031410D02*
X013874Y031160D01*
X014374Y031160D01*
X014624Y031410D01*
X015624Y031410D02*
X015624Y031910D01*
X017974Y031160D02*
X018724Y031160D01*
X018474Y031460D02*
X019774Y031460D01*
X019800Y031462D01*
X019826Y031467D01*
X019851Y031475D01*
X019874Y031487D01*
X019896Y031501D01*
X019915Y031519D01*
X019933Y031538D01*
X019947Y031560D01*
X019959Y031583D01*
X019967Y031608D01*
X019972Y031634D01*
X019974Y031660D01*
X019624Y031910D02*
X019254Y031910D01*
X019004Y031910D02*
X018624Y031910D01*
X018274Y032160D02*
X018276Y032186D01*
X018281Y032212D01*
X018289Y032237D01*
X018301Y032260D01*
X018315Y032282D01*
X018333Y032301D01*
X018352Y032319D01*
X018374Y032333D01*
X018397Y032345D01*
X018422Y032353D01*
X018448Y032358D01*
X018474Y032360D01*
X019774Y032360D01*
X019800Y032358D01*
X019826Y032353D01*
X019851Y032345D01*
X019874Y032333D01*
X019896Y032319D01*
X019915Y032301D01*
X019933Y032282D01*
X019947Y032260D01*
X019959Y032237D01*
X019967Y032212D01*
X019972Y032186D01*
X019974Y032160D01*
X020274Y031160D02*
X019524Y031160D01*
X019522Y031121D01*
X019516Y031082D01*
X019507Y031044D01*
X019494Y031007D01*
X019477Y030971D01*
X019457Y030938D01*
X019433Y030906D01*
X019407Y030877D01*
X019378Y030851D01*
X019346Y030827D01*
X019313Y030807D01*
X019277Y030790D01*
X019240Y030777D01*
X019202Y030768D01*
X019163Y030762D01*
X019124Y030760D01*
X019085Y030762D01*
X019046Y030768D01*
X019008Y030777D01*
X018971Y030790D01*
X018935Y030807D01*
X018902Y030827D01*
X018870Y030851D01*
X018841Y030877D01*
X018815Y030906D01*
X018791Y030938D01*
X018771Y030971D01*
X018754Y031007D01*
X018741Y031044D01*
X018732Y031082D01*
X018726Y031121D01*
X018724Y031160D01*
X018474Y031460D02*
X018448Y031462D01*
X018422Y031467D01*
X018397Y031475D01*
X018374Y031487D01*
X018352Y031501D01*
X018333Y031519D01*
X018315Y031538D01*
X018301Y031560D01*
X018289Y031583D01*
X018281Y031608D01*
X018276Y031634D01*
X018274Y031660D01*
X017974Y031160D02*
X017974Y024160D01*
X020274Y024160D01*
X020274Y031160D01*
X016624Y028910D02*
X016624Y028410D01*
X016374Y028160D01*
X015874Y028160D01*
X015624Y028410D01*
X015374Y028160D01*
X014874Y028160D01*
X014624Y028410D01*
X014624Y028910D02*
X014874Y029160D01*
X015374Y029160D01*
X015624Y028910D01*
X015874Y029160D01*
X016374Y029160D01*
X015624Y028910D02*
X015624Y028410D01*
X015024Y026560D02*
X014874Y026560D01*
X014824Y026510D01*
X013424Y026510D01*
X013374Y026560D01*
X013224Y026560D01*
X013207Y026558D01*
X013190Y026554D01*
X013174Y026547D01*
X013160Y026537D01*
X013147Y026524D01*
X013137Y026510D01*
X013130Y026494D01*
X013126Y026477D01*
X013124Y026460D01*
X013124Y025860D01*
X013126Y025843D01*
X013130Y025826D01*
X013137Y025810D01*
X013147Y025796D01*
X013160Y025783D01*
X013174Y025773D01*
X013190Y025766D01*
X013207Y025762D01*
X013224Y025760D01*
X013374Y025760D01*
X013424Y025810D01*
X014824Y025810D01*
X014874Y025760D01*
X015024Y025760D01*
X015041Y025762D01*
X015058Y025766D01*
X015074Y025773D01*
X015088Y025783D01*
X015101Y025796D01*
X015111Y025810D01*
X015118Y025826D01*
X015122Y025843D01*
X015124Y025860D01*
X015124Y026460D01*
X015122Y026477D01*
X015118Y026494D01*
X015111Y026510D01*
X015101Y026524D01*
X015088Y026537D01*
X015074Y026547D01*
X015058Y026554D01*
X015041Y026558D01*
X015024Y026560D01*
X014274Y025610D02*
X012974Y025610D01*
X012948Y025608D01*
X012922Y025603D01*
X012897Y025595D01*
X012874Y025583D01*
X012852Y025569D01*
X012833Y025551D01*
X012815Y025532D01*
X012801Y025510D01*
X012789Y025487D01*
X012781Y025462D01*
X012776Y025436D01*
X012774Y025410D01*
X013124Y025160D02*
X013494Y025160D01*
X013744Y025160D02*
X014124Y025160D01*
X014474Y025410D02*
X014472Y025436D01*
X014467Y025462D01*
X014459Y025487D01*
X014447Y025510D01*
X014433Y025532D01*
X014415Y025551D01*
X014396Y025569D01*
X014374Y025583D01*
X014351Y025595D01*
X014326Y025603D01*
X014300Y025608D01*
X014274Y025610D01*
X014474Y024910D02*
X014472Y024884D01*
X014467Y024858D01*
X014459Y024833D01*
X014447Y024810D01*
X014433Y024788D01*
X014415Y024769D01*
X014396Y024751D01*
X014374Y024737D01*
X014351Y024725D01*
X014326Y024717D01*
X014300Y024712D01*
X014274Y024710D01*
X012974Y024710D01*
X012948Y024712D01*
X012922Y024717D01*
X012897Y024725D01*
X012874Y024737D01*
X012852Y024751D01*
X012833Y024769D01*
X012815Y024788D01*
X012801Y024810D01*
X012789Y024833D01*
X012781Y024858D01*
X012776Y024884D01*
X012774Y024910D01*
X014624Y023160D02*
X014374Y022910D01*
X014374Y022410D01*
X014624Y022160D01*
X014374Y021910D01*
X014374Y021410D01*
X014624Y021160D01*
X015124Y021160D01*
X015374Y021410D01*
X015374Y021910D01*
X015124Y022160D01*
X014624Y022160D01*
X015124Y022160D02*
X015374Y022410D01*
X015374Y022910D01*
X015124Y023160D01*
X014624Y023160D01*
X016724Y023160D02*
X018924Y023160D01*
X018926Y023121D01*
X018932Y023082D01*
X018941Y023044D01*
X018954Y023007D01*
X018971Y022971D01*
X018991Y022938D01*
X019015Y022906D01*
X019041Y022877D01*
X019070Y022851D01*
X019102Y022827D01*
X019135Y022807D01*
X019171Y022790D01*
X019208Y022777D01*
X019246Y022768D01*
X019285Y022762D01*
X019324Y022760D01*
X019363Y022762D01*
X019402Y022768D01*
X019440Y022777D01*
X019477Y022790D01*
X019513Y022807D01*
X019546Y022827D01*
X019578Y022851D01*
X019607Y022877D01*
X019633Y022906D01*
X019657Y022938D01*
X019677Y022971D01*
X019694Y023007D01*
X019707Y023044D01*
X019716Y023082D01*
X019722Y023121D01*
X019724Y023160D01*
X022024Y023160D01*
X022024Y003160D01*
X016724Y003160D01*
X016724Y023160D01*
X017974Y023160D02*
X020174Y023160D01*
X020176Y023121D01*
X020182Y023082D01*
X020191Y023044D01*
X020204Y023007D01*
X020221Y022971D01*
X020241Y022938D01*
X020265Y022906D01*
X020291Y022877D01*
X020320Y022851D01*
X020352Y022827D01*
X020385Y022807D01*
X020421Y022790D01*
X020458Y022777D01*
X020496Y022768D01*
X020535Y022762D01*
X020574Y022760D01*
X020613Y022762D01*
X020652Y022768D01*
X020690Y022777D01*
X020727Y022790D01*
X020763Y022807D01*
X020796Y022827D01*
X020828Y022851D01*
X020857Y022877D01*
X020883Y022906D01*
X020907Y022938D01*
X020927Y022971D01*
X020944Y023007D01*
X020957Y023044D01*
X020966Y023082D01*
X020972Y023121D01*
X020974Y023160D01*
X023274Y023160D01*
X023274Y003160D01*
X017974Y003160D01*
X017974Y023160D01*
X019524Y018910D02*
X020224Y018910D01*
X020241Y018908D01*
X020258Y018904D01*
X020274Y018897D01*
X020288Y018887D01*
X020301Y018874D01*
X020311Y018860D01*
X020318Y018844D01*
X020322Y018827D01*
X020324Y018810D01*
X020324Y018660D01*
X020274Y018610D01*
X020274Y016710D01*
X020324Y016660D01*
X020324Y016510D01*
X020322Y016493D01*
X020318Y016476D01*
X020311Y016460D01*
X020301Y016446D01*
X020288Y016433D01*
X020274Y016423D01*
X020258Y016416D01*
X020241Y016412D01*
X020224Y016410D01*
X019524Y016410D01*
X019507Y016412D01*
X019490Y016416D01*
X019474Y016423D01*
X019460Y016433D01*
X019447Y016446D01*
X019437Y016460D01*
X019430Y016476D01*
X019426Y016493D01*
X019424Y016510D01*
X019424Y016660D01*
X019474Y016710D01*
X019474Y018610D01*
X019424Y018660D01*
X019424Y018810D01*
X019426Y018827D01*
X019430Y018844D01*
X019437Y018860D01*
X019447Y018874D01*
X019460Y018887D01*
X019474Y018897D01*
X019490Y018904D01*
X019507Y018908D01*
X019524Y018910D01*
X014024Y014610D02*
X012724Y014610D01*
X012698Y014608D01*
X012672Y014603D01*
X012647Y014595D01*
X012624Y014583D01*
X012602Y014569D01*
X012583Y014551D01*
X012565Y014532D01*
X012551Y014510D01*
X012539Y014487D01*
X012531Y014462D01*
X012526Y014436D01*
X012524Y014410D01*
X012874Y014160D02*
X013254Y014160D01*
X013504Y014160D02*
X013874Y014160D01*
X014224Y013910D02*
X014222Y013884D01*
X014217Y013858D01*
X014209Y013833D01*
X014197Y013810D01*
X014183Y013788D01*
X014165Y013769D01*
X014146Y013751D01*
X014124Y013737D01*
X014101Y013725D01*
X014076Y013717D01*
X014050Y013712D01*
X014024Y013710D01*
X012724Y013710D01*
X012698Y013712D01*
X012672Y013717D01*
X012647Y013725D01*
X012624Y013737D01*
X012602Y013751D01*
X012583Y013769D01*
X012565Y013788D01*
X012551Y013810D01*
X012539Y013833D01*
X012531Y013858D01*
X012526Y013884D01*
X012524Y013910D01*
X013174Y014910D02*
X013304Y014910D01*
X013304Y015410D01*
X013174Y015410D01*
X013174Y015160D01*
X013174Y014910D01*
X013174Y015160D02*
X012824Y015160D01*
X012924Y015310D02*
X012924Y015510D01*
X013024Y015410D02*
X012824Y015410D01*
X012620Y015652D02*
X012653Y015699D01*
X012689Y015744D01*
X012728Y015787D01*
X012769Y015827D01*
X012813Y015864D01*
X012860Y015899D01*
X012908Y015930D01*
X012958Y015958D01*
X013010Y015983D01*
X013064Y016005D01*
X013118Y016023D01*
X013174Y016037D01*
X013231Y016048D01*
X013288Y016056D01*
X013345Y016060D01*
X013403Y016060D01*
X013460Y016056D01*
X013517Y016048D01*
X013574Y016037D01*
X013630Y016023D01*
X013684Y016005D01*
X013738Y015983D01*
X013790Y015958D01*
X013840Y015930D01*
X013888Y015899D01*
X013935Y015864D01*
X013979Y015827D01*
X014020Y015787D01*
X014059Y015744D01*
X014095Y015699D01*
X014128Y015652D01*
X013924Y015160D02*
X013574Y015160D01*
X013574Y015410D01*
X013444Y015410D01*
X013444Y014910D01*
X013574Y014910D01*
X013574Y015160D01*
X014128Y014668D02*
X014095Y014621D01*
X014059Y014576D01*
X014020Y014533D01*
X013979Y014493D01*
X013935Y014456D01*
X013888Y014421D01*
X013840Y014390D01*
X013790Y014362D01*
X013738Y014337D01*
X013684Y014315D01*
X013630Y014297D01*
X013574Y014283D01*
X013517Y014272D01*
X013460Y014264D01*
X013403Y014260D01*
X013345Y014260D01*
X013288Y014264D01*
X013231Y014272D01*
X013174Y014283D01*
X013118Y014297D01*
X013064Y014315D01*
X013010Y014337D01*
X012958Y014362D01*
X012908Y014390D01*
X012860Y014421D01*
X012813Y014456D01*
X012769Y014493D01*
X012728Y014533D01*
X012689Y014576D01*
X012653Y014621D01*
X012620Y014668D01*
X013504Y014960D02*
X013504Y015360D01*
X014024Y014610D02*
X014050Y014608D01*
X014076Y014603D01*
X014101Y014595D01*
X014124Y014583D01*
X014146Y014569D01*
X014165Y014551D01*
X014183Y014532D01*
X014197Y014510D01*
X014209Y014487D01*
X014217Y014462D01*
X014222Y014436D01*
X014224Y014410D01*
X013474Y011985D02*
X013474Y010335D01*
X014074Y010607D02*
X014074Y010713D01*
X014074Y011607D02*
X014074Y011713D01*
X008874Y006610D02*
X008874Y006210D01*
X008872Y006184D01*
X008867Y006158D01*
X008859Y006133D01*
X008847Y006110D01*
X008833Y006088D01*
X008815Y006069D01*
X008796Y006051D01*
X008774Y006037D01*
X008751Y006025D01*
X008726Y006017D01*
X008700Y006012D01*
X008674Y006010D01*
X003074Y006010D01*
X003024Y006060D02*
X003024Y006760D01*
X003724Y006760D01*
X003724Y006060D01*
X003024Y006060D01*
X003074Y006010D02*
X003048Y006012D01*
X003022Y006017D01*
X002997Y006025D01*
X002974Y006037D01*
X002952Y006051D01*
X002933Y006069D01*
X002915Y006088D01*
X002901Y006110D01*
X002889Y006133D01*
X002881Y006158D01*
X002876Y006184D01*
X002874Y006210D01*
X002874Y006610D01*
X002876Y006636D01*
X002881Y006662D01*
X002889Y006687D01*
X002901Y006710D01*
X002915Y006732D01*
X002933Y006751D01*
X002952Y006769D01*
X002974Y006783D01*
X002997Y006795D01*
X003022Y006803D01*
X003048Y006808D01*
X003074Y006810D01*
X008674Y006810D01*
X008700Y006808D01*
X008726Y006803D01*
X008751Y006795D01*
X008774Y006783D01*
X008796Y006769D01*
X008815Y006751D01*
X008833Y006732D01*
X008847Y006710D01*
X008859Y006687D01*
X008867Y006662D01*
X008872Y006636D01*
X008874Y006610D01*
X010774Y004160D02*
X012474Y004160D01*
X012491Y004158D01*
X012508Y004154D01*
X012524Y004147D01*
X012538Y004137D01*
X012551Y004124D01*
X012561Y004110D01*
X012568Y004094D01*
X012572Y004077D01*
X012574Y004060D01*
X012574Y003260D01*
X012572Y003243D01*
X012568Y003226D01*
X012561Y003210D01*
X012551Y003196D01*
X012538Y003183D01*
X012524Y003173D01*
X012508Y003166D01*
X012491Y003162D01*
X012474Y003160D01*
X010774Y003160D01*
X010757Y003162D01*
X010740Y003166D01*
X010724Y003173D01*
X010710Y003183D01*
X010697Y003196D01*
X010687Y003210D01*
X010680Y003226D01*
X010676Y003243D01*
X010674Y003260D01*
X010674Y004060D01*
X010676Y004077D01*
X010680Y004094D01*
X010687Y004110D01*
X010697Y004124D01*
X010710Y004137D01*
X010724Y004147D01*
X010740Y004154D01*
X010757Y004158D01*
X010774Y004160D01*
X011474Y003660D02*
X011524Y003660D01*
X011724Y003660D02*
X011774Y003660D01*
X011874Y002910D02*
X012374Y002910D01*
X012624Y002660D01*
X012624Y002160D01*
X012374Y001910D01*
X011874Y001910D01*
X011624Y002160D01*
X011374Y001910D01*
X010874Y001910D01*
X010624Y002160D01*
X010624Y002660D01*
X010874Y002910D01*
X011374Y002910D01*
X011624Y002660D01*
X011874Y002910D01*
X011624Y002660D02*
X011624Y002160D01*
X010624Y002160D02*
X010374Y001910D01*
X009874Y001910D01*
X009624Y002160D01*
X009374Y001910D01*
X008874Y001910D01*
X008624Y002160D01*
X008374Y001910D01*
X007874Y001910D01*
X007624Y002160D01*
X007374Y001910D01*
X006874Y001910D01*
X006624Y002160D01*
X006624Y002660D01*
X006874Y002910D01*
X007374Y002910D01*
X007624Y002660D01*
X007874Y002910D01*
X008374Y002910D01*
X008624Y002660D01*
X008874Y002910D01*
X009374Y002910D01*
X009624Y002660D01*
X009874Y002910D01*
X010374Y002910D01*
X010624Y002660D01*
X009624Y002660D02*
X009624Y002160D01*
X008624Y002160D02*
X008624Y002660D01*
X007624Y002660D02*
X007624Y002160D01*
X025174Y003010D02*
X025174Y004310D01*
X025176Y004336D01*
X025181Y004362D01*
X025189Y004387D01*
X025201Y004410D01*
X025215Y004432D01*
X025233Y004451D01*
X025252Y004469D01*
X025274Y004483D01*
X025297Y004495D01*
X025322Y004503D01*
X025348Y004508D01*
X025374Y004510D01*
X025624Y004160D02*
X025624Y003780D01*
X025624Y003530D02*
X025624Y003160D01*
X025374Y002810D02*
X025348Y002812D01*
X025322Y002817D01*
X025297Y002825D01*
X025274Y002837D01*
X025252Y002851D01*
X025233Y002869D01*
X025215Y002888D01*
X025201Y002910D01*
X025189Y002933D01*
X025181Y002958D01*
X025176Y002984D01*
X025174Y003010D01*
X025874Y002810D02*
X025900Y002812D01*
X025926Y002817D01*
X025951Y002825D01*
X025974Y002837D01*
X025996Y002851D01*
X026015Y002869D01*
X026033Y002888D01*
X026047Y002910D01*
X026059Y002933D01*
X026067Y002958D01*
X026072Y002984D01*
X026074Y003010D01*
X026074Y004310D01*
X026072Y004336D01*
X026067Y004362D01*
X026059Y004387D01*
X026047Y004410D01*
X026033Y004432D01*
X026015Y004451D01*
X025996Y004469D01*
X025974Y004483D01*
X025951Y004495D01*
X025926Y004503D01*
X025900Y004508D01*
X025874Y004510D01*
X027224Y002160D02*
X029474Y002160D01*
X029476Y002199D01*
X029482Y002238D01*
X029491Y002276D01*
X029504Y002313D01*
X029521Y002349D01*
X029541Y002382D01*
X029565Y002414D01*
X029591Y002443D01*
X029620Y002469D01*
X029652Y002493D01*
X029685Y002513D01*
X029721Y002530D01*
X029758Y002543D01*
X029796Y002552D01*
X029835Y002558D01*
X029874Y002560D01*
X029913Y002558D01*
X029952Y002552D01*
X029990Y002543D01*
X030027Y002530D01*
X030063Y002513D01*
X030096Y002493D01*
X030128Y002469D01*
X030157Y002443D01*
X030183Y002414D01*
X030207Y002382D01*
X030227Y002349D01*
X030244Y002313D01*
X030257Y002276D01*
X030266Y002238D01*
X030272Y002199D01*
X030274Y002160D01*
X032524Y002160D01*
X032524Y018160D01*
X027224Y018160D01*
X027224Y002160D01*
X030774Y008910D02*
X031474Y008910D01*
X031491Y008912D01*
X031508Y008916D01*
X031524Y008923D01*
X031538Y008933D01*
X031551Y008946D01*
X031561Y008960D01*
X031568Y008976D01*
X031572Y008993D01*
X031574Y009010D01*
X031574Y009160D01*
X031524Y009210D01*
X031524Y011110D01*
X031574Y011160D01*
X031574Y011310D01*
X031572Y011327D01*
X031568Y011344D01*
X031561Y011360D01*
X031551Y011374D01*
X031538Y011387D01*
X031524Y011397D01*
X031508Y011404D01*
X031491Y011408D01*
X031474Y011410D01*
X030774Y011410D01*
X030757Y011408D01*
X030740Y011404D01*
X030724Y011397D01*
X030710Y011387D01*
X030697Y011374D01*
X030687Y011360D01*
X030680Y011344D01*
X030676Y011327D01*
X030674Y011310D01*
X030674Y011160D01*
X030724Y011110D01*
X030724Y009210D01*
X030674Y009160D01*
X030674Y009010D01*
X030676Y008993D01*
X030680Y008976D01*
X030687Y008960D01*
X030697Y008946D01*
X030710Y008933D01*
X030724Y008923D01*
X030740Y008916D01*
X030757Y008912D01*
X030774Y008910D01*
X035024Y004210D02*
X035024Y018110D01*
X040224Y018110D01*
X040224Y004210D01*
X038124Y004210D01*
X038122Y004254D01*
X038116Y004297D01*
X038107Y004339D01*
X038094Y004381D01*
X038077Y004421D01*
X038057Y004460D01*
X038034Y004497D01*
X038007Y004531D01*
X037978Y004564D01*
X037945Y004593D01*
X037911Y004620D01*
X037874Y004643D01*
X037835Y004663D01*
X037795Y004680D01*
X037753Y004693D01*
X037711Y004702D01*
X037668Y004708D01*
X037624Y004710D01*
X037580Y004708D01*
X037537Y004702D01*
X037495Y004693D01*
X037453Y004680D01*
X037413Y004663D01*
X037374Y004643D01*
X037337Y004620D01*
X037303Y004593D01*
X037270Y004564D01*
X037241Y004531D01*
X037214Y004497D01*
X037191Y004460D01*
X037171Y004421D01*
X037154Y004381D01*
X037141Y004339D01*
X037132Y004297D01*
X037126Y004254D01*
X037124Y004210D01*
X035024Y004210D01*
X034974Y004160D02*
X035724Y004160D01*
X035726Y004199D01*
X035732Y004238D01*
X035741Y004276D01*
X035754Y004313D01*
X035771Y004349D01*
X035791Y004382D01*
X035815Y004414D01*
X035841Y004443D01*
X035870Y004469D01*
X035902Y004493D01*
X035935Y004513D01*
X035971Y004530D01*
X036008Y004543D01*
X036046Y004552D01*
X036085Y004558D01*
X036124Y004560D01*
X036163Y004558D01*
X036202Y004552D01*
X036240Y004543D01*
X036277Y004530D01*
X036313Y004513D01*
X036346Y004493D01*
X036378Y004469D01*
X036407Y004443D01*
X036433Y004414D01*
X036457Y004382D01*
X036477Y004349D01*
X036494Y004313D01*
X036507Y004276D01*
X036516Y004238D01*
X036522Y004199D01*
X036524Y004160D01*
X037274Y004160D01*
X037274Y018160D01*
X034974Y018160D01*
X034974Y004160D01*
X034724Y003610D02*
X036024Y003610D01*
X036050Y003608D01*
X036076Y003603D01*
X036101Y003595D01*
X036124Y003583D01*
X036146Y003569D01*
X036165Y003551D01*
X036183Y003532D01*
X036197Y003510D01*
X036209Y003487D01*
X036217Y003462D01*
X036222Y003436D01*
X036224Y003410D01*
X035874Y003160D02*
X035494Y003160D01*
X035244Y003160D02*
X034874Y003160D01*
X034524Y003410D02*
X034526Y003436D01*
X034531Y003462D01*
X034539Y003487D01*
X034551Y003510D01*
X034565Y003532D01*
X034583Y003551D01*
X034602Y003569D01*
X034624Y003583D01*
X034647Y003595D01*
X034672Y003603D01*
X034698Y003608D01*
X034724Y003610D01*
X034524Y002910D02*
X034526Y002884D01*
X034531Y002858D01*
X034539Y002833D01*
X034551Y002810D01*
X034565Y002788D01*
X034583Y002769D01*
X034602Y002751D01*
X034624Y002737D01*
X034647Y002725D01*
X034672Y002717D01*
X034698Y002712D01*
X034724Y002710D01*
X036024Y002710D01*
X036050Y002712D01*
X036076Y002717D01*
X036101Y002725D01*
X036124Y002737D01*
X036146Y002751D01*
X036165Y002769D01*
X036183Y002788D01*
X036197Y002810D01*
X036209Y002833D01*
X036217Y002858D01*
X036222Y002884D01*
X036224Y002910D01*
X038124Y002810D02*
X038124Y003510D01*
X038126Y003527D01*
X038130Y003544D01*
X038137Y003560D01*
X038147Y003574D01*
X038160Y003587D01*
X038174Y003597D01*
X038190Y003604D01*
X038207Y003608D01*
X038224Y003610D01*
X038374Y003610D01*
X038424Y003560D01*
X040324Y003560D01*
X040374Y003610D01*
X040524Y003610D01*
X040541Y003608D01*
X040558Y003604D01*
X040574Y003597D01*
X040588Y003587D01*
X040601Y003574D01*
X040611Y003560D01*
X040618Y003544D01*
X040622Y003527D01*
X040624Y003510D01*
X040624Y002810D01*
X040622Y002793D01*
X040618Y002776D01*
X040611Y002760D01*
X040601Y002746D01*
X040588Y002733D01*
X040574Y002723D01*
X040558Y002716D01*
X040541Y002712D01*
X040524Y002710D01*
X040374Y002710D01*
X040324Y002760D01*
X038424Y002760D01*
X038374Y002710D01*
X038224Y002710D01*
X038207Y002712D01*
X038190Y002716D01*
X038174Y002723D01*
X038160Y002733D01*
X038147Y002746D01*
X038137Y002760D01*
X038130Y002776D01*
X038126Y002793D01*
X038124Y002810D01*
X041524Y007660D02*
X042224Y007660D01*
X042241Y007662D01*
X042258Y007666D01*
X042274Y007673D01*
X042288Y007683D01*
X042301Y007696D01*
X042311Y007710D01*
X042318Y007726D01*
X042322Y007743D01*
X042324Y007760D01*
X042324Y007910D01*
X042274Y007960D01*
X042274Y009860D01*
X042324Y009910D01*
X042324Y010060D01*
X042322Y010077D01*
X042318Y010094D01*
X042311Y010110D01*
X042301Y010124D01*
X042288Y010137D01*
X042274Y010147D01*
X042258Y010154D01*
X042241Y010158D01*
X042224Y010160D01*
X041524Y010160D01*
X041507Y010158D01*
X041490Y010154D01*
X041474Y010147D01*
X041460Y010137D01*
X041447Y010124D01*
X041437Y010110D01*
X041430Y010094D01*
X041426Y010077D01*
X041424Y010060D01*
X041424Y009910D01*
X041474Y009860D01*
X041474Y007960D01*
X041424Y007910D01*
X041424Y007760D01*
X041426Y007743D01*
X041430Y007726D01*
X041437Y007710D01*
X041447Y007696D01*
X041460Y007683D01*
X041474Y007673D01*
X041490Y007666D01*
X041507Y007662D01*
X041524Y007660D01*
X039574Y009010D02*
X039574Y009160D01*
X039524Y009210D01*
X039524Y011110D01*
X039574Y011160D01*
X039574Y011310D01*
X039572Y011327D01*
X039568Y011344D01*
X039561Y011360D01*
X039551Y011374D01*
X039538Y011387D01*
X039524Y011397D01*
X039508Y011404D01*
X039491Y011408D01*
X039474Y011410D01*
X038774Y011410D01*
X038757Y011408D01*
X038740Y011404D01*
X038724Y011397D01*
X038710Y011387D01*
X038697Y011374D01*
X038687Y011360D01*
X038680Y011344D01*
X038676Y011327D01*
X038674Y011310D01*
X038674Y011160D01*
X038724Y011110D01*
X038724Y009210D01*
X038674Y009160D01*
X038674Y009010D01*
X038676Y008993D01*
X038680Y008976D01*
X038687Y008960D01*
X038697Y008946D01*
X038710Y008933D01*
X038724Y008923D01*
X038740Y008916D01*
X038757Y008912D01*
X038774Y008910D01*
X039474Y008910D01*
X039491Y008912D01*
X039508Y008916D01*
X039524Y008923D01*
X039538Y008933D01*
X039551Y008946D01*
X039561Y008960D01*
X039568Y008976D01*
X039572Y008993D01*
X039574Y009010D01*
X039324Y012660D02*
X038924Y012660D01*
X038898Y012662D01*
X038872Y012667D01*
X038847Y012675D01*
X038824Y012687D01*
X038802Y012701D01*
X038783Y012719D01*
X038765Y012738D01*
X038751Y012760D01*
X038739Y012783D01*
X038731Y012808D01*
X038726Y012834D01*
X038724Y012860D01*
X038724Y017460D01*
X038726Y017486D01*
X038731Y017512D01*
X038739Y017537D01*
X038751Y017560D01*
X038765Y017582D01*
X038783Y017601D01*
X038802Y017619D01*
X038824Y017633D01*
X038847Y017645D01*
X038872Y017653D01*
X038898Y017658D01*
X038924Y017660D01*
X039324Y017660D01*
X039350Y017658D01*
X039376Y017653D01*
X039401Y017645D01*
X039424Y017633D01*
X039446Y017619D01*
X039465Y017601D01*
X039483Y017582D01*
X039497Y017560D01*
X039509Y017537D01*
X039517Y017512D01*
X039522Y017486D01*
X039524Y017460D01*
X039524Y012860D01*
X039474Y012810D02*
X038774Y012810D01*
X038774Y013510D01*
X039474Y013510D01*
X039474Y012810D01*
X039524Y012860D02*
X039522Y012834D01*
X039517Y012808D01*
X039509Y012783D01*
X039497Y012760D01*
X039483Y012738D01*
X039465Y012719D01*
X039446Y012701D01*
X039424Y012687D01*
X039401Y012675D01*
X039376Y012667D01*
X039350Y012662D01*
X039324Y012660D01*
X025874Y019910D02*
X025624Y019660D01*
X025124Y019660D01*
X024874Y019910D01*
X024874Y020410D01*
X025124Y020660D01*
X024874Y020910D01*
X024874Y021410D01*
X025124Y021660D01*
X024874Y021910D01*
X024874Y022410D01*
X025124Y022660D01*
X025624Y022660D01*
X025874Y022410D01*
X025874Y021910D01*
X025624Y021660D01*
X025874Y021410D01*
X025874Y020910D01*
X025624Y020660D01*
X025874Y020410D01*
X025874Y019910D01*
X025624Y020660D02*
X025124Y020660D01*
X025124Y021660D02*
X025624Y021660D01*
X004224Y023660D02*
X004222Y023686D01*
X004217Y023712D01*
X004209Y023737D01*
X004197Y023760D01*
X004183Y023782D01*
X004165Y023801D01*
X004146Y023819D01*
X004124Y023833D01*
X004101Y023845D01*
X004076Y023853D01*
X004050Y023858D01*
X004024Y023860D01*
D13*
X002374Y017830D03*
X002374Y014990D03*
X019874Y016240D03*
X019874Y019080D03*
X031124Y011580D03*
X031124Y008740D03*
X039124Y008740D03*
X039124Y011580D03*
X041874Y010330D03*
X041874Y007490D03*
D14*
X002726Y006235D02*
X002499Y006235D01*
X002613Y006235D02*
X002613Y006575D01*
X002499Y006462D01*
X002874Y007660D02*
X011874Y007660D01*
X011874Y016660D01*
X002874Y016660D01*
X002874Y007660D01*
X003274Y008060D02*
X003274Y008460D01*
X004124Y008460D01*
X004124Y009310D01*
X004524Y008910D02*
X004524Y008060D01*
X003274Y008060D01*
X003274Y010010D02*
X003274Y010310D01*
X004124Y010310D01*
X004124Y010010D02*
X003274Y010010D01*
X003274Y011010D02*
X003274Y011310D01*
X004124Y011310D01*
X004124Y011010D02*
X003274Y011010D01*
X003274Y012010D02*
X003274Y012310D01*
X004124Y012310D01*
X004124Y012010D02*
X003274Y012010D01*
X003274Y013010D02*
X004124Y013010D01*
X004124Y013310D02*
X003274Y013310D01*
X003274Y013010D01*
X003274Y014010D02*
X004124Y014010D01*
X004124Y014310D02*
X003274Y014310D01*
X003274Y014010D01*
X004124Y014910D02*
X004624Y014910D01*
X004624Y015410D01*
X005224Y015410D02*
X005224Y016260D01*
X005524Y016260D01*
X005524Y015410D01*
X006224Y015410D02*
X006224Y016260D01*
X006524Y016260D01*
X006524Y015410D01*
X007224Y015410D02*
X007224Y016260D01*
X007524Y016260D01*
X007524Y015410D01*
X008224Y015410D02*
X008224Y016260D01*
X008524Y016260D01*
X008524Y015410D01*
X009224Y015410D02*
X009224Y016260D01*
X009524Y016260D01*
X009524Y015410D01*
X010224Y015410D02*
X010224Y016260D01*
X011074Y016260D01*
X011074Y015860D01*
X011474Y015860D01*
X011074Y015860D02*
X010624Y015860D01*
X010624Y015010D01*
X010624Y014310D02*
X011474Y014310D01*
X011474Y014010D01*
X010624Y014010D01*
X010624Y013310D02*
X011474Y013310D01*
X011474Y013010D01*
X010624Y013010D01*
X010624Y012310D02*
X011474Y012310D01*
X011474Y012010D01*
X010624Y012010D01*
X010624Y011310D02*
X011474Y011310D01*
X011474Y011010D01*
X010624Y011010D01*
X010624Y010310D02*
X011474Y010310D01*
X011474Y010010D01*
X010624Y010010D01*
X010624Y009510D02*
X010624Y008910D01*
X010024Y008910D01*
X009524Y008910D02*
X009524Y008060D01*
X009224Y008060D01*
X009224Y008910D01*
X008524Y008910D02*
X008524Y008060D01*
X008224Y008060D01*
X008224Y008910D01*
X007524Y008910D02*
X007524Y008060D01*
X007224Y008060D01*
X007224Y008910D01*
X006524Y008910D02*
X006524Y008060D01*
X006224Y008060D01*
X006224Y008910D01*
X005524Y008910D02*
X005524Y008060D01*
X005224Y008060D01*
X005224Y008910D01*
X005874Y011160D02*
X005876Y011204D01*
X005882Y011248D01*
X005892Y011291D01*
X005905Y011333D01*
X005922Y011374D01*
X005943Y011413D01*
X005967Y011450D01*
X005994Y011485D01*
X006024Y011517D01*
X006057Y011547D01*
X006093Y011573D01*
X006130Y011597D01*
X006170Y011616D01*
X006211Y011633D01*
X006254Y011645D01*
X006297Y011654D01*
X006341Y011659D01*
X006385Y011660D01*
X006429Y011657D01*
X006473Y011650D01*
X006516Y011639D01*
X006558Y011625D01*
X006598Y011607D01*
X006637Y011585D01*
X006673Y011561D01*
X006707Y011533D01*
X006739Y011502D01*
X006768Y011468D01*
X006794Y011432D01*
X006816Y011394D01*
X006835Y011354D01*
X006850Y011312D01*
X006862Y011270D01*
X006870Y011226D01*
X006874Y011182D01*
X006874Y011138D01*
X006870Y011094D01*
X006862Y011050D01*
X006850Y011008D01*
X006835Y010966D01*
X006816Y010926D01*
X006794Y010888D01*
X006768Y010852D01*
X006739Y010818D01*
X006707Y010787D01*
X006673Y010759D01*
X006637Y010735D01*
X006598Y010713D01*
X006558Y010695D01*
X006516Y010681D01*
X006473Y010670D01*
X006429Y010663D01*
X006385Y010660D01*
X006341Y010661D01*
X006297Y010666D01*
X006254Y010675D01*
X006211Y010687D01*
X006170Y010704D01*
X006130Y010723D01*
X006093Y010747D01*
X006057Y010773D01*
X006024Y010803D01*
X005994Y010835D01*
X005967Y010870D01*
X005943Y010907D01*
X005922Y010946D01*
X005905Y010987D01*
X005892Y011029D01*
X005882Y011072D01*
X005876Y011116D01*
X005874Y011160D01*
X005874Y013160D02*
X005876Y013204D01*
X005882Y013248D01*
X005892Y013291D01*
X005905Y013333D01*
X005922Y013374D01*
X005943Y013413D01*
X005967Y013450D01*
X005994Y013485D01*
X006024Y013517D01*
X006057Y013547D01*
X006093Y013573D01*
X006130Y013597D01*
X006170Y013616D01*
X006211Y013633D01*
X006254Y013645D01*
X006297Y013654D01*
X006341Y013659D01*
X006385Y013660D01*
X006429Y013657D01*
X006473Y013650D01*
X006516Y013639D01*
X006558Y013625D01*
X006598Y013607D01*
X006637Y013585D01*
X006673Y013561D01*
X006707Y013533D01*
X006739Y013502D01*
X006768Y013468D01*
X006794Y013432D01*
X006816Y013394D01*
X006835Y013354D01*
X006850Y013312D01*
X006862Y013270D01*
X006870Y013226D01*
X006874Y013182D01*
X006874Y013138D01*
X006870Y013094D01*
X006862Y013050D01*
X006850Y013008D01*
X006835Y012966D01*
X006816Y012926D01*
X006794Y012888D01*
X006768Y012852D01*
X006739Y012818D01*
X006707Y012787D01*
X006673Y012759D01*
X006637Y012735D01*
X006598Y012713D01*
X006558Y012695D01*
X006516Y012681D01*
X006473Y012670D01*
X006429Y012663D01*
X006385Y012660D01*
X006341Y012661D01*
X006297Y012666D01*
X006254Y012675D01*
X006211Y012687D01*
X006170Y012704D01*
X006130Y012723D01*
X006093Y012747D01*
X006057Y012773D01*
X006024Y012803D01*
X005994Y012835D01*
X005967Y012870D01*
X005943Y012907D01*
X005922Y012946D01*
X005905Y012987D01*
X005892Y013029D01*
X005882Y013072D01*
X005876Y013116D01*
X005874Y013160D01*
X007874Y013160D02*
X007876Y013204D01*
X007882Y013248D01*
X007892Y013291D01*
X007905Y013333D01*
X007922Y013374D01*
X007943Y013413D01*
X007967Y013450D01*
X007994Y013485D01*
X008024Y013517D01*
X008057Y013547D01*
X008093Y013573D01*
X008130Y013597D01*
X008170Y013616D01*
X008211Y013633D01*
X008254Y013645D01*
X008297Y013654D01*
X008341Y013659D01*
X008385Y013660D01*
X008429Y013657D01*
X008473Y013650D01*
X008516Y013639D01*
X008558Y013625D01*
X008598Y013607D01*
X008637Y013585D01*
X008673Y013561D01*
X008707Y013533D01*
X008739Y013502D01*
X008768Y013468D01*
X008794Y013432D01*
X008816Y013394D01*
X008835Y013354D01*
X008850Y013312D01*
X008862Y013270D01*
X008870Y013226D01*
X008874Y013182D01*
X008874Y013138D01*
X008870Y013094D01*
X008862Y013050D01*
X008850Y013008D01*
X008835Y012966D01*
X008816Y012926D01*
X008794Y012888D01*
X008768Y012852D01*
X008739Y012818D01*
X008707Y012787D01*
X008673Y012759D01*
X008637Y012735D01*
X008598Y012713D01*
X008558Y012695D01*
X008516Y012681D01*
X008473Y012670D01*
X008429Y012663D01*
X008385Y012660D01*
X008341Y012661D01*
X008297Y012666D01*
X008254Y012675D01*
X008211Y012687D01*
X008170Y012704D01*
X008130Y012723D01*
X008093Y012747D01*
X008057Y012773D01*
X008024Y012803D01*
X007994Y012835D01*
X007967Y012870D01*
X007943Y012907D01*
X007922Y012946D01*
X007905Y012987D01*
X007892Y013029D01*
X007882Y013072D01*
X007876Y013116D01*
X007874Y013160D01*
X007874Y011160D02*
X007876Y011204D01*
X007882Y011248D01*
X007892Y011291D01*
X007905Y011333D01*
X007922Y011374D01*
X007943Y011413D01*
X007967Y011450D01*
X007994Y011485D01*
X008024Y011517D01*
X008057Y011547D01*
X008093Y011573D01*
X008130Y011597D01*
X008170Y011616D01*
X008211Y011633D01*
X008254Y011645D01*
X008297Y011654D01*
X008341Y011659D01*
X008385Y011660D01*
X008429Y011657D01*
X008473Y011650D01*
X008516Y011639D01*
X008558Y011625D01*
X008598Y011607D01*
X008637Y011585D01*
X008673Y011561D01*
X008707Y011533D01*
X008739Y011502D01*
X008768Y011468D01*
X008794Y011432D01*
X008816Y011394D01*
X008835Y011354D01*
X008850Y011312D01*
X008862Y011270D01*
X008870Y011226D01*
X008874Y011182D01*
X008874Y011138D01*
X008870Y011094D01*
X008862Y011050D01*
X008850Y011008D01*
X008835Y010966D01*
X008816Y010926D01*
X008794Y010888D01*
X008768Y010852D01*
X008739Y010818D01*
X008707Y010787D01*
X008673Y010759D01*
X008637Y010735D01*
X008598Y010713D01*
X008558Y010695D01*
X008516Y010681D01*
X008473Y010670D01*
X008429Y010663D01*
X008385Y010660D01*
X008341Y010661D01*
X008297Y010666D01*
X008254Y010675D01*
X008211Y010687D01*
X008170Y010704D01*
X008130Y010723D01*
X008093Y010747D01*
X008057Y010773D01*
X008024Y010803D01*
X007994Y010835D01*
X007967Y010870D01*
X007943Y010907D01*
X007922Y010946D01*
X007905Y010987D01*
X007892Y011029D01*
X007882Y011072D01*
X007876Y011116D01*
X007874Y011160D01*
X013049Y014775D02*
X013276Y014775D01*
X013163Y014775D02*
X013163Y014435D01*
X013522Y014435D02*
X013522Y014775D01*
X013635Y014775D02*
X013408Y014775D01*
X016374Y038160D02*
X016374Y041660D01*
X016374Y043660D01*
X016874Y043660D01*
X016874Y045410D01*
X017874Y045410D01*
X017874Y043660D01*
X016874Y043660D01*
X017874Y043660D02*
X018374Y043660D01*
X018374Y041660D01*
X016374Y041660D01*
X018374Y041660D02*
X018374Y038160D01*
X016374Y038160D01*
X038959Y012398D02*
X039299Y012398D01*
X039299Y012285D02*
X039299Y012512D01*
X039072Y012285D02*
X038959Y012398D01*
D15*
X007624Y013910D02*
X007374Y013910D01*
X007374Y014160D01*
X007624Y014160D01*
X007624Y013910D01*
X007374Y013910D02*
X007124Y013910D01*
X007374Y014160D02*
X007374Y013410D01*
X007124Y020860D02*
X007124Y020960D01*
D16*
X007074Y023280D02*
X007374Y023280D01*
X007674Y023280D01*
X007674Y023530D02*
X007374Y023530D01*
X007074Y023530D01*
X010244Y025360D02*
X010244Y025660D01*
X010244Y025960D01*
X010494Y025960D02*
X010494Y025660D01*
X010494Y025360D01*
X013494Y025460D02*
X013494Y025160D01*
X013494Y024860D01*
X013744Y024860D02*
X013744Y025160D01*
X013744Y025460D01*
X019004Y031610D02*
X019004Y031910D01*
X019004Y032210D01*
X019254Y032210D02*
X019254Y031910D01*
X019254Y031610D01*
X009674Y033780D02*
X009374Y033780D01*
X009074Y033780D01*
X009074Y034030D02*
X009374Y034030D01*
X009674Y034030D01*
X003494Y035610D02*
X003494Y035910D01*
X003494Y036210D01*
X003244Y036210D02*
X003244Y035910D01*
X003244Y035610D01*
X003244Y023710D02*
X003244Y023410D01*
X003244Y023110D01*
X003494Y023110D02*
X003494Y023410D01*
X003494Y023710D01*
X004074Y018780D02*
X004374Y018780D01*
X004674Y018780D01*
X004674Y018530D02*
X004374Y018530D01*
X004074Y018530D01*
X013254Y014460D02*
X013254Y014160D01*
X013254Y013860D01*
X013504Y013860D02*
X013504Y014160D01*
X013504Y014460D01*
X025324Y003780D02*
X025624Y003780D01*
X025924Y003780D01*
X025924Y003530D02*
X025624Y003530D01*
X025324Y003530D01*
X035244Y003460D02*
X035244Y003160D01*
X035244Y002860D01*
X035494Y002860D02*
X035494Y003160D01*
X035494Y003460D01*
D17*
X011724Y003360D02*
X011724Y003660D01*
X011724Y003960D01*
X011524Y003960D02*
X011524Y003660D01*
X011524Y003360D01*
D18*
X011199Y022910D03*
X010949Y024410D03*
X013049Y026160D03*
X015199Y026160D03*
X008799Y024410D03*
X009049Y022910D03*
X007699Y035910D03*
X009049Y036660D03*
X011199Y036660D03*
X005549Y035910D03*
D19*
X005024Y024410D03*
D20*
X005399Y024410D03*
X003349Y024410D03*
D21*
X011624Y033760D03*
D22*
X011624Y033385D03*
X011624Y035435D03*
D23*
X017374Y036160D02*
X017374Y038285D01*
D24*
X013662Y012130D02*
X013683Y012085D01*
X013633Y012060D01*
X013585Y012032D01*
X013538Y012001D01*
X013493Y011968D01*
X013463Y012007D01*
X013462Y012007D01*
X013510Y012042D01*
X013559Y012074D01*
X013609Y012104D01*
X013662Y012130D01*
X013665Y012122D01*
X013614Y012096D01*
X013563Y012067D01*
X013515Y012035D01*
X013468Y012000D01*
X013474Y011993D01*
X013520Y012027D01*
X013568Y012059D01*
X013618Y012088D01*
X013669Y012114D01*
X013673Y012106D01*
X013622Y012080D01*
X013573Y012051D01*
X013525Y012020D01*
X013479Y011986D01*
X013485Y011979D01*
X013530Y012013D01*
X013578Y012044D01*
X013627Y012072D01*
X013677Y012098D01*
X013681Y012090D01*
X013631Y012064D01*
X013582Y012036D01*
X013535Y012005D01*
X013490Y011972D01*
X014586Y010190D02*
X014565Y010235D01*
X014621Y010263D01*
X014674Y010295D01*
X014726Y010330D01*
X014775Y010368D01*
X014822Y010409D01*
X014866Y010453D01*
X014908Y010500D01*
X014947Y010549D01*
X014982Y010600D01*
X015015Y010653D01*
X015044Y010708D01*
X015070Y010765D01*
X015092Y010823D01*
X015111Y010883D01*
X015126Y010943D01*
X015137Y011005D01*
X015145Y011067D01*
X015149Y011129D01*
X015149Y011191D01*
X015145Y011253D01*
X015137Y011315D01*
X015126Y011377D01*
X015111Y011437D01*
X015092Y011497D01*
X015070Y011555D01*
X015044Y011612D01*
X015015Y011667D01*
X014982Y011720D01*
X014947Y011771D01*
X014908Y011820D01*
X014866Y011867D01*
X014822Y011911D01*
X014775Y011952D01*
X014726Y011990D01*
X014674Y012025D01*
X014621Y012057D01*
X014565Y012085D01*
X014586Y012130D01*
X014643Y012101D01*
X014698Y012069D01*
X014751Y012033D01*
X014801Y011995D01*
X014850Y011953D01*
X014895Y011909D01*
X014938Y011862D01*
X014978Y011812D01*
X015016Y011761D01*
X015050Y011707D01*
X015080Y011651D01*
X015108Y011593D01*
X015132Y011534D01*
X015152Y011474D01*
X015169Y011412D01*
X015182Y011350D01*
X015191Y011287D01*
X015197Y011224D01*
X015199Y011160D01*
X015197Y011096D01*
X015191Y011033D01*
X015182Y010970D01*
X015169Y010908D01*
X015152Y010846D01*
X015132Y010786D01*
X015108Y010727D01*
X015080Y010669D01*
X015050Y010613D01*
X015016Y010559D01*
X014978Y010508D01*
X014938Y010458D01*
X014895Y010411D01*
X014850Y010367D01*
X014801Y010325D01*
X014751Y010287D01*
X014698Y010251D01*
X014643Y010219D01*
X014586Y010190D01*
X014583Y010198D01*
X014640Y010227D01*
X014696Y010260D01*
X014750Y010297D01*
X014801Y010337D01*
X014850Y010379D01*
X014896Y010425D01*
X014939Y010473D01*
X014980Y010524D01*
X015017Y010577D01*
X015050Y010633D01*
X015081Y010690D01*
X015108Y010749D01*
X015131Y010810D01*
X015150Y010872D01*
X015166Y010935D01*
X015178Y010998D01*
X015186Y011063D01*
X015190Y011128D01*
X015190Y011192D01*
X015186Y011257D01*
X015178Y011322D01*
X015166Y011385D01*
X015150Y011448D01*
X015131Y011510D01*
X015108Y011571D01*
X015081Y011630D01*
X015050Y011687D01*
X015017Y011743D01*
X014980Y011796D01*
X014939Y011847D01*
X014896Y011895D01*
X014850Y011941D01*
X014801Y011983D01*
X014750Y012023D01*
X014696Y012060D01*
X014640Y012093D01*
X014583Y012122D01*
X014579Y012114D01*
X014636Y012085D01*
X014691Y012052D01*
X014744Y012016D01*
X014795Y011976D01*
X014844Y011934D01*
X014890Y011889D01*
X014932Y011841D01*
X014972Y011791D01*
X015009Y011738D01*
X015043Y011683D01*
X015073Y011626D01*
X015099Y011567D01*
X015122Y011507D01*
X015142Y011446D01*
X015157Y011383D01*
X015169Y011320D01*
X015177Y011256D01*
X015181Y011192D01*
X015181Y011128D01*
X015177Y011064D01*
X015169Y011000D01*
X015157Y010937D01*
X015142Y010874D01*
X015122Y010813D01*
X015099Y010753D01*
X015073Y010694D01*
X015043Y010637D01*
X015009Y010582D01*
X014972Y010529D01*
X014932Y010479D01*
X014890Y010431D01*
X014844Y010386D01*
X014795Y010344D01*
X014744Y010304D01*
X014691Y010268D01*
X014636Y010235D01*
X014579Y010206D01*
X014575Y010214D01*
X014632Y010243D01*
X014686Y010276D01*
X014739Y010312D01*
X014790Y010351D01*
X014838Y010393D01*
X014883Y010437D01*
X014926Y010485D01*
X014965Y010535D01*
X015002Y010587D01*
X015035Y010642D01*
X015065Y010698D01*
X015091Y010756D01*
X015114Y010816D01*
X015133Y010877D01*
X015148Y010938D01*
X015160Y011001D01*
X015168Y011064D01*
X015172Y011128D01*
X015172Y011192D01*
X015168Y011256D01*
X015160Y011319D01*
X015148Y011382D01*
X015133Y011443D01*
X015114Y011504D01*
X015091Y011564D01*
X015065Y011622D01*
X015035Y011678D01*
X015002Y011733D01*
X014965Y011785D01*
X014926Y011835D01*
X014883Y011883D01*
X014838Y011927D01*
X014790Y011969D01*
X014739Y012008D01*
X014686Y012044D01*
X014632Y012077D01*
X014575Y012106D01*
X014571Y012098D01*
X014627Y012069D01*
X014682Y012037D01*
X014734Y012001D01*
X014784Y011962D01*
X014832Y011921D01*
X014877Y011876D01*
X014919Y011829D01*
X014958Y011780D01*
X014994Y011728D01*
X015027Y011674D01*
X015057Y011618D01*
X015083Y011560D01*
X015105Y011501D01*
X015124Y011441D01*
X015140Y011380D01*
X015151Y011317D01*
X015159Y011255D01*
X015163Y011192D01*
X015163Y011128D01*
X015159Y011065D01*
X015151Y011003D01*
X015140Y010940D01*
X015124Y010879D01*
X015105Y010819D01*
X015083Y010760D01*
X015057Y010702D01*
X015027Y010646D01*
X014994Y010592D01*
X014958Y010540D01*
X014919Y010491D01*
X014877Y010444D01*
X014832Y010399D01*
X014784Y010358D01*
X014734Y010319D01*
X014682Y010283D01*
X014627Y010251D01*
X014571Y010222D01*
X014567Y010230D01*
X014623Y010259D01*
X014677Y010291D01*
X014729Y010326D01*
X014778Y010364D01*
X014825Y010406D01*
X014870Y010450D01*
X014912Y010497D01*
X014951Y010546D01*
X014987Y010597D01*
X015019Y010651D01*
X015049Y010706D01*
X015074Y010763D01*
X015097Y010822D01*
X015116Y010881D01*
X015131Y010942D01*
X015142Y011004D01*
X015150Y011066D01*
X015154Y011129D01*
X015154Y011191D01*
X015150Y011254D01*
X015142Y011316D01*
X015131Y011378D01*
X015116Y011439D01*
X015097Y011498D01*
X015074Y011557D01*
X015049Y011614D01*
X015019Y011669D01*
X014987Y011723D01*
X014951Y011774D01*
X014912Y011823D01*
X014870Y011870D01*
X014825Y011914D01*
X014778Y011956D01*
X014729Y011994D01*
X014677Y012029D01*
X014623Y012061D01*
X014567Y012090D01*
X013463Y010313D02*
X013494Y010352D01*
X013493Y010352D02*
X013540Y010317D01*
X013589Y010286D01*
X013640Y010257D01*
X013692Y010230D01*
X013672Y010185D01*
X013671Y010185D01*
X013616Y010212D01*
X013563Y010243D01*
X013512Y010276D01*
X013462Y010313D01*
X013468Y010320D01*
X013517Y010284D01*
X013568Y010251D01*
X013621Y010220D01*
X013675Y010193D01*
X013679Y010201D01*
X013625Y010228D01*
X013573Y010258D01*
X013522Y010291D01*
X013474Y010327D01*
X013479Y010334D01*
X013527Y010298D01*
X013577Y010266D01*
X013629Y010236D01*
X013683Y010210D01*
X013686Y010218D01*
X013633Y010244D01*
X013582Y010274D01*
X013532Y010306D01*
X013485Y010341D01*
X013490Y010348D01*
X013538Y010313D01*
X013587Y010281D01*
X013638Y010252D01*
X013690Y010226D01*
D25*
X037954Y003160D03*
X040794Y003160D03*
M02*
